%TF.GenerationSoftware,KiCad,Pcbnew,9.0.7*%
%TF.CreationDate,2026-01-28T06:25:16-03:00*%
%TF.ProjectId,jammerBT_v4,6a616d6d-6572-4425-945f-76342e6b6963,rev?*%
%TF.SameCoordinates,Original*%
%TF.FileFunction,Legend,Top*%
%TF.FilePolarity,Positive*%
%FSLAX46Y46*%
G04 Gerber Fmt 4.6, Leading zero omitted, Abs format (unit mm)*
G04 Created by KiCad (PCBNEW 9.0.7) date 2026-01-28 06:25:16*
%MOMM*%
%LPD*%
G01*
G04 APERTURE LIST*
%ADD10C,0.150000*%
%ADD11C,0.187500*%
%ADD12C,0.300000*%
%ADD13C,0.200000*%
%ADD14C,0.152400*%
%ADD15C,0.120000*%
%ADD16C,0.254000*%
G04 APERTURE END LIST*
D10*
X199080000Y-54020000D02*
X217080000Y-54020000D01*
X217080000Y-126020000D01*
X199080000Y-126020000D01*
X199080000Y-54020000D01*
D11*
X206840964Y-112699502D02*
X206912392Y-112485216D01*
X206912392Y-112485216D02*
X206983821Y-112413787D01*
X206983821Y-112413787D02*
X207126678Y-112342359D01*
X207126678Y-112342359D02*
X207340964Y-112342359D01*
X207340964Y-112342359D02*
X207483821Y-112413787D01*
X207483821Y-112413787D02*
X207555250Y-112485216D01*
X207555250Y-112485216D02*
X207626678Y-112628073D01*
X207626678Y-112628073D02*
X207626678Y-113199502D01*
X207626678Y-113199502D02*
X206126678Y-113199502D01*
X206126678Y-113199502D02*
X206126678Y-112699502D01*
X206126678Y-112699502D02*
X206198107Y-112556645D01*
X206198107Y-112556645D02*
X206269535Y-112485216D01*
X206269535Y-112485216D02*
X206412392Y-112413787D01*
X206412392Y-112413787D02*
X206555250Y-112413787D01*
X206555250Y-112413787D02*
X206698107Y-112485216D01*
X206698107Y-112485216D02*
X206769535Y-112556645D01*
X206769535Y-112556645D02*
X206840964Y-112699502D01*
X206840964Y-112699502D02*
X206840964Y-113199502D01*
X207626678Y-111056645D02*
X206840964Y-111056645D01*
X206840964Y-111056645D02*
X206698107Y-111128073D01*
X206698107Y-111128073D02*
X206626678Y-111270930D01*
X206626678Y-111270930D02*
X206626678Y-111556645D01*
X206626678Y-111556645D02*
X206698107Y-111699502D01*
X207555250Y-111056645D02*
X207626678Y-111199502D01*
X207626678Y-111199502D02*
X207626678Y-111556645D01*
X207626678Y-111556645D02*
X207555250Y-111699502D01*
X207555250Y-111699502D02*
X207412392Y-111770930D01*
X207412392Y-111770930D02*
X207269535Y-111770930D01*
X207269535Y-111770930D02*
X207126678Y-111699502D01*
X207126678Y-111699502D02*
X207055250Y-111556645D01*
X207055250Y-111556645D02*
X207055250Y-111199502D01*
X207055250Y-111199502D02*
X206983821Y-111056645D01*
X206626678Y-110556644D02*
X206626678Y-109985216D01*
X206126678Y-110342359D02*
X207412392Y-110342359D01*
X207412392Y-110342359D02*
X207555250Y-110270930D01*
X207555250Y-110270930D02*
X207626678Y-110128073D01*
X207626678Y-110128073D02*
X207626678Y-109985216D01*
X206626678Y-109699501D02*
X206626678Y-109128073D01*
X206126678Y-109485216D02*
X207412392Y-109485216D01*
X207412392Y-109485216D02*
X207555250Y-109413787D01*
X207555250Y-109413787D02*
X207626678Y-109270930D01*
X207626678Y-109270930D02*
X207626678Y-109128073D01*
X207555250Y-108056644D02*
X207626678Y-108199501D01*
X207626678Y-108199501D02*
X207626678Y-108485216D01*
X207626678Y-108485216D02*
X207555250Y-108628073D01*
X207555250Y-108628073D02*
X207412392Y-108699501D01*
X207412392Y-108699501D02*
X206840964Y-108699501D01*
X206840964Y-108699501D02*
X206698107Y-108628073D01*
X206698107Y-108628073D02*
X206626678Y-108485216D01*
X206626678Y-108485216D02*
X206626678Y-108199501D01*
X206626678Y-108199501D02*
X206698107Y-108056644D01*
X206698107Y-108056644D02*
X206840964Y-107985216D01*
X206840964Y-107985216D02*
X206983821Y-107985216D01*
X206983821Y-107985216D02*
X207126678Y-108699501D01*
X207626678Y-107342359D02*
X206626678Y-107342359D01*
X206912392Y-107342359D02*
X206769535Y-107270930D01*
X206769535Y-107270930D02*
X206698107Y-107199502D01*
X206698107Y-107199502D02*
X206626678Y-107056644D01*
X206626678Y-107056644D02*
X206626678Y-106913787D01*
X206626678Y-106556645D02*
X207626678Y-106199502D01*
X206626678Y-105842359D02*
X207626678Y-106199502D01*
X207626678Y-106199502D02*
X207983821Y-106342359D01*
X207983821Y-106342359D02*
X208055250Y-106413788D01*
X208055250Y-106413788D02*
X208126678Y-106556645D01*
X207626678Y-104128074D02*
X206126678Y-104128074D01*
X207626678Y-103485217D02*
X206840964Y-103485217D01*
X206840964Y-103485217D02*
X206698107Y-103556645D01*
X206698107Y-103556645D02*
X206626678Y-103699502D01*
X206626678Y-103699502D02*
X206626678Y-103913788D01*
X206626678Y-103913788D02*
X206698107Y-104056645D01*
X206698107Y-104056645D02*
X206769535Y-104128074D01*
X207626678Y-102556645D02*
X207555250Y-102699502D01*
X207555250Y-102699502D02*
X207483821Y-102770931D01*
X207483821Y-102770931D02*
X207340964Y-102842359D01*
X207340964Y-102842359D02*
X206912392Y-102842359D01*
X206912392Y-102842359D02*
X206769535Y-102770931D01*
X206769535Y-102770931D02*
X206698107Y-102699502D01*
X206698107Y-102699502D02*
X206626678Y-102556645D01*
X206626678Y-102556645D02*
X206626678Y-102342359D01*
X206626678Y-102342359D02*
X206698107Y-102199502D01*
X206698107Y-102199502D02*
X206769535Y-102128074D01*
X206769535Y-102128074D02*
X206912392Y-102056645D01*
X206912392Y-102056645D02*
X207340964Y-102056645D01*
X207340964Y-102056645D02*
X207483821Y-102128074D01*
X207483821Y-102128074D02*
X207555250Y-102199502D01*
X207555250Y-102199502D02*
X207626678Y-102342359D01*
X207626678Y-102342359D02*
X207626678Y-102556645D01*
X207626678Y-101199502D02*
X207555250Y-101342359D01*
X207555250Y-101342359D02*
X207412392Y-101413788D01*
X207412392Y-101413788D02*
X206126678Y-101413788D01*
X207626678Y-99985217D02*
X206126678Y-99985217D01*
X207555250Y-99985217D02*
X207626678Y-100128074D01*
X207626678Y-100128074D02*
X207626678Y-100413788D01*
X207626678Y-100413788D02*
X207555250Y-100556645D01*
X207555250Y-100556645D02*
X207483821Y-100628074D01*
X207483821Y-100628074D02*
X207340964Y-100699502D01*
X207340964Y-100699502D02*
X206912392Y-100699502D01*
X206912392Y-100699502D02*
X206769535Y-100628074D01*
X206769535Y-100628074D02*
X206698107Y-100556645D01*
X206698107Y-100556645D02*
X206626678Y-100413788D01*
X206626678Y-100413788D02*
X206626678Y-100128074D01*
X206626678Y-100128074D02*
X206698107Y-99985217D01*
X207555250Y-98699502D02*
X207626678Y-98842359D01*
X207626678Y-98842359D02*
X207626678Y-99128074D01*
X207626678Y-99128074D02*
X207555250Y-99270931D01*
X207555250Y-99270931D02*
X207412392Y-99342359D01*
X207412392Y-99342359D02*
X206840964Y-99342359D01*
X206840964Y-99342359D02*
X206698107Y-99270931D01*
X206698107Y-99270931D02*
X206626678Y-99128074D01*
X206626678Y-99128074D02*
X206626678Y-98842359D01*
X206626678Y-98842359D02*
X206698107Y-98699502D01*
X206698107Y-98699502D02*
X206840964Y-98628074D01*
X206840964Y-98628074D02*
X206983821Y-98628074D01*
X206983821Y-98628074D02*
X207126678Y-99342359D01*
X207626678Y-97985217D02*
X206626678Y-97985217D01*
X206912392Y-97985217D02*
X206769535Y-97913788D01*
X206769535Y-97913788D02*
X206698107Y-97842360D01*
X206698107Y-97842360D02*
X206626678Y-97699502D01*
X206626678Y-97699502D02*
X206626678Y-97556645D01*
D10*
X138013095Y-58159104D02*
X138489285Y-58159104D01*
X137917857Y-58444819D02*
X138251190Y-57444819D01*
X138251190Y-57444819D02*
X138584523Y-58444819D01*
X138917857Y-57778152D02*
X138917857Y-58444819D01*
X138917857Y-57873390D02*
X138965476Y-57825771D01*
X138965476Y-57825771D02*
X139060714Y-57778152D01*
X139060714Y-57778152D02*
X139203571Y-57778152D01*
X139203571Y-57778152D02*
X139298809Y-57825771D01*
X139298809Y-57825771D02*
X139346428Y-57921009D01*
X139346428Y-57921009D02*
X139346428Y-58444819D01*
X139679762Y-57778152D02*
X140060714Y-57778152D01*
X139822619Y-57444819D02*
X139822619Y-58301961D01*
X139822619Y-58301961D02*
X139870238Y-58397200D01*
X139870238Y-58397200D02*
X139965476Y-58444819D01*
X139965476Y-58444819D02*
X140060714Y-58444819D01*
X140775000Y-58397200D02*
X140679762Y-58444819D01*
X140679762Y-58444819D02*
X140489286Y-58444819D01*
X140489286Y-58444819D02*
X140394048Y-58397200D01*
X140394048Y-58397200D02*
X140346429Y-58301961D01*
X140346429Y-58301961D02*
X140346429Y-57921009D01*
X140346429Y-57921009D02*
X140394048Y-57825771D01*
X140394048Y-57825771D02*
X140489286Y-57778152D01*
X140489286Y-57778152D02*
X140679762Y-57778152D01*
X140679762Y-57778152D02*
X140775000Y-57825771D01*
X140775000Y-57825771D02*
X140822619Y-57921009D01*
X140822619Y-57921009D02*
X140822619Y-58016247D01*
X140822619Y-58016247D02*
X140346429Y-58111485D01*
X141251191Y-57778152D02*
X141251191Y-58444819D01*
X141251191Y-57873390D02*
X141298810Y-57825771D01*
X141298810Y-57825771D02*
X141394048Y-57778152D01*
X141394048Y-57778152D02*
X141536905Y-57778152D01*
X141536905Y-57778152D02*
X141632143Y-57825771D01*
X141632143Y-57825771D02*
X141679762Y-57921009D01*
X141679762Y-57921009D02*
X141679762Y-58444819D01*
X142155953Y-57778152D02*
X142155953Y-58444819D01*
X142155953Y-57873390D02*
X142203572Y-57825771D01*
X142203572Y-57825771D02*
X142298810Y-57778152D01*
X142298810Y-57778152D02*
X142441667Y-57778152D01*
X142441667Y-57778152D02*
X142536905Y-57825771D01*
X142536905Y-57825771D02*
X142584524Y-57921009D01*
X142584524Y-57921009D02*
X142584524Y-58444819D01*
X143489286Y-58444819D02*
X143489286Y-57921009D01*
X143489286Y-57921009D02*
X143441667Y-57825771D01*
X143441667Y-57825771D02*
X143346429Y-57778152D01*
X143346429Y-57778152D02*
X143155953Y-57778152D01*
X143155953Y-57778152D02*
X143060715Y-57825771D01*
X143489286Y-58397200D02*
X143394048Y-58444819D01*
X143394048Y-58444819D02*
X143155953Y-58444819D01*
X143155953Y-58444819D02*
X143060715Y-58397200D01*
X143060715Y-58397200D02*
X143013096Y-58301961D01*
X143013096Y-58301961D02*
X143013096Y-58206723D01*
X143013096Y-58206723D02*
X143060715Y-58111485D01*
X143060715Y-58111485D02*
X143155953Y-58063866D01*
X143155953Y-58063866D02*
X143394048Y-58063866D01*
X143394048Y-58063866D02*
X143489286Y-58016247D01*
D12*
X181545114Y-94745489D02*
X181616542Y-94531203D01*
X181616542Y-94531203D02*
X181687971Y-94459774D01*
X181687971Y-94459774D02*
X181830828Y-94388346D01*
X181830828Y-94388346D02*
X182045114Y-94388346D01*
X182045114Y-94388346D02*
X182187971Y-94459774D01*
X182187971Y-94459774D02*
X182259400Y-94531203D01*
X182259400Y-94531203D02*
X182330828Y-94674060D01*
X182330828Y-94674060D02*
X182330828Y-95245489D01*
X182330828Y-95245489D02*
X180830828Y-95245489D01*
X180830828Y-95245489D02*
X180830828Y-94745489D01*
X180830828Y-94745489D02*
X180902257Y-94602632D01*
X180902257Y-94602632D02*
X180973685Y-94531203D01*
X180973685Y-94531203D02*
X181116542Y-94459774D01*
X181116542Y-94459774D02*
X181259400Y-94459774D01*
X181259400Y-94459774D02*
X181402257Y-94531203D01*
X181402257Y-94531203D02*
X181473685Y-94602632D01*
X181473685Y-94602632D02*
X181545114Y-94745489D01*
X181545114Y-94745489D02*
X181545114Y-95245489D01*
X180830828Y-93459774D02*
X180830828Y-93174060D01*
X180830828Y-93174060D02*
X180902257Y-93031203D01*
X180902257Y-93031203D02*
X181045114Y-92888346D01*
X181045114Y-92888346D02*
X181330828Y-92816917D01*
X181330828Y-92816917D02*
X181830828Y-92816917D01*
X181830828Y-92816917D02*
X182116542Y-92888346D01*
X182116542Y-92888346D02*
X182259400Y-93031203D01*
X182259400Y-93031203D02*
X182330828Y-93174060D01*
X182330828Y-93174060D02*
X182330828Y-93459774D01*
X182330828Y-93459774D02*
X182259400Y-93602632D01*
X182259400Y-93602632D02*
X182116542Y-93745489D01*
X182116542Y-93745489D02*
X181830828Y-93816917D01*
X181830828Y-93816917D02*
X181330828Y-93816917D01*
X181330828Y-93816917D02*
X181045114Y-93745489D01*
X181045114Y-93745489D02*
X180902257Y-93602632D01*
X180902257Y-93602632D02*
X180830828Y-93459774D01*
X180830828Y-91888345D02*
X180830828Y-91602631D01*
X180830828Y-91602631D02*
X180902257Y-91459774D01*
X180902257Y-91459774D02*
X181045114Y-91316917D01*
X181045114Y-91316917D02*
X181330828Y-91245488D01*
X181330828Y-91245488D02*
X181830828Y-91245488D01*
X181830828Y-91245488D02*
X182116542Y-91316917D01*
X182116542Y-91316917D02*
X182259400Y-91459774D01*
X182259400Y-91459774D02*
X182330828Y-91602631D01*
X182330828Y-91602631D02*
X182330828Y-91888345D01*
X182330828Y-91888345D02*
X182259400Y-92031203D01*
X182259400Y-92031203D02*
X182116542Y-92174060D01*
X182116542Y-92174060D02*
X181830828Y-92245488D01*
X181830828Y-92245488D02*
X181330828Y-92245488D01*
X181330828Y-92245488D02*
X181045114Y-92174060D01*
X181045114Y-92174060D02*
X180902257Y-92031203D01*
X180902257Y-92031203D02*
X180830828Y-91888345D01*
X180830828Y-90816916D02*
X180830828Y-89959774D01*
X182330828Y-90388345D02*
X180830828Y-90388345D01*
D13*
X189510952Y-78302219D02*
X189701428Y-78302219D01*
X189701428Y-78302219D02*
X189796666Y-78349838D01*
X189796666Y-78349838D02*
X189891904Y-78445076D01*
X189891904Y-78445076D02*
X189939523Y-78635552D01*
X189939523Y-78635552D02*
X189939523Y-78968885D01*
X189939523Y-78968885D02*
X189891904Y-79159361D01*
X189891904Y-79159361D02*
X189796666Y-79254600D01*
X189796666Y-79254600D02*
X189701428Y-79302219D01*
X189701428Y-79302219D02*
X189510952Y-79302219D01*
X189510952Y-79302219D02*
X189415714Y-79254600D01*
X189415714Y-79254600D02*
X189320476Y-79159361D01*
X189320476Y-79159361D02*
X189272857Y-78968885D01*
X189272857Y-78968885D02*
X189272857Y-78635552D01*
X189272857Y-78635552D02*
X189320476Y-78445076D01*
X189320476Y-78445076D02*
X189415714Y-78349838D01*
X189415714Y-78349838D02*
X189510952Y-78302219D01*
X190368095Y-79302219D02*
X190368095Y-78302219D01*
X190368095Y-78302219D02*
X190939523Y-79302219D01*
X190939523Y-79302219D02*
X190939523Y-78302219D01*
X189147619Y-83817219D02*
X189338095Y-83817219D01*
X189338095Y-83817219D02*
X189433333Y-83864838D01*
X189433333Y-83864838D02*
X189528571Y-83960076D01*
X189528571Y-83960076D02*
X189576190Y-84150552D01*
X189576190Y-84150552D02*
X189576190Y-84483885D01*
X189576190Y-84483885D02*
X189528571Y-84674361D01*
X189528571Y-84674361D02*
X189433333Y-84769600D01*
X189433333Y-84769600D02*
X189338095Y-84817219D01*
X189338095Y-84817219D02*
X189147619Y-84817219D01*
X189147619Y-84817219D02*
X189052381Y-84769600D01*
X189052381Y-84769600D02*
X188957143Y-84674361D01*
X188957143Y-84674361D02*
X188909524Y-84483885D01*
X188909524Y-84483885D02*
X188909524Y-84150552D01*
X188909524Y-84150552D02*
X188957143Y-83960076D01*
X188957143Y-83960076D02*
X189052381Y-83864838D01*
X189052381Y-83864838D02*
X189147619Y-83817219D01*
X190338095Y-84293409D02*
X190004762Y-84293409D01*
X190004762Y-84817219D02*
X190004762Y-83817219D01*
X190004762Y-83817219D02*
X190480952Y-83817219D01*
X191195238Y-84293409D02*
X190861905Y-84293409D01*
X190861905Y-84817219D02*
X190861905Y-83817219D01*
X190861905Y-83817219D02*
X191338095Y-83817219D01*
D12*
X182330828Y-103818346D02*
X181616542Y-104318346D01*
X182330828Y-104675489D02*
X180830828Y-104675489D01*
X180830828Y-104675489D02*
X180830828Y-104104060D01*
X180830828Y-104104060D02*
X180902257Y-103961203D01*
X180902257Y-103961203D02*
X180973685Y-103889774D01*
X180973685Y-103889774D02*
X181116542Y-103818346D01*
X181116542Y-103818346D02*
X181330828Y-103818346D01*
X181330828Y-103818346D02*
X181473685Y-103889774D01*
X181473685Y-103889774D02*
X181545114Y-103961203D01*
X181545114Y-103961203D02*
X181616542Y-104104060D01*
X181616542Y-104104060D02*
X181616542Y-104675489D01*
X181545114Y-103175489D02*
X181545114Y-102675489D01*
X182330828Y-102461203D02*
X182330828Y-103175489D01*
X182330828Y-103175489D02*
X180830828Y-103175489D01*
X180830828Y-103175489D02*
X180830828Y-102461203D01*
X182259400Y-101889774D02*
X182330828Y-101675489D01*
X182330828Y-101675489D02*
X182330828Y-101318346D01*
X182330828Y-101318346D02*
X182259400Y-101175489D01*
X182259400Y-101175489D02*
X182187971Y-101104060D01*
X182187971Y-101104060D02*
X182045114Y-101032631D01*
X182045114Y-101032631D02*
X181902257Y-101032631D01*
X181902257Y-101032631D02*
X181759400Y-101104060D01*
X181759400Y-101104060D02*
X181687971Y-101175489D01*
X181687971Y-101175489D02*
X181616542Y-101318346D01*
X181616542Y-101318346D02*
X181545114Y-101604060D01*
X181545114Y-101604060D02*
X181473685Y-101746917D01*
X181473685Y-101746917D02*
X181402257Y-101818346D01*
X181402257Y-101818346D02*
X181259400Y-101889774D01*
X181259400Y-101889774D02*
X181116542Y-101889774D01*
X181116542Y-101889774D02*
X180973685Y-101818346D01*
X180973685Y-101818346D02*
X180902257Y-101746917D01*
X180902257Y-101746917D02*
X180830828Y-101604060D01*
X180830828Y-101604060D02*
X180830828Y-101246917D01*
X180830828Y-101246917D02*
X180902257Y-101032631D01*
X181545114Y-100389775D02*
X181545114Y-99889775D01*
X182330828Y-99675489D02*
X182330828Y-100389775D01*
X182330828Y-100389775D02*
X180830828Y-100389775D01*
X180830828Y-100389775D02*
X180830828Y-99675489D01*
X180830828Y-99246917D02*
X180830828Y-98389775D01*
X182330828Y-98818346D02*
X180830828Y-98818346D01*
X182330828Y-114955489D02*
X180830828Y-114955489D01*
X180830828Y-114955489D02*
X181902257Y-114455489D01*
X181902257Y-114455489D02*
X180830828Y-113955489D01*
X180830828Y-113955489D02*
X182330828Y-113955489D01*
X180830828Y-112955488D02*
X180830828Y-112669774D01*
X180830828Y-112669774D02*
X180902257Y-112526917D01*
X180902257Y-112526917D02*
X181045114Y-112384060D01*
X181045114Y-112384060D02*
X181330828Y-112312631D01*
X181330828Y-112312631D02*
X181830828Y-112312631D01*
X181830828Y-112312631D02*
X182116542Y-112384060D01*
X182116542Y-112384060D02*
X182259400Y-112526917D01*
X182259400Y-112526917D02*
X182330828Y-112669774D01*
X182330828Y-112669774D02*
X182330828Y-112955488D01*
X182330828Y-112955488D02*
X182259400Y-113098346D01*
X182259400Y-113098346D02*
X182116542Y-113241203D01*
X182116542Y-113241203D02*
X181830828Y-113312631D01*
X181830828Y-113312631D02*
X181330828Y-113312631D01*
X181330828Y-113312631D02*
X181045114Y-113241203D01*
X181045114Y-113241203D02*
X180902257Y-113098346D01*
X180902257Y-113098346D02*
X180830828Y-112955488D01*
X182330828Y-111669774D02*
X180830828Y-111669774D01*
X180830828Y-111669774D02*
X180830828Y-111312631D01*
X180830828Y-111312631D02*
X180902257Y-111098345D01*
X180902257Y-111098345D02*
X181045114Y-110955488D01*
X181045114Y-110955488D02*
X181187971Y-110884059D01*
X181187971Y-110884059D02*
X181473685Y-110812631D01*
X181473685Y-110812631D02*
X181687971Y-110812631D01*
X181687971Y-110812631D02*
X181973685Y-110884059D01*
X181973685Y-110884059D02*
X182116542Y-110955488D01*
X182116542Y-110955488D02*
X182259400Y-111098345D01*
X182259400Y-111098345D02*
X182330828Y-111312631D01*
X182330828Y-111312631D02*
X182330828Y-111669774D01*
X181545114Y-110169774D02*
X181545114Y-109669774D01*
X182330828Y-109455488D02*
X182330828Y-110169774D01*
X182330828Y-110169774D02*
X180830828Y-110169774D01*
X180830828Y-110169774D02*
X180830828Y-109455488D01*
D10*
X183743095Y-58089104D02*
X184219285Y-58089104D01*
X183647857Y-58374819D02*
X183981190Y-57374819D01*
X183981190Y-57374819D02*
X184314523Y-58374819D01*
X184647857Y-57708152D02*
X184647857Y-58374819D01*
X184647857Y-57803390D02*
X184695476Y-57755771D01*
X184695476Y-57755771D02*
X184790714Y-57708152D01*
X184790714Y-57708152D02*
X184933571Y-57708152D01*
X184933571Y-57708152D02*
X185028809Y-57755771D01*
X185028809Y-57755771D02*
X185076428Y-57851009D01*
X185076428Y-57851009D02*
X185076428Y-58374819D01*
X185409762Y-57708152D02*
X185790714Y-57708152D01*
X185552619Y-57374819D02*
X185552619Y-58231961D01*
X185552619Y-58231961D02*
X185600238Y-58327200D01*
X185600238Y-58327200D02*
X185695476Y-58374819D01*
X185695476Y-58374819D02*
X185790714Y-58374819D01*
X186505000Y-58327200D02*
X186409762Y-58374819D01*
X186409762Y-58374819D02*
X186219286Y-58374819D01*
X186219286Y-58374819D02*
X186124048Y-58327200D01*
X186124048Y-58327200D02*
X186076429Y-58231961D01*
X186076429Y-58231961D02*
X186076429Y-57851009D01*
X186076429Y-57851009D02*
X186124048Y-57755771D01*
X186124048Y-57755771D02*
X186219286Y-57708152D01*
X186219286Y-57708152D02*
X186409762Y-57708152D01*
X186409762Y-57708152D02*
X186505000Y-57755771D01*
X186505000Y-57755771D02*
X186552619Y-57851009D01*
X186552619Y-57851009D02*
X186552619Y-57946247D01*
X186552619Y-57946247D02*
X186076429Y-58041485D01*
X186981191Y-57708152D02*
X186981191Y-58374819D01*
X186981191Y-57803390D02*
X187028810Y-57755771D01*
X187028810Y-57755771D02*
X187124048Y-57708152D01*
X187124048Y-57708152D02*
X187266905Y-57708152D01*
X187266905Y-57708152D02*
X187362143Y-57755771D01*
X187362143Y-57755771D02*
X187409762Y-57851009D01*
X187409762Y-57851009D02*
X187409762Y-58374819D01*
X187885953Y-57708152D02*
X187885953Y-58374819D01*
X187885953Y-57803390D02*
X187933572Y-57755771D01*
X187933572Y-57755771D02*
X188028810Y-57708152D01*
X188028810Y-57708152D02*
X188171667Y-57708152D01*
X188171667Y-57708152D02*
X188266905Y-57755771D01*
X188266905Y-57755771D02*
X188314524Y-57851009D01*
X188314524Y-57851009D02*
X188314524Y-58374819D01*
X189219286Y-58374819D02*
X189219286Y-57851009D01*
X189219286Y-57851009D02*
X189171667Y-57755771D01*
X189171667Y-57755771D02*
X189076429Y-57708152D01*
X189076429Y-57708152D02*
X188885953Y-57708152D01*
X188885953Y-57708152D02*
X188790715Y-57755771D01*
X189219286Y-58327200D02*
X189124048Y-58374819D01*
X189124048Y-58374819D02*
X188885953Y-58374819D01*
X188885953Y-58374819D02*
X188790715Y-58327200D01*
X188790715Y-58327200D02*
X188743096Y-58231961D01*
X188743096Y-58231961D02*
X188743096Y-58136723D01*
X188743096Y-58136723D02*
X188790715Y-58041485D01*
X188790715Y-58041485D02*
X188885953Y-57993866D01*
X188885953Y-57993866D02*
X189124048Y-57993866D01*
X189124048Y-57993866D02*
X189219286Y-57946247D01*
X207318095Y-94274819D02*
X207318095Y-93274819D01*
X207318095Y-93751009D02*
X207889523Y-93751009D01*
X207889523Y-94274819D02*
X207889523Y-93274819D01*
X208889523Y-94274819D02*
X208318095Y-94274819D01*
X208603809Y-94274819D02*
X208603809Y-93274819D01*
X208603809Y-93274819D02*
X208508571Y-93417676D01*
X208508571Y-93417676D02*
X208413333Y-93512914D01*
X208413333Y-93512914D02*
X208318095Y-93560533D01*
X143429819Y-124162857D02*
X142953628Y-124496190D01*
X143429819Y-124734285D02*
X142429819Y-124734285D01*
X142429819Y-124734285D02*
X142429819Y-124353333D01*
X142429819Y-124353333D02*
X142477438Y-124258095D01*
X142477438Y-124258095D02*
X142525057Y-124210476D01*
X142525057Y-124210476D02*
X142620295Y-124162857D01*
X142620295Y-124162857D02*
X142763152Y-124162857D01*
X142763152Y-124162857D02*
X142858390Y-124210476D01*
X142858390Y-124210476D02*
X142906009Y-124258095D01*
X142906009Y-124258095D02*
X142953628Y-124353333D01*
X142953628Y-124353333D02*
X142953628Y-124734285D01*
X143429819Y-123210476D02*
X143429819Y-123781904D01*
X143429819Y-123496190D02*
X142429819Y-123496190D01*
X142429819Y-123496190D02*
X142572676Y-123591428D01*
X142572676Y-123591428D02*
X142667914Y-123686666D01*
X142667914Y-123686666D02*
X142715533Y-123781904D01*
X142429819Y-122591428D02*
X142429819Y-122496190D01*
X142429819Y-122496190D02*
X142477438Y-122400952D01*
X142477438Y-122400952D02*
X142525057Y-122353333D01*
X142525057Y-122353333D02*
X142620295Y-122305714D01*
X142620295Y-122305714D02*
X142810771Y-122258095D01*
X142810771Y-122258095D02*
X143048866Y-122258095D01*
X143048866Y-122258095D02*
X143239342Y-122305714D01*
X143239342Y-122305714D02*
X143334580Y-122353333D01*
X143334580Y-122353333D02*
X143382200Y-122400952D01*
X143382200Y-122400952D02*
X143429819Y-122496190D01*
X143429819Y-122496190D02*
X143429819Y-122591428D01*
X143429819Y-122591428D02*
X143382200Y-122686666D01*
X143382200Y-122686666D02*
X143334580Y-122734285D01*
X143334580Y-122734285D02*
X143239342Y-122781904D01*
X143239342Y-122781904D02*
X143048866Y-122829523D01*
X143048866Y-122829523D02*
X142810771Y-122829523D01*
X142810771Y-122829523D02*
X142620295Y-122781904D01*
X142620295Y-122781904D02*
X142525057Y-122734285D01*
X142525057Y-122734285D02*
X142477438Y-122686666D01*
X142477438Y-122686666D02*
X142429819Y-122591428D01*
X172479819Y-89191904D02*
X173289342Y-89191904D01*
X173289342Y-89191904D02*
X173384580Y-89144285D01*
X173384580Y-89144285D02*
X173432200Y-89096666D01*
X173432200Y-89096666D02*
X173479819Y-89001428D01*
X173479819Y-89001428D02*
X173479819Y-88810952D01*
X173479819Y-88810952D02*
X173432200Y-88715714D01*
X173432200Y-88715714D02*
X173384580Y-88668095D01*
X173384580Y-88668095D02*
X173289342Y-88620476D01*
X173289342Y-88620476D02*
X172479819Y-88620476D01*
X172813152Y-87715714D02*
X173479819Y-87715714D01*
X172432200Y-87953809D02*
X173146485Y-88191904D01*
X173146485Y-88191904D02*
X173146485Y-87572857D01*
X171103333Y-110449580D02*
X171055714Y-110497200D01*
X171055714Y-110497200D02*
X170912857Y-110544819D01*
X170912857Y-110544819D02*
X170817619Y-110544819D01*
X170817619Y-110544819D02*
X170674762Y-110497200D01*
X170674762Y-110497200D02*
X170579524Y-110401961D01*
X170579524Y-110401961D02*
X170531905Y-110306723D01*
X170531905Y-110306723D02*
X170484286Y-110116247D01*
X170484286Y-110116247D02*
X170484286Y-109973390D01*
X170484286Y-109973390D02*
X170531905Y-109782914D01*
X170531905Y-109782914D02*
X170579524Y-109687676D01*
X170579524Y-109687676D02*
X170674762Y-109592438D01*
X170674762Y-109592438D02*
X170817619Y-109544819D01*
X170817619Y-109544819D02*
X170912857Y-109544819D01*
X170912857Y-109544819D02*
X171055714Y-109592438D01*
X171055714Y-109592438D02*
X171103333Y-109640057D01*
X171579524Y-110544819D02*
X171770000Y-110544819D01*
X171770000Y-110544819D02*
X171865238Y-110497200D01*
X171865238Y-110497200D02*
X171912857Y-110449580D01*
X171912857Y-110449580D02*
X172008095Y-110306723D01*
X172008095Y-110306723D02*
X172055714Y-110116247D01*
X172055714Y-110116247D02*
X172055714Y-109735295D01*
X172055714Y-109735295D02*
X172008095Y-109640057D01*
X172008095Y-109640057D02*
X171960476Y-109592438D01*
X171960476Y-109592438D02*
X171865238Y-109544819D01*
X171865238Y-109544819D02*
X171674762Y-109544819D01*
X171674762Y-109544819D02*
X171579524Y-109592438D01*
X171579524Y-109592438D02*
X171531905Y-109640057D01*
X171531905Y-109640057D02*
X171484286Y-109735295D01*
X171484286Y-109735295D02*
X171484286Y-109973390D01*
X171484286Y-109973390D02*
X171531905Y-110068628D01*
X171531905Y-110068628D02*
X171579524Y-110116247D01*
X171579524Y-110116247D02*
X171674762Y-110163866D01*
X171674762Y-110163866D02*
X171865238Y-110163866D01*
X171865238Y-110163866D02*
X171960476Y-110116247D01*
X171960476Y-110116247D02*
X172008095Y-110068628D01*
X172008095Y-110068628D02*
X172055714Y-109973390D01*
X186491667Y-116717200D02*
X186634524Y-116764819D01*
X186634524Y-116764819D02*
X186872619Y-116764819D01*
X186872619Y-116764819D02*
X186967857Y-116717200D01*
X186967857Y-116717200D02*
X187015476Y-116669580D01*
X187015476Y-116669580D02*
X187063095Y-116574342D01*
X187063095Y-116574342D02*
X187063095Y-116479104D01*
X187063095Y-116479104D02*
X187015476Y-116383866D01*
X187015476Y-116383866D02*
X186967857Y-116336247D01*
X186967857Y-116336247D02*
X186872619Y-116288628D01*
X186872619Y-116288628D02*
X186682143Y-116241009D01*
X186682143Y-116241009D02*
X186586905Y-116193390D01*
X186586905Y-116193390D02*
X186539286Y-116145771D01*
X186539286Y-116145771D02*
X186491667Y-116050533D01*
X186491667Y-116050533D02*
X186491667Y-115955295D01*
X186491667Y-115955295D02*
X186539286Y-115860057D01*
X186539286Y-115860057D02*
X186586905Y-115812438D01*
X186586905Y-115812438D02*
X186682143Y-115764819D01*
X186682143Y-115764819D02*
X186920238Y-115764819D01*
X186920238Y-115764819D02*
X187063095Y-115812438D01*
X187396429Y-115764819D02*
X187634524Y-116764819D01*
X187634524Y-116764819D02*
X187825000Y-116050533D01*
X187825000Y-116050533D02*
X188015476Y-116764819D01*
X188015476Y-116764819D02*
X188253572Y-115764819D01*
X188586905Y-115860057D02*
X188634524Y-115812438D01*
X188634524Y-115812438D02*
X188729762Y-115764819D01*
X188729762Y-115764819D02*
X188967857Y-115764819D01*
X188967857Y-115764819D02*
X189063095Y-115812438D01*
X189063095Y-115812438D02*
X189110714Y-115860057D01*
X189110714Y-115860057D02*
X189158333Y-115955295D01*
X189158333Y-115955295D02*
X189158333Y-116050533D01*
X189158333Y-116050533D02*
X189110714Y-116193390D01*
X189110714Y-116193390D02*
X188539286Y-116764819D01*
X188539286Y-116764819D02*
X189158333Y-116764819D01*
X164793333Y-86029580D02*
X164745714Y-86077200D01*
X164745714Y-86077200D02*
X164602857Y-86124819D01*
X164602857Y-86124819D02*
X164507619Y-86124819D01*
X164507619Y-86124819D02*
X164364762Y-86077200D01*
X164364762Y-86077200D02*
X164269524Y-85981961D01*
X164269524Y-85981961D02*
X164221905Y-85886723D01*
X164221905Y-85886723D02*
X164174286Y-85696247D01*
X164174286Y-85696247D02*
X164174286Y-85553390D01*
X164174286Y-85553390D02*
X164221905Y-85362914D01*
X164221905Y-85362914D02*
X164269524Y-85267676D01*
X164269524Y-85267676D02*
X164364762Y-85172438D01*
X164364762Y-85172438D02*
X164507619Y-85124819D01*
X164507619Y-85124819D02*
X164602857Y-85124819D01*
X164602857Y-85124819D02*
X164745714Y-85172438D01*
X164745714Y-85172438D02*
X164793333Y-85220057D01*
X165650476Y-85124819D02*
X165460000Y-85124819D01*
X165460000Y-85124819D02*
X165364762Y-85172438D01*
X165364762Y-85172438D02*
X165317143Y-85220057D01*
X165317143Y-85220057D02*
X165221905Y-85362914D01*
X165221905Y-85362914D02*
X165174286Y-85553390D01*
X165174286Y-85553390D02*
X165174286Y-85934342D01*
X165174286Y-85934342D02*
X165221905Y-86029580D01*
X165221905Y-86029580D02*
X165269524Y-86077200D01*
X165269524Y-86077200D02*
X165364762Y-86124819D01*
X165364762Y-86124819D02*
X165555238Y-86124819D01*
X165555238Y-86124819D02*
X165650476Y-86077200D01*
X165650476Y-86077200D02*
X165698095Y-86029580D01*
X165698095Y-86029580D02*
X165745714Y-85934342D01*
X165745714Y-85934342D02*
X165745714Y-85696247D01*
X165745714Y-85696247D02*
X165698095Y-85601009D01*
X165698095Y-85601009D02*
X165650476Y-85553390D01*
X165650476Y-85553390D02*
X165555238Y-85505771D01*
X165555238Y-85505771D02*
X165364762Y-85505771D01*
X165364762Y-85505771D02*
X165269524Y-85553390D01*
X165269524Y-85553390D02*
X165221905Y-85601009D01*
X165221905Y-85601009D02*
X165174286Y-85696247D01*
X135049819Y-54265833D02*
X135764104Y-54265833D01*
X135764104Y-54265833D02*
X135906961Y-54313452D01*
X135906961Y-54313452D02*
X136002200Y-54408690D01*
X136002200Y-54408690D02*
X136049819Y-54551547D01*
X136049819Y-54551547D02*
X136049819Y-54646785D01*
X135383152Y-53361071D02*
X136049819Y-53361071D01*
X135002200Y-53599166D02*
X135716485Y-53837261D01*
X135716485Y-53837261D02*
X135716485Y-53218214D01*
X136640892Y-117034819D02*
X136307559Y-116558628D01*
X136069464Y-117034819D02*
X136069464Y-116034819D01*
X136069464Y-116034819D02*
X136450416Y-116034819D01*
X136450416Y-116034819D02*
X136545654Y-116082438D01*
X136545654Y-116082438D02*
X136593273Y-116130057D01*
X136593273Y-116130057D02*
X136640892Y-116225295D01*
X136640892Y-116225295D02*
X136640892Y-116368152D01*
X136640892Y-116368152D02*
X136593273Y-116463390D01*
X136593273Y-116463390D02*
X136545654Y-116511009D01*
X136545654Y-116511009D02*
X136450416Y-116558628D01*
X136450416Y-116558628D02*
X136069464Y-116558628D01*
X137593273Y-117034819D02*
X137021845Y-117034819D01*
X137307559Y-117034819D02*
X137307559Y-116034819D01*
X137307559Y-116034819D02*
X137212321Y-116177676D01*
X137212321Y-116177676D02*
X137117083Y-116272914D01*
X137117083Y-116272914D02*
X137021845Y-116320533D01*
X137974226Y-116130057D02*
X138021845Y-116082438D01*
X138021845Y-116082438D02*
X138117083Y-116034819D01*
X138117083Y-116034819D02*
X138355178Y-116034819D01*
X138355178Y-116034819D02*
X138450416Y-116082438D01*
X138450416Y-116082438D02*
X138498035Y-116130057D01*
X138498035Y-116130057D02*
X138545654Y-116225295D01*
X138545654Y-116225295D02*
X138545654Y-116320533D01*
X138545654Y-116320533D02*
X138498035Y-116463390D01*
X138498035Y-116463390D02*
X137926607Y-117034819D01*
X137926607Y-117034819D02*
X138545654Y-117034819D01*
X180569819Y-54265833D02*
X181284104Y-54265833D01*
X181284104Y-54265833D02*
X181426961Y-54313452D01*
X181426961Y-54313452D02*
X181522200Y-54408690D01*
X181522200Y-54408690D02*
X181569819Y-54551547D01*
X181569819Y-54551547D02*
X181569819Y-54646785D01*
X180569819Y-53313452D02*
X180569819Y-53789642D01*
X180569819Y-53789642D02*
X181046009Y-53837261D01*
X181046009Y-53837261D02*
X180998390Y-53789642D01*
X180998390Y-53789642D02*
X180950771Y-53694404D01*
X180950771Y-53694404D02*
X180950771Y-53456309D01*
X180950771Y-53456309D02*
X180998390Y-53361071D01*
X180998390Y-53361071D02*
X181046009Y-53313452D01*
X181046009Y-53313452D02*
X181141247Y-53265833D01*
X181141247Y-53265833D02*
X181379342Y-53265833D01*
X181379342Y-53265833D02*
X181474580Y-53313452D01*
X181474580Y-53313452D02*
X181522200Y-53361071D01*
X181522200Y-53361071D02*
X181569819Y-53456309D01*
X181569819Y-53456309D02*
X181569819Y-53694404D01*
X181569819Y-53694404D02*
X181522200Y-53789642D01*
X181522200Y-53789642D02*
X181474580Y-53837261D01*
X186551667Y-97437200D02*
X186694524Y-97484819D01*
X186694524Y-97484819D02*
X186932619Y-97484819D01*
X186932619Y-97484819D02*
X187027857Y-97437200D01*
X187027857Y-97437200D02*
X187075476Y-97389580D01*
X187075476Y-97389580D02*
X187123095Y-97294342D01*
X187123095Y-97294342D02*
X187123095Y-97199104D01*
X187123095Y-97199104D02*
X187075476Y-97103866D01*
X187075476Y-97103866D02*
X187027857Y-97056247D01*
X187027857Y-97056247D02*
X186932619Y-97008628D01*
X186932619Y-97008628D02*
X186742143Y-96961009D01*
X186742143Y-96961009D02*
X186646905Y-96913390D01*
X186646905Y-96913390D02*
X186599286Y-96865771D01*
X186599286Y-96865771D02*
X186551667Y-96770533D01*
X186551667Y-96770533D02*
X186551667Y-96675295D01*
X186551667Y-96675295D02*
X186599286Y-96580057D01*
X186599286Y-96580057D02*
X186646905Y-96532438D01*
X186646905Y-96532438D02*
X186742143Y-96484819D01*
X186742143Y-96484819D02*
X186980238Y-96484819D01*
X186980238Y-96484819D02*
X187123095Y-96532438D01*
X187456429Y-96484819D02*
X187694524Y-97484819D01*
X187694524Y-97484819D02*
X187885000Y-96770533D01*
X187885000Y-96770533D02*
X188075476Y-97484819D01*
X188075476Y-97484819D02*
X188313572Y-96484819D01*
X189123095Y-96818152D02*
X189123095Y-97484819D01*
X188885000Y-96437200D02*
X188646905Y-97151485D01*
X188646905Y-97151485D02*
X189265952Y-97151485D01*
X137359819Y-110698094D02*
X136359819Y-110698094D01*
X136359819Y-110698094D02*
X136359819Y-110459999D01*
X136359819Y-110459999D02*
X136407438Y-110317142D01*
X136407438Y-110317142D02*
X136502676Y-110221904D01*
X136502676Y-110221904D02*
X136597914Y-110174285D01*
X136597914Y-110174285D02*
X136788390Y-110126666D01*
X136788390Y-110126666D02*
X136931247Y-110126666D01*
X136931247Y-110126666D02*
X137121723Y-110174285D01*
X137121723Y-110174285D02*
X137216961Y-110221904D01*
X137216961Y-110221904D02*
X137312200Y-110317142D01*
X137312200Y-110317142D02*
X137359819Y-110459999D01*
X137359819Y-110459999D02*
X137359819Y-110698094D01*
X136359819Y-109221904D02*
X136359819Y-109698094D01*
X136359819Y-109698094D02*
X136836009Y-109745713D01*
X136836009Y-109745713D02*
X136788390Y-109698094D01*
X136788390Y-109698094D02*
X136740771Y-109602856D01*
X136740771Y-109602856D02*
X136740771Y-109364761D01*
X136740771Y-109364761D02*
X136788390Y-109269523D01*
X136788390Y-109269523D02*
X136836009Y-109221904D01*
X136836009Y-109221904D02*
X136931247Y-109174285D01*
X136931247Y-109174285D02*
X137169342Y-109174285D01*
X137169342Y-109174285D02*
X137264580Y-109221904D01*
X137264580Y-109221904D02*
X137312200Y-109269523D01*
X137312200Y-109269523D02*
X137359819Y-109364761D01*
X137359819Y-109364761D02*
X137359819Y-109602856D01*
X137359819Y-109602856D02*
X137312200Y-109698094D01*
X137312200Y-109698094D02*
X137264580Y-109745713D01*
X131243511Y-123190057D02*
X131148273Y-123142438D01*
X131148273Y-123142438D02*
X131053035Y-123047200D01*
X131053035Y-123047200D02*
X130910178Y-122904342D01*
X130910178Y-122904342D02*
X130814940Y-122856723D01*
X130814940Y-122856723D02*
X130719702Y-122856723D01*
X130767321Y-123094819D02*
X130672083Y-123047200D01*
X130672083Y-123047200D02*
X130576845Y-122951961D01*
X130576845Y-122951961D02*
X130529226Y-122761485D01*
X130529226Y-122761485D02*
X130529226Y-122428152D01*
X130529226Y-122428152D02*
X130576845Y-122237676D01*
X130576845Y-122237676D02*
X130672083Y-122142438D01*
X130672083Y-122142438D02*
X130767321Y-122094819D01*
X130767321Y-122094819D02*
X130957797Y-122094819D01*
X130957797Y-122094819D02*
X131053035Y-122142438D01*
X131053035Y-122142438D02*
X131148273Y-122237676D01*
X131148273Y-122237676D02*
X131195892Y-122428152D01*
X131195892Y-122428152D02*
X131195892Y-122761485D01*
X131195892Y-122761485D02*
X131148273Y-122951961D01*
X131148273Y-122951961D02*
X131053035Y-123047200D01*
X131053035Y-123047200D02*
X130957797Y-123094819D01*
X130957797Y-123094819D02*
X130767321Y-123094819D01*
X131576845Y-122190057D02*
X131624464Y-122142438D01*
X131624464Y-122142438D02*
X131719702Y-122094819D01*
X131719702Y-122094819D02*
X131957797Y-122094819D01*
X131957797Y-122094819D02*
X132053035Y-122142438D01*
X132053035Y-122142438D02*
X132100654Y-122190057D01*
X132100654Y-122190057D02*
X132148273Y-122285295D01*
X132148273Y-122285295D02*
X132148273Y-122380533D01*
X132148273Y-122380533D02*
X132100654Y-122523390D01*
X132100654Y-122523390D02*
X131529226Y-123094819D01*
X131529226Y-123094819D02*
X132148273Y-123094819D01*
X171293333Y-115849580D02*
X171245714Y-115897200D01*
X171245714Y-115897200D02*
X171102857Y-115944819D01*
X171102857Y-115944819D02*
X171007619Y-115944819D01*
X171007619Y-115944819D02*
X170864762Y-115897200D01*
X170864762Y-115897200D02*
X170769524Y-115801961D01*
X170769524Y-115801961D02*
X170721905Y-115706723D01*
X170721905Y-115706723D02*
X170674286Y-115516247D01*
X170674286Y-115516247D02*
X170674286Y-115373390D01*
X170674286Y-115373390D02*
X170721905Y-115182914D01*
X170721905Y-115182914D02*
X170769524Y-115087676D01*
X170769524Y-115087676D02*
X170864762Y-114992438D01*
X170864762Y-114992438D02*
X171007619Y-114944819D01*
X171007619Y-114944819D02*
X171102857Y-114944819D01*
X171102857Y-114944819D02*
X171245714Y-114992438D01*
X171245714Y-114992438D02*
X171293333Y-115040057D01*
X171626667Y-114944819D02*
X172293333Y-114944819D01*
X172293333Y-114944819D02*
X171864762Y-115944819D01*
X139150326Y-72521619D02*
X140178421Y-72521619D01*
X140178421Y-72521619D02*
X140299373Y-72461142D01*
X140299373Y-72461142D02*
X140359850Y-72400666D01*
X140359850Y-72400666D02*
X140420326Y-72279714D01*
X140420326Y-72279714D02*
X140420326Y-72037809D01*
X140420326Y-72037809D02*
X140359850Y-71916857D01*
X140359850Y-71916857D02*
X140299373Y-71856380D01*
X140299373Y-71856380D02*
X140178421Y-71795904D01*
X140178421Y-71795904D02*
X139150326Y-71795904D01*
X139150326Y-70586381D02*
X139150326Y-71191143D01*
X139150326Y-71191143D02*
X139755088Y-71251619D01*
X139755088Y-71251619D02*
X139694611Y-71191143D01*
X139694611Y-71191143D02*
X139634135Y-71070190D01*
X139634135Y-71070190D02*
X139634135Y-70767809D01*
X139634135Y-70767809D02*
X139694611Y-70646857D01*
X139694611Y-70646857D02*
X139755088Y-70586381D01*
X139755088Y-70586381D02*
X139876040Y-70525904D01*
X139876040Y-70525904D02*
X140178421Y-70525904D01*
X140178421Y-70525904D02*
X140299373Y-70586381D01*
X140299373Y-70586381D02*
X140359850Y-70646857D01*
X140359850Y-70646857D02*
X140420326Y-70767809D01*
X140420326Y-70767809D02*
X140420326Y-71070190D01*
X140420326Y-71070190D02*
X140359850Y-71191143D01*
X140359850Y-71191143D02*
X140299373Y-71251619D01*
D14*
X153635070Y-78307460D02*
X152835070Y-78307460D01*
X153635070Y-77469365D02*
X153254117Y-77736032D01*
X153635070Y-77926508D02*
X152835070Y-77926508D01*
X152835070Y-77926508D02*
X152835070Y-77621746D01*
X152835070Y-77621746D02*
X152873165Y-77545556D01*
X152873165Y-77545556D02*
X152911260Y-77507461D01*
X152911260Y-77507461D02*
X152987451Y-77469365D01*
X152987451Y-77469365D02*
X153101736Y-77469365D01*
X153101736Y-77469365D02*
X153177927Y-77507461D01*
X153177927Y-77507461D02*
X153216022Y-77545556D01*
X153216022Y-77545556D02*
X153254117Y-77621746D01*
X153254117Y-77621746D02*
X153254117Y-77926508D01*
X153711260Y-76593175D02*
X153673165Y-76669365D01*
X153673165Y-76669365D02*
X153596975Y-76745556D01*
X153596975Y-76745556D02*
X153482689Y-76859842D01*
X153482689Y-76859842D02*
X153444594Y-76936032D01*
X153444594Y-76936032D02*
X153444594Y-77012223D01*
X153635070Y-76974127D02*
X153596975Y-77050318D01*
X153596975Y-77050318D02*
X153520784Y-77126508D01*
X153520784Y-77126508D02*
X153368403Y-77164604D01*
X153368403Y-77164604D02*
X153101736Y-77164604D01*
X153101736Y-77164604D02*
X152949355Y-77126508D01*
X152949355Y-77126508D02*
X152873165Y-77050318D01*
X152873165Y-77050318D02*
X152835070Y-76974127D01*
X152835070Y-76974127D02*
X152835070Y-76821746D01*
X152835070Y-76821746D02*
X152873165Y-76745556D01*
X152873165Y-76745556D02*
X152949355Y-76669365D01*
X152949355Y-76669365D02*
X153101736Y-76631270D01*
X153101736Y-76631270D02*
X153368403Y-76631270D01*
X153368403Y-76631270D02*
X153520784Y-76669365D01*
X153520784Y-76669365D02*
X153596975Y-76745556D01*
X153596975Y-76745556D02*
X153635070Y-76821746D01*
X153635070Y-76821746D02*
X153635070Y-76974127D01*
X152365070Y-78307460D02*
X151565070Y-78307460D01*
X151565070Y-78307460D02*
X152136498Y-78040794D01*
X152136498Y-78040794D02*
X151565070Y-77774127D01*
X151565070Y-77774127D02*
X152365070Y-77774127D01*
X152365070Y-77393174D02*
X151565070Y-77393174D01*
X152326975Y-77050318D02*
X152365070Y-76936032D01*
X152365070Y-76936032D02*
X152365070Y-76745556D01*
X152365070Y-76745556D02*
X152326975Y-76669365D01*
X152326975Y-76669365D02*
X152288879Y-76631270D01*
X152288879Y-76631270D02*
X152212689Y-76593175D01*
X152212689Y-76593175D02*
X152136498Y-76593175D01*
X152136498Y-76593175D02*
X152060308Y-76631270D01*
X152060308Y-76631270D02*
X152022213Y-76669365D01*
X152022213Y-76669365D02*
X151984117Y-76745556D01*
X151984117Y-76745556D02*
X151946022Y-76897937D01*
X151946022Y-76897937D02*
X151907927Y-76974127D01*
X151907927Y-76974127D02*
X151869832Y-77012222D01*
X151869832Y-77012222D02*
X151793641Y-77050318D01*
X151793641Y-77050318D02*
X151717451Y-77050318D01*
X151717451Y-77050318D02*
X151641260Y-77012222D01*
X151641260Y-77012222D02*
X151603165Y-76974127D01*
X151603165Y-76974127D02*
X151565070Y-76897937D01*
X151565070Y-76897937D02*
X151565070Y-76707460D01*
X151565070Y-76707460D02*
X151603165Y-76593175D01*
X151565070Y-76097936D02*
X151565070Y-75945555D01*
X151565070Y-75945555D02*
X151603165Y-75869365D01*
X151603165Y-75869365D02*
X151679355Y-75793174D01*
X151679355Y-75793174D02*
X151831736Y-75755079D01*
X151831736Y-75755079D02*
X152098403Y-75755079D01*
X152098403Y-75755079D02*
X152250784Y-75793174D01*
X152250784Y-75793174D02*
X152326975Y-75869365D01*
X152326975Y-75869365D02*
X152365070Y-75945555D01*
X152365070Y-75945555D02*
X152365070Y-76097936D01*
X152365070Y-76097936D02*
X152326975Y-76174127D01*
X152326975Y-76174127D02*
X152250784Y-76250317D01*
X152250784Y-76250317D02*
X152098403Y-76288413D01*
X152098403Y-76288413D02*
X151831736Y-76288413D01*
X151831736Y-76288413D02*
X151679355Y-76250317D01*
X151679355Y-76250317D02*
X151603165Y-76174127D01*
X151603165Y-76174127D02*
X151565070Y-76097936D01*
X148481379Y-77852317D02*
X148519475Y-77890413D01*
X148519475Y-77890413D02*
X148557570Y-78004698D01*
X148557570Y-78004698D02*
X148557570Y-78080889D01*
X148557570Y-78080889D02*
X148519475Y-78195175D01*
X148519475Y-78195175D02*
X148443284Y-78271365D01*
X148443284Y-78271365D02*
X148367094Y-78309460D01*
X148367094Y-78309460D02*
X148214713Y-78347556D01*
X148214713Y-78347556D02*
X148100427Y-78347556D01*
X148100427Y-78347556D02*
X147948046Y-78309460D01*
X147948046Y-78309460D02*
X147871855Y-78271365D01*
X147871855Y-78271365D02*
X147795665Y-78195175D01*
X147795665Y-78195175D02*
X147757570Y-78080889D01*
X147757570Y-78080889D02*
X147757570Y-78004698D01*
X147757570Y-78004698D02*
X147795665Y-77890413D01*
X147795665Y-77890413D02*
X147833760Y-77852317D01*
X148519475Y-77547556D02*
X148557570Y-77433270D01*
X148557570Y-77433270D02*
X148557570Y-77242794D01*
X148557570Y-77242794D02*
X148519475Y-77166603D01*
X148519475Y-77166603D02*
X148481379Y-77128508D01*
X148481379Y-77128508D02*
X148405189Y-77090413D01*
X148405189Y-77090413D02*
X148328998Y-77090413D01*
X148328998Y-77090413D02*
X148252808Y-77128508D01*
X148252808Y-77128508D02*
X148214713Y-77166603D01*
X148214713Y-77166603D02*
X148176617Y-77242794D01*
X148176617Y-77242794D02*
X148138522Y-77395175D01*
X148138522Y-77395175D02*
X148100427Y-77471365D01*
X148100427Y-77471365D02*
X148062332Y-77509460D01*
X148062332Y-77509460D02*
X147986141Y-77547556D01*
X147986141Y-77547556D02*
X147909951Y-77547556D01*
X147909951Y-77547556D02*
X147833760Y-77509460D01*
X147833760Y-77509460D02*
X147795665Y-77471365D01*
X147795665Y-77471365D02*
X147757570Y-77395175D01*
X147757570Y-77395175D02*
X147757570Y-77204698D01*
X147757570Y-77204698D02*
X147795665Y-77090413D01*
X148557570Y-76747555D02*
X147757570Y-76747555D01*
X147757570Y-76747555D02*
X148557570Y-76290412D01*
X148557570Y-76290412D02*
X147757570Y-76290412D01*
X147211379Y-77852317D02*
X147249475Y-77890413D01*
X147249475Y-77890413D02*
X147287570Y-78004698D01*
X147287570Y-78004698D02*
X147287570Y-78080889D01*
X147287570Y-78080889D02*
X147249475Y-78195175D01*
X147249475Y-78195175D02*
X147173284Y-78271365D01*
X147173284Y-78271365D02*
X147097094Y-78309460D01*
X147097094Y-78309460D02*
X146944713Y-78347556D01*
X146944713Y-78347556D02*
X146830427Y-78347556D01*
X146830427Y-78347556D02*
X146678046Y-78309460D01*
X146678046Y-78309460D02*
X146601855Y-78271365D01*
X146601855Y-78271365D02*
X146525665Y-78195175D01*
X146525665Y-78195175D02*
X146487570Y-78080889D01*
X146487570Y-78080889D02*
X146487570Y-78004698D01*
X146487570Y-78004698D02*
X146525665Y-77890413D01*
X146525665Y-77890413D02*
X146563760Y-77852317D01*
X146868522Y-77509460D02*
X146868522Y-77242794D01*
X147287570Y-77128508D02*
X147287570Y-77509460D01*
X147287570Y-77509460D02*
X146487570Y-77509460D01*
X146487570Y-77509460D02*
X146487570Y-77128508D01*
X149789475Y-78347556D02*
X149827570Y-78233270D01*
X149827570Y-78233270D02*
X149827570Y-78042794D01*
X149827570Y-78042794D02*
X149789475Y-77966603D01*
X149789475Y-77966603D02*
X149751379Y-77928508D01*
X149751379Y-77928508D02*
X149675189Y-77890413D01*
X149675189Y-77890413D02*
X149598998Y-77890413D01*
X149598998Y-77890413D02*
X149522808Y-77928508D01*
X149522808Y-77928508D02*
X149484713Y-77966603D01*
X149484713Y-77966603D02*
X149446617Y-78042794D01*
X149446617Y-78042794D02*
X149408522Y-78195175D01*
X149408522Y-78195175D02*
X149370427Y-78271365D01*
X149370427Y-78271365D02*
X149332332Y-78309460D01*
X149332332Y-78309460D02*
X149256141Y-78347556D01*
X149256141Y-78347556D02*
X149179951Y-78347556D01*
X149179951Y-78347556D02*
X149103760Y-78309460D01*
X149103760Y-78309460D02*
X149065665Y-78271365D01*
X149065665Y-78271365D02*
X149027570Y-78195175D01*
X149027570Y-78195175D02*
X149027570Y-78004698D01*
X149027570Y-78004698D02*
X149065665Y-77890413D01*
X149751379Y-77090412D02*
X149789475Y-77128508D01*
X149789475Y-77128508D02*
X149827570Y-77242793D01*
X149827570Y-77242793D02*
X149827570Y-77318984D01*
X149827570Y-77318984D02*
X149789475Y-77433270D01*
X149789475Y-77433270D02*
X149713284Y-77509460D01*
X149713284Y-77509460D02*
X149637094Y-77547555D01*
X149637094Y-77547555D02*
X149484713Y-77585651D01*
X149484713Y-77585651D02*
X149370427Y-77585651D01*
X149370427Y-77585651D02*
X149218046Y-77547555D01*
X149218046Y-77547555D02*
X149141855Y-77509460D01*
X149141855Y-77509460D02*
X149065665Y-77433270D01*
X149065665Y-77433270D02*
X149027570Y-77318984D01*
X149027570Y-77318984D02*
X149027570Y-77242793D01*
X149027570Y-77242793D02*
X149065665Y-77128508D01*
X149065665Y-77128508D02*
X149103760Y-77090412D01*
X149827570Y-76747555D02*
X149027570Y-76747555D01*
X149827570Y-76290412D02*
X149370427Y-76633270D01*
X149027570Y-76290412D02*
X149484713Y-76747555D01*
X145220170Y-78387451D02*
X145220170Y-77892213D01*
X145220170Y-77892213D02*
X145524932Y-78158879D01*
X145524932Y-78158879D02*
X145524932Y-78044594D01*
X145524932Y-78044594D02*
X145563027Y-77968403D01*
X145563027Y-77968403D02*
X145601122Y-77930308D01*
X145601122Y-77930308D02*
X145677313Y-77892213D01*
X145677313Y-77892213D02*
X145867789Y-77892213D01*
X145867789Y-77892213D02*
X145943979Y-77930308D01*
X145943979Y-77930308D02*
X145982075Y-77968403D01*
X145982075Y-77968403D02*
X146020170Y-78044594D01*
X146020170Y-78044594D02*
X146020170Y-78273165D01*
X146020170Y-78273165D02*
X145982075Y-78349356D01*
X145982075Y-78349356D02*
X145943979Y-78387451D01*
X145220170Y-77663641D02*
X146020170Y-77396974D01*
X146020170Y-77396974D02*
X145220170Y-77130308D01*
X145220170Y-76939832D02*
X145220170Y-76444594D01*
X145220170Y-76444594D02*
X145524932Y-76711260D01*
X145524932Y-76711260D02*
X145524932Y-76596975D01*
X145524932Y-76596975D02*
X145563027Y-76520784D01*
X145563027Y-76520784D02*
X145601122Y-76482689D01*
X145601122Y-76482689D02*
X145677313Y-76444594D01*
X145677313Y-76444594D02*
X145867789Y-76444594D01*
X145867789Y-76444594D02*
X145943979Y-76482689D01*
X145943979Y-76482689D02*
X145982075Y-76520784D01*
X145982075Y-76520784D02*
X146020170Y-76596975D01*
X146020170Y-76596975D02*
X146020170Y-76825546D01*
X146020170Y-76825546D02*
X145982075Y-76901737D01*
X145982075Y-76901737D02*
X145943979Y-76939832D01*
X151097570Y-78309460D02*
X150297570Y-78309460D01*
X150297570Y-78309460D02*
X150868998Y-78042794D01*
X150868998Y-78042794D02*
X150297570Y-77776127D01*
X150297570Y-77776127D02*
X151097570Y-77776127D01*
X150297570Y-77242793D02*
X150297570Y-77090412D01*
X150297570Y-77090412D02*
X150335665Y-77014222D01*
X150335665Y-77014222D02*
X150411855Y-76938031D01*
X150411855Y-76938031D02*
X150564236Y-76899936D01*
X150564236Y-76899936D02*
X150830903Y-76899936D01*
X150830903Y-76899936D02*
X150983284Y-76938031D01*
X150983284Y-76938031D02*
X151059475Y-77014222D01*
X151059475Y-77014222D02*
X151097570Y-77090412D01*
X151097570Y-77090412D02*
X151097570Y-77242793D01*
X151097570Y-77242793D02*
X151059475Y-77318984D01*
X151059475Y-77318984D02*
X150983284Y-77395174D01*
X150983284Y-77395174D02*
X150830903Y-77433270D01*
X150830903Y-77433270D02*
X150564236Y-77433270D01*
X150564236Y-77433270D02*
X150411855Y-77395174D01*
X150411855Y-77395174D02*
X150335665Y-77318984D01*
X150335665Y-77318984D02*
X150297570Y-77242793D01*
X151059475Y-76595175D02*
X151097570Y-76480889D01*
X151097570Y-76480889D02*
X151097570Y-76290413D01*
X151097570Y-76290413D02*
X151059475Y-76214222D01*
X151059475Y-76214222D02*
X151021379Y-76176127D01*
X151021379Y-76176127D02*
X150945189Y-76138032D01*
X150945189Y-76138032D02*
X150868998Y-76138032D01*
X150868998Y-76138032D02*
X150792808Y-76176127D01*
X150792808Y-76176127D02*
X150754713Y-76214222D01*
X150754713Y-76214222D02*
X150716617Y-76290413D01*
X150716617Y-76290413D02*
X150678522Y-76442794D01*
X150678522Y-76442794D02*
X150640427Y-76518984D01*
X150640427Y-76518984D02*
X150602332Y-76557079D01*
X150602332Y-76557079D02*
X150526141Y-76595175D01*
X150526141Y-76595175D02*
X150449951Y-76595175D01*
X150449951Y-76595175D02*
X150373760Y-76557079D01*
X150373760Y-76557079D02*
X150335665Y-76518984D01*
X150335665Y-76518984D02*
X150297570Y-76442794D01*
X150297570Y-76442794D02*
X150297570Y-76252317D01*
X150297570Y-76252317D02*
X150335665Y-76138032D01*
X151097570Y-75795174D02*
X150297570Y-75795174D01*
X154140565Y-78013613D02*
X154102470Y-78089803D01*
X154102470Y-78089803D02*
X154102470Y-78204089D01*
X154102470Y-78204089D02*
X154140565Y-78318375D01*
X154140565Y-78318375D02*
X154216755Y-78394565D01*
X154216755Y-78394565D02*
X154292946Y-78432660D01*
X154292946Y-78432660D02*
X154445327Y-78470756D01*
X154445327Y-78470756D02*
X154559613Y-78470756D01*
X154559613Y-78470756D02*
X154711994Y-78432660D01*
X154711994Y-78432660D02*
X154788184Y-78394565D01*
X154788184Y-78394565D02*
X154864375Y-78318375D01*
X154864375Y-78318375D02*
X154902470Y-78204089D01*
X154902470Y-78204089D02*
X154902470Y-78127898D01*
X154902470Y-78127898D02*
X154864375Y-78013613D01*
X154864375Y-78013613D02*
X154826279Y-77975517D01*
X154826279Y-77975517D02*
X154559613Y-77975517D01*
X154559613Y-77975517D02*
X154559613Y-78127898D01*
X154902470Y-77632660D02*
X154102470Y-77632660D01*
X154102470Y-77632660D02*
X154902470Y-77175517D01*
X154902470Y-77175517D02*
X154102470Y-77175517D01*
X154902470Y-76794565D02*
X154102470Y-76794565D01*
X154102470Y-76794565D02*
X154102470Y-76604089D01*
X154102470Y-76604089D02*
X154140565Y-76489803D01*
X154140565Y-76489803D02*
X154216755Y-76413613D01*
X154216755Y-76413613D02*
X154292946Y-76375518D01*
X154292946Y-76375518D02*
X154445327Y-76337422D01*
X154445327Y-76337422D02*
X154559613Y-76337422D01*
X154559613Y-76337422D02*
X154711994Y-76375518D01*
X154711994Y-76375518D02*
X154788184Y-76413613D01*
X154788184Y-76413613D02*
X154864375Y-76489803D01*
X154864375Y-76489803D02*
X154902470Y-76604089D01*
X154902470Y-76604089D02*
X154902470Y-76794565D01*
D10*
X193879819Y-99732857D02*
X193403628Y-100066190D01*
X193879819Y-100304285D02*
X192879819Y-100304285D01*
X192879819Y-100304285D02*
X192879819Y-99923333D01*
X192879819Y-99923333D02*
X192927438Y-99828095D01*
X192927438Y-99828095D02*
X192975057Y-99780476D01*
X192975057Y-99780476D02*
X193070295Y-99732857D01*
X193070295Y-99732857D02*
X193213152Y-99732857D01*
X193213152Y-99732857D02*
X193308390Y-99780476D01*
X193308390Y-99780476D02*
X193356009Y-99828095D01*
X193356009Y-99828095D02*
X193403628Y-99923333D01*
X193403628Y-99923333D02*
X193403628Y-100304285D01*
X193879819Y-98780476D02*
X193879819Y-99351904D01*
X193879819Y-99066190D02*
X192879819Y-99066190D01*
X192879819Y-99066190D02*
X193022676Y-99161428D01*
X193022676Y-99161428D02*
X193117914Y-99256666D01*
X193117914Y-99256666D02*
X193165533Y-99351904D01*
X192879819Y-98447142D02*
X192879819Y-97828095D01*
X192879819Y-97828095D02*
X193260771Y-98161428D01*
X193260771Y-98161428D02*
X193260771Y-98018571D01*
X193260771Y-98018571D02*
X193308390Y-97923333D01*
X193308390Y-97923333D02*
X193356009Y-97875714D01*
X193356009Y-97875714D02*
X193451247Y-97828095D01*
X193451247Y-97828095D02*
X193689342Y-97828095D01*
X193689342Y-97828095D02*
X193784580Y-97875714D01*
X193784580Y-97875714D02*
X193832200Y-97923333D01*
X193832200Y-97923333D02*
X193879819Y-98018571D01*
X193879819Y-98018571D02*
X193879819Y-98304285D01*
X193879819Y-98304285D02*
X193832200Y-98399523D01*
X193832200Y-98399523D02*
X193784580Y-98447142D01*
X151781666Y-118264819D02*
X151781666Y-118979104D01*
X151781666Y-118979104D02*
X151734047Y-119121961D01*
X151734047Y-119121961D02*
X151638809Y-119217200D01*
X151638809Y-119217200D02*
X151495952Y-119264819D01*
X151495952Y-119264819D02*
X151400714Y-119264819D01*
X152162619Y-118264819D02*
X152829285Y-118264819D01*
X152829285Y-118264819D02*
X152400714Y-119264819D01*
X161062526Y-72547619D02*
X162090621Y-72547619D01*
X162090621Y-72547619D02*
X162211573Y-72487142D01*
X162211573Y-72487142D02*
X162272050Y-72426666D01*
X162272050Y-72426666D02*
X162332526Y-72305714D01*
X162332526Y-72305714D02*
X162332526Y-72063809D01*
X162332526Y-72063809D02*
X162272050Y-71942857D01*
X162272050Y-71942857D02*
X162211573Y-71882380D01*
X162211573Y-71882380D02*
X162090621Y-71821904D01*
X162090621Y-71821904D02*
X161062526Y-71821904D01*
X161183478Y-71277619D02*
X161123002Y-71217143D01*
X161123002Y-71217143D02*
X161062526Y-71096190D01*
X161062526Y-71096190D02*
X161062526Y-70793809D01*
X161062526Y-70793809D02*
X161123002Y-70672857D01*
X161123002Y-70672857D02*
X161183478Y-70612381D01*
X161183478Y-70612381D02*
X161304430Y-70551904D01*
X161304430Y-70551904D02*
X161425383Y-70551904D01*
X161425383Y-70551904D02*
X161606811Y-70612381D01*
X161606811Y-70612381D02*
X162332526Y-71338095D01*
X162332526Y-71338095D02*
X162332526Y-70551904D01*
D14*
X174277270Y-78333460D02*
X173477270Y-78333460D01*
X173477270Y-78333460D02*
X174048698Y-78066794D01*
X174048698Y-78066794D02*
X173477270Y-77800127D01*
X173477270Y-77800127D02*
X174277270Y-77800127D01*
X174277270Y-77419174D02*
X173477270Y-77419174D01*
X174239175Y-77076318D02*
X174277270Y-76962032D01*
X174277270Y-76962032D02*
X174277270Y-76771556D01*
X174277270Y-76771556D02*
X174239175Y-76695365D01*
X174239175Y-76695365D02*
X174201079Y-76657270D01*
X174201079Y-76657270D02*
X174124889Y-76619175D01*
X174124889Y-76619175D02*
X174048698Y-76619175D01*
X174048698Y-76619175D02*
X173972508Y-76657270D01*
X173972508Y-76657270D02*
X173934413Y-76695365D01*
X173934413Y-76695365D02*
X173896317Y-76771556D01*
X173896317Y-76771556D02*
X173858222Y-76923937D01*
X173858222Y-76923937D02*
X173820127Y-77000127D01*
X173820127Y-77000127D02*
X173782032Y-77038222D01*
X173782032Y-77038222D02*
X173705841Y-77076318D01*
X173705841Y-77076318D02*
X173629651Y-77076318D01*
X173629651Y-77076318D02*
X173553460Y-77038222D01*
X173553460Y-77038222D02*
X173515365Y-77000127D01*
X173515365Y-77000127D02*
X173477270Y-76923937D01*
X173477270Y-76923937D02*
X173477270Y-76733460D01*
X173477270Y-76733460D02*
X173515365Y-76619175D01*
X173477270Y-76123936D02*
X173477270Y-75971555D01*
X173477270Y-75971555D02*
X173515365Y-75895365D01*
X173515365Y-75895365D02*
X173591555Y-75819174D01*
X173591555Y-75819174D02*
X173743936Y-75781079D01*
X173743936Y-75781079D02*
X174010603Y-75781079D01*
X174010603Y-75781079D02*
X174162984Y-75819174D01*
X174162984Y-75819174D02*
X174239175Y-75895365D01*
X174239175Y-75895365D02*
X174277270Y-75971555D01*
X174277270Y-75971555D02*
X174277270Y-76123936D01*
X174277270Y-76123936D02*
X174239175Y-76200127D01*
X174239175Y-76200127D02*
X174162984Y-76276317D01*
X174162984Y-76276317D02*
X174010603Y-76314413D01*
X174010603Y-76314413D02*
X173743936Y-76314413D01*
X173743936Y-76314413D02*
X173591555Y-76276317D01*
X173591555Y-76276317D02*
X173515365Y-76200127D01*
X173515365Y-76200127D02*
X173477270Y-76123936D01*
X175547270Y-78333460D02*
X174747270Y-78333460D01*
X175547270Y-77495365D02*
X175166317Y-77762032D01*
X175547270Y-77952508D02*
X174747270Y-77952508D01*
X174747270Y-77952508D02*
X174747270Y-77647746D01*
X174747270Y-77647746D02*
X174785365Y-77571556D01*
X174785365Y-77571556D02*
X174823460Y-77533461D01*
X174823460Y-77533461D02*
X174899651Y-77495365D01*
X174899651Y-77495365D02*
X175013936Y-77495365D01*
X175013936Y-77495365D02*
X175090127Y-77533461D01*
X175090127Y-77533461D02*
X175128222Y-77571556D01*
X175128222Y-77571556D02*
X175166317Y-77647746D01*
X175166317Y-77647746D02*
X175166317Y-77952508D01*
X175623460Y-76619175D02*
X175585365Y-76695365D01*
X175585365Y-76695365D02*
X175509175Y-76771556D01*
X175509175Y-76771556D02*
X175394889Y-76885842D01*
X175394889Y-76885842D02*
X175356794Y-76962032D01*
X175356794Y-76962032D02*
X175356794Y-77038223D01*
X175547270Y-77000127D02*
X175509175Y-77076318D01*
X175509175Y-77076318D02*
X175432984Y-77152508D01*
X175432984Y-77152508D02*
X175280603Y-77190604D01*
X175280603Y-77190604D02*
X175013936Y-77190604D01*
X175013936Y-77190604D02*
X174861555Y-77152508D01*
X174861555Y-77152508D02*
X174785365Y-77076318D01*
X174785365Y-77076318D02*
X174747270Y-77000127D01*
X174747270Y-77000127D02*
X174747270Y-76847746D01*
X174747270Y-76847746D02*
X174785365Y-76771556D01*
X174785365Y-76771556D02*
X174861555Y-76695365D01*
X174861555Y-76695365D02*
X175013936Y-76657270D01*
X175013936Y-76657270D02*
X175280603Y-76657270D01*
X175280603Y-76657270D02*
X175432984Y-76695365D01*
X175432984Y-76695365D02*
X175509175Y-76771556D01*
X175509175Y-76771556D02*
X175547270Y-76847746D01*
X175547270Y-76847746D02*
X175547270Y-77000127D01*
X171701675Y-78373556D02*
X171739770Y-78259270D01*
X171739770Y-78259270D02*
X171739770Y-78068794D01*
X171739770Y-78068794D02*
X171701675Y-77992603D01*
X171701675Y-77992603D02*
X171663579Y-77954508D01*
X171663579Y-77954508D02*
X171587389Y-77916413D01*
X171587389Y-77916413D02*
X171511198Y-77916413D01*
X171511198Y-77916413D02*
X171435008Y-77954508D01*
X171435008Y-77954508D02*
X171396913Y-77992603D01*
X171396913Y-77992603D02*
X171358817Y-78068794D01*
X171358817Y-78068794D02*
X171320722Y-78221175D01*
X171320722Y-78221175D02*
X171282627Y-78297365D01*
X171282627Y-78297365D02*
X171244532Y-78335460D01*
X171244532Y-78335460D02*
X171168341Y-78373556D01*
X171168341Y-78373556D02*
X171092151Y-78373556D01*
X171092151Y-78373556D02*
X171015960Y-78335460D01*
X171015960Y-78335460D02*
X170977865Y-78297365D01*
X170977865Y-78297365D02*
X170939770Y-78221175D01*
X170939770Y-78221175D02*
X170939770Y-78030698D01*
X170939770Y-78030698D02*
X170977865Y-77916413D01*
X171663579Y-77116412D02*
X171701675Y-77154508D01*
X171701675Y-77154508D02*
X171739770Y-77268793D01*
X171739770Y-77268793D02*
X171739770Y-77344984D01*
X171739770Y-77344984D02*
X171701675Y-77459270D01*
X171701675Y-77459270D02*
X171625484Y-77535460D01*
X171625484Y-77535460D02*
X171549294Y-77573555D01*
X171549294Y-77573555D02*
X171396913Y-77611651D01*
X171396913Y-77611651D02*
X171282627Y-77611651D01*
X171282627Y-77611651D02*
X171130246Y-77573555D01*
X171130246Y-77573555D02*
X171054055Y-77535460D01*
X171054055Y-77535460D02*
X170977865Y-77459270D01*
X170977865Y-77459270D02*
X170939770Y-77344984D01*
X170939770Y-77344984D02*
X170939770Y-77268793D01*
X170939770Y-77268793D02*
X170977865Y-77154508D01*
X170977865Y-77154508D02*
X171015960Y-77116412D01*
X171739770Y-76773555D02*
X170939770Y-76773555D01*
X171739770Y-76316412D02*
X171282627Y-76659270D01*
X170939770Y-76316412D02*
X171396913Y-76773555D01*
X173009770Y-78335460D02*
X172209770Y-78335460D01*
X172209770Y-78335460D02*
X172781198Y-78068794D01*
X172781198Y-78068794D02*
X172209770Y-77802127D01*
X172209770Y-77802127D02*
X173009770Y-77802127D01*
X172209770Y-77268793D02*
X172209770Y-77116412D01*
X172209770Y-77116412D02*
X172247865Y-77040222D01*
X172247865Y-77040222D02*
X172324055Y-76964031D01*
X172324055Y-76964031D02*
X172476436Y-76925936D01*
X172476436Y-76925936D02*
X172743103Y-76925936D01*
X172743103Y-76925936D02*
X172895484Y-76964031D01*
X172895484Y-76964031D02*
X172971675Y-77040222D01*
X172971675Y-77040222D02*
X173009770Y-77116412D01*
X173009770Y-77116412D02*
X173009770Y-77268793D01*
X173009770Y-77268793D02*
X172971675Y-77344984D01*
X172971675Y-77344984D02*
X172895484Y-77421174D01*
X172895484Y-77421174D02*
X172743103Y-77459270D01*
X172743103Y-77459270D02*
X172476436Y-77459270D01*
X172476436Y-77459270D02*
X172324055Y-77421174D01*
X172324055Y-77421174D02*
X172247865Y-77344984D01*
X172247865Y-77344984D02*
X172209770Y-77268793D01*
X172971675Y-76621175D02*
X173009770Y-76506889D01*
X173009770Y-76506889D02*
X173009770Y-76316413D01*
X173009770Y-76316413D02*
X172971675Y-76240222D01*
X172971675Y-76240222D02*
X172933579Y-76202127D01*
X172933579Y-76202127D02*
X172857389Y-76164032D01*
X172857389Y-76164032D02*
X172781198Y-76164032D01*
X172781198Y-76164032D02*
X172705008Y-76202127D01*
X172705008Y-76202127D02*
X172666913Y-76240222D01*
X172666913Y-76240222D02*
X172628817Y-76316413D01*
X172628817Y-76316413D02*
X172590722Y-76468794D01*
X172590722Y-76468794D02*
X172552627Y-76544984D01*
X172552627Y-76544984D02*
X172514532Y-76583079D01*
X172514532Y-76583079D02*
X172438341Y-76621175D01*
X172438341Y-76621175D02*
X172362151Y-76621175D01*
X172362151Y-76621175D02*
X172285960Y-76583079D01*
X172285960Y-76583079D02*
X172247865Y-76544984D01*
X172247865Y-76544984D02*
X172209770Y-76468794D01*
X172209770Y-76468794D02*
X172209770Y-76278317D01*
X172209770Y-76278317D02*
X172247865Y-76164032D01*
X173009770Y-75821174D02*
X172209770Y-75821174D01*
X167132370Y-78413451D02*
X167132370Y-77918213D01*
X167132370Y-77918213D02*
X167437132Y-78184879D01*
X167437132Y-78184879D02*
X167437132Y-78070594D01*
X167437132Y-78070594D02*
X167475227Y-77994403D01*
X167475227Y-77994403D02*
X167513322Y-77956308D01*
X167513322Y-77956308D02*
X167589513Y-77918213D01*
X167589513Y-77918213D02*
X167779989Y-77918213D01*
X167779989Y-77918213D02*
X167856179Y-77956308D01*
X167856179Y-77956308D02*
X167894275Y-77994403D01*
X167894275Y-77994403D02*
X167932370Y-78070594D01*
X167932370Y-78070594D02*
X167932370Y-78299165D01*
X167932370Y-78299165D02*
X167894275Y-78375356D01*
X167894275Y-78375356D02*
X167856179Y-78413451D01*
X167132370Y-77689641D02*
X167932370Y-77422974D01*
X167932370Y-77422974D02*
X167132370Y-77156308D01*
X167132370Y-76965832D02*
X167132370Y-76470594D01*
X167132370Y-76470594D02*
X167437132Y-76737260D01*
X167437132Y-76737260D02*
X167437132Y-76622975D01*
X167437132Y-76622975D02*
X167475227Y-76546784D01*
X167475227Y-76546784D02*
X167513322Y-76508689D01*
X167513322Y-76508689D02*
X167589513Y-76470594D01*
X167589513Y-76470594D02*
X167779989Y-76470594D01*
X167779989Y-76470594D02*
X167856179Y-76508689D01*
X167856179Y-76508689D02*
X167894275Y-76546784D01*
X167894275Y-76546784D02*
X167932370Y-76622975D01*
X167932370Y-76622975D02*
X167932370Y-76851546D01*
X167932370Y-76851546D02*
X167894275Y-76927737D01*
X167894275Y-76927737D02*
X167856179Y-76965832D01*
X169123579Y-77878317D02*
X169161675Y-77916413D01*
X169161675Y-77916413D02*
X169199770Y-78030698D01*
X169199770Y-78030698D02*
X169199770Y-78106889D01*
X169199770Y-78106889D02*
X169161675Y-78221175D01*
X169161675Y-78221175D02*
X169085484Y-78297365D01*
X169085484Y-78297365D02*
X169009294Y-78335460D01*
X169009294Y-78335460D02*
X168856913Y-78373556D01*
X168856913Y-78373556D02*
X168742627Y-78373556D01*
X168742627Y-78373556D02*
X168590246Y-78335460D01*
X168590246Y-78335460D02*
X168514055Y-78297365D01*
X168514055Y-78297365D02*
X168437865Y-78221175D01*
X168437865Y-78221175D02*
X168399770Y-78106889D01*
X168399770Y-78106889D02*
X168399770Y-78030698D01*
X168399770Y-78030698D02*
X168437865Y-77916413D01*
X168437865Y-77916413D02*
X168475960Y-77878317D01*
X168780722Y-77535460D02*
X168780722Y-77268794D01*
X169199770Y-77154508D02*
X169199770Y-77535460D01*
X169199770Y-77535460D02*
X168399770Y-77535460D01*
X168399770Y-77535460D02*
X168399770Y-77154508D01*
X170393579Y-77878317D02*
X170431675Y-77916413D01*
X170431675Y-77916413D02*
X170469770Y-78030698D01*
X170469770Y-78030698D02*
X170469770Y-78106889D01*
X170469770Y-78106889D02*
X170431675Y-78221175D01*
X170431675Y-78221175D02*
X170355484Y-78297365D01*
X170355484Y-78297365D02*
X170279294Y-78335460D01*
X170279294Y-78335460D02*
X170126913Y-78373556D01*
X170126913Y-78373556D02*
X170012627Y-78373556D01*
X170012627Y-78373556D02*
X169860246Y-78335460D01*
X169860246Y-78335460D02*
X169784055Y-78297365D01*
X169784055Y-78297365D02*
X169707865Y-78221175D01*
X169707865Y-78221175D02*
X169669770Y-78106889D01*
X169669770Y-78106889D02*
X169669770Y-78030698D01*
X169669770Y-78030698D02*
X169707865Y-77916413D01*
X169707865Y-77916413D02*
X169745960Y-77878317D01*
X170431675Y-77573556D02*
X170469770Y-77459270D01*
X170469770Y-77459270D02*
X170469770Y-77268794D01*
X170469770Y-77268794D02*
X170431675Y-77192603D01*
X170431675Y-77192603D02*
X170393579Y-77154508D01*
X170393579Y-77154508D02*
X170317389Y-77116413D01*
X170317389Y-77116413D02*
X170241198Y-77116413D01*
X170241198Y-77116413D02*
X170165008Y-77154508D01*
X170165008Y-77154508D02*
X170126913Y-77192603D01*
X170126913Y-77192603D02*
X170088817Y-77268794D01*
X170088817Y-77268794D02*
X170050722Y-77421175D01*
X170050722Y-77421175D02*
X170012627Y-77497365D01*
X170012627Y-77497365D02*
X169974532Y-77535460D01*
X169974532Y-77535460D02*
X169898341Y-77573556D01*
X169898341Y-77573556D02*
X169822151Y-77573556D01*
X169822151Y-77573556D02*
X169745960Y-77535460D01*
X169745960Y-77535460D02*
X169707865Y-77497365D01*
X169707865Y-77497365D02*
X169669770Y-77421175D01*
X169669770Y-77421175D02*
X169669770Y-77230698D01*
X169669770Y-77230698D02*
X169707865Y-77116413D01*
X170469770Y-76773555D02*
X169669770Y-76773555D01*
X169669770Y-76773555D02*
X170469770Y-76316412D01*
X170469770Y-76316412D02*
X169669770Y-76316412D01*
X176052765Y-78039613D02*
X176014670Y-78115803D01*
X176014670Y-78115803D02*
X176014670Y-78230089D01*
X176014670Y-78230089D02*
X176052765Y-78344375D01*
X176052765Y-78344375D02*
X176128955Y-78420565D01*
X176128955Y-78420565D02*
X176205146Y-78458660D01*
X176205146Y-78458660D02*
X176357527Y-78496756D01*
X176357527Y-78496756D02*
X176471813Y-78496756D01*
X176471813Y-78496756D02*
X176624194Y-78458660D01*
X176624194Y-78458660D02*
X176700384Y-78420565D01*
X176700384Y-78420565D02*
X176776575Y-78344375D01*
X176776575Y-78344375D02*
X176814670Y-78230089D01*
X176814670Y-78230089D02*
X176814670Y-78153898D01*
X176814670Y-78153898D02*
X176776575Y-78039613D01*
X176776575Y-78039613D02*
X176738479Y-78001517D01*
X176738479Y-78001517D02*
X176471813Y-78001517D01*
X176471813Y-78001517D02*
X176471813Y-78153898D01*
X176814670Y-77658660D02*
X176014670Y-77658660D01*
X176014670Y-77658660D02*
X176814670Y-77201517D01*
X176814670Y-77201517D02*
X176014670Y-77201517D01*
X176814670Y-76820565D02*
X176014670Y-76820565D01*
X176014670Y-76820565D02*
X176014670Y-76630089D01*
X176014670Y-76630089D02*
X176052765Y-76515803D01*
X176052765Y-76515803D02*
X176128955Y-76439613D01*
X176128955Y-76439613D02*
X176205146Y-76401518D01*
X176205146Y-76401518D02*
X176357527Y-76363422D01*
X176357527Y-76363422D02*
X176471813Y-76363422D01*
X176471813Y-76363422D02*
X176624194Y-76401518D01*
X176624194Y-76401518D02*
X176700384Y-76439613D01*
X176700384Y-76439613D02*
X176776575Y-76515803D01*
X176776575Y-76515803D02*
X176814670Y-76630089D01*
X176814670Y-76630089D02*
X176814670Y-76820565D01*
D10*
X140736905Y-92564819D02*
X140736905Y-91564819D01*
X140736905Y-91564819D02*
X140975000Y-91564819D01*
X140975000Y-91564819D02*
X141117857Y-91612438D01*
X141117857Y-91612438D02*
X141213095Y-91707676D01*
X141213095Y-91707676D02*
X141260714Y-91802914D01*
X141260714Y-91802914D02*
X141308333Y-91993390D01*
X141308333Y-91993390D02*
X141308333Y-92136247D01*
X141308333Y-92136247D02*
X141260714Y-92326723D01*
X141260714Y-92326723D02*
X141213095Y-92421961D01*
X141213095Y-92421961D02*
X141117857Y-92517200D01*
X141117857Y-92517200D02*
X140975000Y-92564819D01*
X140975000Y-92564819D02*
X140736905Y-92564819D01*
X142260714Y-92564819D02*
X141689286Y-92564819D01*
X141975000Y-92564819D02*
X141975000Y-91564819D01*
X141975000Y-91564819D02*
X141879762Y-91707676D01*
X141879762Y-91707676D02*
X141784524Y-91802914D01*
X141784524Y-91802914D02*
X141689286Y-91850533D01*
X131243511Y-118230057D02*
X131148273Y-118182438D01*
X131148273Y-118182438D02*
X131053035Y-118087200D01*
X131053035Y-118087200D02*
X130910178Y-117944342D01*
X130910178Y-117944342D02*
X130814940Y-117896723D01*
X130814940Y-117896723D02*
X130719702Y-117896723D01*
X130767321Y-118134819D02*
X130672083Y-118087200D01*
X130672083Y-118087200D02*
X130576845Y-117991961D01*
X130576845Y-117991961D02*
X130529226Y-117801485D01*
X130529226Y-117801485D02*
X130529226Y-117468152D01*
X130529226Y-117468152D02*
X130576845Y-117277676D01*
X130576845Y-117277676D02*
X130672083Y-117182438D01*
X130672083Y-117182438D02*
X130767321Y-117134819D01*
X130767321Y-117134819D02*
X130957797Y-117134819D01*
X130957797Y-117134819D02*
X131053035Y-117182438D01*
X131053035Y-117182438D02*
X131148273Y-117277676D01*
X131148273Y-117277676D02*
X131195892Y-117468152D01*
X131195892Y-117468152D02*
X131195892Y-117801485D01*
X131195892Y-117801485D02*
X131148273Y-117991961D01*
X131148273Y-117991961D02*
X131053035Y-118087200D01*
X131053035Y-118087200D02*
X130957797Y-118134819D01*
X130957797Y-118134819D02*
X130767321Y-118134819D01*
X132148273Y-118134819D02*
X131576845Y-118134819D01*
X131862559Y-118134819D02*
X131862559Y-117134819D01*
X131862559Y-117134819D02*
X131767321Y-117277676D01*
X131767321Y-117277676D02*
X131672083Y-117372914D01*
X131672083Y-117372914D02*
X131576845Y-117420533D01*
X160218333Y-113919580D02*
X160170714Y-113967200D01*
X160170714Y-113967200D02*
X160027857Y-114014819D01*
X160027857Y-114014819D02*
X159932619Y-114014819D01*
X159932619Y-114014819D02*
X159789762Y-113967200D01*
X159789762Y-113967200D02*
X159694524Y-113871961D01*
X159694524Y-113871961D02*
X159646905Y-113776723D01*
X159646905Y-113776723D02*
X159599286Y-113586247D01*
X159599286Y-113586247D02*
X159599286Y-113443390D01*
X159599286Y-113443390D02*
X159646905Y-113252914D01*
X159646905Y-113252914D02*
X159694524Y-113157676D01*
X159694524Y-113157676D02*
X159789762Y-113062438D01*
X159789762Y-113062438D02*
X159932619Y-113014819D01*
X159932619Y-113014819D02*
X160027857Y-113014819D01*
X160027857Y-113014819D02*
X160170714Y-113062438D01*
X160170714Y-113062438D02*
X160218333Y-113110057D01*
X160789762Y-113443390D02*
X160694524Y-113395771D01*
X160694524Y-113395771D02*
X160646905Y-113348152D01*
X160646905Y-113348152D02*
X160599286Y-113252914D01*
X160599286Y-113252914D02*
X160599286Y-113205295D01*
X160599286Y-113205295D02*
X160646905Y-113110057D01*
X160646905Y-113110057D02*
X160694524Y-113062438D01*
X160694524Y-113062438D02*
X160789762Y-113014819D01*
X160789762Y-113014819D02*
X160980238Y-113014819D01*
X160980238Y-113014819D02*
X161075476Y-113062438D01*
X161075476Y-113062438D02*
X161123095Y-113110057D01*
X161123095Y-113110057D02*
X161170714Y-113205295D01*
X161170714Y-113205295D02*
X161170714Y-113252914D01*
X161170714Y-113252914D02*
X161123095Y-113348152D01*
X161123095Y-113348152D02*
X161075476Y-113395771D01*
X161075476Y-113395771D02*
X160980238Y-113443390D01*
X160980238Y-113443390D02*
X160789762Y-113443390D01*
X160789762Y-113443390D02*
X160694524Y-113491009D01*
X160694524Y-113491009D02*
X160646905Y-113538628D01*
X160646905Y-113538628D02*
X160599286Y-113633866D01*
X160599286Y-113633866D02*
X160599286Y-113824342D01*
X160599286Y-113824342D02*
X160646905Y-113919580D01*
X160646905Y-113919580D02*
X160694524Y-113967200D01*
X160694524Y-113967200D02*
X160789762Y-114014819D01*
X160789762Y-114014819D02*
X160980238Y-114014819D01*
X160980238Y-114014819D02*
X161075476Y-113967200D01*
X161075476Y-113967200D02*
X161123095Y-113919580D01*
X161123095Y-113919580D02*
X161170714Y-113824342D01*
X161170714Y-113824342D02*
X161170714Y-113633866D01*
X161170714Y-113633866D02*
X161123095Y-113538628D01*
X161123095Y-113538628D02*
X161075476Y-113491009D01*
X161075476Y-113491009D02*
X160980238Y-113443390D01*
X136640892Y-122764819D02*
X136307559Y-122288628D01*
X136069464Y-122764819D02*
X136069464Y-121764819D01*
X136069464Y-121764819D02*
X136450416Y-121764819D01*
X136450416Y-121764819D02*
X136545654Y-121812438D01*
X136545654Y-121812438D02*
X136593273Y-121860057D01*
X136593273Y-121860057D02*
X136640892Y-121955295D01*
X136640892Y-121955295D02*
X136640892Y-122098152D01*
X136640892Y-122098152D02*
X136593273Y-122193390D01*
X136593273Y-122193390D02*
X136545654Y-122241009D01*
X136545654Y-122241009D02*
X136450416Y-122288628D01*
X136450416Y-122288628D02*
X136069464Y-122288628D01*
X137593273Y-122764819D02*
X137021845Y-122764819D01*
X137307559Y-122764819D02*
X137307559Y-121764819D01*
X137307559Y-121764819D02*
X137212321Y-121907676D01*
X137212321Y-121907676D02*
X137117083Y-122002914D01*
X137117083Y-122002914D02*
X137021845Y-122050533D01*
X138545654Y-122764819D02*
X137974226Y-122764819D01*
X138259940Y-122764819D02*
X138259940Y-121764819D01*
X138259940Y-121764819D02*
X138164702Y-121907676D01*
X138164702Y-121907676D02*
X138069464Y-122002914D01*
X138069464Y-122002914D02*
X137974226Y-122050533D01*
X155241666Y-52739819D02*
X155241666Y-53454104D01*
X155241666Y-53454104D02*
X155194047Y-53596961D01*
X155194047Y-53596961D02*
X155098809Y-53692200D01*
X155098809Y-53692200D02*
X154955952Y-53739819D01*
X154955952Y-53739819D02*
X154860714Y-53739819D01*
X155670238Y-52835057D02*
X155717857Y-52787438D01*
X155717857Y-52787438D02*
X155813095Y-52739819D01*
X155813095Y-52739819D02*
X156051190Y-52739819D01*
X156051190Y-52739819D02*
X156146428Y-52787438D01*
X156146428Y-52787438D02*
X156194047Y-52835057D01*
X156194047Y-52835057D02*
X156241666Y-52930295D01*
X156241666Y-52930295D02*
X156241666Y-53025533D01*
X156241666Y-53025533D02*
X156194047Y-53168390D01*
X156194047Y-53168390D02*
X155622619Y-53739819D01*
X155622619Y-53739819D02*
X156241666Y-53739819D01*
X193879819Y-92112857D02*
X193403628Y-92446190D01*
X193879819Y-92684285D02*
X192879819Y-92684285D01*
X192879819Y-92684285D02*
X192879819Y-92303333D01*
X192879819Y-92303333D02*
X192927438Y-92208095D01*
X192927438Y-92208095D02*
X192975057Y-92160476D01*
X192975057Y-92160476D02*
X193070295Y-92112857D01*
X193070295Y-92112857D02*
X193213152Y-92112857D01*
X193213152Y-92112857D02*
X193308390Y-92160476D01*
X193308390Y-92160476D02*
X193356009Y-92208095D01*
X193356009Y-92208095D02*
X193403628Y-92303333D01*
X193403628Y-92303333D02*
X193403628Y-92684285D01*
X193879819Y-91160476D02*
X193879819Y-91731904D01*
X193879819Y-91446190D02*
X192879819Y-91446190D01*
X192879819Y-91446190D02*
X193022676Y-91541428D01*
X193022676Y-91541428D02*
X193117914Y-91636666D01*
X193117914Y-91636666D02*
X193165533Y-91731904D01*
X193213152Y-90303333D02*
X193879819Y-90303333D01*
X192832200Y-90541428D02*
X193546485Y-90779523D01*
X193546485Y-90779523D02*
X193546485Y-90160476D01*
X186471667Y-107297200D02*
X186614524Y-107344819D01*
X186614524Y-107344819D02*
X186852619Y-107344819D01*
X186852619Y-107344819D02*
X186947857Y-107297200D01*
X186947857Y-107297200D02*
X186995476Y-107249580D01*
X186995476Y-107249580D02*
X187043095Y-107154342D01*
X187043095Y-107154342D02*
X187043095Y-107059104D01*
X187043095Y-107059104D02*
X186995476Y-106963866D01*
X186995476Y-106963866D02*
X186947857Y-106916247D01*
X186947857Y-106916247D02*
X186852619Y-106868628D01*
X186852619Y-106868628D02*
X186662143Y-106821009D01*
X186662143Y-106821009D02*
X186566905Y-106773390D01*
X186566905Y-106773390D02*
X186519286Y-106725771D01*
X186519286Y-106725771D02*
X186471667Y-106630533D01*
X186471667Y-106630533D02*
X186471667Y-106535295D01*
X186471667Y-106535295D02*
X186519286Y-106440057D01*
X186519286Y-106440057D02*
X186566905Y-106392438D01*
X186566905Y-106392438D02*
X186662143Y-106344819D01*
X186662143Y-106344819D02*
X186900238Y-106344819D01*
X186900238Y-106344819D02*
X187043095Y-106392438D01*
X187376429Y-106344819D02*
X187614524Y-107344819D01*
X187614524Y-107344819D02*
X187805000Y-106630533D01*
X187805000Y-106630533D02*
X187995476Y-107344819D01*
X187995476Y-107344819D02*
X188233572Y-106344819D01*
X188519286Y-106344819D02*
X189138333Y-106344819D01*
X189138333Y-106344819D02*
X188805000Y-106725771D01*
X188805000Y-106725771D02*
X188947857Y-106725771D01*
X188947857Y-106725771D02*
X189043095Y-106773390D01*
X189043095Y-106773390D02*
X189090714Y-106821009D01*
X189090714Y-106821009D02*
X189138333Y-106916247D01*
X189138333Y-106916247D02*
X189138333Y-107154342D01*
X189138333Y-107154342D02*
X189090714Y-107249580D01*
X189090714Y-107249580D02*
X189043095Y-107297200D01*
X189043095Y-107297200D02*
X188947857Y-107344819D01*
X188947857Y-107344819D02*
X188662143Y-107344819D01*
X188662143Y-107344819D02*
X188566905Y-107297200D01*
X188566905Y-107297200D02*
X188519286Y-107249580D01*
X143628333Y-116204819D02*
X143295000Y-115728628D01*
X143056905Y-116204819D02*
X143056905Y-115204819D01*
X143056905Y-115204819D02*
X143437857Y-115204819D01*
X143437857Y-115204819D02*
X143533095Y-115252438D01*
X143533095Y-115252438D02*
X143580714Y-115300057D01*
X143580714Y-115300057D02*
X143628333Y-115395295D01*
X143628333Y-115395295D02*
X143628333Y-115538152D01*
X143628333Y-115538152D02*
X143580714Y-115633390D01*
X143580714Y-115633390D02*
X143533095Y-115681009D01*
X143533095Y-115681009D02*
X143437857Y-115728628D01*
X143437857Y-115728628D02*
X143056905Y-115728628D01*
X144199762Y-115633390D02*
X144104524Y-115585771D01*
X144104524Y-115585771D02*
X144056905Y-115538152D01*
X144056905Y-115538152D02*
X144009286Y-115442914D01*
X144009286Y-115442914D02*
X144009286Y-115395295D01*
X144009286Y-115395295D02*
X144056905Y-115300057D01*
X144056905Y-115300057D02*
X144104524Y-115252438D01*
X144104524Y-115252438D02*
X144199762Y-115204819D01*
X144199762Y-115204819D02*
X144390238Y-115204819D01*
X144390238Y-115204819D02*
X144485476Y-115252438D01*
X144485476Y-115252438D02*
X144533095Y-115300057D01*
X144533095Y-115300057D02*
X144580714Y-115395295D01*
X144580714Y-115395295D02*
X144580714Y-115442914D01*
X144580714Y-115442914D02*
X144533095Y-115538152D01*
X144533095Y-115538152D02*
X144485476Y-115585771D01*
X144485476Y-115585771D02*
X144390238Y-115633390D01*
X144390238Y-115633390D02*
X144199762Y-115633390D01*
X144199762Y-115633390D02*
X144104524Y-115681009D01*
X144104524Y-115681009D02*
X144056905Y-115728628D01*
X144056905Y-115728628D02*
X144009286Y-115823866D01*
X144009286Y-115823866D02*
X144009286Y-116014342D01*
X144009286Y-116014342D02*
X144056905Y-116109580D01*
X144056905Y-116109580D02*
X144104524Y-116157200D01*
X144104524Y-116157200D02*
X144199762Y-116204819D01*
X144199762Y-116204819D02*
X144390238Y-116204819D01*
X144390238Y-116204819D02*
X144485476Y-116157200D01*
X144485476Y-116157200D02*
X144533095Y-116109580D01*
X144533095Y-116109580D02*
X144580714Y-116014342D01*
X144580714Y-116014342D02*
X144580714Y-115823866D01*
X144580714Y-115823866D02*
X144533095Y-115728628D01*
X144533095Y-115728628D02*
X144485476Y-115681009D01*
X144485476Y-115681009D02*
X144390238Y-115633390D01*
X193784580Y-105006666D02*
X193832200Y-105054285D01*
X193832200Y-105054285D02*
X193879819Y-105197142D01*
X193879819Y-105197142D02*
X193879819Y-105292380D01*
X193879819Y-105292380D02*
X193832200Y-105435237D01*
X193832200Y-105435237D02*
X193736961Y-105530475D01*
X193736961Y-105530475D02*
X193641723Y-105578094D01*
X193641723Y-105578094D02*
X193451247Y-105625713D01*
X193451247Y-105625713D02*
X193308390Y-105625713D01*
X193308390Y-105625713D02*
X193117914Y-105578094D01*
X193117914Y-105578094D02*
X193022676Y-105530475D01*
X193022676Y-105530475D02*
X192927438Y-105435237D01*
X192927438Y-105435237D02*
X192879819Y-105292380D01*
X192879819Y-105292380D02*
X192879819Y-105197142D01*
X192879819Y-105197142D02*
X192927438Y-105054285D01*
X192927438Y-105054285D02*
X192975057Y-105006666D01*
X193879819Y-104054285D02*
X193879819Y-104625713D01*
X193879819Y-104339999D02*
X192879819Y-104339999D01*
X192879819Y-104339999D02*
X193022676Y-104435237D01*
X193022676Y-104435237D02*
X193117914Y-104530475D01*
X193117914Y-104530475D02*
X193165533Y-104625713D01*
X198037200Y-83148332D02*
X198084819Y-83005475D01*
X198084819Y-83005475D02*
X198084819Y-82767380D01*
X198084819Y-82767380D02*
X198037200Y-82672142D01*
X198037200Y-82672142D02*
X197989580Y-82624523D01*
X197989580Y-82624523D02*
X197894342Y-82576904D01*
X197894342Y-82576904D02*
X197799104Y-82576904D01*
X197799104Y-82576904D02*
X197703866Y-82624523D01*
X197703866Y-82624523D02*
X197656247Y-82672142D01*
X197656247Y-82672142D02*
X197608628Y-82767380D01*
X197608628Y-82767380D02*
X197561009Y-82957856D01*
X197561009Y-82957856D02*
X197513390Y-83053094D01*
X197513390Y-83053094D02*
X197465771Y-83100713D01*
X197465771Y-83100713D02*
X197370533Y-83148332D01*
X197370533Y-83148332D02*
X197275295Y-83148332D01*
X197275295Y-83148332D02*
X197180057Y-83100713D01*
X197180057Y-83100713D02*
X197132438Y-83053094D01*
X197132438Y-83053094D02*
X197084819Y-82957856D01*
X197084819Y-82957856D02*
X197084819Y-82719761D01*
X197084819Y-82719761D02*
X197132438Y-82576904D01*
X197084819Y-82243570D02*
X198084819Y-82005475D01*
X198084819Y-82005475D02*
X197370533Y-81814999D01*
X197370533Y-81814999D02*
X198084819Y-81624523D01*
X198084819Y-81624523D02*
X197084819Y-81386428D01*
X198084819Y-80481666D02*
X198084819Y-81053094D01*
X198084819Y-80767380D02*
X197084819Y-80767380D01*
X197084819Y-80767380D02*
X197227676Y-80862618D01*
X197227676Y-80862618D02*
X197322914Y-80957856D01*
X197322914Y-80957856D02*
X197370533Y-81053094D01*
X170106666Y-52884819D02*
X170106666Y-53599104D01*
X170106666Y-53599104D02*
X170059047Y-53741961D01*
X170059047Y-53741961D02*
X169963809Y-53837200D01*
X169963809Y-53837200D02*
X169820952Y-53884819D01*
X169820952Y-53884819D02*
X169725714Y-53884819D01*
X170487619Y-52884819D02*
X171106666Y-52884819D01*
X171106666Y-52884819D02*
X170773333Y-53265771D01*
X170773333Y-53265771D02*
X170916190Y-53265771D01*
X170916190Y-53265771D02*
X171011428Y-53313390D01*
X171011428Y-53313390D02*
X171059047Y-53361009D01*
X171059047Y-53361009D02*
X171106666Y-53456247D01*
X171106666Y-53456247D02*
X171106666Y-53694342D01*
X171106666Y-53694342D02*
X171059047Y-53789580D01*
X171059047Y-53789580D02*
X171011428Y-53837200D01*
X171011428Y-53837200D02*
X170916190Y-53884819D01*
X170916190Y-53884819D02*
X170630476Y-53884819D01*
X170630476Y-53884819D02*
X170535238Y-53837200D01*
X170535238Y-53837200D02*
X170487619Y-53789580D01*
X146874819Y-123676666D02*
X146398628Y-124009999D01*
X146874819Y-124248094D02*
X145874819Y-124248094D01*
X145874819Y-124248094D02*
X145874819Y-123867142D01*
X145874819Y-123867142D02*
X145922438Y-123771904D01*
X145922438Y-123771904D02*
X145970057Y-123724285D01*
X145970057Y-123724285D02*
X146065295Y-123676666D01*
X146065295Y-123676666D02*
X146208152Y-123676666D01*
X146208152Y-123676666D02*
X146303390Y-123724285D01*
X146303390Y-123724285D02*
X146351009Y-123771904D01*
X146351009Y-123771904D02*
X146398628Y-123867142D01*
X146398628Y-123867142D02*
X146398628Y-124248094D01*
X146874819Y-123200475D02*
X146874819Y-123009999D01*
X146874819Y-123009999D02*
X146827200Y-122914761D01*
X146827200Y-122914761D02*
X146779580Y-122867142D01*
X146779580Y-122867142D02*
X146636723Y-122771904D01*
X146636723Y-122771904D02*
X146446247Y-122724285D01*
X146446247Y-122724285D02*
X146065295Y-122724285D01*
X146065295Y-122724285D02*
X145970057Y-122771904D01*
X145970057Y-122771904D02*
X145922438Y-122819523D01*
X145922438Y-122819523D02*
X145874819Y-122914761D01*
X145874819Y-122914761D02*
X145874819Y-123105237D01*
X145874819Y-123105237D02*
X145922438Y-123200475D01*
X145922438Y-123200475D02*
X145970057Y-123248094D01*
X145970057Y-123248094D02*
X146065295Y-123295713D01*
X146065295Y-123295713D02*
X146303390Y-123295713D01*
X146303390Y-123295713D02*
X146398628Y-123248094D01*
X146398628Y-123248094D02*
X146446247Y-123200475D01*
X146446247Y-123200475D02*
X146493866Y-123105237D01*
X146493866Y-123105237D02*
X146493866Y-122914761D01*
X146493866Y-122914761D02*
X146446247Y-122819523D01*
X146446247Y-122819523D02*
X146398628Y-122771904D01*
X146398628Y-122771904D02*
X146303390Y-122724285D01*
X148854819Y-113501904D02*
X149664342Y-113501904D01*
X149664342Y-113501904D02*
X149759580Y-113454285D01*
X149759580Y-113454285D02*
X149807200Y-113406666D01*
X149807200Y-113406666D02*
X149854819Y-113311428D01*
X149854819Y-113311428D02*
X149854819Y-113120952D01*
X149854819Y-113120952D02*
X149807200Y-113025714D01*
X149807200Y-113025714D02*
X149759580Y-112978095D01*
X149759580Y-112978095D02*
X149664342Y-112930476D01*
X149664342Y-112930476D02*
X148854819Y-112930476D01*
X148854819Y-112549523D02*
X148854819Y-111930476D01*
X148854819Y-111930476D02*
X149235771Y-112263809D01*
X149235771Y-112263809D02*
X149235771Y-112120952D01*
X149235771Y-112120952D02*
X149283390Y-112025714D01*
X149283390Y-112025714D02*
X149331009Y-111978095D01*
X149331009Y-111978095D02*
X149426247Y-111930476D01*
X149426247Y-111930476D02*
X149664342Y-111930476D01*
X149664342Y-111930476D02*
X149759580Y-111978095D01*
X149759580Y-111978095D02*
X149807200Y-112025714D01*
X149807200Y-112025714D02*
X149854819Y-112120952D01*
X149854819Y-112120952D02*
X149854819Y-112406666D01*
X149854819Y-112406666D02*
X149807200Y-112501904D01*
X149807200Y-112501904D02*
X149759580Y-112549523D01*
X141054819Y-110698094D02*
X140054819Y-110698094D01*
X140054819Y-110698094D02*
X140054819Y-110459999D01*
X140054819Y-110459999D02*
X140102438Y-110317142D01*
X140102438Y-110317142D02*
X140197676Y-110221904D01*
X140197676Y-110221904D02*
X140292914Y-110174285D01*
X140292914Y-110174285D02*
X140483390Y-110126666D01*
X140483390Y-110126666D02*
X140626247Y-110126666D01*
X140626247Y-110126666D02*
X140816723Y-110174285D01*
X140816723Y-110174285D02*
X140911961Y-110221904D01*
X140911961Y-110221904D02*
X141007200Y-110317142D01*
X141007200Y-110317142D02*
X141054819Y-110459999D01*
X141054819Y-110459999D02*
X141054819Y-110698094D01*
X140388152Y-109269523D02*
X141054819Y-109269523D01*
X140007200Y-109507618D02*
X140721485Y-109745713D01*
X140721485Y-109745713D02*
X140721485Y-109126666D01*
X159742142Y-110119580D02*
X159694523Y-110167200D01*
X159694523Y-110167200D02*
X159551666Y-110214819D01*
X159551666Y-110214819D02*
X159456428Y-110214819D01*
X159456428Y-110214819D02*
X159313571Y-110167200D01*
X159313571Y-110167200D02*
X159218333Y-110071961D01*
X159218333Y-110071961D02*
X159170714Y-109976723D01*
X159170714Y-109976723D02*
X159123095Y-109786247D01*
X159123095Y-109786247D02*
X159123095Y-109643390D01*
X159123095Y-109643390D02*
X159170714Y-109452914D01*
X159170714Y-109452914D02*
X159218333Y-109357676D01*
X159218333Y-109357676D02*
X159313571Y-109262438D01*
X159313571Y-109262438D02*
X159456428Y-109214819D01*
X159456428Y-109214819D02*
X159551666Y-109214819D01*
X159551666Y-109214819D02*
X159694523Y-109262438D01*
X159694523Y-109262438D02*
X159742142Y-109310057D01*
X160694523Y-110214819D02*
X160123095Y-110214819D01*
X160408809Y-110214819D02*
X160408809Y-109214819D01*
X160408809Y-109214819D02*
X160313571Y-109357676D01*
X160313571Y-109357676D02*
X160218333Y-109452914D01*
X160218333Y-109452914D02*
X160123095Y-109500533D01*
X161313571Y-109214819D02*
X161408809Y-109214819D01*
X161408809Y-109214819D02*
X161504047Y-109262438D01*
X161504047Y-109262438D02*
X161551666Y-109310057D01*
X161551666Y-109310057D02*
X161599285Y-109405295D01*
X161599285Y-109405295D02*
X161646904Y-109595771D01*
X161646904Y-109595771D02*
X161646904Y-109833866D01*
X161646904Y-109833866D02*
X161599285Y-110024342D01*
X161599285Y-110024342D02*
X161551666Y-110119580D01*
X161551666Y-110119580D02*
X161504047Y-110167200D01*
X161504047Y-110167200D02*
X161408809Y-110214819D01*
X161408809Y-110214819D02*
X161313571Y-110214819D01*
X161313571Y-110214819D02*
X161218333Y-110167200D01*
X161218333Y-110167200D02*
X161170714Y-110119580D01*
X161170714Y-110119580D02*
X161123095Y-110024342D01*
X161123095Y-110024342D02*
X161075476Y-109833866D01*
X161075476Y-109833866D02*
X161075476Y-109595771D01*
X161075476Y-109595771D02*
X161123095Y-109405295D01*
X161123095Y-109405295D02*
X161170714Y-109310057D01*
X161170714Y-109310057D02*
X161218333Y-109262438D01*
X161218333Y-109262438D02*
X161313571Y-109214819D01*
D15*
%TO.C,R10*%
X140235000Y-122792936D02*
X140235000Y-124247064D01*
X142055000Y-122792936D02*
X142055000Y-124247064D01*
%TO.C,U4*%
X152805000Y-86890000D02*
X152805000Y-87890000D01*
X152805000Y-105130000D02*
X152805000Y-104130000D01*
X153425000Y-86890000D02*
X152805000Y-86890000D01*
X153425000Y-105130000D02*
X152805000Y-105130000D01*
X172245000Y-86890000D02*
X172245000Y-105130000D01*
X172245000Y-105130000D02*
X171825000Y-105130000D01*
X172000000Y-86885000D02*
X171500000Y-86885000D01*
X171500000Y-86385000D01*
X172000000Y-86885000D01*
G36*
X172000000Y-86885000D02*
G01*
X171500000Y-86885000D01*
X171500000Y-86385000D01*
X172000000Y-86885000D01*
G37*
%TO.C,C9*%
X164925000Y-110110000D02*
X165425000Y-110110000D01*
X165175000Y-109860000D02*
X165175000Y-110360000D01*
X165665000Y-110474437D02*
X165665000Y-110610000D01*
X165665000Y-110474437D02*
X166729437Y-109410000D01*
X165665000Y-112865563D02*
X165665000Y-112730000D01*
X165665000Y-112865563D02*
X166729437Y-113930000D01*
X166729437Y-109410000D02*
X170185000Y-109410000D01*
X166729437Y-113930000D02*
X170185000Y-113930000D01*
X170185000Y-109410000D02*
X170185000Y-110610000D01*
X170185000Y-113930000D02*
X170185000Y-112730000D01*
%TO.C,SW2*%
X184615000Y-108860000D02*
X184615000Y-109270000D01*
X184615000Y-110870000D02*
X184615000Y-113270000D01*
X184615000Y-114870000D02*
X184615000Y-115280000D01*
X184615000Y-115280000D02*
X191035000Y-115280000D01*
X191035000Y-108860000D02*
X184615000Y-108860000D01*
X191035000Y-109270000D02*
X191035000Y-108860000D01*
X191035000Y-113270000D02*
X191035000Y-110870000D01*
X191035000Y-115280000D02*
X191035000Y-115000000D01*
%TO.C,C6*%
X165671252Y-82910000D02*
X164248748Y-82910000D01*
X165671252Y-84730000D02*
X164248748Y-84730000D01*
%TO.C,J4*%
X139835000Y-52392500D02*
X138725000Y-52392500D01*
X139835000Y-55642500D02*
X138725000Y-55642500D01*
X140425000Y-56692500D02*
X140925000Y-56692500D01*
X140675000Y-56192500D02*
X140425000Y-56692500D01*
X140925000Y-56692500D02*
X140675000Y-56192500D01*
X142625000Y-52392500D02*
X141515000Y-52392500D01*
X142625000Y-55642500D02*
X141515000Y-55642500D01*
%TO.C,R12*%
X138010814Y-113840000D02*
X136556686Y-113840000D01*
X138010814Y-115660000D02*
X136556686Y-115660000D01*
%TO.C,J5*%
X185355000Y-52392500D02*
X184245000Y-52392500D01*
X185355000Y-55642500D02*
X184245000Y-55642500D01*
X185945000Y-56692500D02*
X186445000Y-56692500D01*
X186195000Y-56192500D02*
X185945000Y-56692500D01*
X186445000Y-56692500D02*
X186195000Y-56192500D01*
X188145000Y-52392500D02*
X187035000Y-52392500D01*
X188145000Y-55642500D02*
X187035000Y-55642500D01*
%TO.C,SW4*%
X184675000Y-89580000D02*
X184675000Y-89990000D01*
X184675000Y-91590000D02*
X184675000Y-93990000D01*
X184675000Y-95590000D02*
X184675000Y-96000000D01*
X184675000Y-96000000D02*
X191095000Y-96000000D01*
X191095000Y-89580000D02*
X184675000Y-89580000D01*
X191095000Y-89990000D02*
X191095000Y-89580000D01*
X191095000Y-93990000D02*
X191095000Y-91590000D01*
X191095000Y-96000000D02*
X191095000Y-95720000D01*
%TO.C,D5*%
X137600000Y-108360000D02*
X137600000Y-112420000D01*
X137600000Y-112420000D02*
X139870000Y-112420000D01*
X139870000Y-112420000D02*
X139870000Y-108360000D01*
%TO.C,Q2*%
X130578750Y-118680000D02*
X132098750Y-118680000D01*
X130578750Y-119680000D02*
X130578750Y-118680000D01*
X130578750Y-121800000D02*
X130578750Y-120800000D01*
X132098750Y-118680000D02*
X132098750Y-118730000D01*
X132098750Y-119850000D02*
X132098750Y-120630000D01*
X132098750Y-121750000D02*
X132098750Y-121800000D01*
X132098750Y-121800000D02*
X130578750Y-121800000D01*
X132638750Y-120620000D02*
X132398750Y-120290000D01*
X132878750Y-120290000D01*
X132638750Y-120620000D01*
G36*
X132638750Y-120620000D02*
G01*
X132398750Y-120290000D01*
X132878750Y-120290000D01*
X132638750Y-120620000D01*
G37*
%TO.C,C7*%
X164985000Y-115650000D02*
X165485000Y-115650000D01*
X165235000Y-115400000D02*
X165235000Y-115900000D01*
X165725000Y-116014437D02*
X165725000Y-116150000D01*
X165725000Y-116014437D02*
X166789437Y-114950000D01*
X165725000Y-118405563D02*
X165725000Y-118270000D01*
X165725000Y-118405563D02*
X166789437Y-119470000D01*
X166789437Y-114950000D02*
X170245000Y-114950000D01*
X166789437Y-119470000D02*
X170245000Y-119470000D01*
X170245000Y-114950000D02*
X170245000Y-116150000D01*
X170245000Y-119470000D02*
X170245000Y-118270000D01*
D16*
%TO.C,U5*%
X142450500Y-69204000D02*
X142450600Y-80380000D01*
X142450600Y-61580000D02*
X142450500Y-66537000D01*
X142450600Y-80380000D02*
X144791200Y-80380000D01*
X146053500Y-80380000D02*
X146061200Y-80380000D01*
X146061200Y-80380000D02*
X146057400Y-80380000D01*
X147323500Y-80380000D02*
X147331200Y-80380000D01*
X148593500Y-80380000D02*
X148601200Y-80380000D01*
X149863500Y-80380000D02*
X149871200Y-80380000D01*
X151133500Y-80380000D02*
X151141200Y-80380000D01*
X152403500Y-80380000D02*
X152411200Y-80380000D01*
X153673500Y-80380000D02*
X153681200Y-80380000D01*
X154943500Y-80380000D02*
X157309600Y-80380000D01*
X157309600Y-61580000D02*
X142450600Y-61580000D01*
X157309600Y-61580000D02*
X157356500Y-68615000D01*
X157356500Y-71155000D02*
X157309600Y-80380000D01*
D15*
%TO.C,R13*%
X194345000Y-99817064D02*
X194345000Y-98362936D01*
X196165000Y-99817064D02*
X196165000Y-98362936D01*
%TO.C,J7*%
X147535000Y-122460000D02*
X147535000Y-124380000D01*
X147535000Y-128095000D02*
X147535000Y-126390000D01*
X156695000Y-124380000D02*
X156695000Y-122460000D01*
X156695000Y-126390000D02*
X156695000Y-128095000D01*
X156695000Y-128095000D02*
X147535000Y-128095000D01*
D16*
%TO.C,U2*%
X164362700Y-69230000D02*
X164362800Y-80406000D01*
X164362800Y-61606000D02*
X164362700Y-66563000D01*
X164362800Y-80406000D02*
X166703400Y-80406000D01*
X167965700Y-80406000D02*
X167973400Y-80406000D01*
X167973400Y-80406000D02*
X167969600Y-80406000D01*
X169235700Y-80406000D02*
X169243400Y-80406000D01*
X170505700Y-80406000D02*
X170513400Y-80406000D01*
X171775700Y-80406000D02*
X171783400Y-80406000D01*
X173045700Y-80406000D02*
X173053400Y-80406000D01*
X174315700Y-80406000D02*
X174323400Y-80406000D01*
X175585700Y-80406000D02*
X175593400Y-80406000D01*
X176855700Y-80406000D02*
X179221800Y-80406000D01*
X179221800Y-61606000D02*
X164362800Y-61606000D01*
X179221800Y-61606000D02*
X179268700Y-68641000D01*
X179268700Y-71181000D02*
X179221800Y-80406000D01*
D10*
%TO.C,D1*%
X138675000Y-93910000D02*
X138675000Y-92910000D01*
X144175000Y-92910000D02*
X138675000Y-92910000D01*
X144175000Y-95910000D02*
X138775000Y-95910000D01*
D15*
%TO.C,Q1*%
X130578750Y-113720000D02*
X132098750Y-113720000D01*
X130578750Y-114720000D02*
X130578750Y-113720000D01*
X130578750Y-116840000D02*
X130578750Y-115840000D01*
X132098750Y-113720000D02*
X132098750Y-113770000D01*
X132098750Y-114890000D02*
X132098750Y-115670000D01*
X132098750Y-116790000D02*
X132098750Y-116840000D01*
X132098750Y-116840000D02*
X130578750Y-116840000D01*
X132638750Y-115660000D02*
X132398750Y-115330000D01*
X132878750Y-115330000D01*
X132638750Y-115660000D01*
G36*
X132638750Y-115660000D02*
G01*
X132398750Y-115330000D01*
X132878750Y-115330000D01*
X132638750Y-115660000D01*
G37*
%TO.C,C8*%
X159673748Y-114500000D02*
X161096252Y-114500000D01*
X159673748Y-116320000D02*
X161096252Y-116320000D01*
%TO.C,R11*%
X138010814Y-119570000D02*
X136556686Y-119570000D01*
X138010814Y-121390000D02*
X136556686Y-121390000D01*
%TO.C,J2*%
X154215000Y-55085000D02*
X154215000Y-55725000D01*
X154215000Y-55725000D02*
X153585000Y-55725000D01*
X154215000Y-57885000D02*
X154215000Y-57245000D01*
X156935000Y-55135000D02*
X156935000Y-57835000D01*
%TO.C,R14*%
X194345000Y-92197064D02*
X194345000Y-90742936D01*
X196165000Y-92197064D02*
X196165000Y-90742936D01*
%TO.C,SW3*%
X184595000Y-99440000D02*
X184595000Y-99850000D01*
X184595000Y-101450000D02*
X184595000Y-103850000D01*
X184595000Y-105450000D02*
X184595000Y-105860000D01*
X184595000Y-105860000D02*
X191015000Y-105860000D01*
X191015000Y-99440000D02*
X184595000Y-99440000D01*
X191015000Y-99850000D02*
X191015000Y-99440000D01*
X191015000Y-103850000D02*
X191015000Y-101450000D01*
X191015000Y-105860000D02*
X191015000Y-105580000D01*
%TO.C,R8*%
X144522064Y-113010000D02*
X143067936Y-113010000D01*
X144522064Y-114830000D02*
X143067936Y-114830000D01*
%TO.C,C1*%
X194365000Y-105551252D02*
X194365000Y-104128748D01*
X196185000Y-105551252D02*
X196185000Y-104128748D01*
%TO.C,SW1*%
X192885000Y-85865000D02*
X192885000Y-77765000D01*
X192885000Y-85865000D02*
X196285000Y-85865000D01*
X196285000Y-77765000D02*
X192885000Y-77765000D01*
X196285000Y-77765000D02*
X196285000Y-85865000D01*
%TO.C,J3*%
X169080000Y-55230000D02*
X169080000Y-55870000D01*
X169080000Y-55870000D02*
X168450000Y-55870000D01*
X169080000Y-58030000D02*
X169080000Y-57390000D01*
X171800000Y-55280000D02*
X171800000Y-57980000D01*
%TO.C,R9*%
X143680000Y-122782936D02*
X143680000Y-124237064D01*
X145500000Y-122782936D02*
X145500000Y-124237064D01*
%TO.C,U3*%
X150590000Y-110130000D02*
X151315000Y-110130000D01*
X150590000Y-110855000D02*
X150590000Y-110130000D01*
X150590000Y-115350000D02*
X150590000Y-114625000D01*
X151315000Y-115350000D02*
X150590000Y-115350000D01*
X155085000Y-110130000D02*
X155810000Y-110130000D01*
X155810000Y-110130000D02*
X155810000Y-110855000D01*
X155810000Y-114625000D02*
X155810000Y-115350000D01*
X155810000Y-115350000D02*
X155085000Y-115350000D01*
X151940000Y-116180000D02*
X151460000Y-116180000D01*
X151700000Y-115850000D01*
X151940000Y-116180000D01*
G36*
X151940000Y-116180000D02*
G01*
X151460000Y-116180000D01*
X151700000Y-115850000D01*
X151940000Y-116180000D01*
G37*
%TO.C,D4*%
X141295000Y-108360000D02*
X141295000Y-112420000D01*
X141295000Y-112420000D02*
X143565000Y-112420000D01*
X143565000Y-112420000D02*
X143565000Y-108360000D01*
%TO.C,C10*%
X159673748Y-110700000D02*
X161096252Y-110700000D01*
X159673748Y-112520000D02*
X161096252Y-112520000D01*
%TD*%
M02*
