%TF.GenerationSoftware,KiCad,Pcbnew,9.0.7*%
%TF.CreationDate,2026-01-28T06:25:18-03:00*%
%TF.ProjectId,jammerBT_v4,6a616d6d-6572-4425-945f-76342e6b6963,rev?*%
%TF.SameCoordinates,Original*%
%TF.FileFunction,Drillmap*%
%TF.FilePolarity,Positive*%
%FSLAX45Y45*%
G04 Gerber Fmt 4.5, Leading zero omitted, Abs format (unit mm)*
G04 Created by KiCad (PCBNEW 9.0.7) date 2026-01-28 06:25:18*
%MOMM*%
%LPD*%
G01*
G04 APERTURE LIST*
%ADD10C,0.100000*%
%ADD11C,0.200000*%
%ADD12C,0.130000*%
%ADD13C,0.320000*%
G04 APERTURE END LIST*
D10*
X12677000Y-5483000D02*
G75*
G02*
X12977000Y-5183000I300000J0D01*
G01*
X12977000Y-12854000D02*
G75*
G02*
X12677000Y-12554000I0J300000D01*
G01*
X21699000Y-5183000D02*
G75*
G02*
X21999000Y-5483000I0J-300000D01*
G01*
X21999000Y-12554000D02*
G75*
G02*
X21699000Y-12854000I-300000J0D01*
G01*
X12677000Y-12554000D02*
X12677000Y-5483000D01*
X12977000Y-5183000D02*
X21699000Y-5183000D01*
X21699000Y-12854000D02*
X12977000Y-12854000D01*
X21999000Y-5483000D02*
X21999000Y-12554000D01*
D11*
D10*
X15210000Y-11164000D02*
X15230000Y-11184000D01*
X15230000Y-11164000D02*
X15210000Y-11184000D01*
X15210000Y-11264000D02*
X15230000Y-11284000D01*
X15230000Y-11264000D02*
X15210000Y-11284000D01*
X15210000Y-11364000D02*
X15230000Y-11384000D01*
X15230000Y-11364000D02*
X15210000Y-11384000D01*
X15310000Y-11164000D02*
X15330000Y-11184000D01*
X15330000Y-11164000D02*
X15310000Y-11184000D01*
X15310000Y-11264000D02*
X15330000Y-11284000D01*
X15330000Y-11264000D02*
X15310000Y-11284000D01*
X15310000Y-11364000D02*
X15330000Y-11384000D01*
X15330000Y-11364000D02*
X15310000Y-11384000D01*
X15410000Y-11164000D02*
X15430000Y-11184000D01*
X15430000Y-11164000D02*
X15410000Y-11184000D01*
X15410000Y-11264000D02*
X15430000Y-11284000D01*
X15430000Y-11264000D02*
X15410000Y-11284000D01*
X15410000Y-11364000D02*
X15430000Y-11384000D01*
X15430000Y-11364000D02*
X15410000Y-11384000D01*
X16171500Y-9371000D02*
X16191500Y-9391000D01*
X16191500Y-9371000D02*
X16171500Y-9391000D01*
X16171500Y-9511000D02*
X16191500Y-9531000D01*
X16191500Y-9511000D02*
X16171500Y-9531000D01*
X16241500Y-9301000D02*
X16261500Y-9321000D01*
X16261500Y-9301000D02*
X16241500Y-9321000D01*
X16241500Y-9441000D02*
X16261500Y-9461000D01*
X16261500Y-9441000D02*
X16241500Y-9461000D01*
X16241500Y-9581000D02*
X16261500Y-9601000D01*
X16261500Y-9581000D02*
X16241500Y-9601000D01*
X16311500Y-9371000D02*
X16331500Y-9391000D01*
X16331500Y-9371000D02*
X16311500Y-9391000D01*
X16311500Y-9511000D02*
X16331500Y-9531000D01*
X16331500Y-9511000D02*
X16311500Y-9531000D01*
X16381500Y-9301000D02*
X16401500Y-9321000D01*
X16401500Y-9301000D02*
X16381500Y-9321000D01*
X16381500Y-9441000D02*
X16401500Y-9461000D01*
X16401500Y-9441000D02*
X16381500Y-9461000D01*
X16381500Y-9581000D02*
X16401500Y-9601000D01*
X16401500Y-9581000D02*
X16381500Y-9601000D01*
X16451500Y-9371000D02*
X16471500Y-9391000D01*
X16471500Y-9371000D02*
X16451500Y-9391000D01*
X16451500Y-9511000D02*
X16471500Y-9531000D01*
X16471500Y-9511000D02*
X16451500Y-9531000D01*
X15270000Y-11783000D02*
G75*
G02*
X15240000Y-11783000I-15000J0D01*
G01*
X15240000Y-11783000D02*
G75*
G02*
X15270000Y-11783000I15000J0D01*
G01*
X15504000Y-11773000D02*
G75*
G02*
X15474000Y-11773000I-15000J0D01*
G01*
X15474000Y-11773000D02*
G75*
G02*
X15504000Y-11773000I15000J0D01*
G01*
X12983000Y-11623000D02*
X12983000Y-11663000D01*
X12963000Y-11643000D02*
X13003000Y-11643000D01*
X12999000Y-11892000D02*
X12999000Y-11932000D01*
X12979000Y-11912000D02*
X13019000Y-11912000D01*
X13693180Y-8921720D02*
X13693180Y-8961720D01*
X13673180Y-8941720D02*
X13713180Y-8941720D01*
X13873500Y-11124750D02*
X13873500Y-11164750D01*
X13853500Y-11144750D02*
X13893500Y-11144750D01*
X14078500Y-8921720D02*
X14078500Y-8961720D01*
X14058500Y-8941720D02*
X14098500Y-8941720D01*
X14227500Y-11124750D02*
X14227500Y-11164750D01*
X14207500Y-11144750D02*
X14247500Y-11144750D01*
X14483180Y-8921720D02*
X14483180Y-8961720D01*
X14463180Y-8941720D02*
X14503180Y-8941720D01*
X14983000Y-11888000D02*
X14983000Y-11928000D01*
X14963000Y-11908000D02*
X15003000Y-11908000D01*
X15317500Y-10152500D02*
X15317500Y-10192500D01*
X15297500Y-10172500D02*
X15337500Y-10172500D01*
X15427000Y-10456000D02*
X15427000Y-10496000D01*
X15407000Y-10476000D02*
X15447000Y-10476000D01*
X15431240Y-8018000D02*
X15431240Y-8058000D01*
X15411240Y-8038000D02*
X15451240Y-8038000D01*
X15554000Y-10456000D02*
X15554000Y-10496000D01*
X15534000Y-10476000D02*
X15574000Y-10476000D01*
X15581000Y-11879000D02*
X15581000Y-11919000D01*
X15561000Y-11899000D02*
X15601000Y-11899000D01*
X15681000Y-10456000D02*
X15681000Y-10496000D01*
X15661000Y-10476000D02*
X15701000Y-10476000D01*
X16189000Y-10456000D02*
X16189000Y-10496000D01*
X16169000Y-10476000D02*
X16209000Y-10476000D01*
X16194750Y-11141000D02*
X16194750Y-11181000D01*
X16174750Y-11161000D02*
X16214750Y-11161000D01*
X16339750Y-8362000D02*
X16339750Y-8402000D01*
X16319750Y-8382000D02*
X16359750Y-8382000D01*
X16443000Y-8706000D02*
X16443000Y-8746000D01*
X16423000Y-8726000D02*
X16463000Y-8726000D01*
X16570000Y-10456000D02*
X16570000Y-10496000D01*
X16550000Y-10476000D02*
X16590000Y-10476000D01*
X16612500Y-11141000D02*
X16612500Y-11181000D01*
X16592500Y-11161000D02*
X16632500Y-11161000D01*
X16697000Y-10456000D02*
X16697000Y-10496000D01*
X16677000Y-10476000D02*
X16717000Y-10476000D01*
X16824000Y-8706000D02*
X16824000Y-8746000D01*
X16804000Y-8726000D02*
X16844000Y-8726000D01*
X16951000Y-8706000D02*
X16951000Y-8746000D01*
X16931000Y-8726000D02*
X16971000Y-8726000D01*
X17076500Y-10225000D02*
X17076500Y-10265000D01*
X17056500Y-10245000D02*
X17096500Y-10245000D01*
X17402000Y-10150000D02*
X17402000Y-10190000D01*
X17382000Y-10170000D02*
X17422000Y-10170000D01*
X17506000Y-11445000D02*
X17506000Y-11485000D01*
X17486000Y-11465000D02*
X17526000Y-11465000D01*
X17622460Y-8020600D02*
X17622460Y-8060600D01*
X17602460Y-8040600D02*
X17642460Y-8040600D01*
X17828500Y-11432500D02*
X17828500Y-11472500D01*
X17808500Y-11452500D02*
X17848500Y-11452500D01*
X17999000Y-9304000D02*
X17999000Y-9344000D01*
X17979000Y-9324000D02*
X18019000Y-9324000D01*
X18181000Y-8237000D02*
X18181000Y-8277000D01*
X18161000Y-8257000D02*
X18201000Y-8257000D01*
X18839000Y-12181000D02*
X18839000Y-12221000D01*
X18819000Y-12201000D02*
X18859000Y-12201000D01*
X14800713Y-12139713D02*
X14800713Y-12097287D01*
X14758287Y-12097287D01*
X14758287Y-12139713D01*
X14800713Y-12139713D01*
X14749500Y-12063500D02*
X14749500Y-12173500D01*
X14809500Y-12173500D02*
G75*
G02*
X14749500Y-12173500I-30000J0D01*
G01*
X14809500Y-12173500D02*
X14809500Y-12063500D01*
X14809500Y-12063500D02*
G75*
G03*
X14749500Y-12063500I-30000J0D01*
G01*
X14800713Y-12559713D02*
X14800713Y-12517287D01*
X14758287Y-12517287D01*
X14758287Y-12559713D01*
X14800713Y-12559713D01*
X14749500Y-12498500D02*
X14749500Y-12578500D01*
X14809500Y-12578500D02*
G75*
G02*
X14749500Y-12578500I-30000J0D01*
G01*
X14809500Y-12578500D02*
X14809500Y-12498500D01*
X14809500Y-12498500D02*
G75*
G03*
X14749500Y-12498500I-30000J0D01*
G01*
X15664713Y-12139713D02*
X15664713Y-12097287D01*
X15622287Y-12097287D01*
X15622287Y-12139713D01*
X15664713Y-12139713D01*
X15613500Y-12063500D02*
X15613500Y-12173500D01*
X15673500Y-12173500D02*
G75*
G02*
X15613500Y-12173500I-30000J0D01*
G01*
X15673500Y-12173500D02*
X15673500Y-12063500D01*
X15673500Y-12063500D02*
G75*
G03*
X15613500Y-12063500I-30000J0D01*
G01*
X15664713Y-12559713D02*
X15664713Y-12517287D01*
X15622287Y-12517287D01*
X15622287Y-12559713D01*
X15664713Y-12559713D01*
X15613500Y-12498500D02*
X15613500Y-12578500D01*
X15673500Y-12578500D02*
G75*
G02*
X15613500Y-12578500I-30000J0D01*
G01*
X15673500Y-12578500D02*
X15673500Y-12498500D01*
X15673500Y-12498500D02*
G75*
G03*
X15613500Y-12498500I-30000J0D01*
G01*
D12*
X19458500Y-8021500D02*
X19523500Y-7956500D01*
X19458500Y-7891500D01*
X19393500Y-7956500D01*
X19458500Y-8021500D01*
D10*
X19398500Y-8021500D02*
X19518500Y-8021500D01*
X19518500Y-7891500D02*
G75*
G02*
X19518500Y-8021500I0J-65000D01*
G01*
X19518500Y-7891500D02*
X19398500Y-7891500D01*
X19398500Y-7891500D02*
G75*
G03*
X19398500Y-8021500I0J-65000D01*
G01*
D12*
X19458500Y-8491500D02*
X19523500Y-8426500D01*
X19458500Y-8361500D01*
X19393500Y-8426500D01*
X19458500Y-8491500D01*
D10*
X19398500Y-8491500D02*
X19518500Y-8491500D01*
X19518500Y-8361500D02*
G75*
G02*
X19518500Y-8491500I0J-65000D01*
G01*
X19518500Y-8361500D02*
X19398500Y-8361500D01*
X19398500Y-8361500D02*
G75*
G03*
X19398500Y-8491500I0J-65000D01*
G01*
D13*
X20648000Y-8842000D02*
X20968000Y-9162000D01*
X20968000Y-8842000D02*
X20648000Y-9162000D01*
X20968000Y-9002000D02*
G75*
G02*
X20648000Y-9002000I-160000J0D01*
G01*
X20648000Y-9002000D02*
G75*
G02*
X20968000Y-9002000I160000J0D01*
G01*
D11*
X12932777Y-13170484D02*
X12932777Y-12970484D01*
X12932777Y-12970484D02*
X12980396Y-12970484D01*
X12980396Y-12970484D02*
X13008967Y-12980008D01*
X13008967Y-12980008D02*
X13028015Y-12999055D01*
X13028015Y-12999055D02*
X13037539Y-13018103D01*
X13037539Y-13018103D02*
X13047062Y-13056198D01*
X13047062Y-13056198D02*
X13047062Y-13084769D01*
X13047062Y-13084769D02*
X13037539Y-13122865D01*
X13037539Y-13122865D02*
X13028015Y-13141912D01*
X13028015Y-13141912D02*
X13008967Y-13160960D01*
X13008967Y-13160960D02*
X12980396Y-13170484D01*
X12980396Y-13170484D02*
X12932777Y-13170484D01*
X13132777Y-13170484D02*
X13132777Y-13037150D01*
X13132777Y-13075246D02*
X13142301Y-13056198D01*
X13142301Y-13056198D02*
X13151824Y-13046674D01*
X13151824Y-13046674D02*
X13170872Y-13037150D01*
X13170872Y-13037150D02*
X13189920Y-13037150D01*
X13256586Y-13170484D02*
X13256586Y-13037150D01*
X13256586Y-12970484D02*
X13247062Y-12980008D01*
X13247062Y-12980008D02*
X13256586Y-12989531D01*
X13256586Y-12989531D02*
X13266110Y-12980008D01*
X13266110Y-12980008D02*
X13256586Y-12970484D01*
X13256586Y-12970484D02*
X13256586Y-12989531D01*
X13380396Y-13170484D02*
X13361348Y-13160960D01*
X13361348Y-13160960D02*
X13351824Y-13141912D01*
X13351824Y-13141912D02*
X13351824Y-12970484D01*
X13485158Y-13170484D02*
X13466110Y-13160960D01*
X13466110Y-13160960D02*
X13456586Y-13141912D01*
X13456586Y-13141912D02*
X13456586Y-12970484D01*
X13713729Y-13170484D02*
X13713729Y-12970484D01*
X13713729Y-12970484D02*
X13780396Y-13113341D01*
X13780396Y-13113341D02*
X13847062Y-12970484D01*
X13847062Y-12970484D02*
X13847062Y-13170484D01*
X14028015Y-13170484D02*
X14028015Y-13065722D01*
X14028015Y-13065722D02*
X14018491Y-13046674D01*
X14018491Y-13046674D02*
X13999443Y-13037150D01*
X13999443Y-13037150D02*
X13961348Y-13037150D01*
X13961348Y-13037150D02*
X13942301Y-13046674D01*
X14028015Y-13160960D02*
X14008967Y-13170484D01*
X14008967Y-13170484D02*
X13961348Y-13170484D01*
X13961348Y-13170484D02*
X13942301Y-13160960D01*
X13942301Y-13160960D02*
X13932777Y-13141912D01*
X13932777Y-13141912D02*
X13932777Y-13122865D01*
X13932777Y-13122865D02*
X13942301Y-13103817D01*
X13942301Y-13103817D02*
X13961348Y-13094293D01*
X13961348Y-13094293D02*
X14008967Y-13094293D01*
X14008967Y-13094293D02*
X14028015Y-13084769D01*
X14123253Y-13037150D02*
X14123253Y-13237150D01*
X14123253Y-13046674D02*
X14142301Y-13037150D01*
X14142301Y-13037150D02*
X14180396Y-13037150D01*
X14180396Y-13037150D02*
X14199443Y-13046674D01*
X14199443Y-13046674D02*
X14208967Y-13056198D01*
X14208967Y-13056198D02*
X14218491Y-13075246D01*
X14218491Y-13075246D02*
X14218491Y-13132388D01*
X14218491Y-13132388D02*
X14208967Y-13151436D01*
X14208967Y-13151436D02*
X14199443Y-13160960D01*
X14199443Y-13160960D02*
X14180396Y-13170484D01*
X14180396Y-13170484D02*
X14142301Y-13170484D01*
X14142301Y-13170484D02*
X14123253Y-13160960D01*
X14304205Y-13151436D02*
X14313729Y-13160960D01*
X14313729Y-13160960D02*
X14304205Y-13170484D01*
X14304205Y-13170484D02*
X14294682Y-13160960D01*
X14294682Y-13160960D02*
X14304205Y-13151436D01*
X14304205Y-13151436D02*
X14304205Y-13170484D01*
X14304205Y-13046674D02*
X14313729Y-13056198D01*
X14313729Y-13056198D02*
X14304205Y-13065722D01*
X14304205Y-13065722D02*
X14294682Y-13056198D01*
X14294682Y-13056198D02*
X14304205Y-13046674D01*
X14304205Y-13046674D02*
X14304205Y-13065722D01*
D10*
X12652000Y-13489000D02*
X12672000Y-13509000D01*
X12672000Y-13489000D02*
X12652000Y-13509000D01*
D11*
X12970872Y-13390484D02*
X12989920Y-13390484D01*
X12989920Y-13390484D02*
X13008967Y-13400008D01*
X13008967Y-13400008D02*
X13018491Y-13409531D01*
X13018491Y-13409531D02*
X13028015Y-13428579D01*
X13028015Y-13428579D02*
X13037539Y-13466674D01*
X13037539Y-13466674D02*
X13037539Y-13514293D01*
X13037539Y-13514293D02*
X13028015Y-13552388D01*
X13028015Y-13552388D02*
X13018491Y-13571436D01*
X13018491Y-13571436D02*
X13008967Y-13580960D01*
X13008967Y-13580960D02*
X12989920Y-13590484D01*
X12989920Y-13590484D02*
X12970872Y-13590484D01*
X12970872Y-13590484D02*
X12951824Y-13580960D01*
X12951824Y-13580960D02*
X12942301Y-13571436D01*
X12942301Y-13571436D02*
X12932777Y-13552388D01*
X12932777Y-13552388D02*
X12923253Y-13514293D01*
X12923253Y-13514293D02*
X12923253Y-13466674D01*
X12923253Y-13466674D02*
X12932777Y-13428579D01*
X12932777Y-13428579D02*
X12942301Y-13409531D01*
X12942301Y-13409531D02*
X12951824Y-13400008D01*
X12951824Y-13400008D02*
X12970872Y-13390484D01*
X13123253Y-13571436D02*
X13132777Y-13580960D01*
X13132777Y-13580960D02*
X13123253Y-13590484D01*
X13123253Y-13590484D02*
X13113729Y-13580960D01*
X13113729Y-13580960D02*
X13123253Y-13571436D01*
X13123253Y-13571436D02*
X13123253Y-13590484D01*
X13208967Y-13409531D02*
X13218491Y-13400008D01*
X13218491Y-13400008D02*
X13237539Y-13390484D01*
X13237539Y-13390484D02*
X13285158Y-13390484D01*
X13285158Y-13390484D02*
X13304205Y-13400008D01*
X13304205Y-13400008D02*
X13313729Y-13409531D01*
X13313729Y-13409531D02*
X13323253Y-13428579D01*
X13323253Y-13428579D02*
X13323253Y-13447627D01*
X13323253Y-13447627D02*
X13313729Y-13476198D01*
X13313729Y-13476198D02*
X13199443Y-13590484D01*
X13199443Y-13590484D02*
X13323253Y-13590484D01*
X13447062Y-13390484D02*
X13466110Y-13390484D01*
X13466110Y-13390484D02*
X13485158Y-13400008D01*
X13485158Y-13400008D02*
X13494682Y-13409531D01*
X13494682Y-13409531D02*
X13504205Y-13428579D01*
X13504205Y-13428579D02*
X13513729Y-13466674D01*
X13513729Y-13466674D02*
X13513729Y-13514293D01*
X13513729Y-13514293D02*
X13504205Y-13552388D01*
X13504205Y-13552388D02*
X13494682Y-13571436D01*
X13494682Y-13571436D02*
X13485158Y-13580960D01*
X13485158Y-13580960D02*
X13466110Y-13590484D01*
X13466110Y-13590484D02*
X13447062Y-13590484D01*
X13447062Y-13590484D02*
X13428015Y-13580960D01*
X13428015Y-13580960D02*
X13418491Y-13571436D01*
X13418491Y-13571436D02*
X13408967Y-13552388D01*
X13408967Y-13552388D02*
X13399443Y-13514293D01*
X13399443Y-13514293D02*
X13399443Y-13466674D01*
X13399443Y-13466674D02*
X13408967Y-13428579D01*
X13408967Y-13428579D02*
X13418491Y-13409531D01*
X13418491Y-13409531D02*
X13428015Y-13400008D01*
X13428015Y-13400008D02*
X13447062Y-13390484D01*
X13637539Y-13390484D02*
X13656586Y-13390484D01*
X13656586Y-13390484D02*
X13675634Y-13400008D01*
X13675634Y-13400008D02*
X13685158Y-13409531D01*
X13685158Y-13409531D02*
X13694682Y-13428579D01*
X13694682Y-13428579D02*
X13704205Y-13466674D01*
X13704205Y-13466674D02*
X13704205Y-13514293D01*
X13704205Y-13514293D02*
X13694682Y-13552388D01*
X13694682Y-13552388D02*
X13685158Y-13571436D01*
X13685158Y-13571436D02*
X13675634Y-13580960D01*
X13675634Y-13580960D02*
X13656586Y-13590484D01*
X13656586Y-13590484D02*
X13637539Y-13590484D01*
X13637539Y-13590484D02*
X13618491Y-13580960D01*
X13618491Y-13580960D02*
X13608967Y-13571436D01*
X13608967Y-13571436D02*
X13599443Y-13552388D01*
X13599443Y-13552388D02*
X13589920Y-13514293D01*
X13589920Y-13514293D02*
X13589920Y-13466674D01*
X13589920Y-13466674D02*
X13599443Y-13428579D01*
X13599443Y-13428579D02*
X13608967Y-13409531D01*
X13608967Y-13409531D02*
X13618491Y-13400008D01*
X13618491Y-13400008D02*
X13637539Y-13390484D01*
X13789920Y-13590484D02*
X13789920Y-13457150D01*
X13789920Y-13476198D02*
X13799443Y-13466674D01*
X13799443Y-13466674D02*
X13818491Y-13457150D01*
X13818491Y-13457150D02*
X13847063Y-13457150D01*
X13847063Y-13457150D02*
X13866110Y-13466674D01*
X13866110Y-13466674D02*
X13875634Y-13485722D01*
X13875634Y-13485722D02*
X13875634Y-13590484D01*
X13875634Y-13485722D02*
X13885158Y-13466674D01*
X13885158Y-13466674D02*
X13904205Y-13457150D01*
X13904205Y-13457150D02*
X13932777Y-13457150D01*
X13932777Y-13457150D02*
X13951824Y-13466674D01*
X13951824Y-13466674D02*
X13961348Y-13485722D01*
X13961348Y-13485722D02*
X13961348Y-13590484D01*
X14056586Y-13590484D02*
X14056586Y-13457150D01*
X14056586Y-13476198D02*
X14066110Y-13466674D01*
X14066110Y-13466674D02*
X14085158Y-13457150D01*
X14085158Y-13457150D02*
X14113729Y-13457150D01*
X14113729Y-13457150D02*
X14132777Y-13466674D01*
X14132777Y-13466674D02*
X14142301Y-13485722D01*
X14142301Y-13485722D02*
X14142301Y-13590484D01*
X14142301Y-13485722D02*
X14151824Y-13466674D01*
X14151824Y-13466674D02*
X14170872Y-13457150D01*
X14170872Y-13457150D02*
X14199443Y-13457150D01*
X14199443Y-13457150D02*
X14218491Y-13466674D01*
X14218491Y-13466674D02*
X14228015Y-13485722D01*
X14228015Y-13485722D02*
X14228015Y-13590484D01*
X14618491Y-13380960D02*
X14447063Y-13638103D01*
X14875634Y-13390484D02*
X14894682Y-13390484D01*
X14894682Y-13390484D02*
X14913729Y-13400008D01*
X14913729Y-13400008D02*
X14923253Y-13409531D01*
X14923253Y-13409531D02*
X14932777Y-13428579D01*
X14932777Y-13428579D02*
X14942301Y-13466674D01*
X14942301Y-13466674D02*
X14942301Y-13514293D01*
X14942301Y-13514293D02*
X14932777Y-13552388D01*
X14932777Y-13552388D02*
X14923253Y-13571436D01*
X14923253Y-13571436D02*
X14913729Y-13580960D01*
X14913729Y-13580960D02*
X14894682Y-13590484D01*
X14894682Y-13590484D02*
X14875634Y-13590484D01*
X14875634Y-13590484D02*
X14856586Y-13580960D01*
X14856586Y-13580960D02*
X14847063Y-13571436D01*
X14847063Y-13571436D02*
X14837539Y-13552388D01*
X14837539Y-13552388D02*
X14828015Y-13514293D01*
X14828015Y-13514293D02*
X14828015Y-13466674D01*
X14828015Y-13466674D02*
X14837539Y-13428579D01*
X14837539Y-13428579D02*
X14847063Y-13409531D01*
X14847063Y-13409531D02*
X14856586Y-13400008D01*
X14856586Y-13400008D02*
X14875634Y-13390484D01*
X15028015Y-13571436D02*
X15037539Y-13580960D01*
X15037539Y-13580960D02*
X15028015Y-13590484D01*
X15028015Y-13590484D02*
X15018491Y-13580960D01*
X15018491Y-13580960D02*
X15028015Y-13571436D01*
X15028015Y-13571436D02*
X15028015Y-13590484D01*
X15161348Y-13390484D02*
X15180396Y-13390484D01*
X15180396Y-13390484D02*
X15199444Y-13400008D01*
X15199444Y-13400008D02*
X15208967Y-13409531D01*
X15208967Y-13409531D02*
X15218491Y-13428579D01*
X15218491Y-13428579D02*
X15228015Y-13466674D01*
X15228015Y-13466674D02*
X15228015Y-13514293D01*
X15228015Y-13514293D02*
X15218491Y-13552388D01*
X15218491Y-13552388D02*
X15208967Y-13571436D01*
X15208967Y-13571436D02*
X15199444Y-13580960D01*
X15199444Y-13580960D02*
X15180396Y-13590484D01*
X15180396Y-13590484D02*
X15161348Y-13590484D01*
X15161348Y-13590484D02*
X15142301Y-13580960D01*
X15142301Y-13580960D02*
X15132777Y-13571436D01*
X15132777Y-13571436D02*
X15123253Y-13552388D01*
X15123253Y-13552388D02*
X15113729Y-13514293D01*
X15113729Y-13514293D02*
X15113729Y-13466674D01*
X15113729Y-13466674D02*
X15123253Y-13428579D01*
X15123253Y-13428579D02*
X15132777Y-13409531D01*
X15132777Y-13409531D02*
X15142301Y-13400008D01*
X15142301Y-13400008D02*
X15161348Y-13390484D01*
X15351825Y-13390484D02*
X15370872Y-13390484D01*
X15370872Y-13390484D02*
X15389920Y-13400008D01*
X15389920Y-13400008D02*
X15399444Y-13409531D01*
X15399444Y-13409531D02*
X15408967Y-13428579D01*
X15408967Y-13428579D02*
X15418491Y-13466674D01*
X15418491Y-13466674D02*
X15418491Y-13514293D01*
X15418491Y-13514293D02*
X15408967Y-13552388D01*
X15408967Y-13552388D02*
X15399444Y-13571436D01*
X15399444Y-13571436D02*
X15389920Y-13580960D01*
X15389920Y-13580960D02*
X15370872Y-13590484D01*
X15370872Y-13590484D02*
X15351825Y-13590484D01*
X15351825Y-13590484D02*
X15332777Y-13580960D01*
X15332777Y-13580960D02*
X15323253Y-13571436D01*
X15323253Y-13571436D02*
X15313729Y-13552388D01*
X15313729Y-13552388D02*
X15304206Y-13514293D01*
X15304206Y-13514293D02*
X15304206Y-13466674D01*
X15304206Y-13466674D02*
X15313729Y-13428579D01*
X15313729Y-13428579D02*
X15323253Y-13409531D01*
X15323253Y-13409531D02*
X15332777Y-13400008D01*
X15332777Y-13400008D02*
X15351825Y-13390484D01*
X15485158Y-13390484D02*
X15618491Y-13390484D01*
X15618491Y-13390484D02*
X15532777Y-13590484D01*
X15704206Y-13590484D02*
X15742301Y-13590484D01*
X15742301Y-13590484D02*
X15761348Y-13580960D01*
X15761348Y-13580960D02*
X15770872Y-13571436D01*
X15770872Y-13571436D02*
X15789920Y-13542865D01*
X15789920Y-13542865D02*
X15799444Y-13504769D01*
X15799444Y-13504769D02*
X15799444Y-13428579D01*
X15799444Y-13428579D02*
X15789920Y-13409531D01*
X15789920Y-13409531D02*
X15780396Y-13400008D01*
X15780396Y-13400008D02*
X15761348Y-13390484D01*
X15761348Y-13390484D02*
X15723253Y-13390484D01*
X15723253Y-13390484D02*
X15704206Y-13400008D01*
X15704206Y-13400008D02*
X15694682Y-13409531D01*
X15694682Y-13409531D02*
X15685158Y-13428579D01*
X15685158Y-13428579D02*
X15685158Y-13476198D01*
X15685158Y-13476198D02*
X15694682Y-13495246D01*
X15694682Y-13495246D02*
X15704206Y-13504769D01*
X15704206Y-13504769D02*
X15723253Y-13514293D01*
X15723253Y-13514293D02*
X15761348Y-13514293D01*
X15761348Y-13514293D02*
X15780396Y-13504769D01*
X15780396Y-13504769D02*
X15789920Y-13495246D01*
X15789920Y-13495246D02*
X15799444Y-13476198D01*
X15875634Y-13390484D02*
X15875634Y-13428579D01*
X15951825Y-13390484D02*
X15951825Y-13428579D01*
X16247063Y-13666674D02*
X16237539Y-13657150D01*
X16237539Y-13657150D02*
X16218491Y-13628579D01*
X16218491Y-13628579D02*
X16208968Y-13609531D01*
X16208968Y-13609531D02*
X16199444Y-13580960D01*
X16199444Y-13580960D02*
X16189920Y-13533341D01*
X16189920Y-13533341D02*
X16189920Y-13495246D01*
X16189920Y-13495246D02*
X16199444Y-13447627D01*
X16199444Y-13447627D02*
X16208968Y-13419055D01*
X16208968Y-13419055D02*
X16218491Y-13400008D01*
X16218491Y-13400008D02*
X16237539Y-13371436D01*
X16237539Y-13371436D02*
X16247063Y-13361912D01*
X16313729Y-13409531D02*
X16323253Y-13400008D01*
X16323253Y-13400008D02*
X16342301Y-13390484D01*
X16342301Y-13390484D02*
X16389920Y-13390484D01*
X16389920Y-13390484D02*
X16408968Y-13400008D01*
X16408968Y-13400008D02*
X16418491Y-13409531D01*
X16418491Y-13409531D02*
X16428015Y-13428579D01*
X16428015Y-13428579D02*
X16428015Y-13447627D01*
X16428015Y-13447627D02*
X16418491Y-13476198D01*
X16418491Y-13476198D02*
X16304206Y-13590484D01*
X16304206Y-13590484D02*
X16428015Y-13590484D01*
X16618491Y-13590484D02*
X16504206Y-13590484D01*
X16561348Y-13590484D02*
X16561348Y-13390484D01*
X16561348Y-13390484D02*
X16542301Y-13419055D01*
X16542301Y-13419055D02*
X16523253Y-13438103D01*
X16523253Y-13438103D02*
X16504206Y-13447627D01*
X16856587Y-13590484D02*
X16856587Y-13390484D01*
X16942301Y-13590484D02*
X16942301Y-13485722D01*
X16942301Y-13485722D02*
X16932777Y-13466674D01*
X16932777Y-13466674D02*
X16913730Y-13457150D01*
X16913730Y-13457150D02*
X16885158Y-13457150D01*
X16885158Y-13457150D02*
X16866111Y-13466674D01*
X16866111Y-13466674D02*
X16856587Y-13476198D01*
X17066111Y-13590484D02*
X17047063Y-13580960D01*
X17047063Y-13580960D02*
X17037539Y-13571436D01*
X17037539Y-13571436D02*
X17028015Y-13552388D01*
X17028015Y-13552388D02*
X17028015Y-13495246D01*
X17028015Y-13495246D02*
X17037539Y-13476198D01*
X17037539Y-13476198D02*
X17047063Y-13466674D01*
X17047063Y-13466674D02*
X17066111Y-13457150D01*
X17066111Y-13457150D02*
X17094682Y-13457150D01*
X17094682Y-13457150D02*
X17113730Y-13466674D01*
X17113730Y-13466674D02*
X17123253Y-13476198D01*
X17123253Y-13476198D02*
X17132777Y-13495246D01*
X17132777Y-13495246D02*
X17132777Y-13552388D01*
X17132777Y-13552388D02*
X17123253Y-13571436D01*
X17123253Y-13571436D02*
X17113730Y-13580960D01*
X17113730Y-13580960D02*
X17094682Y-13590484D01*
X17094682Y-13590484D02*
X17066111Y-13590484D01*
X17247063Y-13590484D02*
X17228015Y-13580960D01*
X17228015Y-13580960D02*
X17218492Y-13561912D01*
X17218492Y-13561912D02*
X17218492Y-13390484D01*
X17399444Y-13580960D02*
X17380396Y-13590484D01*
X17380396Y-13590484D02*
X17342301Y-13590484D01*
X17342301Y-13590484D02*
X17323253Y-13580960D01*
X17323253Y-13580960D02*
X17313730Y-13561912D01*
X17313730Y-13561912D02*
X17313730Y-13485722D01*
X17313730Y-13485722D02*
X17323253Y-13466674D01*
X17323253Y-13466674D02*
X17342301Y-13457150D01*
X17342301Y-13457150D02*
X17380396Y-13457150D01*
X17380396Y-13457150D02*
X17399444Y-13466674D01*
X17399444Y-13466674D02*
X17408968Y-13485722D01*
X17408968Y-13485722D02*
X17408968Y-13504769D01*
X17408968Y-13504769D02*
X17313730Y-13523817D01*
X17485158Y-13580960D02*
X17504206Y-13590484D01*
X17504206Y-13590484D02*
X17542301Y-13590484D01*
X17542301Y-13590484D02*
X17561349Y-13580960D01*
X17561349Y-13580960D02*
X17570873Y-13561912D01*
X17570873Y-13561912D02*
X17570873Y-13552388D01*
X17570873Y-13552388D02*
X17561349Y-13533341D01*
X17561349Y-13533341D02*
X17542301Y-13523817D01*
X17542301Y-13523817D02*
X17513730Y-13523817D01*
X17513730Y-13523817D02*
X17494682Y-13514293D01*
X17494682Y-13514293D02*
X17485158Y-13495246D01*
X17485158Y-13495246D02*
X17485158Y-13485722D01*
X17485158Y-13485722D02*
X17494682Y-13466674D01*
X17494682Y-13466674D02*
X17513730Y-13457150D01*
X17513730Y-13457150D02*
X17542301Y-13457150D01*
X17542301Y-13457150D02*
X17561349Y-13466674D01*
X17637539Y-13666674D02*
X17647063Y-13657150D01*
X17647063Y-13657150D02*
X17666111Y-13628579D01*
X17666111Y-13628579D02*
X17675634Y-13609531D01*
X17675634Y-13609531D02*
X17685158Y-13580960D01*
X17685158Y-13580960D02*
X17694682Y-13533341D01*
X17694682Y-13533341D02*
X17694682Y-13495246D01*
X17694682Y-13495246D02*
X17685158Y-13447627D01*
X17685158Y-13447627D02*
X17675634Y-13419055D01*
X17675634Y-13419055D02*
X17666111Y-13400008D01*
X17666111Y-13400008D02*
X17647063Y-13371436D01*
X17647063Y-13371436D02*
X17637539Y-13361912D01*
D10*
X12672000Y-13763000D02*
G75*
G02*
X12642000Y-13763000I-15000J0D01*
G01*
X12642000Y-13763000D02*
G75*
G02*
X12672000Y-13763000I15000J0D01*
G01*
D11*
X12970872Y-13654484D02*
X12989920Y-13654484D01*
X12989920Y-13654484D02*
X13008967Y-13664008D01*
X13008967Y-13664008D02*
X13018491Y-13673531D01*
X13018491Y-13673531D02*
X13028015Y-13692579D01*
X13028015Y-13692579D02*
X13037539Y-13730674D01*
X13037539Y-13730674D02*
X13037539Y-13778293D01*
X13037539Y-13778293D02*
X13028015Y-13816388D01*
X13028015Y-13816388D02*
X13018491Y-13835436D01*
X13018491Y-13835436D02*
X13008967Y-13844960D01*
X13008967Y-13844960D02*
X12989920Y-13854484D01*
X12989920Y-13854484D02*
X12970872Y-13854484D01*
X12970872Y-13854484D02*
X12951824Y-13844960D01*
X12951824Y-13844960D02*
X12942301Y-13835436D01*
X12942301Y-13835436D02*
X12932777Y-13816388D01*
X12932777Y-13816388D02*
X12923253Y-13778293D01*
X12923253Y-13778293D02*
X12923253Y-13730674D01*
X12923253Y-13730674D02*
X12932777Y-13692579D01*
X12932777Y-13692579D02*
X12942301Y-13673531D01*
X12942301Y-13673531D02*
X12951824Y-13664008D01*
X12951824Y-13664008D02*
X12970872Y-13654484D01*
X13123253Y-13835436D02*
X13132777Y-13844960D01*
X13132777Y-13844960D02*
X13123253Y-13854484D01*
X13123253Y-13854484D02*
X13113729Y-13844960D01*
X13113729Y-13844960D02*
X13123253Y-13835436D01*
X13123253Y-13835436D02*
X13123253Y-13854484D01*
X13199443Y-13654484D02*
X13323253Y-13654484D01*
X13323253Y-13654484D02*
X13256586Y-13730674D01*
X13256586Y-13730674D02*
X13285158Y-13730674D01*
X13285158Y-13730674D02*
X13304205Y-13740198D01*
X13304205Y-13740198D02*
X13313729Y-13749722D01*
X13313729Y-13749722D02*
X13323253Y-13768769D01*
X13323253Y-13768769D02*
X13323253Y-13816388D01*
X13323253Y-13816388D02*
X13313729Y-13835436D01*
X13313729Y-13835436D02*
X13304205Y-13844960D01*
X13304205Y-13844960D02*
X13285158Y-13854484D01*
X13285158Y-13854484D02*
X13228015Y-13854484D01*
X13228015Y-13854484D02*
X13208967Y-13844960D01*
X13208967Y-13844960D02*
X13199443Y-13835436D01*
X13447062Y-13654484D02*
X13466110Y-13654484D01*
X13466110Y-13654484D02*
X13485158Y-13664008D01*
X13485158Y-13664008D02*
X13494682Y-13673531D01*
X13494682Y-13673531D02*
X13504205Y-13692579D01*
X13504205Y-13692579D02*
X13513729Y-13730674D01*
X13513729Y-13730674D02*
X13513729Y-13778293D01*
X13513729Y-13778293D02*
X13504205Y-13816388D01*
X13504205Y-13816388D02*
X13494682Y-13835436D01*
X13494682Y-13835436D02*
X13485158Y-13844960D01*
X13485158Y-13844960D02*
X13466110Y-13854484D01*
X13466110Y-13854484D02*
X13447062Y-13854484D01*
X13447062Y-13854484D02*
X13428015Y-13844960D01*
X13428015Y-13844960D02*
X13418491Y-13835436D01*
X13418491Y-13835436D02*
X13408967Y-13816388D01*
X13408967Y-13816388D02*
X13399443Y-13778293D01*
X13399443Y-13778293D02*
X13399443Y-13730674D01*
X13399443Y-13730674D02*
X13408967Y-13692579D01*
X13408967Y-13692579D02*
X13418491Y-13673531D01*
X13418491Y-13673531D02*
X13428015Y-13664008D01*
X13428015Y-13664008D02*
X13447062Y-13654484D01*
X13637539Y-13654484D02*
X13656586Y-13654484D01*
X13656586Y-13654484D02*
X13675634Y-13664008D01*
X13675634Y-13664008D02*
X13685158Y-13673531D01*
X13685158Y-13673531D02*
X13694682Y-13692579D01*
X13694682Y-13692579D02*
X13704205Y-13730674D01*
X13704205Y-13730674D02*
X13704205Y-13778293D01*
X13704205Y-13778293D02*
X13694682Y-13816388D01*
X13694682Y-13816388D02*
X13685158Y-13835436D01*
X13685158Y-13835436D02*
X13675634Y-13844960D01*
X13675634Y-13844960D02*
X13656586Y-13854484D01*
X13656586Y-13854484D02*
X13637539Y-13854484D01*
X13637539Y-13854484D02*
X13618491Y-13844960D01*
X13618491Y-13844960D02*
X13608967Y-13835436D01*
X13608967Y-13835436D02*
X13599443Y-13816388D01*
X13599443Y-13816388D02*
X13589920Y-13778293D01*
X13589920Y-13778293D02*
X13589920Y-13730674D01*
X13589920Y-13730674D02*
X13599443Y-13692579D01*
X13599443Y-13692579D02*
X13608967Y-13673531D01*
X13608967Y-13673531D02*
X13618491Y-13664008D01*
X13618491Y-13664008D02*
X13637539Y-13654484D01*
X13789920Y-13854484D02*
X13789920Y-13721150D01*
X13789920Y-13740198D02*
X13799443Y-13730674D01*
X13799443Y-13730674D02*
X13818491Y-13721150D01*
X13818491Y-13721150D02*
X13847063Y-13721150D01*
X13847063Y-13721150D02*
X13866110Y-13730674D01*
X13866110Y-13730674D02*
X13875634Y-13749722D01*
X13875634Y-13749722D02*
X13875634Y-13854484D01*
X13875634Y-13749722D02*
X13885158Y-13730674D01*
X13885158Y-13730674D02*
X13904205Y-13721150D01*
X13904205Y-13721150D02*
X13932777Y-13721150D01*
X13932777Y-13721150D02*
X13951824Y-13730674D01*
X13951824Y-13730674D02*
X13961348Y-13749722D01*
X13961348Y-13749722D02*
X13961348Y-13854484D01*
X14056586Y-13854484D02*
X14056586Y-13721150D01*
X14056586Y-13740198D02*
X14066110Y-13730674D01*
X14066110Y-13730674D02*
X14085158Y-13721150D01*
X14085158Y-13721150D02*
X14113729Y-13721150D01*
X14113729Y-13721150D02*
X14132777Y-13730674D01*
X14132777Y-13730674D02*
X14142301Y-13749722D01*
X14142301Y-13749722D02*
X14142301Y-13854484D01*
X14142301Y-13749722D02*
X14151824Y-13730674D01*
X14151824Y-13730674D02*
X14170872Y-13721150D01*
X14170872Y-13721150D02*
X14199443Y-13721150D01*
X14199443Y-13721150D02*
X14218491Y-13730674D01*
X14218491Y-13730674D02*
X14228015Y-13749722D01*
X14228015Y-13749722D02*
X14228015Y-13854484D01*
X14618491Y-13644960D02*
X14447063Y-13902103D01*
X14875634Y-13654484D02*
X14894682Y-13654484D01*
X14894682Y-13654484D02*
X14913729Y-13664008D01*
X14913729Y-13664008D02*
X14923253Y-13673531D01*
X14923253Y-13673531D02*
X14932777Y-13692579D01*
X14932777Y-13692579D02*
X14942301Y-13730674D01*
X14942301Y-13730674D02*
X14942301Y-13778293D01*
X14942301Y-13778293D02*
X14932777Y-13816388D01*
X14932777Y-13816388D02*
X14923253Y-13835436D01*
X14923253Y-13835436D02*
X14913729Y-13844960D01*
X14913729Y-13844960D02*
X14894682Y-13854484D01*
X14894682Y-13854484D02*
X14875634Y-13854484D01*
X14875634Y-13854484D02*
X14856586Y-13844960D01*
X14856586Y-13844960D02*
X14847063Y-13835436D01*
X14847063Y-13835436D02*
X14837539Y-13816388D01*
X14837539Y-13816388D02*
X14828015Y-13778293D01*
X14828015Y-13778293D02*
X14828015Y-13730674D01*
X14828015Y-13730674D02*
X14837539Y-13692579D01*
X14837539Y-13692579D02*
X14847063Y-13673531D01*
X14847063Y-13673531D02*
X14856586Y-13664008D01*
X14856586Y-13664008D02*
X14875634Y-13654484D01*
X15028015Y-13835436D02*
X15037539Y-13844960D01*
X15037539Y-13844960D02*
X15028015Y-13854484D01*
X15028015Y-13854484D02*
X15018491Y-13844960D01*
X15018491Y-13844960D02*
X15028015Y-13835436D01*
X15028015Y-13835436D02*
X15028015Y-13854484D01*
X15161348Y-13654484D02*
X15180396Y-13654484D01*
X15180396Y-13654484D02*
X15199444Y-13664008D01*
X15199444Y-13664008D02*
X15208967Y-13673531D01*
X15208967Y-13673531D02*
X15218491Y-13692579D01*
X15218491Y-13692579D02*
X15228015Y-13730674D01*
X15228015Y-13730674D02*
X15228015Y-13778293D01*
X15228015Y-13778293D02*
X15218491Y-13816388D01*
X15218491Y-13816388D02*
X15208967Y-13835436D01*
X15208967Y-13835436D02*
X15199444Y-13844960D01*
X15199444Y-13844960D02*
X15180396Y-13854484D01*
X15180396Y-13854484D02*
X15161348Y-13854484D01*
X15161348Y-13854484D02*
X15142301Y-13844960D01*
X15142301Y-13844960D02*
X15132777Y-13835436D01*
X15132777Y-13835436D02*
X15123253Y-13816388D01*
X15123253Y-13816388D02*
X15113729Y-13778293D01*
X15113729Y-13778293D02*
X15113729Y-13730674D01*
X15113729Y-13730674D02*
X15123253Y-13692579D01*
X15123253Y-13692579D02*
X15132777Y-13673531D01*
X15132777Y-13673531D02*
X15142301Y-13664008D01*
X15142301Y-13664008D02*
X15161348Y-13654484D01*
X15418491Y-13854484D02*
X15304206Y-13854484D01*
X15361348Y-13854484D02*
X15361348Y-13654484D01*
X15361348Y-13654484D02*
X15342301Y-13683055D01*
X15342301Y-13683055D02*
X15323253Y-13702103D01*
X15323253Y-13702103D02*
X15304206Y-13711627D01*
X15608967Y-13854484D02*
X15494682Y-13854484D01*
X15551825Y-13854484D02*
X15551825Y-13654484D01*
X15551825Y-13654484D02*
X15532777Y-13683055D01*
X15532777Y-13683055D02*
X15513729Y-13702103D01*
X15513729Y-13702103D02*
X15494682Y-13711627D01*
X15723253Y-13740198D02*
X15704206Y-13730674D01*
X15704206Y-13730674D02*
X15694682Y-13721150D01*
X15694682Y-13721150D02*
X15685158Y-13702103D01*
X15685158Y-13702103D02*
X15685158Y-13692579D01*
X15685158Y-13692579D02*
X15694682Y-13673531D01*
X15694682Y-13673531D02*
X15704206Y-13664008D01*
X15704206Y-13664008D02*
X15723253Y-13654484D01*
X15723253Y-13654484D02*
X15761348Y-13654484D01*
X15761348Y-13654484D02*
X15780396Y-13664008D01*
X15780396Y-13664008D02*
X15789920Y-13673531D01*
X15789920Y-13673531D02*
X15799444Y-13692579D01*
X15799444Y-13692579D02*
X15799444Y-13702103D01*
X15799444Y-13702103D02*
X15789920Y-13721150D01*
X15789920Y-13721150D02*
X15780396Y-13730674D01*
X15780396Y-13730674D02*
X15761348Y-13740198D01*
X15761348Y-13740198D02*
X15723253Y-13740198D01*
X15723253Y-13740198D02*
X15704206Y-13749722D01*
X15704206Y-13749722D02*
X15694682Y-13759246D01*
X15694682Y-13759246D02*
X15685158Y-13778293D01*
X15685158Y-13778293D02*
X15685158Y-13816388D01*
X15685158Y-13816388D02*
X15694682Y-13835436D01*
X15694682Y-13835436D02*
X15704206Y-13844960D01*
X15704206Y-13844960D02*
X15723253Y-13854484D01*
X15723253Y-13854484D02*
X15761348Y-13854484D01*
X15761348Y-13854484D02*
X15780396Y-13844960D01*
X15780396Y-13844960D02*
X15789920Y-13835436D01*
X15789920Y-13835436D02*
X15799444Y-13816388D01*
X15799444Y-13816388D02*
X15799444Y-13778293D01*
X15799444Y-13778293D02*
X15789920Y-13759246D01*
X15789920Y-13759246D02*
X15780396Y-13749722D01*
X15780396Y-13749722D02*
X15761348Y-13740198D01*
X15875634Y-13654484D02*
X15875634Y-13692579D01*
X15951825Y-13654484D02*
X15951825Y-13692579D01*
X16247063Y-13930674D02*
X16237539Y-13921150D01*
X16237539Y-13921150D02*
X16218491Y-13892579D01*
X16218491Y-13892579D02*
X16208968Y-13873531D01*
X16208968Y-13873531D02*
X16199444Y-13844960D01*
X16199444Y-13844960D02*
X16189920Y-13797341D01*
X16189920Y-13797341D02*
X16189920Y-13759246D01*
X16189920Y-13759246D02*
X16199444Y-13711627D01*
X16199444Y-13711627D02*
X16208968Y-13683055D01*
X16208968Y-13683055D02*
X16218491Y-13664008D01*
X16218491Y-13664008D02*
X16237539Y-13635436D01*
X16237539Y-13635436D02*
X16247063Y-13625912D01*
X16313729Y-13673531D02*
X16323253Y-13664008D01*
X16323253Y-13664008D02*
X16342301Y-13654484D01*
X16342301Y-13654484D02*
X16389920Y-13654484D01*
X16389920Y-13654484D02*
X16408968Y-13664008D01*
X16408968Y-13664008D02*
X16418491Y-13673531D01*
X16418491Y-13673531D02*
X16428015Y-13692579D01*
X16428015Y-13692579D02*
X16428015Y-13711627D01*
X16428015Y-13711627D02*
X16418491Y-13740198D01*
X16418491Y-13740198D02*
X16304206Y-13854484D01*
X16304206Y-13854484D02*
X16428015Y-13854484D01*
X16666110Y-13854484D02*
X16666110Y-13654484D01*
X16751825Y-13854484D02*
X16751825Y-13749722D01*
X16751825Y-13749722D02*
X16742301Y-13730674D01*
X16742301Y-13730674D02*
X16723253Y-13721150D01*
X16723253Y-13721150D02*
X16694682Y-13721150D01*
X16694682Y-13721150D02*
X16675634Y-13730674D01*
X16675634Y-13730674D02*
X16666110Y-13740198D01*
X16875634Y-13854484D02*
X16856587Y-13844960D01*
X16856587Y-13844960D02*
X16847063Y-13835436D01*
X16847063Y-13835436D02*
X16837539Y-13816388D01*
X16837539Y-13816388D02*
X16837539Y-13759246D01*
X16837539Y-13759246D02*
X16847063Y-13740198D01*
X16847063Y-13740198D02*
X16856587Y-13730674D01*
X16856587Y-13730674D02*
X16875634Y-13721150D01*
X16875634Y-13721150D02*
X16904206Y-13721150D01*
X16904206Y-13721150D02*
X16923253Y-13730674D01*
X16923253Y-13730674D02*
X16932777Y-13740198D01*
X16932777Y-13740198D02*
X16942301Y-13759246D01*
X16942301Y-13759246D02*
X16942301Y-13816388D01*
X16942301Y-13816388D02*
X16932777Y-13835436D01*
X16932777Y-13835436D02*
X16923253Y-13844960D01*
X16923253Y-13844960D02*
X16904206Y-13854484D01*
X16904206Y-13854484D02*
X16875634Y-13854484D01*
X17056587Y-13854484D02*
X17037539Y-13844960D01*
X17037539Y-13844960D02*
X17028015Y-13825912D01*
X17028015Y-13825912D02*
X17028015Y-13654484D01*
X17208968Y-13844960D02*
X17189920Y-13854484D01*
X17189920Y-13854484D02*
X17151825Y-13854484D01*
X17151825Y-13854484D02*
X17132777Y-13844960D01*
X17132777Y-13844960D02*
X17123253Y-13825912D01*
X17123253Y-13825912D02*
X17123253Y-13749722D01*
X17123253Y-13749722D02*
X17132777Y-13730674D01*
X17132777Y-13730674D02*
X17151825Y-13721150D01*
X17151825Y-13721150D02*
X17189920Y-13721150D01*
X17189920Y-13721150D02*
X17208968Y-13730674D01*
X17208968Y-13730674D02*
X17218492Y-13749722D01*
X17218492Y-13749722D02*
X17218492Y-13768769D01*
X17218492Y-13768769D02*
X17123253Y-13787817D01*
X17294682Y-13844960D02*
X17313730Y-13854484D01*
X17313730Y-13854484D02*
X17351825Y-13854484D01*
X17351825Y-13854484D02*
X17370873Y-13844960D01*
X17370873Y-13844960D02*
X17380396Y-13825912D01*
X17380396Y-13825912D02*
X17380396Y-13816388D01*
X17380396Y-13816388D02*
X17370873Y-13797341D01*
X17370873Y-13797341D02*
X17351825Y-13787817D01*
X17351825Y-13787817D02*
X17323253Y-13787817D01*
X17323253Y-13787817D02*
X17304206Y-13778293D01*
X17304206Y-13778293D02*
X17294682Y-13759246D01*
X17294682Y-13759246D02*
X17294682Y-13749722D01*
X17294682Y-13749722D02*
X17304206Y-13730674D01*
X17304206Y-13730674D02*
X17323253Y-13721150D01*
X17323253Y-13721150D02*
X17351825Y-13721150D01*
X17351825Y-13721150D02*
X17370873Y-13730674D01*
X17447063Y-13930674D02*
X17456587Y-13921150D01*
X17456587Y-13921150D02*
X17475634Y-13892579D01*
X17475634Y-13892579D02*
X17485158Y-13873531D01*
X17485158Y-13873531D02*
X17494682Y-13844960D01*
X17494682Y-13844960D02*
X17504206Y-13797341D01*
X17504206Y-13797341D02*
X17504206Y-13759246D01*
X17504206Y-13759246D02*
X17494682Y-13711627D01*
X17494682Y-13711627D02*
X17485158Y-13683055D01*
X17485158Y-13683055D02*
X17475634Y-13664008D01*
X17475634Y-13664008D02*
X17456587Y-13635436D01*
X17456587Y-13635436D02*
X17447063Y-13625912D01*
D10*
X12652000Y-14007000D02*
X12652000Y-14047000D01*
X12632000Y-14027000D02*
X12672000Y-14027000D01*
D11*
X12970872Y-13918484D02*
X12989920Y-13918484D01*
X12989920Y-13918484D02*
X13008967Y-13928008D01*
X13008967Y-13928008D02*
X13018491Y-13937531D01*
X13018491Y-13937531D02*
X13028015Y-13956579D01*
X13028015Y-13956579D02*
X13037539Y-13994674D01*
X13037539Y-13994674D02*
X13037539Y-14042293D01*
X13037539Y-14042293D02*
X13028015Y-14080388D01*
X13028015Y-14080388D02*
X13018491Y-14099436D01*
X13018491Y-14099436D02*
X13008967Y-14108960D01*
X13008967Y-14108960D02*
X12989920Y-14118484D01*
X12989920Y-14118484D02*
X12970872Y-14118484D01*
X12970872Y-14118484D02*
X12951824Y-14108960D01*
X12951824Y-14108960D02*
X12942301Y-14099436D01*
X12942301Y-14099436D02*
X12932777Y-14080388D01*
X12932777Y-14080388D02*
X12923253Y-14042293D01*
X12923253Y-14042293D02*
X12923253Y-13994674D01*
X12923253Y-13994674D02*
X12932777Y-13956579D01*
X12932777Y-13956579D02*
X12942301Y-13937531D01*
X12942301Y-13937531D02*
X12951824Y-13928008D01*
X12951824Y-13928008D02*
X12970872Y-13918484D01*
X13123253Y-14099436D02*
X13132777Y-14108960D01*
X13132777Y-14108960D02*
X13123253Y-14118484D01*
X13123253Y-14118484D02*
X13113729Y-14108960D01*
X13113729Y-14108960D02*
X13123253Y-14099436D01*
X13123253Y-14099436D02*
X13123253Y-14118484D01*
X13304205Y-13985150D02*
X13304205Y-14118484D01*
X13256586Y-13908960D02*
X13208967Y-14051817D01*
X13208967Y-14051817D02*
X13332777Y-14051817D01*
X13447062Y-13918484D02*
X13466110Y-13918484D01*
X13466110Y-13918484D02*
X13485158Y-13928008D01*
X13485158Y-13928008D02*
X13494682Y-13937531D01*
X13494682Y-13937531D02*
X13504205Y-13956579D01*
X13504205Y-13956579D02*
X13513729Y-13994674D01*
X13513729Y-13994674D02*
X13513729Y-14042293D01*
X13513729Y-14042293D02*
X13504205Y-14080388D01*
X13504205Y-14080388D02*
X13494682Y-14099436D01*
X13494682Y-14099436D02*
X13485158Y-14108960D01*
X13485158Y-14108960D02*
X13466110Y-14118484D01*
X13466110Y-14118484D02*
X13447062Y-14118484D01*
X13447062Y-14118484D02*
X13428015Y-14108960D01*
X13428015Y-14108960D02*
X13418491Y-14099436D01*
X13418491Y-14099436D02*
X13408967Y-14080388D01*
X13408967Y-14080388D02*
X13399443Y-14042293D01*
X13399443Y-14042293D02*
X13399443Y-13994674D01*
X13399443Y-13994674D02*
X13408967Y-13956579D01*
X13408967Y-13956579D02*
X13418491Y-13937531D01*
X13418491Y-13937531D02*
X13428015Y-13928008D01*
X13428015Y-13928008D02*
X13447062Y-13918484D01*
X13637539Y-13918484D02*
X13656586Y-13918484D01*
X13656586Y-13918484D02*
X13675634Y-13928008D01*
X13675634Y-13928008D02*
X13685158Y-13937531D01*
X13685158Y-13937531D02*
X13694682Y-13956579D01*
X13694682Y-13956579D02*
X13704205Y-13994674D01*
X13704205Y-13994674D02*
X13704205Y-14042293D01*
X13704205Y-14042293D02*
X13694682Y-14080388D01*
X13694682Y-14080388D02*
X13685158Y-14099436D01*
X13685158Y-14099436D02*
X13675634Y-14108960D01*
X13675634Y-14108960D02*
X13656586Y-14118484D01*
X13656586Y-14118484D02*
X13637539Y-14118484D01*
X13637539Y-14118484D02*
X13618491Y-14108960D01*
X13618491Y-14108960D02*
X13608967Y-14099436D01*
X13608967Y-14099436D02*
X13599443Y-14080388D01*
X13599443Y-14080388D02*
X13589920Y-14042293D01*
X13589920Y-14042293D02*
X13589920Y-13994674D01*
X13589920Y-13994674D02*
X13599443Y-13956579D01*
X13599443Y-13956579D02*
X13608967Y-13937531D01*
X13608967Y-13937531D02*
X13618491Y-13928008D01*
X13618491Y-13928008D02*
X13637539Y-13918484D01*
X13789920Y-14118484D02*
X13789920Y-13985150D01*
X13789920Y-14004198D02*
X13799443Y-13994674D01*
X13799443Y-13994674D02*
X13818491Y-13985150D01*
X13818491Y-13985150D02*
X13847063Y-13985150D01*
X13847063Y-13985150D02*
X13866110Y-13994674D01*
X13866110Y-13994674D02*
X13875634Y-14013722D01*
X13875634Y-14013722D02*
X13875634Y-14118484D01*
X13875634Y-14013722D02*
X13885158Y-13994674D01*
X13885158Y-13994674D02*
X13904205Y-13985150D01*
X13904205Y-13985150D02*
X13932777Y-13985150D01*
X13932777Y-13985150D02*
X13951824Y-13994674D01*
X13951824Y-13994674D02*
X13961348Y-14013722D01*
X13961348Y-14013722D02*
X13961348Y-14118484D01*
X14056586Y-14118484D02*
X14056586Y-13985150D01*
X14056586Y-14004198D02*
X14066110Y-13994674D01*
X14066110Y-13994674D02*
X14085158Y-13985150D01*
X14085158Y-13985150D02*
X14113729Y-13985150D01*
X14113729Y-13985150D02*
X14132777Y-13994674D01*
X14132777Y-13994674D02*
X14142301Y-14013722D01*
X14142301Y-14013722D02*
X14142301Y-14118484D01*
X14142301Y-14013722D02*
X14151824Y-13994674D01*
X14151824Y-13994674D02*
X14170872Y-13985150D01*
X14170872Y-13985150D02*
X14199443Y-13985150D01*
X14199443Y-13985150D02*
X14218491Y-13994674D01*
X14218491Y-13994674D02*
X14228015Y-14013722D01*
X14228015Y-14013722D02*
X14228015Y-14118484D01*
X14618491Y-13908960D02*
X14447063Y-14166103D01*
X14875634Y-13918484D02*
X14894682Y-13918484D01*
X14894682Y-13918484D02*
X14913729Y-13928008D01*
X14913729Y-13928008D02*
X14923253Y-13937531D01*
X14923253Y-13937531D02*
X14932777Y-13956579D01*
X14932777Y-13956579D02*
X14942301Y-13994674D01*
X14942301Y-13994674D02*
X14942301Y-14042293D01*
X14942301Y-14042293D02*
X14932777Y-14080388D01*
X14932777Y-14080388D02*
X14923253Y-14099436D01*
X14923253Y-14099436D02*
X14913729Y-14108960D01*
X14913729Y-14108960D02*
X14894682Y-14118484D01*
X14894682Y-14118484D02*
X14875634Y-14118484D01*
X14875634Y-14118484D02*
X14856586Y-14108960D01*
X14856586Y-14108960D02*
X14847063Y-14099436D01*
X14847063Y-14099436D02*
X14837539Y-14080388D01*
X14837539Y-14080388D02*
X14828015Y-14042293D01*
X14828015Y-14042293D02*
X14828015Y-13994674D01*
X14828015Y-13994674D02*
X14837539Y-13956579D01*
X14837539Y-13956579D02*
X14847063Y-13937531D01*
X14847063Y-13937531D02*
X14856586Y-13928008D01*
X14856586Y-13928008D02*
X14875634Y-13918484D01*
X15028015Y-14099436D02*
X15037539Y-14108960D01*
X15037539Y-14108960D02*
X15028015Y-14118484D01*
X15028015Y-14118484D02*
X15018491Y-14108960D01*
X15018491Y-14108960D02*
X15028015Y-14099436D01*
X15028015Y-14099436D02*
X15028015Y-14118484D01*
X15161348Y-13918484D02*
X15180396Y-13918484D01*
X15180396Y-13918484D02*
X15199444Y-13928008D01*
X15199444Y-13928008D02*
X15208967Y-13937531D01*
X15208967Y-13937531D02*
X15218491Y-13956579D01*
X15218491Y-13956579D02*
X15228015Y-13994674D01*
X15228015Y-13994674D02*
X15228015Y-14042293D01*
X15228015Y-14042293D02*
X15218491Y-14080388D01*
X15218491Y-14080388D02*
X15208967Y-14099436D01*
X15208967Y-14099436D02*
X15199444Y-14108960D01*
X15199444Y-14108960D02*
X15180396Y-14118484D01*
X15180396Y-14118484D02*
X15161348Y-14118484D01*
X15161348Y-14118484D02*
X15142301Y-14108960D01*
X15142301Y-14108960D02*
X15132777Y-14099436D01*
X15132777Y-14099436D02*
X15123253Y-14080388D01*
X15123253Y-14080388D02*
X15113729Y-14042293D01*
X15113729Y-14042293D02*
X15113729Y-13994674D01*
X15113729Y-13994674D02*
X15123253Y-13956579D01*
X15123253Y-13956579D02*
X15132777Y-13937531D01*
X15132777Y-13937531D02*
X15142301Y-13928008D01*
X15142301Y-13928008D02*
X15161348Y-13918484D01*
X15418491Y-14118484D02*
X15304206Y-14118484D01*
X15361348Y-14118484D02*
X15361348Y-13918484D01*
X15361348Y-13918484D02*
X15342301Y-13947055D01*
X15342301Y-13947055D02*
X15323253Y-13966103D01*
X15323253Y-13966103D02*
X15304206Y-13975627D01*
X15599444Y-13918484D02*
X15504206Y-13918484D01*
X15504206Y-13918484D02*
X15494682Y-14013722D01*
X15494682Y-14013722D02*
X15504206Y-14004198D01*
X15504206Y-14004198D02*
X15523253Y-13994674D01*
X15523253Y-13994674D02*
X15570872Y-13994674D01*
X15570872Y-13994674D02*
X15589920Y-14004198D01*
X15589920Y-14004198D02*
X15599444Y-14013722D01*
X15599444Y-14013722D02*
X15608967Y-14032769D01*
X15608967Y-14032769D02*
X15608967Y-14080388D01*
X15608967Y-14080388D02*
X15599444Y-14099436D01*
X15599444Y-14099436D02*
X15589920Y-14108960D01*
X15589920Y-14108960D02*
X15570872Y-14118484D01*
X15570872Y-14118484D02*
X15523253Y-14118484D01*
X15523253Y-14118484D02*
X15504206Y-14108960D01*
X15504206Y-14108960D02*
X15494682Y-14099436D01*
X15675634Y-13918484D02*
X15808967Y-13918484D01*
X15808967Y-13918484D02*
X15723253Y-14118484D01*
X15875634Y-13918484D02*
X15875634Y-13956579D01*
X15951825Y-13918484D02*
X15951825Y-13956579D01*
X16247063Y-14194674D02*
X16237539Y-14185150D01*
X16237539Y-14185150D02*
X16218491Y-14156579D01*
X16218491Y-14156579D02*
X16208968Y-14137531D01*
X16208968Y-14137531D02*
X16199444Y-14108960D01*
X16199444Y-14108960D02*
X16189920Y-14061341D01*
X16189920Y-14061341D02*
X16189920Y-14023246D01*
X16189920Y-14023246D02*
X16199444Y-13975627D01*
X16199444Y-13975627D02*
X16208968Y-13947055D01*
X16208968Y-13947055D02*
X16218491Y-13928008D01*
X16218491Y-13928008D02*
X16237539Y-13899436D01*
X16237539Y-13899436D02*
X16247063Y-13889912D01*
X16304206Y-13918484D02*
X16428015Y-13918484D01*
X16428015Y-13918484D02*
X16361348Y-13994674D01*
X16361348Y-13994674D02*
X16389920Y-13994674D01*
X16389920Y-13994674D02*
X16408968Y-14004198D01*
X16408968Y-14004198D02*
X16418491Y-14013722D01*
X16418491Y-14013722D02*
X16428015Y-14032769D01*
X16428015Y-14032769D02*
X16428015Y-14080388D01*
X16428015Y-14080388D02*
X16418491Y-14099436D01*
X16418491Y-14099436D02*
X16408968Y-14108960D01*
X16408968Y-14108960D02*
X16389920Y-14118484D01*
X16389920Y-14118484D02*
X16332777Y-14118484D01*
X16332777Y-14118484D02*
X16313729Y-14108960D01*
X16313729Y-14108960D02*
X16304206Y-14099436D01*
X16618491Y-14118484D02*
X16504206Y-14118484D01*
X16561348Y-14118484D02*
X16561348Y-13918484D01*
X16561348Y-13918484D02*
X16542301Y-13947055D01*
X16542301Y-13947055D02*
X16523253Y-13966103D01*
X16523253Y-13966103D02*
X16504206Y-13975627D01*
X16856587Y-14118484D02*
X16856587Y-13918484D01*
X16942301Y-14118484D02*
X16942301Y-14013722D01*
X16942301Y-14013722D02*
X16932777Y-13994674D01*
X16932777Y-13994674D02*
X16913730Y-13985150D01*
X16913730Y-13985150D02*
X16885158Y-13985150D01*
X16885158Y-13985150D02*
X16866111Y-13994674D01*
X16866111Y-13994674D02*
X16856587Y-14004198D01*
X17066111Y-14118484D02*
X17047063Y-14108960D01*
X17047063Y-14108960D02*
X17037539Y-14099436D01*
X17037539Y-14099436D02*
X17028015Y-14080388D01*
X17028015Y-14080388D02*
X17028015Y-14023246D01*
X17028015Y-14023246D02*
X17037539Y-14004198D01*
X17037539Y-14004198D02*
X17047063Y-13994674D01*
X17047063Y-13994674D02*
X17066111Y-13985150D01*
X17066111Y-13985150D02*
X17094682Y-13985150D01*
X17094682Y-13985150D02*
X17113730Y-13994674D01*
X17113730Y-13994674D02*
X17123253Y-14004198D01*
X17123253Y-14004198D02*
X17132777Y-14023246D01*
X17132777Y-14023246D02*
X17132777Y-14080388D01*
X17132777Y-14080388D02*
X17123253Y-14099436D01*
X17123253Y-14099436D02*
X17113730Y-14108960D01*
X17113730Y-14108960D02*
X17094682Y-14118484D01*
X17094682Y-14118484D02*
X17066111Y-14118484D01*
X17247063Y-14118484D02*
X17228015Y-14108960D01*
X17228015Y-14108960D02*
X17218492Y-14089912D01*
X17218492Y-14089912D02*
X17218492Y-13918484D01*
X17399444Y-14108960D02*
X17380396Y-14118484D01*
X17380396Y-14118484D02*
X17342301Y-14118484D01*
X17342301Y-14118484D02*
X17323253Y-14108960D01*
X17323253Y-14108960D02*
X17313730Y-14089912D01*
X17313730Y-14089912D02*
X17313730Y-14013722D01*
X17313730Y-14013722D02*
X17323253Y-13994674D01*
X17323253Y-13994674D02*
X17342301Y-13985150D01*
X17342301Y-13985150D02*
X17380396Y-13985150D01*
X17380396Y-13985150D02*
X17399444Y-13994674D01*
X17399444Y-13994674D02*
X17408968Y-14013722D01*
X17408968Y-14013722D02*
X17408968Y-14032769D01*
X17408968Y-14032769D02*
X17313730Y-14051817D01*
X17485158Y-14108960D02*
X17504206Y-14118484D01*
X17504206Y-14118484D02*
X17542301Y-14118484D01*
X17542301Y-14118484D02*
X17561349Y-14108960D01*
X17561349Y-14108960D02*
X17570873Y-14089912D01*
X17570873Y-14089912D02*
X17570873Y-14080388D01*
X17570873Y-14080388D02*
X17561349Y-14061341D01*
X17561349Y-14061341D02*
X17542301Y-14051817D01*
X17542301Y-14051817D02*
X17513730Y-14051817D01*
X17513730Y-14051817D02*
X17494682Y-14042293D01*
X17494682Y-14042293D02*
X17485158Y-14023246D01*
X17485158Y-14023246D02*
X17485158Y-14013722D01*
X17485158Y-14013722D02*
X17494682Y-13994674D01*
X17494682Y-13994674D02*
X17513730Y-13985150D01*
X17513730Y-13985150D02*
X17542301Y-13985150D01*
X17542301Y-13985150D02*
X17561349Y-13994674D01*
X17637539Y-14194674D02*
X17647063Y-14185150D01*
X17647063Y-14185150D02*
X17666111Y-14156579D01*
X17666111Y-14156579D02*
X17675634Y-14137531D01*
X17675634Y-14137531D02*
X17685158Y-14108960D01*
X17685158Y-14108960D02*
X17694682Y-14061341D01*
X17694682Y-14061341D02*
X17694682Y-14023246D01*
X17694682Y-14023246D02*
X17685158Y-13975627D01*
X17685158Y-13975627D02*
X17675634Y-13947055D01*
X17675634Y-13947055D02*
X17666111Y-13928008D01*
X17666111Y-13928008D02*
X17647063Y-13899436D01*
X17647063Y-13899436D02*
X17637539Y-13889912D01*
D10*
X12663213Y-14312213D02*
X12663213Y-14269787D01*
X12620787Y-14269787D01*
X12620787Y-14312213D01*
X12663213Y-14312213D01*
D11*
X12970872Y-14182484D02*
X12989920Y-14182484D01*
X12989920Y-14182484D02*
X13008967Y-14192008D01*
X13008967Y-14192008D02*
X13018491Y-14201531D01*
X13018491Y-14201531D02*
X13028015Y-14220579D01*
X13028015Y-14220579D02*
X13037539Y-14258674D01*
X13037539Y-14258674D02*
X13037539Y-14306293D01*
X13037539Y-14306293D02*
X13028015Y-14344388D01*
X13028015Y-14344388D02*
X13018491Y-14363436D01*
X13018491Y-14363436D02*
X13008967Y-14372960D01*
X13008967Y-14372960D02*
X12989920Y-14382484D01*
X12989920Y-14382484D02*
X12970872Y-14382484D01*
X12970872Y-14382484D02*
X12951824Y-14372960D01*
X12951824Y-14372960D02*
X12942301Y-14363436D01*
X12942301Y-14363436D02*
X12932777Y-14344388D01*
X12932777Y-14344388D02*
X12923253Y-14306293D01*
X12923253Y-14306293D02*
X12923253Y-14258674D01*
X12923253Y-14258674D02*
X12932777Y-14220579D01*
X12932777Y-14220579D02*
X12942301Y-14201531D01*
X12942301Y-14201531D02*
X12951824Y-14192008D01*
X12951824Y-14192008D02*
X12970872Y-14182484D01*
X13123253Y-14363436D02*
X13132777Y-14372960D01*
X13132777Y-14372960D02*
X13123253Y-14382484D01*
X13123253Y-14382484D02*
X13113729Y-14372960D01*
X13113729Y-14372960D02*
X13123253Y-14363436D01*
X13123253Y-14363436D02*
X13123253Y-14382484D01*
X13304205Y-14182484D02*
X13266110Y-14182484D01*
X13266110Y-14182484D02*
X13247062Y-14192008D01*
X13247062Y-14192008D02*
X13237539Y-14201531D01*
X13237539Y-14201531D02*
X13218491Y-14230103D01*
X13218491Y-14230103D02*
X13208967Y-14268198D01*
X13208967Y-14268198D02*
X13208967Y-14344388D01*
X13208967Y-14344388D02*
X13218491Y-14363436D01*
X13218491Y-14363436D02*
X13228015Y-14372960D01*
X13228015Y-14372960D02*
X13247062Y-14382484D01*
X13247062Y-14382484D02*
X13285158Y-14382484D01*
X13285158Y-14382484D02*
X13304205Y-14372960D01*
X13304205Y-14372960D02*
X13313729Y-14363436D01*
X13313729Y-14363436D02*
X13323253Y-14344388D01*
X13323253Y-14344388D02*
X13323253Y-14296769D01*
X13323253Y-14296769D02*
X13313729Y-14277722D01*
X13313729Y-14277722D02*
X13304205Y-14268198D01*
X13304205Y-14268198D02*
X13285158Y-14258674D01*
X13285158Y-14258674D02*
X13247062Y-14258674D01*
X13247062Y-14258674D02*
X13228015Y-14268198D01*
X13228015Y-14268198D02*
X13218491Y-14277722D01*
X13218491Y-14277722D02*
X13208967Y-14296769D01*
X13447062Y-14182484D02*
X13466110Y-14182484D01*
X13466110Y-14182484D02*
X13485158Y-14192008D01*
X13485158Y-14192008D02*
X13494682Y-14201531D01*
X13494682Y-14201531D02*
X13504205Y-14220579D01*
X13504205Y-14220579D02*
X13513729Y-14258674D01*
X13513729Y-14258674D02*
X13513729Y-14306293D01*
X13513729Y-14306293D02*
X13504205Y-14344388D01*
X13504205Y-14344388D02*
X13494682Y-14363436D01*
X13494682Y-14363436D02*
X13485158Y-14372960D01*
X13485158Y-14372960D02*
X13466110Y-14382484D01*
X13466110Y-14382484D02*
X13447062Y-14382484D01*
X13447062Y-14382484D02*
X13428015Y-14372960D01*
X13428015Y-14372960D02*
X13418491Y-14363436D01*
X13418491Y-14363436D02*
X13408967Y-14344388D01*
X13408967Y-14344388D02*
X13399443Y-14306293D01*
X13399443Y-14306293D02*
X13399443Y-14258674D01*
X13399443Y-14258674D02*
X13408967Y-14220579D01*
X13408967Y-14220579D02*
X13418491Y-14201531D01*
X13418491Y-14201531D02*
X13428015Y-14192008D01*
X13428015Y-14192008D02*
X13447062Y-14182484D01*
X13637539Y-14182484D02*
X13656586Y-14182484D01*
X13656586Y-14182484D02*
X13675634Y-14192008D01*
X13675634Y-14192008D02*
X13685158Y-14201531D01*
X13685158Y-14201531D02*
X13694682Y-14220579D01*
X13694682Y-14220579D02*
X13704205Y-14258674D01*
X13704205Y-14258674D02*
X13704205Y-14306293D01*
X13704205Y-14306293D02*
X13694682Y-14344388D01*
X13694682Y-14344388D02*
X13685158Y-14363436D01*
X13685158Y-14363436D02*
X13675634Y-14372960D01*
X13675634Y-14372960D02*
X13656586Y-14382484D01*
X13656586Y-14382484D02*
X13637539Y-14382484D01*
X13637539Y-14382484D02*
X13618491Y-14372960D01*
X13618491Y-14372960D02*
X13608967Y-14363436D01*
X13608967Y-14363436D02*
X13599443Y-14344388D01*
X13599443Y-14344388D02*
X13589920Y-14306293D01*
X13589920Y-14306293D02*
X13589920Y-14258674D01*
X13589920Y-14258674D02*
X13599443Y-14220579D01*
X13599443Y-14220579D02*
X13608967Y-14201531D01*
X13608967Y-14201531D02*
X13618491Y-14192008D01*
X13618491Y-14192008D02*
X13637539Y-14182484D01*
X13789920Y-14382484D02*
X13789920Y-14249150D01*
X13789920Y-14268198D02*
X13799443Y-14258674D01*
X13799443Y-14258674D02*
X13818491Y-14249150D01*
X13818491Y-14249150D02*
X13847063Y-14249150D01*
X13847063Y-14249150D02*
X13866110Y-14258674D01*
X13866110Y-14258674D02*
X13875634Y-14277722D01*
X13875634Y-14277722D02*
X13875634Y-14382484D01*
X13875634Y-14277722D02*
X13885158Y-14258674D01*
X13885158Y-14258674D02*
X13904205Y-14249150D01*
X13904205Y-14249150D02*
X13932777Y-14249150D01*
X13932777Y-14249150D02*
X13951824Y-14258674D01*
X13951824Y-14258674D02*
X13961348Y-14277722D01*
X13961348Y-14277722D02*
X13961348Y-14382484D01*
X14056586Y-14382484D02*
X14056586Y-14249150D01*
X14056586Y-14268198D02*
X14066110Y-14258674D01*
X14066110Y-14258674D02*
X14085158Y-14249150D01*
X14085158Y-14249150D02*
X14113729Y-14249150D01*
X14113729Y-14249150D02*
X14132777Y-14258674D01*
X14132777Y-14258674D02*
X14142301Y-14277722D01*
X14142301Y-14277722D02*
X14142301Y-14382484D01*
X14142301Y-14277722D02*
X14151824Y-14258674D01*
X14151824Y-14258674D02*
X14170872Y-14249150D01*
X14170872Y-14249150D02*
X14199443Y-14249150D01*
X14199443Y-14249150D02*
X14218491Y-14258674D01*
X14218491Y-14258674D02*
X14228015Y-14277722D01*
X14228015Y-14277722D02*
X14228015Y-14382484D01*
X14618491Y-14172960D02*
X14447063Y-14430103D01*
X14875634Y-14182484D02*
X14894682Y-14182484D01*
X14894682Y-14182484D02*
X14913729Y-14192008D01*
X14913729Y-14192008D02*
X14923253Y-14201531D01*
X14923253Y-14201531D02*
X14932777Y-14220579D01*
X14932777Y-14220579D02*
X14942301Y-14258674D01*
X14942301Y-14258674D02*
X14942301Y-14306293D01*
X14942301Y-14306293D02*
X14932777Y-14344388D01*
X14932777Y-14344388D02*
X14923253Y-14363436D01*
X14923253Y-14363436D02*
X14913729Y-14372960D01*
X14913729Y-14372960D02*
X14894682Y-14382484D01*
X14894682Y-14382484D02*
X14875634Y-14382484D01*
X14875634Y-14382484D02*
X14856586Y-14372960D01*
X14856586Y-14372960D02*
X14847063Y-14363436D01*
X14847063Y-14363436D02*
X14837539Y-14344388D01*
X14837539Y-14344388D02*
X14828015Y-14306293D01*
X14828015Y-14306293D02*
X14828015Y-14258674D01*
X14828015Y-14258674D02*
X14837539Y-14220579D01*
X14837539Y-14220579D02*
X14847063Y-14201531D01*
X14847063Y-14201531D02*
X14856586Y-14192008D01*
X14856586Y-14192008D02*
X14875634Y-14182484D01*
X15028015Y-14363436D02*
X15037539Y-14372960D01*
X15037539Y-14372960D02*
X15028015Y-14382484D01*
X15028015Y-14382484D02*
X15018491Y-14372960D01*
X15018491Y-14372960D02*
X15028015Y-14363436D01*
X15028015Y-14363436D02*
X15028015Y-14382484D01*
X15161348Y-14182484D02*
X15180396Y-14182484D01*
X15180396Y-14182484D02*
X15199444Y-14192008D01*
X15199444Y-14192008D02*
X15208967Y-14201531D01*
X15208967Y-14201531D02*
X15218491Y-14220579D01*
X15218491Y-14220579D02*
X15228015Y-14258674D01*
X15228015Y-14258674D02*
X15228015Y-14306293D01*
X15228015Y-14306293D02*
X15218491Y-14344388D01*
X15218491Y-14344388D02*
X15208967Y-14363436D01*
X15208967Y-14363436D02*
X15199444Y-14372960D01*
X15199444Y-14372960D02*
X15180396Y-14382484D01*
X15180396Y-14382484D02*
X15161348Y-14382484D01*
X15161348Y-14382484D02*
X15142301Y-14372960D01*
X15142301Y-14372960D02*
X15132777Y-14363436D01*
X15132777Y-14363436D02*
X15123253Y-14344388D01*
X15123253Y-14344388D02*
X15113729Y-14306293D01*
X15113729Y-14306293D02*
X15113729Y-14258674D01*
X15113729Y-14258674D02*
X15123253Y-14220579D01*
X15123253Y-14220579D02*
X15132777Y-14201531D01*
X15132777Y-14201531D02*
X15142301Y-14192008D01*
X15142301Y-14192008D02*
X15161348Y-14182484D01*
X15304206Y-14201531D02*
X15313729Y-14192008D01*
X15313729Y-14192008D02*
X15332777Y-14182484D01*
X15332777Y-14182484D02*
X15380396Y-14182484D01*
X15380396Y-14182484D02*
X15399444Y-14192008D01*
X15399444Y-14192008D02*
X15408967Y-14201531D01*
X15408967Y-14201531D02*
X15418491Y-14220579D01*
X15418491Y-14220579D02*
X15418491Y-14239627D01*
X15418491Y-14239627D02*
X15408967Y-14268198D01*
X15408967Y-14268198D02*
X15294682Y-14382484D01*
X15294682Y-14382484D02*
X15418491Y-14382484D01*
X15485158Y-14182484D02*
X15608967Y-14182484D01*
X15608967Y-14182484D02*
X15542301Y-14258674D01*
X15542301Y-14258674D02*
X15570872Y-14258674D01*
X15570872Y-14258674D02*
X15589920Y-14268198D01*
X15589920Y-14268198D02*
X15599444Y-14277722D01*
X15599444Y-14277722D02*
X15608967Y-14296769D01*
X15608967Y-14296769D02*
X15608967Y-14344388D01*
X15608967Y-14344388D02*
X15599444Y-14363436D01*
X15599444Y-14363436D02*
X15589920Y-14372960D01*
X15589920Y-14372960D02*
X15570872Y-14382484D01*
X15570872Y-14382484D02*
X15513729Y-14382484D01*
X15513729Y-14382484D02*
X15494682Y-14372960D01*
X15494682Y-14372960D02*
X15485158Y-14363436D01*
X15780396Y-14182484D02*
X15742301Y-14182484D01*
X15742301Y-14182484D02*
X15723253Y-14192008D01*
X15723253Y-14192008D02*
X15713729Y-14201531D01*
X15713729Y-14201531D02*
X15694682Y-14230103D01*
X15694682Y-14230103D02*
X15685158Y-14268198D01*
X15685158Y-14268198D02*
X15685158Y-14344388D01*
X15685158Y-14344388D02*
X15694682Y-14363436D01*
X15694682Y-14363436D02*
X15704206Y-14372960D01*
X15704206Y-14372960D02*
X15723253Y-14382484D01*
X15723253Y-14382484D02*
X15761348Y-14382484D01*
X15761348Y-14382484D02*
X15780396Y-14372960D01*
X15780396Y-14372960D02*
X15789920Y-14363436D01*
X15789920Y-14363436D02*
X15799444Y-14344388D01*
X15799444Y-14344388D02*
X15799444Y-14296769D01*
X15799444Y-14296769D02*
X15789920Y-14277722D01*
X15789920Y-14277722D02*
X15780396Y-14268198D01*
X15780396Y-14268198D02*
X15761348Y-14258674D01*
X15761348Y-14258674D02*
X15723253Y-14258674D01*
X15723253Y-14258674D02*
X15704206Y-14268198D01*
X15704206Y-14268198D02*
X15694682Y-14277722D01*
X15694682Y-14277722D02*
X15685158Y-14296769D01*
X15875634Y-14182484D02*
X15875634Y-14220579D01*
X15951825Y-14182484D02*
X15951825Y-14220579D01*
X16247063Y-14458674D02*
X16237539Y-14449150D01*
X16237539Y-14449150D02*
X16218491Y-14420579D01*
X16218491Y-14420579D02*
X16208968Y-14401531D01*
X16208968Y-14401531D02*
X16199444Y-14372960D01*
X16199444Y-14372960D02*
X16189920Y-14325341D01*
X16189920Y-14325341D02*
X16189920Y-14287246D01*
X16189920Y-14287246D02*
X16199444Y-14239627D01*
X16199444Y-14239627D02*
X16208968Y-14211055D01*
X16208968Y-14211055D02*
X16218491Y-14192008D01*
X16218491Y-14192008D02*
X16237539Y-14163436D01*
X16237539Y-14163436D02*
X16247063Y-14153912D01*
X16361348Y-14182484D02*
X16380396Y-14182484D01*
X16380396Y-14182484D02*
X16399444Y-14192008D01*
X16399444Y-14192008D02*
X16408968Y-14201531D01*
X16408968Y-14201531D02*
X16418491Y-14220579D01*
X16418491Y-14220579D02*
X16428015Y-14258674D01*
X16428015Y-14258674D02*
X16428015Y-14306293D01*
X16428015Y-14306293D02*
X16418491Y-14344388D01*
X16418491Y-14344388D02*
X16408968Y-14363436D01*
X16408968Y-14363436D02*
X16399444Y-14372960D01*
X16399444Y-14372960D02*
X16380396Y-14382484D01*
X16380396Y-14382484D02*
X16361348Y-14382484D01*
X16361348Y-14382484D02*
X16342301Y-14372960D01*
X16342301Y-14372960D02*
X16332777Y-14363436D01*
X16332777Y-14363436D02*
X16323253Y-14344388D01*
X16323253Y-14344388D02*
X16313729Y-14306293D01*
X16313729Y-14306293D02*
X16313729Y-14258674D01*
X16313729Y-14258674D02*
X16323253Y-14220579D01*
X16323253Y-14220579D02*
X16332777Y-14201531D01*
X16332777Y-14201531D02*
X16342301Y-14192008D01*
X16342301Y-14192008D02*
X16361348Y-14182484D01*
X16666110Y-14382484D02*
X16666110Y-14182484D01*
X16751825Y-14382484D02*
X16751825Y-14277722D01*
X16751825Y-14277722D02*
X16742301Y-14258674D01*
X16742301Y-14258674D02*
X16723253Y-14249150D01*
X16723253Y-14249150D02*
X16694682Y-14249150D01*
X16694682Y-14249150D02*
X16675634Y-14258674D01*
X16675634Y-14258674D02*
X16666110Y-14268198D01*
X16875634Y-14382484D02*
X16856587Y-14372960D01*
X16856587Y-14372960D02*
X16847063Y-14363436D01*
X16847063Y-14363436D02*
X16837539Y-14344388D01*
X16837539Y-14344388D02*
X16837539Y-14287246D01*
X16837539Y-14287246D02*
X16847063Y-14268198D01*
X16847063Y-14268198D02*
X16856587Y-14258674D01*
X16856587Y-14258674D02*
X16875634Y-14249150D01*
X16875634Y-14249150D02*
X16904206Y-14249150D01*
X16904206Y-14249150D02*
X16923253Y-14258674D01*
X16923253Y-14258674D02*
X16932777Y-14268198D01*
X16932777Y-14268198D02*
X16942301Y-14287246D01*
X16942301Y-14287246D02*
X16942301Y-14344388D01*
X16942301Y-14344388D02*
X16932777Y-14363436D01*
X16932777Y-14363436D02*
X16923253Y-14372960D01*
X16923253Y-14372960D02*
X16904206Y-14382484D01*
X16904206Y-14382484D02*
X16875634Y-14382484D01*
X17056587Y-14382484D02*
X17037539Y-14372960D01*
X17037539Y-14372960D02*
X17028015Y-14353912D01*
X17028015Y-14353912D02*
X17028015Y-14182484D01*
X17208968Y-14372960D02*
X17189920Y-14382484D01*
X17189920Y-14382484D02*
X17151825Y-14382484D01*
X17151825Y-14382484D02*
X17132777Y-14372960D01*
X17132777Y-14372960D02*
X17123253Y-14353912D01*
X17123253Y-14353912D02*
X17123253Y-14277722D01*
X17123253Y-14277722D02*
X17132777Y-14258674D01*
X17132777Y-14258674D02*
X17151825Y-14249150D01*
X17151825Y-14249150D02*
X17189920Y-14249150D01*
X17189920Y-14249150D02*
X17208968Y-14258674D01*
X17208968Y-14258674D02*
X17218492Y-14277722D01*
X17218492Y-14277722D02*
X17218492Y-14296769D01*
X17218492Y-14296769D02*
X17123253Y-14315817D01*
X17294682Y-14372960D02*
X17313730Y-14382484D01*
X17313730Y-14382484D02*
X17351825Y-14382484D01*
X17351825Y-14382484D02*
X17370873Y-14372960D01*
X17370873Y-14372960D02*
X17380396Y-14353912D01*
X17380396Y-14353912D02*
X17380396Y-14344388D01*
X17380396Y-14344388D02*
X17370873Y-14325341D01*
X17370873Y-14325341D02*
X17351825Y-14315817D01*
X17351825Y-14315817D02*
X17323253Y-14315817D01*
X17323253Y-14315817D02*
X17304206Y-14306293D01*
X17304206Y-14306293D02*
X17294682Y-14287246D01*
X17294682Y-14287246D02*
X17294682Y-14277722D01*
X17294682Y-14277722D02*
X17304206Y-14258674D01*
X17304206Y-14258674D02*
X17323253Y-14249150D01*
X17323253Y-14249150D02*
X17351825Y-14249150D01*
X17351825Y-14249150D02*
X17370873Y-14258674D01*
X17618492Y-14306293D02*
X17770873Y-14306293D01*
X17694682Y-14382484D02*
X17694682Y-14230103D01*
X18104206Y-14249150D02*
X18104206Y-14382484D01*
X18056587Y-14172960D02*
X18008968Y-14315817D01*
X18008968Y-14315817D02*
X18132777Y-14315817D01*
X18351825Y-14372960D02*
X18370873Y-14382484D01*
X18370873Y-14382484D02*
X18408968Y-14382484D01*
X18408968Y-14382484D02*
X18428016Y-14372960D01*
X18428016Y-14372960D02*
X18437539Y-14353912D01*
X18437539Y-14353912D02*
X18437539Y-14344388D01*
X18437539Y-14344388D02*
X18428016Y-14325341D01*
X18428016Y-14325341D02*
X18408968Y-14315817D01*
X18408968Y-14315817D02*
X18380396Y-14315817D01*
X18380396Y-14315817D02*
X18361349Y-14306293D01*
X18361349Y-14306293D02*
X18351825Y-14287246D01*
X18351825Y-14287246D02*
X18351825Y-14277722D01*
X18351825Y-14277722D02*
X18361349Y-14258674D01*
X18361349Y-14258674D02*
X18380396Y-14249150D01*
X18380396Y-14249150D02*
X18408968Y-14249150D01*
X18408968Y-14249150D02*
X18428016Y-14258674D01*
X18551825Y-14382484D02*
X18532777Y-14372960D01*
X18532777Y-14372960D02*
X18523254Y-14353912D01*
X18523254Y-14353912D02*
X18523254Y-14182484D01*
X18656587Y-14382484D02*
X18637539Y-14372960D01*
X18637539Y-14372960D02*
X18628016Y-14363436D01*
X18628016Y-14363436D02*
X18618492Y-14344388D01*
X18618492Y-14344388D02*
X18618492Y-14287246D01*
X18618492Y-14287246D02*
X18628016Y-14268198D01*
X18628016Y-14268198D02*
X18637539Y-14258674D01*
X18637539Y-14258674D02*
X18656587Y-14249150D01*
X18656587Y-14249150D02*
X18685158Y-14249150D01*
X18685158Y-14249150D02*
X18704206Y-14258674D01*
X18704206Y-14258674D02*
X18713730Y-14268198D01*
X18713730Y-14268198D02*
X18723254Y-14287246D01*
X18723254Y-14287246D02*
X18723254Y-14344388D01*
X18723254Y-14344388D02*
X18713730Y-14363436D01*
X18713730Y-14363436D02*
X18704206Y-14372960D01*
X18704206Y-14372960D02*
X18685158Y-14382484D01*
X18685158Y-14382484D02*
X18656587Y-14382484D01*
X18780397Y-14249150D02*
X18856587Y-14249150D01*
X18808968Y-14182484D02*
X18808968Y-14353912D01*
X18808968Y-14353912D02*
X18818492Y-14372960D01*
X18818492Y-14372960D02*
X18837539Y-14382484D01*
X18837539Y-14382484D02*
X18856587Y-14382484D01*
X18913730Y-14372960D02*
X18932777Y-14382484D01*
X18932777Y-14382484D02*
X18970873Y-14382484D01*
X18970873Y-14382484D02*
X18989920Y-14372960D01*
X18989920Y-14372960D02*
X18999444Y-14353912D01*
X18999444Y-14353912D02*
X18999444Y-14344388D01*
X18999444Y-14344388D02*
X18989920Y-14325341D01*
X18989920Y-14325341D02*
X18970873Y-14315817D01*
X18970873Y-14315817D02*
X18942301Y-14315817D01*
X18942301Y-14315817D02*
X18923254Y-14306293D01*
X18923254Y-14306293D02*
X18913730Y-14287246D01*
X18913730Y-14287246D02*
X18913730Y-14277722D01*
X18913730Y-14277722D02*
X18923254Y-14258674D01*
X18923254Y-14258674D02*
X18942301Y-14249150D01*
X18942301Y-14249150D02*
X18970873Y-14249150D01*
X18970873Y-14249150D02*
X18989920Y-14258674D01*
X19066111Y-14458674D02*
X19075635Y-14449150D01*
X19075635Y-14449150D02*
X19094682Y-14420579D01*
X19094682Y-14420579D02*
X19104206Y-14401531D01*
X19104206Y-14401531D02*
X19113730Y-14372960D01*
X19113730Y-14372960D02*
X19123254Y-14325341D01*
X19123254Y-14325341D02*
X19123254Y-14287246D01*
X19123254Y-14287246D02*
X19113730Y-14239627D01*
X19113730Y-14239627D02*
X19104206Y-14211055D01*
X19104206Y-14211055D02*
X19094682Y-14192008D01*
X19094682Y-14192008D02*
X19075635Y-14163436D01*
X19075635Y-14163436D02*
X19066111Y-14153912D01*
D12*
X12607000Y-14620000D02*
X12672000Y-14555000D01*
X12607000Y-14490000D01*
X12542000Y-14555000D01*
X12607000Y-14620000D01*
D11*
X13037539Y-14646484D02*
X12923253Y-14646484D01*
X12980396Y-14646484D02*
X12980396Y-14446484D01*
X12980396Y-14446484D02*
X12961348Y-14475055D01*
X12961348Y-14475055D02*
X12942301Y-14494103D01*
X12942301Y-14494103D02*
X12923253Y-14503627D01*
X13123253Y-14627436D02*
X13132777Y-14636960D01*
X13132777Y-14636960D02*
X13123253Y-14646484D01*
X13123253Y-14646484D02*
X13113729Y-14636960D01*
X13113729Y-14636960D02*
X13123253Y-14627436D01*
X13123253Y-14627436D02*
X13123253Y-14646484D01*
X13199443Y-14446484D02*
X13323253Y-14446484D01*
X13323253Y-14446484D02*
X13256586Y-14522674D01*
X13256586Y-14522674D02*
X13285158Y-14522674D01*
X13285158Y-14522674D02*
X13304205Y-14532198D01*
X13304205Y-14532198D02*
X13313729Y-14541722D01*
X13313729Y-14541722D02*
X13323253Y-14560769D01*
X13323253Y-14560769D02*
X13323253Y-14608388D01*
X13323253Y-14608388D02*
X13313729Y-14627436D01*
X13313729Y-14627436D02*
X13304205Y-14636960D01*
X13304205Y-14636960D02*
X13285158Y-14646484D01*
X13285158Y-14646484D02*
X13228015Y-14646484D01*
X13228015Y-14646484D02*
X13208967Y-14636960D01*
X13208967Y-14636960D02*
X13199443Y-14627436D01*
X13447062Y-14446484D02*
X13466110Y-14446484D01*
X13466110Y-14446484D02*
X13485158Y-14456008D01*
X13485158Y-14456008D02*
X13494682Y-14465531D01*
X13494682Y-14465531D02*
X13504205Y-14484579D01*
X13504205Y-14484579D02*
X13513729Y-14522674D01*
X13513729Y-14522674D02*
X13513729Y-14570293D01*
X13513729Y-14570293D02*
X13504205Y-14608388D01*
X13504205Y-14608388D02*
X13494682Y-14627436D01*
X13494682Y-14627436D02*
X13485158Y-14636960D01*
X13485158Y-14636960D02*
X13466110Y-14646484D01*
X13466110Y-14646484D02*
X13447062Y-14646484D01*
X13447062Y-14646484D02*
X13428015Y-14636960D01*
X13428015Y-14636960D02*
X13418491Y-14627436D01*
X13418491Y-14627436D02*
X13408967Y-14608388D01*
X13408967Y-14608388D02*
X13399443Y-14570293D01*
X13399443Y-14570293D02*
X13399443Y-14522674D01*
X13399443Y-14522674D02*
X13408967Y-14484579D01*
X13408967Y-14484579D02*
X13418491Y-14465531D01*
X13418491Y-14465531D02*
X13428015Y-14456008D01*
X13428015Y-14456008D02*
X13447062Y-14446484D01*
X13637539Y-14446484D02*
X13656586Y-14446484D01*
X13656586Y-14446484D02*
X13675634Y-14456008D01*
X13675634Y-14456008D02*
X13685158Y-14465531D01*
X13685158Y-14465531D02*
X13694682Y-14484579D01*
X13694682Y-14484579D02*
X13704205Y-14522674D01*
X13704205Y-14522674D02*
X13704205Y-14570293D01*
X13704205Y-14570293D02*
X13694682Y-14608388D01*
X13694682Y-14608388D02*
X13685158Y-14627436D01*
X13685158Y-14627436D02*
X13675634Y-14636960D01*
X13675634Y-14636960D02*
X13656586Y-14646484D01*
X13656586Y-14646484D02*
X13637539Y-14646484D01*
X13637539Y-14646484D02*
X13618491Y-14636960D01*
X13618491Y-14636960D02*
X13608967Y-14627436D01*
X13608967Y-14627436D02*
X13599443Y-14608388D01*
X13599443Y-14608388D02*
X13589920Y-14570293D01*
X13589920Y-14570293D02*
X13589920Y-14522674D01*
X13589920Y-14522674D02*
X13599443Y-14484579D01*
X13599443Y-14484579D02*
X13608967Y-14465531D01*
X13608967Y-14465531D02*
X13618491Y-14456008D01*
X13618491Y-14456008D02*
X13637539Y-14446484D01*
X13789920Y-14646484D02*
X13789920Y-14513150D01*
X13789920Y-14532198D02*
X13799443Y-14522674D01*
X13799443Y-14522674D02*
X13818491Y-14513150D01*
X13818491Y-14513150D02*
X13847063Y-14513150D01*
X13847063Y-14513150D02*
X13866110Y-14522674D01*
X13866110Y-14522674D02*
X13875634Y-14541722D01*
X13875634Y-14541722D02*
X13875634Y-14646484D01*
X13875634Y-14541722D02*
X13885158Y-14522674D01*
X13885158Y-14522674D02*
X13904205Y-14513150D01*
X13904205Y-14513150D02*
X13932777Y-14513150D01*
X13932777Y-14513150D02*
X13951824Y-14522674D01*
X13951824Y-14522674D02*
X13961348Y-14541722D01*
X13961348Y-14541722D02*
X13961348Y-14646484D01*
X14056586Y-14646484D02*
X14056586Y-14513150D01*
X14056586Y-14532198D02*
X14066110Y-14522674D01*
X14066110Y-14522674D02*
X14085158Y-14513150D01*
X14085158Y-14513150D02*
X14113729Y-14513150D01*
X14113729Y-14513150D02*
X14132777Y-14522674D01*
X14132777Y-14522674D02*
X14142301Y-14541722D01*
X14142301Y-14541722D02*
X14142301Y-14646484D01*
X14142301Y-14541722D02*
X14151824Y-14522674D01*
X14151824Y-14522674D02*
X14170872Y-14513150D01*
X14170872Y-14513150D02*
X14199443Y-14513150D01*
X14199443Y-14513150D02*
X14218491Y-14522674D01*
X14218491Y-14522674D02*
X14228015Y-14541722D01*
X14228015Y-14541722D02*
X14228015Y-14646484D01*
X14618491Y-14436960D02*
X14447063Y-14694103D01*
X14875634Y-14446484D02*
X14894682Y-14446484D01*
X14894682Y-14446484D02*
X14913729Y-14456008D01*
X14913729Y-14456008D02*
X14923253Y-14465531D01*
X14923253Y-14465531D02*
X14932777Y-14484579D01*
X14932777Y-14484579D02*
X14942301Y-14522674D01*
X14942301Y-14522674D02*
X14942301Y-14570293D01*
X14942301Y-14570293D02*
X14932777Y-14608388D01*
X14932777Y-14608388D02*
X14923253Y-14627436D01*
X14923253Y-14627436D02*
X14913729Y-14636960D01*
X14913729Y-14636960D02*
X14894682Y-14646484D01*
X14894682Y-14646484D02*
X14875634Y-14646484D01*
X14875634Y-14646484D02*
X14856586Y-14636960D01*
X14856586Y-14636960D02*
X14847063Y-14627436D01*
X14847063Y-14627436D02*
X14837539Y-14608388D01*
X14837539Y-14608388D02*
X14828015Y-14570293D01*
X14828015Y-14570293D02*
X14828015Y-14522674D01*
X14828015Y-14522674D02*
X14837539Y-14484579D01*
X14837539Y-14484579D02*
X14847063Y-14465531D01*
X14847063Y-14465531D02*
X14856586Y-14456008D01*
X14856586Y-14456008D02*
X14875634Y-14446484D01*
X15028015Y-14627436D02*
X15037539Y-14636960D01*
X15037539Y-14636960D02*
X15028015Y-14646484D01*
X15028015Y-14646484D02*
X15018491Y-14636960D01*
X15018491Y-14636960D02*
X15028015Y-14627436D01*
X15028015Y-14627436D02*
X15028015Y-14646484D01*
X15161348Y-14446484D02*
X15180396Y-14446484D01*
X15180396Y-14446484D02*
X15199444Y-14456008D01*
X15199444Y-14456008D02*
X15208967Y-14465531D01*
X15208967Y-14465531D02*
X15218491Y-14484579D01*
X15218491Y-14484579D02*
X15228015Y-14522674D01*
X15228015Y-14522674D02*
X15228015Y-14570293D01*
X15228015Y-14570293D02*
X15218491Y-14608388D01*
X15218491Y-14608388D02*
X15208967Y-14627436D01*
X15208967Y-14627436D02*
X15199444Y-14636960D01*
X15199444Y-14636960D02*
X15180396Y-14646484D01*
X15180396Y-14646484D02*
X15161348Y-14646484D01*
X15161348Y-14646484D02*
X15142301Y-14636960D01*
X15142301Y-14636960D02*
X15132777Y-14627436D01*
X15132777Y-14627436D02*
X15123253Y-14608388D01*
X15123253Y-14608388D02*
X15113729Y-14570293D01*
X15113729Y-14570293D02*
X15113729Y-14522674D01*
X15113729Y-14522674D02*
X15123253Y-14484579D01*
X15123253Y-14484579D02*
X15132777Y-14465531D01*
X15132777Y-14465531D02*
X15142301Y-14456008D01*
X15142301Y-14456008D02*
X15161348Y-14446484D01*
X15408967Y-14446484D02*
X15313729Y-14446484D01*
X15313729Y-14446484D02*
X15304206Y-14541722D01*
X15304206Y-14541722D02*
X15313729Y-14532198D01*
X15313729Y-14532198D02*
X15332777Y-14522674D01*
X15332777Y-14522674D02*
X15380396Y-14522674D01*
X15380396Y-14522674D02*
X15399444Y-14532198D01*
X15399444Y-14532198D02*
X15408967Y-14541722D01*
X15408967Y-14541722D02*
X15418491Y-14560769D01*
X15418491Y-14560769D02*
X15418491Y-14608388D01*
X15418491Y-14608388D02*
X15408967Y-14627436D01*
X15408967Y-14627436D02*
X15399444Y-14636960D01*
X15399444Y-14636960D02*
X15380396Y-14646484D01*
X15380396Y-14646484D02*
X15332777Y-14646484D01*
X15332777Y-14646484D02*
X15313729Y-14636960D01*
X15313729Y-14636960D02*
X15304206Y-14627436D01*
X15608967Y-14646484D02*
X15494682Y-14646484D01*
X15551825Y-14646484D02*
X15551825Y-14446484D01*
X15551825Y-14446484D02*
X15532777Y-14475055D01*
X15532777Y-14475055D02*
X15513729Y-14494103D01*
X15513729Y-14494103D02*
X15494682Y-14503627D01*
X15685158Y-14465531D02*
X15694682Y-14456008D01*
X15694682Y-14456008D02*
X15713729Y-14446484D01*
X15713729Y-14446484D02*
X15761348Y-14446484D01*
X15761348Y-14446484D02*
X15780396Y-14456008D01*
X15780396Y-14456008D02*
X15789920Y-14465531D01*
X15789920Y-14465531D02*
X15799444Y-14484579D01*
X15799444Y-14484579D02*
X15799444Y-14503627D01*
X15799444Y-14503627D02*
X15789920Y-14532198D01*
X15789920Y-14532198D02*
X15675634Y-14646484D01*
X15675634Y-14646484D02*
X15799444Y-14646484D01*
X15875634Y-14446484D02*
X15875634Y-14484579D01*
X15951825Y-14446484D02*
X15951825Y-14484579D01*
X16247063Y-14722674D02*
X16237539Y-14713150D01*
X16237539Y-14713150D02*
X16218491Y-14684579D01*
X16218491Y-14684579D02*
X16208968Y-14665531D01*
X16208968Y-14665531D02*
X16199444Y-14636960D01*
X16199444Y-14636960D02*
X16189920Y-14589341D01*
X16189920Y-14589341D02*
X16189920Y-14551246D01*
X16189920Y-14551246D02*
X16199444Y-14503627D01*
X16199444Y-14503627D02*
X16208968Y-14475055D01*
X16208968Y-14475055D02*
X16218491Y-14456008D01*
X16218491Y-14456008D02*
X16237539Y-14427436D01*
X16237539Y-14427436D02*
X16247063Y-14417912D01*
X16361348Y-14446484D02*
X16380396Y-14446484D01*
X16380396Y-14446484D02*
X16399444Y-14456008D01*
X16399444Y-14456008D02*
X16408968Y-14465531D01*
X16408968Y-14465531D02*
X16418491Y-14484579D01*
X16418491Y-14484579D02*
X16428015Y-14522674D01*
X16428015Y-14522674D02*
X16428015Y-14570293D01*
X16428015Y-14570293D02*
X16418491Y-14608388D01*
X16418491Y-14608388D02*
X16408968Y-14627436D01*
X16408968Y-14627436D02*
X16399444Y-14636960D01*
X16399444Y-14636960D02*
X16380396Y-14646484D01*
X16380396Y-14646484D02*
X16361348Y-14646484D01*
X16361348Y-14646484D02*
X16342301Y-14636960D01*
X16342301Y-14636960D02*
X16332777Y-14627436D01*
X16332777Y-14627436D02*
X16323253Y-14608388D01*
X16323253Y-14608388D02*
X16313729Y-14570293D01*
X16313729Y-14570293D02*
X16313729Y-14522674D01*
X16313729Y-14522674D02*
X16323253Y-14484579D01*
X16323253Y-14484579D02*
X16332777Y-14465531D01*
X16332777Y-14465531D02*
X16342301Y-14456008D01*
X16342301Y-14456008D02*
X16361348Y-14446484D01*
X16666110Y-14646484D02*
X16666110Y-14446484D01*
X16751825Y-14646484D02*
X16751825Y-14541722D01*
X16751825Y-14541722D02*
X16742301Y-14522674D01*
X16742301Y-14522674D02*
X16723253Y-14513150D01*
X16723253Y-14513150D02*
X16694682Y-14513150D01*
X16694682Y-14513150D02*
X16675634Y-14522674D01*
X16675634Y-14522674D02*
X16666110Y-14532198D01*
X16875634Y-14646484D02*
X16856587Y-14636960D01*
X16856587Y-14636960D02*
X16847063Y-14627436D01*
X16847063Y-14627436D02*
X16837539Y-14608388D01*
X16837539Y-14608388D02*
X16837539Y-14551246D01*
X16837539Y-14551246D02*
X16847063Y-14532198D01*
X16847063Y-14532198D02*
X16856587Y-14522674D01*
X16856587Y-14522674D02*
X16875634Y-14513150D01*
X16875634Y-14513150D02*
X16904206Y-14513150D01*
X16904206Y-14513150D02*
X16923253Y-14522674D01*
X16923253Y-14522674D02*
X16932777Y-14532198D01*
X16932777Y-14532198D02*
X16942301Y-14551246D01*
X16942301Y-14551246D02*
X16942301Y-14608388D01*
X16942301Y-14608388D02*
X16932777Y-14627436D01*
X16932777Y-14627436D02*
X16923253Y-14636960D01*
X16923253Y-14636960D02*
X16904206Y-14646484D01*
X16904206Y-14646484D02*
X16875634Y-14646484D01*
X17056587Y-14646484D02*
X17037539Y-14636960D01*
X17037539Y-14636960D02*
X17028015Y-14617912D01*
X17028015Y-14617912D02*
X17028015Y-14446484D01*
X17208968Y-14636960D02*
X17189920Y-14646484D01*
X17189920Y-14646484D02*
X17151825Y-14646484D01*
X17151825Y-14646484D02*
X17132777Y-14636960D01*
X17132777Y-14636960D02*
X17123253Y-14617912D01*
X17123253Y-14617912D02*
X17123253Y-14541722D01*
X17123253Y-14541722D02*
X17132777Y-14522674D01*
X17132777Y-14522674D02*
X17151825Y-14513150D01*
X17151825Y-14513150D02*
X17189920Y-14513150D01*
X17189920Y-14513150D02*
X17208968Y-14522674D01*
X17208968Y-14522674D02*
X17218492Y-14541722D01*
X17218492Y-14541722D02*
X17218492Y-14560769D01*
X17218492Y-14560769D02*
X17123253Y-14579817D01*
X17294682Y-14636960D02*
X17313730Y-14646484D01*
X17313730Y-14646484D02*
X17351825Y-14646484D01*
X17351825Y-14646484D02*
X17370873Y-14636960D01*
X17370873Y-14636960D02*
X17380396Y-14617912D01*
X17380396Y-14617912D02*
X17380396Y-14608388D01*
X17380396Y-14608388D02*
X17370873Y-14589341D01*
X17370873Y-14589341D02*
X17351825Y-14579817D01*
X17351825Y-14579817D02*
X17323253Y-14579817D01*
X17323253Y-14579817D02*
X17304206Y-14570293D01*
X17304206Y-14570293D02*
X17294682Y-14551246D01*
X17294682Y-14551246D02*
X17294682Y-14541722D01*
X17294682Y-14541722D02*
X17304206Y-14522674D01*
X17304206Y-14522674D02*
X17323253Y-14513150D01*
X17323253Y-14513150D02*
X17351825Y-14513150D01*
X17351825Y-14513150D02*
X17370873Y-14522674D01*
X17618492Y-14570293D02*
X17770873Y-14570293D01*
X17694682Y-14646484D02*
X17694682Y-14494103D01*
X18008968Y-14465531D02*
X18018492Y-14456008D01*
X18018492Y-14456008D02*
X18037539Y-14446484D01*
X18037539Y-14446484D02*
X18085158Y-14446484D01*
X18085158Y-14446484D02*
X18104206Y-14456008D01*
X18104206Y-14456008D02*
X18113730Y-14465531D01*
X18113730Y-14465531D02*
X18123254Y-14484579D01*
X18123254Y-14484579D02*
X18123254Y-14503627D01*
X18123254Y-14503627D02*
X18113730Y-14532198D01*
X18113730Y-14532198D02*
X17999444Y-14646484D01*
X17999444Y-14646484D02*
X18123254Y-14646484D01*
X18351825Y-14636960D02*
X18370873Y-14646484D01*
X18370873Y-14646484D02*
X18408968Y-14646484D01*
X18408968Y-14646484D02*
X18428016Y-14636960D01*
X18428016Y-14636960D02*
X18437539Y-14617912D01*
X18437539Y-14617912D02*
X18437539Y-14608388D01*
X18437539Y-14608388D02*
X18428016Y-14589341D01*
X18428016Y-14589341D02*
X18408968Y-14579817D01*
X18408968Y-14579817D02*
X18380396Y-14579817D01*
X18380396Y-14579817D02*
X18361349Y-14570293D01*
X18361349Y-14570293D02*
X18351825Y-14551246D01*
X18351825Y-14551246D02*
X18351825Y-14541722D01*
X18351825Y-14541722D02*
X18361349Y-14522674D01*
X18361349Y-14522674D02*
X18380396Y-14513150D01*
X18380396Y-14513150D02*
X18408968Y-14513150D01*
X18408968Y-14513150D02*
X18428016Y-14522674D01*
X18551825Y-14646484D02*
X18532777Y-14636960D01*
X18532777Y-14636960D02*
X18523254Y-14617912D01*
X18523254Y-14617912D02*
X18523254Y-14446484D01*
X18656587Y-14646484D02*
X18637539Y-14636960D01*
X18637539Y-14636960D02*
X18628016Y-14627436D01*
X18628016Y-14627436D02*
X18618492Y-14608388D01*
X18618492Y-14608388D02*
X18618492Y-14551246D01*
X18618492Y-14551246D02*
X18628016Y-14532198D01*
X18628016Y-14532198D02*
X18637539Y-14522674D01*
X18637539Y-14522674D02*
X18656587Y-14513150D01*
X18656587Y-14513150D02*
X18685158Y-14513150D01*
X18685158Y-14513150D02*
X18704206Y-14522674D01*
X18704206Y-14522674D02*
X18713730Y-14532198D01*
X18713730Y-14532198D02*
X18723254Y-14551246D01*
X18723254Y-14551246D02*
X18723254Y-14608388D01*
X18723254Y-14608388D02*
X18713730Y-14627436D01*
X18713730Y-14627436D02*
X18704206Y-14636960D01*
X18704206Y-14636960D02*
X18685158Y-14646484D01*
X18685158Y-14646484D02*
X18656587Y-14646484D01*
X18780397Y-14513150D02*
X18856587Y-14513150D01*
X18808968Y-14446484D02*
X18808968Y-14617912D01*
X18808968Y-14617912D02*
X18818492Y-14636960D01*
X18818492Y-14636960D02*
X18837539Y-14646484D01*
X18837539Y-14646484D02*
X18856587Y-14646484D01*
X18913730Y-14636960D02*
X18932777Y-14646484D01*
X18932777Y-14646484D02*
X18970873Y-14646484D01*
X18970873Y-14646484D02*
X18989920Y-14636960D01*
X18989920Y-14636960D02*
X18999444Y-14617912D01*
X18999444Y-14617912D02*
X18999444Y-14608388D01*
X18999444Y-14608388D02*
X18989920Y-14589341D01*
X18989920Y-14589341D02*
X18970873Y-14579817D01*
X18970873Y-14579817D02*
X18942301Y-14579817D01*
X18942301Y-14579817D02*
X18923254Y-14570293D01*
X18923254Y-14570293D02*
X18913730Y-14551246D01*
X18913730Y-14551246D02*
X18913730Y-14541722D01*
X18913730Y-14541722D02*
X18923254Y-14522674D01*
X18923254Y-14522674D02*
X18942301Y-14513150D01*
X18942301Y-14513150D02*
X18970873Y-14513150D01*
X18970873Y-14513150D02*
X18989920Y-14522674D01*
X19066111Y-14722674D02*
X19075635Y-14713150D01*
X19075635Y-14713150D02*
X19094682Y-14684579D01*
X19094682Y-14684579D02*
X19104206Y-14665531D01*
X19104206Y-14665531D02*
X19113730Y-14636960D01*
X19113730Y-14636960D02*
X19123254Y-14589341D01*
X19123254Y-14589341D02*
X19123254Y-14551246D01*
X19123254Y-14551246D02*
X19113730Y-14503627D01*
X19113730Y-14503627D02*
X19104206Y-14475055D01*
X19104206Y-14475055D02*
X19094682Y-14456008D01*
X19094682Y-14456008D02*
X19075635Y-14427436D01*
X19075635Y-14427436D02*
X19066111Y-14417912D01*
X12472000Y-14719000D02*
X12672000Y-14919000D01*
X12672000Y-14719000D02*
X12472000Y-14919000D01*
X12672000Y-14819000D02*
G75*
G02*
X12472000Y-14819000I-100000J0D01*
G01*
X12472000Y-14819000D02*
G75*
G02*
X12672000Y-14819000I100000J0D01*
G01*
X12913729Y-14710484D02*
X13037539Y-14710484D01*
X13037539Y-14710484D02*
X12970872Y-14786674D01*
X12970872Y-14786674D02*
X12999443Y-14786674D01*
X12999443Y-14786674D02*
X13018491Y-14796198D01*
X13018491Y-14796198D02*
X13028015Y-14805722D01*
X13028015Y-14805722D02*
X13037539Y-14824769D01*
X13037539Y-14824769D02*
X13037539Y-14872388D01*
X13037539Y-14872388D02*
X13028015Y-14891436D01*
X13028015Y-14891436D02*
X13018491Y-14900960D01*
X13018491Y-14900960D02*
X12999443Y-14910484D01*
X12999443Y-14910484D02*
X12942301Y-14910484D01*
X12942301Y-14910484D02*
X12923253Y-14900960D01*
X12923253Y-14900960D02*
X12913729Y-14891436D01*
X13123253Y-14891436D02*
X13132777Y-14900960D01*
X13132777Y-14900960D02*
X13123253Y-14910484D01*
X13123253Y-14910484D02*
X13113729Y-14900960D01*
X13113729Y-14900960D02*
X13123253Y-14891436D01*
X13123253Y-14891436D02*
X13123253Y-14910484D01*
X13208967Y-14729531D02*
X13218491Y-14720008D01*
X13218491Y-14720008D02*
X13237539Y-14710484D01*
X13237539Y-14710484D02*
X13285158Y-14710484D01*
X13285158Y-14710484D02*
X13304205Y-14720008D01*
X13304205Y-14720008D02*
X13313729Y-14729531D01*
X13313729Y-14729531D02*
X13323253Y-14748579D01*
X13323253Y-14748579D02*
X13323253Y-14767627D01*
X13323253Y-14767627D02*
X13313729Y-14796198D01*
X13313729Y-14796198D02*
X13199443Y-14910484D01*
X13199443Y-14910484D02*
X13323253Y-14910484D01*
X13447062Y-14710484D02*
X13466110Y-14710484D01*
X13466110Y-14710484D02*
X13485158Y-14720008D01*
X13485158Y-14720008D02*
X13494682Y-14729531D01*
X13494682Y-14729531D02*
X13504205Y-14748579D01*
X13504205Y-14748579D02*
X13513729Y-14786674D01*
X13513729Y-14786674D02*
X13513729Y-14834293D01*
X13513729Y-14834293D02*
X13504205Y-14872388D01*
X13504205Y-14872388D02*
X13494682Y-14891436D01*
X13494682Y-14891436D02*
X13485158Y-14900960D01*
X13485158Y-14900960D02*
X13466110Y-14910484D01*
X13466110Y-14910484D02*
X13447062Y-14910484D01*
X13447062Y-14910484D02*
X13428015Y-14900960D01*
X13428015Y-14900960D02*
X13418491Y-14891436D01*
X13418491Y-14891436D02*
X13408967Y-14872388D01*
X13408967Y-14872388D02*
X13399443Y-14834293D01*
X13399443Y-14834293D02*
X13399443Y-14786674D01*
X13399443Y-14786674D02*
X13408967Y-14748579D01*
X13408967Y-14748579D02*
X13418491Y-14729531D01*
X13418491Y-14729531D02*
X13428015Y-14720008D01*
X13428015Y-14720008D02*
X13447062Y-14710484D01*
X13637539Y-14710484D02*
X13656586Y-14710484D01*
X13656586Y-14710484D02*
X13675634Y-14720008D01*
X13675634Y-14720008D02*
X13685158Y-14729531D01*
X13685158Y-14729531D02*
X13694682Y-14748579D01*
X13694682Y-14748579D02*
X13704205Y-14786674D01*
X13704205Y-14786674D02*
X13704205Y-14834293D01*
X13704205Y-14834293D02*
X13694682Y-14872388D01*
X13694682Y-14872388D02*
X13685158Y-14891436D01*
X13685158Y-14891436D02*
X13675634Y-14900960D01*
X13675634Y-14900960D02*
X13656586Y-14910484D01*
X13656586Y-14910484D02*
X13637539Y-14910484D01*
X13637539Y-14910484D02*
X13618491Y-14900960D01*
X13618491Y-14900960D02*
X13608967Y-14891436D01*
X13608967Y-14891436D02*
X13599443Y-14872388D01*
X13599443Y-14872388D02*
X13589920Y-14834293D01*
X13589920Y-14834293D02*
X13589920Y-14786674D01*
X13589920Y-14786674D02*
X13599443Y-14748579D01*
X13599443Y-14748579D02*
X13608967Y-14729531D01*
X13608967Y-14729531D02*
X13618491Y-14720008D01*
X13618491Y-14720008D02*
X13637539Y-14710484D01*
X13789920Y-14910484D02*
X13789920Y-14777150D01*
X13789920Y-14796198D02*
X13799443Y-14786674D01*
X13799443Y-14786674D02*
X13818491Y-14777150D01*
X13818491Y-14777150D02*
X13847063Y-14777150D01*
X13847063Y-14777150D02*
X13866110Y-14786674D01*
X13866110Y-14786674D02*
X13875634Y-14805722D01*
X13875634Y-14805722D02*
X13875634Y-14910484D01*
X13875634Y-14805722D02*
X13885158Y-14786674D01*
X13885158Y-14786674D02*
X13904205Y-14777150D01*
X13904205Y-14777150D02*
X13932777Y-14777150D01*
X13932777Y-14777150D02*
X13951824Y-14786674D01*
X13951824Y-14786674D02*
X13961348Y-14805722D01*
X13961348Y-14805722D02*
X13961348Y-14910484D01*
X14056586Y-14910484D02*
X14056586Y-14777150D01*
X14056586Y-14796198D02*
X14066110Y-14786674D01*
X14066110Y-14786674D02*
X14085158Y-14777150D01*
X14085158Y-14777150D02*
X14113729Y-14777150D01*
X14113729Y-14777150D02*
X14132777Y-14786674D01*
X14132777Y-14786674D02*
X14142301Y-14805722D01*
X14142301Y-14805722D02*
X14142301Y-14910484D01*
X14142301Y-14805722D02*
X14151824Y-14786674D01*
X14151824Y-14786674D02*
X14170872Y-14777150D01*
X14170872Y-14777150D02*
X14199443Y-14777150D01*
X14199443Y-14777150D02*
X14218491Y-14786674D01*
X14218491Y-14786674D02*
X14228015Y-14805722D01*
X14228015Y-14805722D02*
X14228015Y-14910484D01*
X14618491Y-14700960D02*
X14447063Y-14958103D01*
X14875634Y-14710484D02*
X14894682Y-14710484D01*
X14894682Y-14710484D02*
X14913729Y-14720008D01*
X14913729Y-14720008D02*
X14923253Y-14729531D01*
X14923253Y-14729531D02*
X14932777Y-14748579D01*
X14932777Y-14748579D02*
X14942301Y-14786674D01*
X14942301Y-14786674D02*
X14942301Y-14834293D01*
X14942301Y-14834293D02*
X14932777Y-14872388D01*
X14932777Y-14872388D02*
X14923253Y-14891436D01*
X14923253Y-14891436D02*
X14913729Y-14900960D01*
X14913729Y-14900960D02*
X14894682Y-14910484D01*
X14894682Y-14910484D02*
X14875634Y-14910484D01*
X14875634Y-14910484D02*
X14856586Y-14900960D01*
X14856586Y-14900960D02*
X14847063Y-14891436D01*
X14847063Y-14891436D02*
X14837539Y-14872388D01*
X14837539Y-14872388D02*
X14828015Y-14834293D01*
X14828015Y-14834293D02*
X14828015Y-14786674D01*
X14828015Y-14786674D02*
X14837539Y-14748579D01*
X14837539Y-14748579D02*
X14847063Y-14729531D01*
X14847063Y-14729531D02*
X14856586Y-14720008D01*
X14856586Y-14720008D02*
X14875634Y-14710484D01*
X15028015Y-14891436D02*
X15037539Y-14900960D01*
X15037539Y-14900960D02*
X15028015Y-14910484D01*
X15028015Y-14910484D02*
X15018491Y-14900960D01*
X15018491Y-14900960D02*
X15028015Y-14891436D01*
X15028015Y-14891436D02*
X15028015Y-14910484D01*
X15228015Y-14910484D02*
X15113729Y-14910484D01*
X15170872Y-14910484D02*
X15170872Y-14710484D01*
X15170872Y-14710484D02*
X15151825Y-14739055D01*
X15151825Y-14739055D02*
X15132777Y-14758103D01*
X15132777Y-14758103D02*
X15113729Y-14767627D01*
X15304206Y-14729531D02*
X15313729Y-14720008D01*
X15313729Y-14720008D02*
X15332777Y-14710484D01*
X15332777Y-14710484D02*
X15380396Y-14710484D01*
X15380396Y-14710484D02*
X15399444Y-14720008D01*
X15399444Y-14720008D02*
X15408967Y-14729531D01*
X15408967Y-14729531D02*
X15418491Y-14748579D01*
X15418491Y-14748579D02*
X15418491Y-14767627D01*
X15418491Y-14767627D02*
X15408967Y-14796198D01*
X15408967Y-14796198D02*
X15294682Y-14910484D01*
X15294682Y-14910484D02*
X15418491Y-14910484D01*
X15589920Y-14710484D02*
X15551825Y-14710484D01*
X15551825Y-14710484D02*
X15532777Y-14720008D01*
X15532777Y-14720008D02*
X15523253Y-14729531D01*
X15523253Y-14729531D02*
X15504206Y-14758103D01*
X15504206Y-14758103D02*
X15494682Y-14796198D01*
X15494682Y-14796198D02*
X15494682Y-14872388D01*
X15494682Y-14872388D02*
X15504206Y-14891436D01*
X15504206Y-14891436D02*
X15513729Y-14900960D01*
X15513729Y-14900960D02*
X15532777Y-14910484D01*
X15532777Y-14910484D02*
X15570872Y-14910484D01*
X15570872Y-14910484D02*
X15589920Y-14900960D01*
X15589920Y-14900960D02*
X15599444Y-14891436D01*
X15599444Y-14891436D02*
X15608967Y-14872388D01*
X15608967Y-14872388D02*
X15608967Y-14824769D01*
X15608967Y-14824769D02*
X15599444Y-14805722D01*
X15599444Y-14805722D02*
X15589920Y-14796198D01*
X15589920Y-14796198D02*
X15570872Y-14786674D01*
X15570872Y-14786674D02*
X15532777Y-14786674D01*
X15532777Y-14786674D02*
X15513729Y-14796198D01*
X15513729Y-14796198D02*
X15504206Y-14805722D01*
X15504206Y-14805722D02*
X15494682Y-14824769D01*
X15732777Y-14710484D02*
X15751825Y-14710484D01*
X15751825Y-14710484D02*
X15770872Y-14720008D01*
X15770872Y-14720008D02*
X15780396Y-14729531D01*
X15780396Y-14729531D02*
X15789920Y-14748579D01*
X15789920Y-14748579D02*
X15799444Y-14786674D01*
X15799444Y-14786674D02*
X15799444Y-14834293D01*
X15799444Y-14834293D02*
X15789920Y-14872388D01*
X15789920Y-14872388D02*
X15780396Y-14891436D01*
X15780396Y-14891436D02*
X15770872Y-14900960D01*
X15770872Y-14900960D02*
X15751825Y-14910484D01*
X15751825Y-14910484D02*
X15732777Y-14910484D01*
X15732777Y-14910484D02*
X15713729Y-14900960D01*
X15713729Y-14900960D02*
X15704206Y-14891436D01*
X15704206Y-14891436D02*
X15694682Y-14872388D01*
X15694682Y-14872388D02*
X15685158Y-14834293D01*
X15685158Y-14834293D02*
X15685158Y-14786674D01*
X15685158Y-14786674D02*
X15694682Y-14748579D01*
X15694682Y-14748579D02*
X15704206Y-14729531D01*
X15704206Y-14729531D02*
X15713729Y-14720008D01*
X15713729Y-14720008D02*
X15732777Y-14710484D01*
X15875634Y-14710484D02*
X15875634Y-14748579D01*
X15951825Y-14710484D02*
X15951825Y-14748579D01*
X16247063Y-14986674D02*
X16237539Y-14977150D01*
X16237539Y-14977150D02*
X16218491Y-14948579D01*
X16218491Y-14948579D02*
X16208968Y-14929531D01*
X16208968Y-14929531D02*
X16199444Y-14900960D01*
X16199444Y-14900960D02*
X16189920Y-14853341D01*
X16189920Y-14853341D02*
X16189920Y-14815246D01*
X16189920Y-14815246D02*
X16199444Y-14767627D01*
X16199444Y-14767627D02*
X16208968Y-14739055D01*
X16208968Y-14739055D02*
X16218491Y-14720008D01*
X16218491Y-14720008D02*
X16237539Y-14691436D01*
X16237539Y-14691436D02*
X16247063Y-14681912D01*
X16428015Y-14910484D02*
X16313729Y-14910484D01*
X16370872Y-14910484D02*
X16370872Y-14710484D01*
X16370872Y-14710484D02*
X16351825Y-14739055D01*
X16351825Y-14739055D02*
X16332777Y-14758103D01*
X16332777Y-14758103D02*
X16313729Y-14767627D01*
X16666110Y-14910484D02*
X16666110Y-14710484D01*
X16751825Y-14910484D02*
X16751825Y-14805722D01*
X16751825Y-14805722D02*
X16742301Y-14786674D01*
X16742301Y-14786674D02*
X16723253Y-14777150D01*
X16723253Y-14777150D02*
X16694682Y-14777150D01*
X16694682Y-14777150D02*
X16675634Y-14786674D01*
X16675634Y-14786674D02*
X16666110Y-14796198D01*
X16875634Y-14910484D02*
X16856587Y-14900960D01*
X16856587Y-14900960D02*
X16847063Y-14891436D01*
X16847063Y-14891436D02*
X16837539Y-14872388D01*
X16837539Y-14872388D02*
X16837539Y-14815246D01*
X16837539Y-14815246D02*
X16847063Y-14796198D01*
X16847063Y-14796198D02*
X16856587Y-14786674D01*
X16856587Y-14786674D02*
X16875634Y-14777150D01*
X16875634Y-14777150D02*
X16904206Y-14777150D01*
X16904206Y-14777150D02*
X16923253Y-14786674D01*
X16923253Y-14786674D02*
X16932777Y-14796198D01*
X16932777Y-14796198D02*
X16942301Y-14815246D01*
X16942301Y-14815246D02*
X16942301Y-14872388D01*
X16942301Y-14872388D02*
X16932777Y-14891436D01*
X16932777Y-14891436D02*
X16923253Y-14900960D01*
X16923253Y-14900960D02*
X16904206Y-14910484D01*
X16904206Y-14910484D02*
X16875634Y-14910484D01*
X17056587Y-14910484D02*
X17037539Y-14900960D01*
X17037539Y-14900960D02*
X17028015Y-14881912D01*
X17028015Y-14881912D02*
X17028015Y-14710484D01*
X17208968Y-14900960D02*
X17189920Y-14910484D01*
X17189920Y-14910484D02*
X17151825Y-14910484D01*
X17151825Y-14910484D02*
X17132777Y-14900960D01*
X17132777Y-14900960D02*
X17123253Y-14881912D01*
X17123253Y-14881912D02*
X17123253Y-14805722D01*
X17123253Y-14805722D02*
X17132777Y-14786674D01*
X17132777Y-14786674D02*
X17151825Y-14777150D01*
X17151825Y-14777150D02*
X17189920Y-14777150D01*
X17189920Y-14777150D02*
X17208968Y-14786674D01*
X17208968Y-14786674D02*
X17218492Y-14805722D01*
X17218492Y-14805722D02*
X17218492Y-14824769D01*
X17218492Y-14824769D02*
X17123253Y-14843817D01*
X17285158Y-14986674D02*
X17294682Y-14977150D01*
X17294682Y-14977150D02*
X17313730Y-14948579D01*
X17313730Y-14948579D02*
X17323253Y-14929531D01*
X17323253Y-14929531D02*
X17332777Y-14900960D01*
X17332777Y-14900960D02*
X17342301Y-14853341D01*
X17342301Y-14853341D02*
X17342301Y-14815246D01*
X17342301Y-14815246D02*
X17332777Y-14767627D01*
X17332777Y-14767627D02*
X17323253Y-14739055D01*
X17323253Y-14739055D02*
X17313730Y-14720008D01*
X17313730Y-14720008D02*
X17294682Y-14691436D01*
X17294682Y-14691436D02*
X17285158Y-14681912D01*
M02*
