%TF.GenerationSoftware,KiCad,Pcbnew,9.0.7*%
%TF.CreationDate,2026-01-28T06:25:16-03:00*%
%TF.ProjectId,jammerBT_v4,6a616d6d-6572-4425-945f-76342e6b6963,rev?*%
%TF.SameCoordinates,Original*%
%TF.FileFunction,Copper,L1,Top*%
%TF.FilePolarity,Positive*%
%FSLAX46Y46*%
G04 Gerber Fmt 4.6, Leading zero omitted, Abs format (unit mm)*
G04 Created by KiCad (PCBNEW 9.0.7) date 2026-01-28 06:25:16*
%MOMM*%
%LPD*%
G01*
G04 APERTURE LIST*
G04 Aperture macros list*
%AMRoundRect*
0 Rectangle with rounded corners*
0 $1 Rounding radius*
0 $2 $3 $4 $5 $6 $7 $8 $9 X,Y pos of 4 corners*
0 Add a 4 corners polygon primitive as box body*
4,1,4,$2,$3,$4,$5,$6,$7,$8,$9,$2,$3,0*
0 Add four circle primitives for the rounded corners*
1,1,$1+$1,$2,$3*
1,1,$1+$1,$4,$5*
1,1,$1+$1,$6,$7*
1,1,$1+$1,$8,$9*
0 Add four rect primitives between the rounded corners*
20,1,$1+$1,$2,$3,$4,$5,0*
20,1,$1+$1,$4,$5,$6,$7,0*
20,1,$1+$1,$6,$7,$8,$9,0*
20,1,$1+$1,$8,$9,$2,$3,0*%
G04 Aperture macros list end*
%TA.AperFunction,ComponentPad*%
%ADD10C,5.600000*%
%TD*%
%TA.AperFunction,SMDPad,CuDef*%
%ADD11RoundRect,0.250000X-0.625000X0.400000X-0.625000X-0.400000X0.625000X-0.400000X0.625000X0.400000X0*%
%TD*%
%TA.AperFunction,SMDPad,CuDef*%
%ADD12R,0.900000X1.500000*%
%TD*%
%TA.AperFunction,SMDPad,CuDef*%
%ADD13R,1.500000X0.900000*%
%TD*%
%TA.AperFunction,SMDPad,CuDef*%
%ADD14R,0.900000X0.900000*%
%TD*%
%TA.AperFunction,HeatsinkPad*%
%ADD15C,0.600000*%
%TD*%
%TA.AperFunction,HeatsinkPad*%
%ADD16R,3.800000X3.800000*%
%TD*%
%TA.AperFunction,SMDPad,CuDef*%
%ADD17RoundRect,0.250000X-1.050000X-0.550000X1.050000X-0.550000X1.050000X0.550000X-1.050000X0.550000X0*%
%TD*%
%TA.AperFunction,SMDPad,CuDef*%
%ADD18RoundRect,0.250000X-1.150000X-0.250000X1.150000X-0.250000X1.150000X0.250000X-1.150000X0.250000X0*%
%TD*%
%TA.AperFunction,SMDPad,CuDef*%
%ADD19RoundRect,0.250000X0.412500X0.650000X-0.412500X0.650000X-0.412500X-0.650000X0.412500X-0.650000X0*%
%TD*%
%TA.AperFunction,SMDPad,CuDef*%
%ADD20RoundRect,0.250000X0.385000X1.350000X-0.385000X1.350000X-0.385000X-1.350000X0.385000X-1.350000X0*%
%TD*%
%TA.AperFunction,SMDPad,CuDef*%
%ADD21RoundRect,0.250000X0.425000X1.600000X-0.425000X1.600000X-0.425000X-1.600000X0.425000X-1.600000X0*%
%TD*%
%TA.AperFunction,SMDPad,CuDef*%
%ADD22RoundRect,0.250000X0.400000X0.625000X-0.400000X0.625000X-0.400000X-0.625000X0.400000X-0.625000X0*%
%TD*%
%TA.AperFunction,SMDPad,CuDef*%
%ADD23RoundRect,0.250001X0.624999X-0.462499X0.624999X0.462499X-0.624999X0.462499X-0.624999X-0.462499X0*%
%TD*%
%TA.AperFunction,SMDPad,CuDef*%
%ADD24RoundRect,0.150000X0.587500X0.150000X-0.587500X0.150000X-0.587500X-0.150000X0.587500X-0.150000X0*%
%TD*%
%TA.AperFunction,SMDPad,CuDef*%
%ADD25R,0.800000X2.000000*%
%TD*%
%TA.AperFunction,SMDPad,CuDef*%
%ADD26R,3.000000X2.000000*%
%TD*%
%TA.AperFunction,SMDPad,CuDef*%
%ADD27RoundRect,0.250000X0.625000X-0.400000X0.625000X0.400000X-0.625000X0.400000X-0.625000X-0.400000X0*%
%TD*%
%TA.AperFunction,SMDPad,CuDef*%
%ADD28R,0.600000X1.240000*%
%TD*%
%TA.AperFunction,SMDPad,CuDef*%
%ADD29R,0.300000X1.240000*%
%TD*%
%TA.AperFunction,HeatsinkPad*%
%ADD30O,1.000000X2.100000*%
%TD*%
%TA.AperFunction,HeatsinkPad*%
%ADD31O,1.000000X1.800000*%
%TD*%
%TA.AperFunction,SMDPad,CuDef*%
%ADD32R,1.500000X1.000000*%
%TD*%
%TA.AperFunction,SMDPad,CuDef*%
%ADD33RoundRect,0.250000X-0.412500X-0.650000X0.412500X-0.650000X0.412500X0.650000X-0.412500X0.650000X0*%
%TD*%
%TA.AperFunction,SMDPad,CuDef*%
%ADD34RoundRect,0.250000X-0.275000X-0.250000X0.275000X-0.250000X0.275000X0.250000X-0.275000X0.250000X0*%
%TD*%
%TA.AperFunction,SMDPad,CuDef*%
%ADD35RoundRect,0.250000X-0.850000X-0.275000X0.850000X-0.275000X0.850000X0.275000X-0.850000X0.275000X0*%
%TD*%
%TA.AperFunction,SMDPad,CuDef*%
%ADD36RoundRect,0.250000X0.650000X-0.412500X0.650000X0.412500X-0.650000X0.412500X-0.650000X-0.412500X0*%
%TD*%
%TA.AperFunction,ComponentPad*%
%ADD37RoundRect,0.650000X0.850000X-0.650000X0.850000X0.650000X-0.850000X0.650000X-0.850000X-0.650000X0*%
%TD*%
%TA.AperFunction,SMDPad,CuDef*%
%ADD38RoundRect,0.062500X0.062500X-0.337500X0.062500X0.337500X-0.062500X0.337500X-0.062500X-0.337500X0*%
%TD*%
%TA.AperFunction,SMDPad,CuDef*%
%ADD39RoundRect,0.062500X0.337500X-0.062500X0.337500X0.062500X-0.337500X0.062500X-0.337500X-0.062500X0*%
%TD*%
%TA.AperFunction,HeatsinkPad*%
%ADD40C,0.500000*%
%TD*%
%TA.AperFunction,HeatsinkPad*%
%ADD41R,3.350000X3.350000*%
%TD*%
%TA.AperFunction,ViaPad*%
%ADD42C,0.800000*%
%TD*%
%TA.AperFunction,ViaPad*%
%ADD43C,0.600000*%
%TD*%
%TA.AperFunction,Conductor*%
%ADD44C,0.200000*%
%TD*%
%TA.AperFunction,Conductor*%
%ADD45C,0.500000*%
%TD*%
G04 APERTURE END LIST*
D10*
%TO.P,H1,1*%
%TO.N,N/C*%
X208080000Y-90020000D03*
%TD*%
D11*
%TO.P,R10,1*%
%TO.N,CC2*%
X141145000Y-121970000D03*
%TO.P,R10,2*%
%TO.N,GND*%
X141145000Y-125070000D03*
%TD*%
D12*
%TO.P,U4,1,GND*%
%TO.N,GND*%
X170780000Y-87260000D03*
%TO.P,U4,2,VDD*%
%TO.N,+3.3V*%
X169510000Y-87260000D03*
%TO.P,U4,3,EN*%
%TO.N,RESET*%
X168240000Y-87260000D03*
%TO.P,U4,4,SENSOR_VP*%
%TO.N,unconnected-(U4-SENSOR_VP-Pad4)*%
X166970000Y-87260000D03*
%TO.P,U4,5,SENSOR_VN*%
%TO.N,unconnected-(U4-SENSOR_VN-Pad5)*%
X165700000Y-87260000D03*
%TO.P,U4,6,IO34*%
%TO.N,MODO*%
X164430000Y-87260000D03*
%TO.P,U4,7,IO35*%
%TO.N,unconnected-(U4-IO35-Pad7)*%
X163160000Y-87260000D03*
%TO.P,U4,8,IO32*%
%TO.N,unconnected-(U4-IO32-Pad8)*%
X161890000Y-87260000D03*
%TO.P,U4,9,IO33*%
%TO.N,unconnected-(U4-IO33-Pad9)*%
X160620000Y-87260000D03*
%TO.P,U4,10,IO25*%
%TO.N,unconnected-(U4-IO25-Pad10)*%
X159350000Y-87260000D03*
%TO.P,U4,11,IO26*%
%TO.N,unconnected-(U4-IO26-Pad11)*%
X158080000Y-87260000D03*
%TO.P,U4,12,IO27*%
%TO.N,unconnected-(U4-IO27-Pad12)*%
X156810000Y-87260000D03*
%TO.P,U4,13,IO14*%
%TO.N,SCK 1*%
X155540000Y-87260000D03*
%TO.P,U4,14,IO12*%
%TO.N,MISO 1*%
X154270000Y-87260000D03*
D13*
%TO.P,U4,15,GND*%
%TO.N,GND*%
X153175000Y-90295000D03*
%TO.P,U4,16,IO13*%
%TO.N,MOSI 1*%
X153175000Y-91565000D03*
%TO.P,U4,17,SHD/SD2*%
%TO.N,unconnected-(U4-SHD{slash}SD2-Pad17)*%
X153175000Y-92835000D03*
%TO.P,U4,18,SWP/SD3*%
%TO.N,unconnected-(U4-SWP{slash}SD3-Pad18)*%
X153175000Y-94105000D03*
%TO.P,U4,19,SCS/CMD*%
%TO.N,unconnected-(U4-SCS{slash}CMD-Pad19)*%
X153175000Y-95375000D03*
%TO.P,U4,20,SCK/CLK*%
%TO.N,unconnected-(U4-SCK{slash}CLK-Pad20)*%
X153175000Y-96645000D03*
%TO.P,U4,21,SDO/SD0*%
%TO.N,unconnected-(U4-SDO{slash}SD0-Pad21)*%
X153175000Y-97915000D03*
%TO.P,U4,22,SDI/SD1*%
%TO.N,unconnected-(U4-SDI{slash}SD1-Pad22)*%
X153175000Y-99185000D03*
%TO.P,U4,23,IO15*%
%TO.N,CE 2*%
X153175000Y-100455000D03*
%TO.P,U4,24,IO2*%
%TO.N,B_LED*%
X153175000Y-101725000D03*
D12*
%TO.P,U4,25,IO0*%
%TO.N,GPIO0*%
X154270000Y-104760000D03*
%TO.P,U4,26,IO4*%
%TO.N,G_LED*%
X155540000Y-104760000D03*
%TO.P,U4,27,IO16*%
%TO.N,R_LED*%
X156810000Y-104760000D03*
%TO.P,U4,28,IO17*%
%TO.N,unconnected-(U4-IO17-Pad28)*%
X158080000Y-104760000D03*
%TO.P,U4,29,IO5*%
%TO.N,CSN 2*%
X159350000Y-104760000D03*
%TO.P,U4,30,IO18*%
%TO.N,SCK 2*%
X160620000Y-104760000D03*
%TO.P,U4,31,IO19*%
%TO.N,MISO 2*%
X161890000Y-104760000D03*
%TO.P,U4,32,NC*%
%TO.N,unconnected-(U4-NC-Pad32)*%
X163160000Y-104760000D03*
%TO.P,U4,33,IO21*%
%TO.N,CSN 1*%
X164430000Y-104760000D03*
%TO.P,U4,34,RXD0/IO3*%
%TO.N,RX_0*%
X165700000Y-104760000D03*
%TO.P,U4,35,TXD0/IO1*%
%TO.N,TX_0*%
X166970000Y-104760000D03*
%TO.P,U4,36,IO22*%
%TO.N,CE 1*%
X168240000Y-104760000D03*
%TO.P,U4,37,IO23*%
%TO.N,MOSI 2*%
X169510000Y-104760000D03*
%TO.P,U4,38,GND*%
%TO.N,GND*%
X170780000Y-104760000D03*
D14*
%TO.P,U4,39,GND*%
X164615000Y-93110000D03*
D15*
X163915000Y-93110000D03*
D14*
X163215000Y-93110000D03*
D15*
X162515000Y-93110000D03*
D14*
X161815000Y-93110000D03*
D15*
X164615000Y-93810000D03*
X163215000Y-93810000D03*
X161815000Y-93810000D03*
D14*
X164615000Y-94510000D03*
D15*
X163915000Y-94510000D03*
D14*
X163215000Y-94510000D03*
D16*
X163215000Y-94510000D03*
D15*
X162515000Y-94510000D03*
D14*
X161815000Y-94510000D03*
D15*
X164615000Y-95210000D03*
X163215000Y-95210000D03*
X161815000Y-95210000D03*
D14*
X164615000Y-95910000D03*
D15*
X163915000Y-95910000D03*
D14*
X163215000Y-95910000D03*
D15*
X162515000Y-95910000D03*
D14*
X161815000Y-95910000D03*
%TD*%
D17*
%TO.P,C9,1*%
%TO.N,+5V*%
X166125000Y-111670000D03*
%TO.P,C9,2*%
%TO.N,GND*%
X169725000Y-111670000D03*
%TD*%
D18*
%TO.P,SW2,1,1*%
%TO.N,MODO*%
X184925000Y-110070000D03*
X190725000Y-110070000D03*
%TO.P,SW2,2,2*%
%TO.N,GND*%
X184925000Y-114070000D03*
X190725000Y-114070000D03*
%TD*%
D19*
%TO.P,C6,1*%
%TO.N,+3.3V*%
X166522500Y-83820000D03*
%TO.P,C6,2*%
%TO.N,GND*%
X163397500Y-83820000D03*
%TD*%
D20*
%TO.P,J4,1,In*%
%TO.N,Net-(J2-In)*%
X140675000Y-53932500D03*
D21*
%TO.P,J4,2,Ext*%
%TO.N,GND*%
X137850000Y-54182500D03*
X143500000Y-54182500D03*
%TD*%
D22*
%TO.P,R12,1*%
%TO.N,Net-(Q2-B)*%
X138833750Y-114750000D03*
%TO.P,R12,2*%
%TO.N,RTS*%
X135733750Y-114750000D03*
%TD*%
D20*
%TO.P,J5,1,In*%
%TO.N,Net-(J3-In)*%
X186195000Y-53932500D03*
D21*
%TO.P,J5,2,Ext*%
%TO.N,GND*%
X183370000Y-54182500D03*
X189020000Y-54182500D03*
%TD*%
D18*
%TO.P,SW4,1,1*%
%TO.N,GPIO0*%
X184985000Y-90790000D03*
X190785000Y-90790000D03*
%TO.P,SW4,2,2*%
%TO.N,GND*%
X184985000Y-94790000D03*
X190785000Y-94790000D03*
%TD*%
D23*
%TO.P,D5,1,K*%
%TO.N,TX_0*%
X138735000Y-111447500D03*
%TO.P,D5,2,A*%
%TO.N,+5V*%
X138735000Y-108472500D03*
%TD*%
D24*
%TO.P,Q2,1,E*%
%TO.N,DTR*%
X132276250Y-121190000D03*
%TO.P,Q2,2,B*%
%TO.N,Net-(Q2-B)*%
X132276250Y-119290000D03*
%TO.P,Q2,3,C*%
%TO.N,GPIO0*%
X130401250Y-120240000D03*
%TD*%
D17*
%TO.P,C7,1*%
%TO.N,+3.3V*%
X166185000Y-117210000D03*
%TO.P,C7,2*%
%TO.N,GND*%
X169785000Y-117210000D03*
%TD*%
D25*
%TO.P,U5,1,3V3*%
%TO.N,+3.3V*%
X145422400Y-80380000D03*
%TO.P,U5,2,GND*%
%TO.N,GND*%
X154312400Y-80380000D03*
D26*
X157335000Y-69879900D03*
X142450600Y-67857800D03*
D25*
%TO.P,U5,3,CE*%
%TO.N,CE 1*%
X146692400Y-80380000D03*
%TO.P,U5,4,CSN*%
%TO.N,CSN 1*%
X147962400Y-80380000D03*
%TO.P,U5,5,SCK*%
%TO.N,SCK 1*%
X149232400Y-80380000D03*
%TO.P,U5,6,MOSI*%
%TO.N,MOSI 1*%
X150502400Y-80380000D03*
%TO.P,U5,7,MISO*%
%TO.N,MISO 1*%
X151772400Y-80380000D03*
%TO.P,U5,8,IRQ*%
%TO.N,unconnected-(U5-IRQ-Pad8)*%
X153042400Y-80380000D03*
%TD*%
D27*
%TO.P,R13,1*%
%TO.N,+3.3V*%
X195255000Y-100640000D03*
%TO.P,R13,2*%
%TO.N,RESET*%
X195255000Y-97540000D03*
%TD*%
D28*
%TO.P,J7,A1,GND*%
%TO.N,GND*%
X148915000Y-120585000D03*
%TO.P,J7,A4,VBUS*%
%TO.N,+5V*%
X149715000Y-120585000D03*
D29*
%TO.P,J7,A5,CC1*%
%TO.N,CC1*%
X150865000Y-120585000D03*
%TO.P,J7,A6,D+*%
%TO.N,D+*%
X151865000Y-120585000D03*
%TO.P,J7,A7,D-*%
%TO.N,D-*%
X152365000Y-120585000D03*
%TO.P,J7,A8,SBU1*%
%TO.N,unconnected-(J7-SBU1-PadA8)*%
X153365000Y-120585000D03*
D28*
%TO.P,J7,A9,VBUS*%
%TO.N,+5V*%
X154515000Y-120585000D03*
%TO.P,J7,A12,GND*%
%TO.N,GND*%
X155315000Y-120585000D03*
%TO.P,J7,B1,GND*%
X155315000Y-120585000D03*
%TO.P,J7,B4,VBUS*%
%TO.N,+5V*%
X154515000Y-120585000D03*
D29*
%TO.P,J7,B5,CC2*%
%TO.N,CC2*%
X153865000Y-120585000D03*
%TO.P,J7,B6,D+*%
%TO.N,D+*%
X152865000Y-120585000D03*
%TO.P,J7,B7,D-*%
%TO.N,D-*%
X151365000Y-120585000D03*
%TO.P,J7,B8,SBU2*%
%TO.N,unconnected-(J7-SBU2-PadB8)*%
X150365000Y-120585000D03*
D28*
%TO.P,J7,B9,VBUS*%
%TO.N,+5V*%
X149715000Y-120585000D03*
%TO.P,J7,B12,GND*%
%TO.N,GND*%
X148915000Y-120585000D03*
D30*
%TO.P,J7,S1,SHIELD*%
X147795000Y-121185000D03*
D31*
X147795000Y-125385000D03*
D30*
X156435000Y-121185000D03*
D31*
X156435000Y-125385000D03*
%TD*%
D25*
%TO.P,U2,1,3V3*%
%TO.N,+3.3V*%
X167334600Y-80406000D03*
%TO.P,U2,2,GND*%
%TO.N,GND*%
X176224600Y-80406000D03*
D26*
X179247200Y-69905900D03*
X164362800Y-67883800D03*
D25*
%TO.P,U2,3,CE*%
%TO.N,CE 2*%
X168604600Y-80406000D03*
%TO.P,U2,4,CSN*%
%TO.N,CSN 2*%
X169874600Y-80406000D03*
%TO.P,U2,5,SCK*%
%TO.N,SCK 2*%
X171144600Y-80406000D03*
%TO.P,U2,6,MOSI*%
%TO.N,MOSI 2*%
X172414600Y-80406000D03*
%TO.P,U2,7,MISO*%
%TO.N,MISO 2*%
X173684600Y-80406000D03*
%TO.P,U2,8,IRQ*%
%TO.N,unconnected-(U2-IRQ-Pad8)*%
X174954600Y-80406000D03*
%TD*%
D32*
%TO.P,D1,1,BA*%
%TO.N,Net-(D1-BA)*%
X139725000Y-93710000D03*
%TO.P,D1,2,GA*%
%TO.N,Net-(D1-GA)*%
X139725000Y-95110000D03*
%TO.P,D1,3,K*%
%TO.N,GND*%
X143225000Y-95110000D03*
%TO.P,D1,4,RA*%
%TO.N,Net-(D1-RA)*%
X143225000Y-93710000D03*
%TD*%
D24*
%TO.P,Q1,1,E*%
%TO.N,RTS*%
X132276250Y-116230000D03*
%TO.P,Q1,2,B*%
%TO.N,Net-(Q1-B)*%
X132276250Y-114330000D03*
%TO.P,Q1,3,C*%
%TO.N,RESET*%
X130401250Y-115280000D03*
%TD*%
D33*
%TO.P,C8,1*%
%TO.N,+3.3V*%
X158822500Y-115410000D03*
%TO.P,C8,2*%
%TO.N,GND*%
X161947500Y-115410000D03*
%TD*%
D22*
%TO.P,R11,1*%
%TO.N,Net-(Q1-B)*%
X138833750Y-120480000D03*
%TO.P,R11,2*%
%TO.N,DTR*%
X135733750Y-120480000D03*
%TD*%
D34*
%TO.P,J2,1,In*%
%TO.N,Net-(J2-In)*%
X154050000Y-56485000D03*
D35*
%TO.P,J2,2,Ext*%
%TO.N,GND*%
X155575000Y-55010000D03*
X155575000Y-57960000D03*
%TD*%
D27*
%TO.P,R14,1*%
%TO.N,+3.3V*%
X195255000Y-93020000D03*
%TO.P,R14,2*%
%TO.N,GPIO0*%
X195255000Y-89920000D03*
%TD*%
D18*
%TO.P,SW3,1,1*%
%TO.N,RESET*%
X184905000Y-100650000D03*
X190705000Y-100650000D03*
%TO.P,SW3,2,2*%
%TO.N,GND*%
X184905000Y-104650000D03*
X190705000Y-104650000D03*
%TD*%
D22*
%TO.P,R8,1*%
%TO.N,Net-(U3-TXD)*%
X145345000Y-113920000D03*
%TO.P,R8,2*%
%TO.N,RX_0*%
X142245000Y-113920000D03*
%TD*%
D36*
%TO.P,C1,1*%
%TO.N,RESET*%
X195275000Y-106402500D03*
%TO.P,C1,2*%
%TO.N,GND*%
X195275000Y-103277500D03*
%TD*%
D37*
%TO.P,SW1,1*%
%TO.N,+BATT*%
X194585000Y-84265000D03*
%TO.P,SW1,2*%
%TO.N,Net-(U6-BAT)*%
X194585000Y-79565000D03*
%TD*%
D34*
%TO.P,J3,1,In*%
%TO.N,Net-(J3-In)*%
X168915000Y-56630000D03*
D35*
%TO.P,J3,2,Ext*%
%TO.N,GND*%
X170440000Y-55155000D03*
X170440000Y-58105000D03*
%TD*%
D11*
%TO.P,R9,1*%
%TO.N,CC1*%
X144590000Y-121960000D03*
%TO.P,R9,2*%
%TO.N,GND*%
X144590000Y-125060000D03*
%TD*%
D38*
%TO.P,U3,1,~{DCD}*%
%TO.N,unconnected-(U3-~{DCD}-Pad1)*%
X151700000Y-115190000D03*
%TO.P,U3,2,~{RI}/CLK*%
%TO.N,unconnected-(U3-~{RI}{slash}CLK-Pad2)*%
X152200000Y-115190000D03*
%TO.P,U3,3,GND*%
%TO.N,GND*%
X152700000Y-115190000D03*
%TO.P,U3,4,D+*%
%TO.N,D+*%
X153200000Y-115190000D03*
%TO.P,U3,5,D-*%
%TO.N,D-*%
X153700000Y-115190000D03*
%TO.P,U3,6,VDD*%
%TO.N,+3.3V*%
X154200000Y-115190000D03*
%TO.P,U3,7,VREGIN*%
X154700000Y-115190000D03*
D39*
%TO.P,U3,8,VBUS*%
%TO.N,+5V*%
X155650000Y-114240000D03*
%TO.P,U3,9,~{RST}*%
%TO.N,unconnected-(U3-~{RST}-Pad9)*%
X155650000Y-113740000D03*
%TO.P,U3,10,NC*%
%TO.N,unconnected-(U3-NC-Pad10)*%
X155650000Y-113240000D03*
%TO.P,U3,11,~{SUSPEND}*%
%TO.N,unconnected-(U3-~{SUSPEND}-Pad11)*%
X155650000Y-112740000D03*
%TO.P,U3,12,SUSPEND*%
%TO.N,unconnected-(U3-SUSPEND-Pad12)*%
X155650000Y-112240000D03*
%TO.P,U3,13,CHREN*%
%TO.N,unconnected-(U3-CHREN-Pad13)*%
X155650000Y-111740000D03*
%TO.P,U3,14,CHR1*%
%TO.N,unconnected-(U3-CHR1-Pad14)*%
X155650000Y-111240000D03*
D38*
%TO.P,U3,15,CHR0*%
%TO.N,unconnected-(U3-CHR0-Pad15)*%
X154700000Y-110290000D03*
%TO.P,U3,16,~{WAKEUP}/GPIO.3*%
%TO.N,unconnected-(U3-~{WAKEUP}{slash}GPIO.3-Pad16)*%
X154200000Y-110290000D03*
%TO.P,U3,17,RS485/GPIO.2*%
%TO.N,unconnected-(U3-RS485{slash}GPIO.2-Pad17)*%
X153700000Y-110290000D03*
%TO.P,U3,18,~{RXT}/GPIO.1*%
%TO.N,unconnected-(U3-~{RXT}{slash}GPIO.1-Pad18)*%
X153200000Y-110290000D03*
%TO.P,U3,19,~{TXT}/GPIO.0*%
%TO.N,unconnected-(U3-~{TXT}{slash}GPIO.0-Pad19)*%
X152700000Y-110290000D03*
%TO.P,U3,20,GPIO.6*%
%TO.N,unconnected-(U3-GPIO.6-Pad20)*%
X152200000Y-110290000D03*
%TO.P,U3,21,GPIO.5*%
%TO.N,unconnected-(U3-GPIO.5-Pad21)*%
X151700000Y-110290000D03*
D39*
%TO.P,U3,22,GPIO.4*%
%TO.N,unconnected-(U3-GPIO.4-Pad22)*%
X150750000Y-111240000D03*
%TO.P,U3,23,~{CTS}*%
%TO.N,unconnected-(U3-~{CTS}-Pad23)*%
X150750000Y-111740000D03*
%TO.P,U3,24,~{RTS}*%
%TO.N,RTS*%
X150750000Y-112240000D03*
%TO.P,U3,25,RXD*%
%TO.N,TX_0*%
X150750000Y-112740000D03*
%TO.P,U3,26,TXD*%
%TO.N,Net-(U3-TXD)*%
X150750000Y-113240000D03*
%TO.P,U3,27,~{DSR}*%
%TO.N,unconnected-(U3-~{DSR}-Pad27)*%
X150750000Y-113740000D03*
%TO.P,U3,28,~{DTR}*%
%TO.N,DTR*%
X150750000Y-114240000D03*
D40*
%TO.P,U3,29,GND*%
%TO.N,GND*%
X152200000Y-113740000D03*
X153200000Y-113740000D03*
X154200000Y-113740000D03*
X152200000Y-112740000D03*
X153200000Y-112740000D03*
D41*
X153200000Y-112740000D03*
D40*
X154200000Y-112740000D03*
X152200000Y-111740000D03*
X153200000Y-111740000D03*
X154200000Y-111740000D03*
%TD*%
D23*
%TO.P,D4,1,K*%
%TO.N,RX_0*%
X142430000Y-111447500D03*
%TO.P,D4,2,A*%
%TO.N,+5V*%
X142430000Y-108472500D03*
%TD*%
D33*
%TO.P,C10,1*%
%TO.N,+5V*%
X158822500Y-111610000D03*
%TO.P,C10,2*%
%TO.N,GND*%
X161947500Y-111610000D03*
%TD*%
D42*
%TO.N,+5V*%
X155810000Y-118990000D03*
X166125000Y-111610000D03*
X149830000Y-119080000D03*
%TO.N,GND*%
X176224600Y-80406000D03*
X154312400Y-80380000D03*
X188390000Y-122010000D03*
X161947500Y-111610000D03*
X163397500Y-83820000D03*
%TO.N,+3.3V*%
X169510000Y-87260000D03*
X178285000Y-114525000D03*
X181810000Y-82570000D03*
%TO.N,Net-(D1-GA)*%
X144831800Y-89417200D03*
%TO.N,Net-(D1-BA)*%
X136931800Y-89417200D03*
%TO.N,Net-(D1-RA)*%
X140785000Y-89417200D03*
%TO.N,R_LED*%
X156810000Y-104760000D03*
%TO.N,G_LED*%
X155540000Y-104760000D03*
%TO.N,B_LED*%
X153175000Y-101725000D03*
%TO.N,MODO*%
X164430000Y-87260000D03*
X175060000Y-114650000D03*
%TO.N,MISO 2*%
X170765000Y-102450000D03*
X161890000Y-104760000D03*
%TO.N,RESET*%
X179990000Y-93240000D03*
X129830000Y-116430000D03*
X168240000Y-87260000D03*
%TO.N,RX_0*%
X142275000Y-111447500D03*
X165700000Y-104760000D03*
%TO.N,TX_0*%
X166970000Y-104760000D03*
X138735000Y-111447500D03*
D43*
%TO.N,D+*%
X152550000Y-117830000D03*
X154890000Y-117730000D03*
D42*
%TO.N,GPIO0*%
X129990000Y-119120000D03*
X154270000Y-104760000D03*
X174020000Y-101700000D03*
%TD*%
D44*
%TO.N,Net-(Q1-B)*%
X128810000Y-122910000D02*
X128810000Y-114600000D01*
X129170000Y-123270000D02*
X128810000Y-122910000D01*
X138200000Y-123270000D02*
X129170000Y-123270000D01*
X129080000Y-114330000D02*
X132276250Y-114330000D01*
X138833750Y-122636250D02*
X138200000Y-123270000D01*
X128810000Y-114600000D02*
X129080000Y-114330000D01*
X138833750Y-120480000D02*
X138833750Y-122636250D01*
D45*
%TO.N,+5V*%
X165465000Y-113440000D02*
X159565000Y-113440000D01*
X138735000Y-108472500D02*
X142430000Y-108472500D01*
X155088000Y-118990000D02*
X154515000Y-119563000D01*
X166125000Y-109870000D02*
X164745000Y-108490000D01*
X158822500Y-112697500D02*
X158822500Y-111610000D01*
D44*
X157725000Y-111610000D02*
X158822500Y-111610000D01*
D45*
X155810000Y-118990000D02*
X155088000Y-118990000D01*
D44*
X156545000Y-114240000D02*
X155650000Y-114240000D01*
D45*
X164745000Y-108490000D02*
X142645000Y-108490000D01*
X166125000Y-111670000D02*
X166125000Y-112780000D01*
X149715000Y-119195000D02*
X149715000Y-120585000D01*
X159565000Y-113440000D02*
X158822500Y-112697500D01*
X166125000Y-112780000D02*
X165465000Y-113440000D01*
D44*
X157002500Y-113782500D02*
X157002500Y-112332500D01*
D45*
X154515000Y-119563000D02*
X154515000Y-120585000D01*
X149830000Y-119080000D02*
X149715000Y-119195000D01*
D44*
X157002500Y-112332500D02*
X157725000Y-111610000D01*
X157002500Y-113782500D02*
X156545000Y-114240000D01*
D45*
X166125000Y-111610000D02*
X166125000Y-109870000D01*
%TO.N,+3.3V*%
X178285000Y-116705000D02*
X175800000Y-119190000D01*
X196470000Y-93020000D02*
X195255000Y-93020000D01*
D44*
X156500000Y-115410000D02*
X158822500Y-115410000D01*
X155570000Y-116060000D02*
X155030000Y-116060000D01*
D45*
X145422400Y-77297600D02*
X145422400Y-80380000D01*
X181810000Y-85060000D02*
X183480000Y-86730000D01*
D44*
X155030000Y-116060000D02*
X154700000Y-115730000D01*
D45*
X168075000Y-83820000D02*
X166522500Y-83820000D01*
X197300000Y-99950000D02*
X196610000Y-100640000D01*
X156900000Y-76470000D02*
X146250000Y-76470000D01*
X195640000Y-86730000D02*
X197300000Y-88390000D01*
X166510000Y-82240000D02*
X166510000Y-84337500D01*
X167360000Y-82050000D02*
X167170000Y-82240000D01*
X169510000Y-85255000D02*
X168075000Y-83820000D01*
X197300000Y-90960000D02*
X197300000Y-92190000D01*
X159060000Y-82240000D02*
X157810000Y-80990000D01*
X181810000Y-82570000D02*
X181810000Y-85060000D01*
X166750000Y-119190000D02*
X166185000Y-118625000D01*
X169510000Y-87260000D02*
X169510000Y-85255000D01*
X157810000Y-80990000D02*
X157810000Y-77380000D01*
D44*
X155570000Y-116060000D02*
X154390000Y-116060000D01*
D45*
X166185000Y-117210000D02*
X159305000Y-117210000D01*
D44*
X156500000Y-115410000D02*
X155850000Y-116060000D01*
D45*
X196610000Y-100640000D02*
X195255000Y-100640000D01*
X183480000Y-86730000D02*
X195640000Y-86730000D01*
X178285000Y-114525000D02*
X178285000Y-116705000D01*
D44*
X154390000Y-116060000D02*
X154200000Y-115870000D01*
X154700000Y-115730000D02*
X154700000Y-115190000D01*
D45*
X175800000Y-119190000D02*
X166750000Y-119190000D01*
D44*
X155850000Y-116060000D02*
X155570000Y-116060000D01*
D45*
X159305000Y-117210000D02*
X158822500Y-116727500D01*
X166185000Y-118625000D02*
X166185000Y-117210000D01*
X197300000Y-88390000D02*
X197300000Y-99950000D01*
X197300000Y-92190000D02*
X196470000Y-93020000D01*
X167170000Y-82240000D02*
X166510000Y-82240000D01*
X157810000Y-77380000D02*
X156900000Y-76470000D01*
X158822500Y-116727500D02*
X158822500Y-115410000D01*
X146250000Y-76470000D02*
X145422400Y-77297600D01*
X167360000Y-80431400D02*
X167360000Y-82050000D01*
D44*
X154200000Y-115870000D02*
X154200000Y-115190000D01*
D45*
X166510000Y-82240000D02*
X159060000Y-82240000D01*
D44*
%TO.N,Net-(D1-GA)*%
X146950000Y-90420000D02*
X146950000Y-96880000D01*
X139725000Y-96330000D02*
X139725000Y-95110000D01*
X144831800Y-89417200D02*
X145947200Y-89417200D01*
X146950000Y-96880000D02*
X146180000Y-97650000D01*
X146180000Y-97650000D02*
X141045000Y-97650000D01*
X145947200Y-89417200D02*
X146950000Y-90420000D01*
X141045000Y-97650000D02*
X139725000Y-96330000D01*
%TO.N,Net-(D1-BA)*%
X136931800Y-92796800D02*
X137845000Y-93710000D01*
X137845000Y-93710000D02*
X139725000Y-93710000D01*
X136931800Y-89417200D02*
X136931800Y-92796800D01*
%TO.N,Net-(D1-RA)*%
X140780000Y-89422200D02*
X140780000Y-91095000D01*
X140780000Y-91095000D02*
X141085000Y-91400000D01*
X140785000Y-89417200D02*
X140780000Y-89422200D01*
X141085000Y-91400000D02*
X142635000Y-91400000D01*
X143225000Y-91990000D02*
X143225000Y-93710000D01*
X142635000Y-91400000D02*
X143225000Y-91990000D01*
%TO.N,MODO*%
X190725000Y-110070000D02*
X184925000Y-110070000D01*
X175060000Y-111375000D02*
X175060000Y-114650000D01*
X176365000Y-110070000D02*
X175060000Y-111375000D01*
X184925000Y-110070000D02*
X176365000Y-110070000D01*
%TO.N,CE 2*%
X169151000Y-83091000D02*
X170806800Y-83091000D01*
X168604600Y-80406000D02*
X168604600Y-82544600D01*
X170806800Y-83091000D02*
X171478800Y-83763000D01*
X173020000Y-90420000D02*
X171260000Y-90420000D01*
X172844600Y-83763000D02*
X173160000Y-84078400D01*
X170449960Y-91230040D02*
X170449960Y-95918000D01*
X167209960Y-99158000D02*
X163210419Y-99158000D01*
X163210419Y-99158000D02*
X161913420Y-100455000D01*
X170449960Y-95918000D02*
X167209960Y-99158000D01*
X168604600Y-82544600D02*
X169151000Y-83091000D01*
X173160000Y-84078400D02*
X173160000Y-90280000D01*
X171260000Y-90420000D02*
X170449960Y-91230040D01*
X161913420Y-100455000D02*
X153175000Y-100455000D01*
X171478800Y-83763000D02*
X172844600Y-83763000D01*
X173160000Y-90280000D02*
X173020000Y-90420000D01*
%TO.N,SCK 2*%
X173406800Y-82961000D02*
X173962000Y-83516200D01*
X171251960Y-91562240D02*
X171251960Y-96533040D01*
X171592200Y-91222000D02*
X171251960Y-91562240D01*
X160620000Y-101910000D02*
X160620000Y-104760000D01*
X173962000Y-83516200D02*
X173962000Y-90612200D01*
X173962000Y-90612200D02*
X173352200Y-91222000D01*
X161173000Y-101357000D02*
X160620000Y-101910000D01*
X162145620Y-101357000D02*
X161173000Y-101357000D01*
X171144600Y-82294600D02*
X171811000Y-82961000D01*
X173352200Y-91222000D02*
X171592200Y-91222000D01*
X171144600Y-80406000D02*
X171144600Y-82294600D01*
X163442619Y-100060000D02*
X162145620Y-101357000D01*
X167725000Y-100060000D02*
X163442619Y-100060000D01*
X171811000Y-82961000D02*
X173406800Y-82961000D01*
X171251960Y-96533040D02*
X167725000Y-100060000D01*
%TO.N,CSN 2*%
X159350000Y-101965000D02*
X159350000Y-104760000D01*
X173240700Y-83362000D02*
X173561000Y-83682300D01*
X173186100Y-90821000D02*
X171426100Y-90821000D01*
X173561000Y-90446100D02*
X173186100Y-90821000D01*
X161979520Y-100956000D02*
X160359000Y-100956000D01*
X171426100Y-90821000D02*
X170850960Y-91396140D01*
X170972900Y-82690000D02*
X171644900Y-83362000D01*
X169874600Y-82544600D02*
X170020000Y-82690000D01*
X170850960Y-91396140D02*
X170850960Y-96084100D01*
X163376519Y-99559000D02*
X161979520Y-100956000D01*
X169874600Y-80406000D02*
X169874600Y-82544600D01*
X167376060Y-99559000D02*
X163376519Y-99559000D01*
X170020000Y-82690000D02*
X170972900Y-82690000D01*
X170850960Y-96084100D02*
X167376060Y-99559000D01*
X160359000Y-100956000D02*
X159350000Y-101965000D01*
X173561000Y-83682300D02*
X173561000Y-90446100D01*
X171644900Y-83362000D02*
X173240700Y-83362000D01*
%TO.N,MOSI 2*%
X171758300Y-91623000D02*
X171652960Y-91728340D01*
X173518300Y-91623000D02*
X171758300Y-91623000D01*
X172414600Y-82364600D02*
X172610000Y-82560000D01*
X171652960Y-91728340D02*
X171652960Y-96699140D01*
X171652960Y-96699140D02*
X169510000Y-98842100D01*
X169510000Y-98842100D02*
X169510000Y-104760000D01*
X174363000Y-90778300D02*
X173518300Y-91623000D01*
X172414600Y-80406000D02*
X172414600Y-82364600D01*
X172610000Y-82560000D02*
X173572900Y-82560000D01*
X173572900Y-82560000D02*
X174363000Y-83350100D01*
X174363000Y-83350100D02*
X174363000Y-90778300D01*
%TO.N,MISO 2*%
X174764000Y-90944400D02*
X174764000Y-83184000D01*
X173684400Y-92024000D02*
X174764000Y-90944400D01*
X174764000Y-83184000D02*
X173684600Y-82104600D01*
X172053960Y-92024000D02*
X173684400Y-92024000D01*
X170765000Y-98154200D02*
X172053960Y-96865240D01*
X170765000Y-102450000D02*
X170765000Y-98154200D01*
X173684600Y-82104600D02*
X173684600Y-80406000D01*
X172053960Y-96865240D02*
X172053960Y-92024000D01*
%TO.N,MISO 1*%
X151772400Y-80380000D02*
X151772400Y-86317400D01*
X152715000Y-87260000D02*
X154270000Y-87260000D01*
X151772400Y-86317400D02*
X152715000Y-87260000D01*
%TO.N,CE 1*%
X150830000Y-92209200D02*
X150830000Y-106113520D01*
X149563900Y-82571000D02*
X149700400Y-82707500D01*
X150830000Y-106113520D02*
X151596480Y-106880000D01*
X151596480Y-106880000D02*
X167525000Y-106880000D01*
X146692400Y-82142400D02*
X147121000Y-82571000D01*
X168240000Y-106165000D02*
X168240000Y-104760000D01*
X149700400Y-82707500D02*
X149700400Y-91079600D01*
X167525000Y-106880000D02*
X168240000Y-106165000D01*
X147121000Y-82571000D02*
X149563900Y-82571000D01*
X149700400Y-91079600D02*
X150830000Y-92209200D01*
X146692400Y-80380000D02*
X146692400Y-82142400D01*
%TO.N,CSN 1*%
X150101400Y-82541400D02*
X150101400Y-90913500D01*
X151231000Y-105806000D02*
X151865000Y-106440000D01*
X150101400Y-90913500D02*
X151231000Y-92043100D01*
X147962400Y-82152400D02*
X147980000Y-82170000D01*
X164430000Y-106065000D02*
X164430000Y-104760000D01*
X164055000Y-106440000D02*
X164430000Y-106065000D01*
X149730000Y-82170000D02*
X150101400Y-82541400D01*
X147980000Y-82170000D02*
X149730000Y-82170000D01*
X151231000Y-92043100D02*
X151231000Y-105806000D01*
X147962400Y-80380000D02*
X147962400Y-82152400D01*
X151865000Y-106440000D02*
X164055000Y-106440000D01*
%TO.N,MOSI 1*%
X150502400Y-90747400D02*
X151320000Y-91565000D01*
X151320000Y-91565000D02*
X153175000Y-91565000D01*
X150502400Y-80380000D02*
X150502400Y-90747400D01*
%TO.N,SCK 1*%
X149232400Y-79017600D02*
X149530000Y-78720000D01*
X155000000Y-78720000D02*
X155540000Y-79260000D01*
X155540000Y-79260000D02*
X155540000Y-87260000D01*
X149530000Y-78720000D02*
X155000000Y-78720000D01*
X149232400Y-80380000D02*
X149232400Y-79017600D01*
%TO.N,Net-(J2-In)*%
X149710000Y-58670000D02*
X151895000Y-56485000D01*
X151895000Y-56485000D02*
X154050000Y-56485000D01*
X140675000Y-53932500D02*
X140675000Y-57375000D01*
X141970000Y-58670000D02*
X149710000Y-58670000D01*
X140675000Y-57375000D02*
X141970000Y-58670000D01*
%TO.N,Net-(J3-In)*%
X183940000Y-60480000D02*
X169040000Y-60480000D01*
X168380000Y-56630000D02*
X168915000Y-56630000D01*
X167790000Y-57220000D02*
X168380000Y-56630000D01*
X169040000Y-60480000D02*
X167790000Y-59230000D01*
X186195000Y-58225000D02*
X183940000Y-60480000D01*
X167790000Y-59230000D02*
X167790000Y-57220000D01*
X186195000Y-53932500D02*
X186195000Y-58225000D01*
%TO.N,RESET*%
X195255000Y-97540000D02*
X192025000Y-97540000D01*
X179990000Y-99860000D02*
X180780000Y-100650000D01*
X195182500Y-106310000D02*
X193985000Y-106310000D01*
X130401250Y-115280000D02*
X130401250Y-115858750D01*
X180780000Y-100650000D02*
X184905000Y-100650000D01*
X179990000Y-93240000D02*
X179990000Y-99860000D01*
X190705000Y-100650000D02*
X184905000Y-100650000D01*
X193985000Y-106310000D02*
X193315000Y-105640000D01*
X192485000Y-100650000D02*
X190705000Y-100650000D01*
X130401250Y-115858750D02*
X129830000Y-116430000D01*
X190705000Y-98860000D02*
X190705000Y-100650000D01*
X192025000Y-97540000D02*
X190705000Y-98860000D01*
X193315000Y-105640000D02*
X193315000Y-101480000D01*
X193315000Y-101480000D02*
X192485000Y-100650000D01*
%TO.N,RX_0*%
X142275000Y-111447500D02*
X142275000Y-113890000D01*
%TO.N,TX_0*%
X144671000Y-110071000D02*
X145120000Y-110520000D01*
X145120000Y-110520000D02*
X145120000Y-111395000D01*
X138735000Y-111447500D02*
X138735000Y-110335000D01*
X138735000Y-110335000D02*
X138999000Y-110071000D01*
X145120000Y-111395000D02*
X146477500Y-112752500D01*
X138999000Y-110071000D02*
X144671000Y-110071000D01*
X146477500Y-112752500D02*
X150732500Y-112752500D01*
%TO.N,CC2*%
X141385000Y-123560000D02*
X141145000Y-123320000D01*
X153865000Y-120585000D02*
X153865000Y-122510000D01*
X141145000Y-123320000D02*
X141145000Y-121970000D01*
X153865000Y-122510000D02*
X152815000Y-123560000D01*
X152815000Y-123560000D02*
X141385000Y-123560000D01*
%TO.N,D-*%
X151365000Y-121710000D02*
X151365000Y-120585000D01*
X152365000Y-120585000D02*
X152365000Y-121650000D01*
X152365000Y-119713000D02*
X152365000Y-120585000D01*
X153695000Y-115215000D02*
X153695000Y-118383000D01*
X152165000Y-121850000D02*
X151505000Y-121850000D01*
X153695000Y-118383000D02*
X152365000Y-119713000D01*
X152365000Y-121650000D02*
X152165000Y-121850000D01*
X151505000Y-121850000D02*
X151365000Y-121710000D01*
%TO.N,D+*%
X153195000Y-118315900D02*
X151865000Y-119645900D01*
X152865000Y-119780100D02*
X152865000Y-120585000D01*
X152910000Y-118190000D02*
X153195000Y-118190000D01*
X154890000Y-118090000D02*
X154430900Y-118549100D01*
X154096000Y-118549100D02*
X152865000Y-119780100D01*
X151865000Y-119645900D02*
X151865000Y-120585000D01*
X153195000Y-118190000D02*
X153195000Y-118315900D01*
X154890000Y-117730000D02*
X154890000Y-118090000D01*
X152550000Y-117830000D02*
X152910000Y-118190000D01*
X153195000Y-115215000D02*
X153195000Y-118190000D01*
X154430900Y-118549100D02*
X154096000Y-118549100D01*
%TO.N,CC1*%
X150865000Y-118325000D02*
X150350000Y-117810000D01*
X150865000Y-120585000D02*
X150865000Y-118325000D01*
X150350000Y-117810000D02*
X146020000Y-117810000D01*
X144455000Y-119375000D02*
X144455000Y-121970000D01*
X146020000Y-117810000D02*
X144455000Y-119375000D01*
%TO.N,RTS*%
X147162500Y-112252500D02*
X146100000Y-111190000D01*
X146100000Y-111190000D02*
X146100000Y-109950000D01*
X135430000Y-116170000D02*
X132336250Y-116170000D01*
X150732500Y-112252500D02*
X147162500Y-112252500D01*
X136540000Y-109670000D02*
X135733750Y-110476250D01*
X135733750Y-114750000D02*
X135733750Y-115866250D01*
X146100000Y-109950000D02*
X145820000Y-109670000D01*
X135733750Y-110476250D02*
X135733750Y-114750000D01*
X135733750Y-115866250D02*
X135430000Y-116170000D01*
X145820000Y-109670000D02*
X136540000Y-109670000D01*
%TO.N,Net-(Q2-B)*%
X138833750Y-114750000D02*
X138833750Y-116256250D01*
X136800000Y-116810000D02*
X134320000Y-119290000D01*
X138280000Y-116810000D02*
X136800000Y-116810000D01*
X134320000Y-119290000D02*
X132276250Y-119290000D01*
X138833750Y-116256250D02*
X138280000Y-116810000D01*
%TO.N,DTR*%
X144260000Y-116850000D02*
X146870000Y-116850000D01*
X147450000Y-114740000D02*
X147950000Y-114240000D01*
X147950000Y-114240000D02*
X150750000Y-114240000D01*
X134073750Y-121190000D02*
X134163750Y-121100000D01*
X142540000Y-118570000D02*
X144260000Y-116850000D01*
X134430000Y-120350000D02*
X135733750Y-120350000D01*
X146870000Y-116850000D02*
X147450000Y-116270000D01*
X132276250Y-121190000D02*
X134073750Y-121190000D01*
X134163750Y-121100000D02*
X134163750Y-120616250D01*
X135733750Y-120350000D02*
X135733750Y-119226250D01*
X136390000Y-118570000D02*
X142540000Y-118570000D01*
X134163750Y-120616250D02*
X134430000Y-120350000D01*
X147450000Y-116270000D02*
X147450000Y-114740000D01*
X135733750Y-119226250D02*
X136390000Y-118570000D01*
%TO.N,GPIO0*%
X175100000Y-101700000D02*
X175670000Y-101130000D01*
X129990000Y-119120000D02*
X129990000Y-119828750D01*
X194065000Y-89920000D02*
X193195000Y-90790000D01*
X174020000Y-101700000D02*
X175100000Y-101700000D01*
X129990000Y-119828750D02*
X130401250Y-120240000D01*
X193195000Y-90790000D02*
X190785000Y-90790000D01*
X176740000Y-90790000D02*
X184985000Y-90790000D01*
X190785000Y-90790000D02*
X184985000Y-90790000D01*
X175670000Y-91860000D02*
X176740000Y-90790000D01*
X195255000Y-89920000D02*
X194065000Y-89920000D01*
X175670000Y-101130000D02*
X175670000Y-91860000D01*
%TO.N,Net-(U3-TXD)*%
X147090000Y-113920000D02*
X145345000Y-113920000D01*
X150732500Y-113252500D02*
X147757500Y-113252500D01*
X147757500Y-113252500D02*
X147090000Y-113920000D01*
%TD*%
%TA.AperFunction,Conductor*%
%TO.N,GND*%
G36*
X164553363Y-109010185D02*
G01*
X164574005Y-109026819D01*
X165588181Y-110040995D01*
X165621666Y-110102318D01*
X165624500Y-110128676D01*
X165624500Y-110495500D01*
X165604815Y-110562539D01*
X165552011Y-110608294D01*
X165500500Y-110619500D01*
X165027129Y-110619500D01*
X165027123Y-110619501D01*
X164967516Y-110625908D01*
X164832671Y-110676202D01*
X164832664Y-110676206D01*
X164717455Y-110762452D01*
X164717452Y-110762455D01*
X164631206Y-110877664D01*
X164631202Y-110877671D01*
X164580908Y-111012517D01*
X164577436Y-111044818D01*
X164574501Y-111072123D01*
X164574500Y-111072135D01*
X164574500Y-112267870D01*
X164574501Y-112267876D01*
X164580908Y-112327483D01*
X164631202Y-112462328D01*
X164631206Y-112462335D01*
X164717452Y-112577544D01*
X164717455Y-112577547D01*
X164832664Y-112663793D01*
X164832671Y-112663797D01*
X164927908Y-112699318D01*
X164983842Y-112741189D01*
X165008259Y-112806653D01*
X164993408Y-112874926D01*
X164944003Y-112924332D01*
X164884575Y-112939500D01*
X159823676Y-112939500D01*
X159794235Y-112930855D01*
X159764249Y-112924332D01*
X159759233Y-112920577D01*
X159756637Y-112919815D01*
X159735995Y-112903181D01*
X159607651Y-112774837D01*
X159574166Y-112713514D01*
X159579150Y-112643822D01*
X159596065Y-112612845D01*
X159609247Y-112595236D01*
X159678796Y-112502331D01*
X159729091Y-112367483D01*
X159735500Y-112307873D01*
X159735499Y-110912128D01*
X159729091Y-110852517D01*
X159727727Y-110848861D01*
X159678797Y-110717671D01*
X159678793Y-110717664D01*
X159592547Y-110602455D01*
X159592544Y-110602452D01*
X159477335Y-110516206D01*
X159477328Y-110516202D01*
X159342482Y-110465908D01*
X159342483Y-110465908D01*
X159282883Y-110459501D01*
X159282881Y-110459500D01*
X159282873Y-110459500D01*
X159282864Y-110459500D01*
X158362129Y-110459500D01*
X158362123Y-110459501D01*
X158302516Y-110465908D01*
X158167671Y-110516202D01*
X158167664Y-110516206D01*
X158052455Y-110602452D01*
X158052452Y-110602455D01*
X157966206Y-110717664D01*
X157966202Y-110717671D01*
X157915908Y-110852517D01*
X157909501Y-110912116D01*
X157909501Y-110912123D01*
X157909500Y-110912135D01*
X157909500Y-111135500D01*
X157889815Y-111202539D01*
X157837011Y-111248294D01*
X157785500Y-111259500D01*
X157678856Y-111259500D01*
X157589712Y-111283386D01*
X157589711Y-111283386D01*
X157589709Y-111283387D01*
X157589706Y-111283388D01*
X157509794Y-111329526D01*
X157509785Y-111329533D01*
X156722031Y-112117286D01*
X156722027Y-112117291D01*
X156713039Y-112132861D01*
X156708443Y-112140822D01*
X156701799Y-112152330D01*
X156675886Y-112197211D01*
X156652000Y-112286356D01*
X156652000Y-113585956D01*
X156643355Y-113615395D01*
X156636832Y-113645383D01*
X156633077Y-113650398D01*
X156632315Y-113652995D01*
X156615685Y-113673632D01*
X156562321Y-113726997D01*
X156512180Y-113777138D01*
X156450857Y-113810622D01*
X156381165Y-113805638D01*
X156325232Y-113763766D01*
X156300815Y-113698301D01*
X156300499Y-113689456D01*
X156300499Y-113640819D01*
X156294499Y-113595243D01*
X156294499Y-113595240D01*
X156269860Y-113542403D01*
X156259369Y-113473327D01*
X156269858Y-113437601D01*
X156294499Y-113384760D01*
X156300500Y-113339179D01*
X156300499Y-113140822D01*
X156294499Y-113095240D01*
X156269860Y-113042403D01*
X156259369Y-112973327D01*
X156269858Y-112937601D01*
X156294499Y-112884760D01*
X156300500Y-112839179D01*
X156300499Y-112640822D01*
X156294499Y-112595240D01*
X156269860Y-112542403D01*
X156259369Y-112473327D01*
X156269858Y-112437601D01*
X156294499Y-112384760D01*
X156300500Y-112339179D01*
X156300499Y-112140822D01*
X156294499Y-112095240D01*
X156269860Y-112042403D01*
X156266205Y-112018338D01*
X156258357Y-111995303D01*
X156261053Y-111984416D01*
X156259369Y-111973327D01*
X156269858Y-111937601D01*
X156294499Y-111884760D01*
X156300500Y-111839179D01*
X156300499Y-111640822D01*
X156294499Y-111595240D01*
X156269860Y-111542403D01*
X156259369Y-111473327D01*
X156269858Y-111437601D01*
X156294499Y-111384760D01*
X156300500Y-111339179D01*
X156300499Y-111140822D01*
X156299798Y-111135500D01*
X156294499Y-111095243D01*
X156294499Y-111095240D01*
X156247850Y-110995201D01*
X156169799Y-110917150D01*
X156069760Y-110870501D01*
X156069758Y-110870500D01*
X156024188Y-110864501D01*
X156024185Y-110864500D01*
X156024179Y-110864500D01*
X156024172Y-110864500D01*
X155275819Y-110864500D01*
X155230243Y-110870500D01*
X155221128Y-110873157D01*
X155220111Y-110869670D01*
X155168627Y-110877441D01*
X155104869Y-110848861D01*
X155066685Y-110790349D01*
X155066197Y-110720481D01*
X155066998Y-110718337D01*
X155069497Y-110709763D01*
X155069499Y-110709760D01*
X155075500Y-110664179D01*
X155075499Y-109915822D01*
X155069499Y-109870240D01*
X155022850Y-109770201D01*
X154944799Y-109692150D01*
X154844760Y-109645501D01*
X154844758Y-109645500D01*
X154799188Y-109639501D01*
X154799185Y-109639500D01*
X154799179Y-109639500D01*
X154799172Y-109639500D01*
X154600819Y-109639500D01*
X154555243Y-109645500D01*
X154555238Y-109645501D01*
X154502403Y-109670139D01*
X154433325Y-109680630D01*
X154397595Y-109670138D01*
X154344759Y-109645500D01*
X154299188Y-109639501D01*
X154299185Y-109639500D01*
X154299179Y-109639500D01*
X154299172Y-109639500D01*
X154100819Y-109639500D01*
X154055243Y-109645500D01*
X154055238Y-109645501D01*
X154002403Y-109670139D01*
X153933325Y-109680630D01*
X153897595Y-109670138D01*
X153844759Y-109645500D01*
X153799188Y-109639501D01*
X153799185Y-109639500D01*
X153799179Y-109639500D01*
X153799172Y-109639500D01*
X153600819Y-109639500D01*
X153555243Y-109645500D01*
X153555238Y-109645501D01*
X153502403Y-109670139D01*
X153433325Y-109680630D01*
X153397595Y-109670138D01*
X153344759Y-109645500D01*
X153299188Y-109639501D01*
X153299185Y-109639500D01*
X153299179Y-109639500D01*
X153299172Y-109639500D01*
X153100819Y-109639500D01*
X153055243Y-109645500D01*
X153055238Y-109645501D01*
X153002403Y-109670139D01*
X152933325Y-109680630D01*
X152897595Y-109670138D01*
X152844759Y-109645500D01*
X152799188Y-109639501D01*
X152799185Y-109639500D01*
X152799179Y-109639500D01*
X152799172Y-109639500D01*
X152600819Y-109639500D01*
X152555243Y-109645500D01*
X152555238Y-109645501D01*
X152502403Y-109670139D01*
X152433325Y-109680630D01*
X152397595Y-109670138D01*
X152344759Y-109645500D01*
X152299188Y-109639501D01*
X152299185Y-109639500D01*
X152299179Y-109639500D01*
X152299172Y-109639500D01*
X152100819Y-109639500D01*
X152055243Y-109645500D01*
X152055238Y-109645501D01*
X152002403Y-109670139D01*
X151933325Y-109680630D01*
X151897595Y-109670138D01*
X151844759Y-109645500D01*
X151799188Y-109639501D01*
X151799185Y-109639500D01*
X151799179Y-109639500D01*
X151799172Y-109639500D01*
X151600819Y-109639500D01*
X151555243Y-109645500D01*
X151555236Y-109645502D01*
X151455200Y-109692150D01*
X151377150Y-109770200D01*
X151330500Y-109870241D01*
X151324501Y-109915811D01*
X151324500Y-109915827D01*
X151324500Y-110664180D01*
X151330500Y-110709756D01*
X151333157Y-110718872D01*
X151329665Y-110719889D01*
X151337448Y-110771326D01*
X151308892Y-110835094D01*
X151250393Y-110873301D01*
X151180526Y-110873815D01*
X151178379Y-110873013D01*
X151169758Y-110870500D01*
X151124188Y-110864501D01*
X151124185Y-110864500D01*
X151124179Y-110864500D01*
X151124172Y-110864500D01*
X150375819Y-110864500D01*
X150330243Y-110870500D01*
X150330236Y-110870502D01*
X150230200Y-110917150D01*
X150152150Y-110995200D01*
X150105500Y-111095241D01*
X150099501Y-111140811D01*
X150099500Y-111140827D01*
X150099500Y-111339180D01*
X150105500Y-111384756D01*
X150105503Y-111384766D01*
X150130138Y-111437596D01*
X150140630Y-111506673D01*
X150130139Y-111542404D01*
X150105500Y-111595243D01*
X150099501Y-111640811D01*
X150099500Y-111640827D01*
X150099501Y-111777999D01*
X150079817Y-111845039D01*
X150027013Y-111890794D01*
X149975501Y-111902000D01*
X147359044Y-111902000D01*
X147292005Y-111882315D01*
X147271363Y-111865681D01*
X146486819Y-111081137D01*
X146453334Y-111019814D01*
X146450500Y-110993456D01*
X146450500Y-109903858D01*
X146450500Y-109903856D01*
X146426614Y-109814712D01*
X146426613Y-109814711D01*
X146426613Y-109814709D01*
X146412654Y-109790533D01*
X146412652Y-109790530D01*
X146380470Y-109734788D01*
X146035212Y-109389530D01*
X146035211Y-109389529D01*
X146035208Y-109389527D01*
X145955290Y-109343387D01*
X145955289Y-109343386D01*
X145955288Y-109343386D01*
X145866144Y-109319500D01*
X145866143Y-109319500D01*
X143624364Y-109319500D01*
X143594924Y-109310855D01*
X143564939Y-109304333D01*
X143561707Y-109301101D01*
X143557325Y-109299815D01*
X143537236Y-109276631D01*
X143515533Y-109254929D01*
X143514561Y-109250463D01*
X143511570Y-109247011D01*
X143507202Y-109216639D01*
X143500680Y-109186656D01*
X143502011Y-109180534D01*
X143501626Y-109177853D01*
X143508182Y-109152168D01*
X143538392Y-109071168D01*
X143580262Y-109015234D01*
X143645726Y-108990816D01*
X143654574Y-108990500D01*
X164486324Y-108990500D01*
X164553363Y-109010185D01*
G37*
%TD.AperFunction*%
%TA.AperFunction,Conductor*%
G36*
X151144883Y-81552065D02*
G01*
X151154835Y-81550617D01*
X151178011Y-81561152D01*
X151202567Y-81567889D01*
X151206248Y-81570255D01*
X151274660Y-81615966D01*
X151325515Y-81626082D01*
X151328897Y-81626955D01*
X151356009Y-81643142D01*
X151384002Y-81657785D01*
X151385788Y-81660922D01*
X151388888Y-81662773D01*
X151402948Y-81691057D01*
X151418576Y-81718501D01*
X151419183Y-81723716D01*
X151419990Y-81725338D01*
X151419689Y-81728058D01*
X151421900Y-81747018D01*
X151421900Y-86363544D01*
X151437747Y-86422686D01*
X151445786Y-86452688D01*
X151445787Y-86452690D01*
X151491927Y-86532608D01*
X151491929Y-86532611D01*
X151491930Y-86532612D01*
X152499788Y-87540470D01*
X152579712Y-87586614D01*
X152668856Y-87610500D01*
X152668857Y-87610500D01*
X152761144Y-87610500D01*
X153445500Y-87610500D01*
X153512539Y-87630185D01*
X153558294Y-87682989D01*
X153569500Y-87734500D01*
X153569500Y-88034678D01*
X153584032Y-88107735D01*
X153584033Y-88107739D01*
X153584034Y-88107740D01*
X153639399Y-88190601D01*
X153722259Y-88245965D01*
X153722260Y-88245966D01*
X153722264Y-88245967D01*
X153795321Y-88260499D01*
X153795324Y-88260500D01*
X153795326Y-88260500D01*
X154744676Y-88260500D01*
X154744677Y-88260499D01*
X154817740Y-88245966D01*
X154836110Y-88233691D01*
X154902786Y-88212814D01*
X154970166Y-88231298D01*
X154973873Y-88233680D01*
X154992260Y-88245966D01*
X154992262Y-88245966D01*
X154992264Y-88245967D01*
X155065321Y-88260499D01*
X155065324Y-88260500D01*
X155065326Y-88260500D01*
X156014676Y-88260500D01*
X156014677Y-88260499D01*
X156087740Y-88245966D01*
X156106110Y-88233691D01*
X156172786Y-88212814D01*
X156240166Y-88231298D01*
X156243873Y-88233680D01*
X156262260Y-88245966D01*
X156262262Y-88245966D01*
X156262264Y-88245967D01*
X156335321Y-88260499D01*
X156335324Y-88260500D01*
X156335326Y-88260500D01*
X157284676Y-88260500D01*
X157284677Y-88260499D01*
X157357740Y-88245966D01*
X157376110Y-88233691D01*
X157442786Y-88212814D01*
X157510166Y-88231298D01*
X157513873Y-88233680D01*
X157532260Y-88245966D01*
X157532262Y-88245966D01*
X157532264Y-88245967D01*
X157605321Y-88260499D01*
X157605324Y-88260500D01*
X157605326Y-88260500D01*
X158554676Y-88260500D01*
X158554677Y-88260499D01*
X158627740Y-88245966D01*
X158646110Y-88233691D01*
X158712786Y-88212814D01*
X158780166Y-88231298D01*
X158783873Y-88233680D01*
X158802260Y-88245966D01*
X158802262Y-88245966D01*
X158802264Y-88245967D01*
X158875321Y-88260499D01*
X158875324Y-88260500D01*
X158875326Y-88260500D01*
X159824676Y-88260500D01*
X159824677Y-88260499D01*
X159897740Y-88245966D01*
X159916110Y-88233691D01*
X159982786Y-88212814D01*
X160050166Y-88231298D01*
X160053873Y-88233680D01*
X160072260Y-88245966D01*
X160072262Y-88245966D01*
X160072264Y-88245967D01*
X160145321Y-88260499D01*
X160145324Y-88260500D01*
X160145326Y-88260500D01*
X161094676Y-88260500D01*
X161094677Y-88260499D01*
X161167740Y-88245966D01*
X161186110Y-88233691D01*
X161252786Y-88212814D01*
X161320166Y-88231298D01*
X161323873Y-88233680D01*
X161342260Y-88245966D01*
X161342262Y-88245966D01*
X161342264Y-88245967D01*
X161415321Y-88260499D01*
X161415324Y-88260500D01*
X161415326Y-88260500D01*
X162364676Y-88260500D01*
X162364677Y-88260499D01*
X162437740Y-88245966D01*
X162456110Y-88233691D01*
X162522786Y-88212814D01*
X162590166Y-88231298D01*
X162593873Y-88233680D01*
X162612260Y-88245966D01*
X162612262Y-88245966D01*
X162612264Y-88245967D01*
X162685321Y-88260499D01*
X162685324Y-88260500D01*
X162685326Y-88260500D01*
X163634676Y-88260500D01*
X163634677Y-88260499D01*
X163707740Y-88245966D01*
X163726110Y-88233691D01*
X163792786Y-88212814D01*
X163860166Y-88231298D01*
X163863873Y-88233680D01*
X163882260Y-88245966D01*
X163882262Y-88245966D01*
X163882264Y-88245967D01*
X163955321Y-88260499D01*
X163955324Y-88260500D01*
X163955326Y-88260500D01*
X164904676Y-88260500D01*
X164904677Y-88260499D01*
X164977740Y-88245966D01*
X164996110Y-88233691D01*
X165062786Y-88212814D01*
X165130166Y-88231298D01*
X165133873Y-88233680D01*
X165152260Y-88245966D01*
X165152262Y-88245966D01*
X165152264Y-88245967D01*
X165225321Y-88260499D01*
X165225324Y-88260500D01*
X165225326Y-88260500D01*
X166174676Y-88260500D01*
X166174677Y-88260499D01*
X166247740Y-88245966D01*
X166266110Y-88233691D01*
X166332786Y-88212814D01*
X166400166Y-88231298D01*
X166403873Y-88233680D01*
X166422260Y-88245966D01*
X166422262Y-88245966D01*
X166422264Y-88245967D01*
X166495321Y-88260499D01*
X166495324Y-88260500D01*
X166495326Y-88260500D01*
X167444676Y-88260500D01*
X167444677Y-88260499D01*
X167517740Y-88245966D01*
X167536110Y-88233691D01*
X167602786Y-88212814D01*
X167670166Y-88231298D01*
X167673873Y-88233680D01*
X167692260Y-88245966D01*
X167692262Y-88245966D01*
X167692264Y-88245967D01*
X167765321Y-88260499D01*
X167765324Y-88260500D01*
X167765326Y-88260500D01*
X168714676Y-88260500D01*
X168714677Y-88260499D01*
X168787740Y-88245966D01*
X168806110Y-88233691D01*
X168872786Y-88212814D01*
X168940166Y-88231298D01*
X168943873Y-88233680D01*
X168962260Y-88245966D01*
X168962262Y-88245966D01*
X168962264Y-88245967D01*
X169035321Y-88260499D01*
X169035324Y-88260500D01*
X169035326Y-88260500D01*
X169984676Y-88260500D01*
X169984677Y-88260499D01*
X170057740Y-88245966D01*
X170140601Y-88190601D01*
X170195966Y-88107740D01*
X170210500Y-88034674D01*
X170210500Y-86485326D01*
X170210500Y-86485323D01*
X170210499Y-86485321D01*
X170195967Y-86412264D01*
X170195966Y-86412260D01*
X170140601Y-86329399D01*
X170140600Y-86329398D01*
X170065609Y-86279291D01*
X170020804Y-86225679D01*
X170010500Y-86176189D01*
X170010500Y-85189109D01*
X170010500Y-85189108D01*
X170004174Y-85165500D01*
X169976392Y-85061814D01*
X169928013Y-84978020D01*
X169910500Y-84947686D01*
X169817314Y-84854500D01*
X168382314Y-83419500D01*
X168299129Y-83371473D01*
X168268187Y-83353608D01*
X168204539Y-83336554D01*
X168140892Y-83319500D01*
X168140891Y-83319500D01*
X167559499Y-83319500D01*
X167492460Y-83299815D01*
X167446705Y-83247011D01*
X167435499Y-83195500D01*
X167435499Y-83122129D01*
X167435498Y-83122123D01*
X167435497Y-83122116D01*
X167429091Y-83062517D01*
X167418497Y-83034114D01*
X167378797Y-82927671D01*
X167378793Y-82927664D01*
X167342152Y-82878718D01*
X167317734Y-82813254D01*
X167332585Y-82744981D01*
X167379417Y-82697020D01*
X167477314Y-82640500D01*
X167760500Y-82357314D01*
X167826392Y-82243186D01*
X167860500Y-82115892D01*
X167860500Y-81984107D01*
X167860500Y-81709341D01*
X167880185Y-81642302D01*
X167932989Y-81596547D01*
X168002147Y-81586603D01*
X168034186Y-81595731D01*
X168044251Y-81600133D01*
X168106860Y-81641966D01*
X168167472Y-81654022D01*
X168179786Y-81659408D01*
X168196670Y-81673568D01*
X168216202Y-81683785D01*
X168222920Y-81695583D01*
X168233321Y-81704306D01*
X168239870Y-81725349D01*
X168250776Y-81744501D01*
X168253737Y-81769904D01*
X168254084Y-81771019D01*
X168253931Y-81771571D01*
X168254100Y-81773018D01*
X168254100Y-82590744D01*
X168267433Y-82640501D01*
X168275203Y-82669500D01*
X168275204Y-82669505D01*
X168277985Y-82679888D01*
X168324127Y-82759808D01*
X168324129Y-82759811D01*
X168324130Y-82759812D01*
X168870531Y-83306212D01*
X168935788Y-83371469D01*
X168935791Y-83371470D01*
X168935794Y-83371473D01*
X169015706Y-83417611D01*
X169015707Y-83417611D01*
X169015712Y-83417614D01*
X169104856Y-83441500D01*
X170610256Y-83441500D01*
X170677295Y-83461185D01*
X170697937Y-83477819D01*
X171263588Y-84043470D01*
X171343512Y-84089614D01*
X171432656Y-84113500D01*
X171432657Y-84113500D01*
X171524944Y-84113500D01*
X172648056Y-84113500D01*
X172677496Y-84122144D01*
X172707483Y-84128668D01*
X172712498Y-84132422D01*
X172715095Y-84133185D01*
X172735737Y-84149819D01*
X172773181Y-84187263D01*
X172806666Y-84248586D01*
X172809500Y-84274944D01*
X172809500Y-89945500D01*
X172789815Y-90012539D01*
X172737011Y-90058294D01*
X172685500Y-90069500D01*
X171213856Y-90069500D01*
X171124712Y-90093386D01*
X171124709Y-90093387D01*
X171044791Y-90139527D01*
X171044786Y-90139531D01*
X170169491Y-91014826D01*
X170169487Y-91014831D01*
X170137366Y-91070468D01*
X170137366Y-91070469D01*
X170123346Y-91094750D01*
X170099460Y-91183896D01*
X170099460Y-95721456D01*
X170079775Y-95788495D01*
X170063141Y-95809137D01*
X167101097Y-98771181D01*
X167039774Y-98804666D01*
X167013416Y-98807500D01*
X163164275Y-98807500D01*
X163075131Y-98831386D01*
X163075130Y-98831386D01*
X163075128Y-98831387D01*
X163075125Y-98831388D01*
X162995213Y-98877526D01*
X162995204Y-98877533D01*
X161804557Y-100068181D01*
X161743234Y-100101666D01*
X161716876Y-100104500D01*
X154299500Y-100104500D01*
X154232461Y-100084815D01*
X154186706Y-100032011D01*
X154180639Y-100015829D01*
X154175500Y-99998539D01*
X154175500Y-99980326D01*
X154160966Y-99907260D01*
X154138274Y-99873298D01*
X154132933Y-99855329D01*
X154132876Y-99838383D01*
X154127814Y-99822214D01*
X154132763Y-99804170D01*
X154132702Y-99785460D01*
X154141815Y-99771175D01*
X154146298Y-99754834D01*
X154148692Y-99751109D01*
X154160966Y-99732740D01*
X154175500Y-99659674D01*
X154175500Y-98710326D01*
X154175500Y-98710323D01*
X154175499Y-98710321D01*
X154160967Y-98637264D01*
X154160966Y-98637261D01*
X154160966Y-98637260D01*
X154148691Y-98618889D01*
X154127814Y-98552214D01*
X154146298Y-98484834D01*
X154148692Y-98481109D01*
X154160966Y-98462740D01*
X154175500Y-98389674D01*
X154175500Y-97440326D01*
X154175500Y-97440323D01*
X154175499Y-97440321D01*
X154160967Y-97367264D01*
X154160966Y-97367261D01*
X154160966Y-97367260D01*
X154148691Y-97348889D01*
X154127814Y-97282214D01*
X154146298Y-97214834D01*
X154148692Y-97211109D01*
X154160966Y-97192740D01*
X154175500Y-97119674D01*
X154175500Y-96170326D01*
X154175500Y-96170323D01*
X154175499Y-96170321D01*
X154160967Y-96097264D01*
X154160966Y-96097261D01*
X154160966Y-96097260D01*
X154148691Y-96078889D01*
X154127814Y-96012214D01*
X154146298Y-95944834D01*
X154148692Y-95941109D01*
X154160966Y-95922740D01*
X154175500Y-95849674D01*
X154175500Y-94900326D01*
X154175500Y-94900323D01*
X154175499Y-94900321D01*
X154160967Y-94827264D01*
X154160966Y-94827261D01*
X154160966Y-94827260D01*
X154148691Y-94808889D01*
X154127814Y-94742214D01*
X154146298Y-94674834D01*
X154148692Y-94671109D01*
X154160966Y-94652740D01*
X154175500Y-94579674D01*
X154175500Y-93630326D01*
X154175500Y-93630323D01*
X154175499Y-93630321D01*
X154160967Y-93557264D01*
X154160966Y-93557261D01*
X154160966Y-93557260D01*
X154148691Y-93538889D01*
X154127814Y-93472214D01*
X154146298Y-93404834D01*
X154148692Y-93401109D01*
X154160966Y-93382740D01*
X154175500Y-93309674D01*
X154175500Y-92360326D01*
X154175500Y-92360323D01*
X154175499Y-92360321D01*
X154160967Y-92287264D01*
X154160966Y-92287261D01*
X154160966Y-92287260D01*
X154148691Y-92268889D01*
X154127814Y-92202214D01*
X154146298Y-92134834D01*
X154148692Y-92131109D01*
X154160966Y-92112740D01*
X154175500Y-92039674D01*
X154175500Y-91090326D01*
X154175500Y-91090323D01*
X154175499Y-91090321D01*
X154160967Y-91017264D01*
X154160966Y-91017260D01*
X154159340Y-91014826D01*
X154105601Y-90934399D01*
X154022740Y-90879034D01*
X154022739Y-90879033D01*
X154022735Y-90879032D01*
X153949677Y-90864500D01*
X153949674Y-90864500D01*
X152400326Y-90864500D01*
X152400323Y-90864500D01*
X152327264Y-90879032D01*
X152327260Y-90879033D01*
X152244399Y-90934399D01*
X152189033Y-91017260D01*
X152189032Y-91017264D01*
X152174500Y-91090321D01*
X152174500Y-91090500D01*
X152174473Y-91090589D01*
X152173903Y-91096386D01*
X152172803Y-91096277D01*
X152154815Y-91157539D01*
X152102011Y-91203294D01*
X152050500Y-91214500D01*
X151516544Y-91214500D01*
X151449505Y-91194815D01*
X151428863Y-91178181D01*
X150889219Y-90638537D01*
X150855734Y-90577214D01*
X150852900Y-90550856D01*
X150852900Y-81747018D01*
X150872585Y-81679979D01*
X150925194Y-81634313D01*
X150938428Y-81628241D01*
X151000140Y-81615966D01*
X151076723Y-81564795D01*
X151085694Y-81560680D01*
X151110888Y-81557013D01*
X151135186Y-81549405D01*
X151144883Y-81552065D01*
G37*
%TD.AperFunction*%
%TA.AperFunction,Conductor*%
G36*
X154870495Y-79090185D02*
G01*
X154891137Y-79106819D01*
X155153181Y-79368862D01*
X155186666Y-79430185D01*
X155189500Y-79456543D01*
X155189500Y-86135500D01*
X155169815Y-86202539D01*
X155117011Y-86248294D01*
X155071320Y-86258233D01*
X155071386Y-86258903D01*
X155065645Y-86259468D01*
X155065500Y-86259500D01*
X155065323Y-86259500D01*
X154992264Y-86274032D01*
X154992261Y-86274033D01*
X154973889Y-86286309D01*
X154907211Y-86307185D01*
X154839831Y-86288699D01*
X154836111Y-86286309D01*
X154825612Y-86279294D01*
X154817740Y-86274034D01*
X154817739Y-86274033D01*
X154817738Y-86274033D01*
X154817735Y-86274032D01*
X154744677Y-86259500D01*
X154744674Y-86259500D01*
X153795326Y-86259500D01*
X153795323Y-86259500D01*
X153722264Y-86274032D01*
X153722260Y-86274033D01*
X153639399Y-86329399D01*
X153584033Y-86412260D01*
X153584032Y-86412264D01*
X153569500Y-86485321D01*
X153569500Y-86785500D01*
X153549815Y-86852539D01*
X153497011Y-86898294D01*
X153445500Y-86909500D01*
X152911544Y-86909500D01*
X152844505Y-86889815D01*
X152823863Y-86873181D01*
X152159219Y-86208537D01*
X152125734Y-86147214D01*
X152122900Y-86120856D01*
X152122900Y-81747018D01*
X152142585Y-81679979D01*
X152195194Y-81634313D01*
X152208428Y-81628241D01*
X152270140Y-81615966D01*
X152346723Y-81564795D01*
X152355694Y-81560680D01*
X152380888Y-81557013D01*
X152405186Y-81549405D01*
X152414883Y-81552065D01*
X152424835Y-81550617D01*
X152448011Y-81561152D01*
X152472567Y-81567889D01*
X152476248Y-81570255D01*
X152544660Y-81615966D01*
X152544662Y-81615966D01*
X152544664Y-81615967D01*
X152617721Y-81630499D01*
X152617724Y-81630500D01*
X152617726Y-81630500D01*
X153467076Y-81630500D01*
X153467077Y-81630499D01*
X153540140Y-81615966D01*
X153623001Y-81560601D01*
X153678366Y-81477740D01*
X153692900Y-81404674D01*
X153692900Y-79355326D01*
X153692900Y-79355323D01*
X153692899Y-79355321D01*
X153678367Y-79282264D01*
X153678366Y-79282262D01*
X153678366Y-79282260D01*
X153665757Y-79263390D01*
X153644880Y-79196714D01*
X153663364Y-79129333D01*
X153715343Y-79082643D01*
X153768860Y-79070500D01*
X154803456Y-79070500D01*
X154870495Y-79090185D01*
G37*
%TD.AperFunction*%
%TA.AperFunction,Conductor*%
G36*
X156708363Y-76990185D02*
G01*
X156729005Y-77006819D01*
X157273181Y-77550995D01*
X157306666Y-77612318D01*
X157309500Y-77638676D01*
X157309500Y-80924108D01*
X157309500Y-81055892D01*
X157325472Y-81115500D01*
X157343608Y-81183187D01*
X157376554Y-81240250D01*
X157409500Y-81297314D01*
X158659500Y-82547314D01*
X158752686Y-82640500D01*
X158866814Y-82706392D01*
X158994108Y-82740500D01*
X165559415Y-82740500D01*
X165626454Y-82760185D01*
X165672209Y-82812989D01*
X165682153Y-82882147D01*
X165668246Y-82923929D01*
X165666203Y-82927669D01*
X165615908Y-83062517D01*
X165609529Y-83121853D01*
X165609501Y-83122123D01*
X165609500Y-83122135D01*
X165609500Y-84517870D01*
X165609501Y-84517876D01*
X165615908Y-84577483D01*
X165666202Y-84712328D01*
X165666206Y-84712335D01*
X165752452Y-84827544D01*
X165752455Y-84827547D01*
X165867664Y-84913793D01*
X165867671Y-84913797D01*
X166002517Y-84964091D01*
X166002516Y-84964091D01*
X166009444Y-84964835D01*
X166062127Y-84970500D01*
X166982872Y-84970499D01*
X167042483Y-84964091D01*
X167177331Y-84913796D01*
X167292546Y-84827546D01*
X167378796Y-84712331D01*
X167429091Y-84577483D01*
X167435500Y-84517873D01*
X167435500Y-84444500D01*
X167455185Y-84377461D01*
X167507989Y-84331706D01*
X167559500Y-84320500D01*
X167816324Y-84320500D01*
X167883363Y-84340185D01*
X167904005Y-84356819D01*
X168973181Y-85425995D01*
X169006666Y-85487318D01*
X169009500Y-85513676D01*
X169009500Y-86176189D01*
X169007262Y-86183807D01*
X169008533Y-86191647D01*
X168997558Y-86216857D01*
X168989815Y-86243228D01*
X168983105Y-86250058D01*
X168980645Y-86255710D01*
X168954387Y-86279294D01*
X168943886Y-86286310D01*
X168877208Y-86307185D01*
X168809828Y-86288698D01*
X168806109Y-86286307D01*
X168787743Y-86274035D01*
X168787735Y-86274032D01*
X168714677Y-86259500D01*
X168714674Y-86259500D01*
X167765326Y-86259500D01*
X167765323Y-86259500D01*
X167692264Y-86274032D01*
X167692261Y-86274033D01*
X167673889Y-86286309D01*
X167607211Y-86307185D01*
X167539831Y-86288699D01*
X167536111Y-86286309D01*
X167525612Y-86279294D01*
X167517740Y-86274034D01*
X167517739Y-86274033D01*
X167517738Y-86274033D01*
X167517735Y-86274032D01*
X167444677Y-86259500D01*
X167444674Y-86259500D01*
X166495326Y-86259500D01*
X166495323Y-86259500D01*
X166422264Y-86274032D01*
X166422261Y-86274033D01*
X166403889Y-86286309D01*
X166337211Y-86307185D01*
X166269831Y-86288699D01*
X166266111Y-86286309D01*
X166255612Y-86279294D01*
X166247740Y-86274034D01*
X166247739Y-86274033D01*
X166247738Y-86274033D01*
X166247735Y-86274032D01*
X166174677Y-86259500D01*
X166174674Y-86259500D01*
X165225326Y-86259500D01*
X165225323Y-86259500D01*
X165152264Y-86274032D01*
X165152261Y-86274033D01*
X165133889Y-86286309D01*
X165067211Y-86307185D01*
X164999831Y-86288699D01*
X164996111Y-86286309D01*
X164985612Y-86279294D01*
X164977740Y-86274034D01*
X164977739Y-86274033D01*
X164977738Y-86274033D01*
X164977735Y-86274032D01*
X164904677Y-86259500D01*
X164904674Y-86259500D01*
X163955326Y-86259500D01*
X163955323Y-86259500D01*
X163882264Y-86274032D01*
X163882261Y-86274033D01*
X163863889Y-86286309D01*
X163797211Y-86307185D01*
X163729831Y-86288699D01*
X163726111Y-86286309D01*
X163715612Y-86279294D01*
X163707740Y-86274034D01*
X163707739Y-86274033D01*
X163707738Y-86274033D01*
X163707735Y-86274032D01*
X163634677Y-86259500D01*
X163634674Y-86259500D01*
X162685326Y-86259500D01*
X162685323Y-86259500D01*
X162612264Y-86274032D01*
X162612261Y-86274033D01*
X162593889Y-86286309D01*
X162527211Y-86307185D01*
X162459831Y-86288699D01*
X162456111Y-86286309D01*
X162445612Y-86279294D01*
X162437740Y-86274034D01*
X162437739Y-86274033D01*
X162437738Y-86274033D01*
X162437735Y-86274032D01*
X162364677Y-86259500D01*
X162364674Y-86259500D01*
X161415326Y-86259500D01*
X161415323Y-86259500D01*
X161342264Y-86274032D01*
X161342261Y-86274033D01*
X161323889Y-86286309D01*
X161257211Y-86307185D01*
X161189831Y-86288699D01*
X161186111Y-86286309D01*
X161175612Y-86279294D01*
X161167740Y-86274034D01*
X161167739Y-86274033D01*
X161167738Y-86274033D01*
X161167735Y-86274032D01*
X161094677Y-86259500D01*
X161094674Y-86259500D01*
X160145326Y-86259500D01*
X160145323Y-86259500D01*
X160072264Y-86274032D01*
X160072261Y-86274033D01*
X160053889Y-86286309D01*
X159987211Y-86307185D01*
X159919831Y-86288699D01*
X159916111Y-86286309D01*
X159905612Y-86279294D01*
X159897740Y-86274034D01*
X159897739Y-86274033D01*
X159897738Y-86274033D01*
X159897735Y-86274032D01*
X159824677Y-86259500D01*
X159824674Y-86259500D01*
X158875326Y-86259500D01*
X158875323Y-86259500D01*
X158802264Y-86274032D01*
X158802261Y-86274033D01*
X158783889Y-86286309D01*
X158717211Y-86307185D01*
X158649831Y-86288699D01*
X158646111Y-86286309D01*
X158635612Y-86279294D01*
X158627740Y-86274034D01*
X158627739Y-86274033D01*
X158627738Y-86274033D01*
X158627735Y-86274032D01*
X158554677Y-86259500D01*
X158554674Y-86259500D01*
X157605326Y-86259500D01*
X157605323Y-86259500D01*
X157532264Y-86274032D01*
X157532261Y-86274033D01*
X157513889Y-86286309D01*
X157447211Y-86307185D01*
X157379831Y-86288699D01*
X157376111Y-86286309D01*
X157365612Y-86279294D01*
X157357740Y-86274034D01*
X157357739Y-86274033D01*
X157357738Y-86274033D01*
X157357735Y-86274032D01*
X157284677Y-86259500D01*
X157284674Y-86259500D01*
X156335326Y-86259500D01*
X156335323Y-86259500D01*
X156262264Y-86274032D01*
X156262261Y-86274033D01*
X156243889Y-86286309D01*
X156177211Y-86307185D01*
X156139671Y-86302066D01*
X156121698Y-86296724D01*
X156087740Y-86274034D01*
X156014674Y-86259500D01*
X155996461Y-86259500D01*
X155979171Y-86254361D01*
X155964371Y-86244780D01*
X155947461Y-86239815D01*
X155935655Y-86226190D01*
X155920519Y-86216392D01*
X155913248Y-86200331D01*
X155901706Y-86187011D01*
X155896606Y-86163569D01*
X155891704Y-86152740D01*
X155892731Y-86145757D01*
X155890500Y-86135500D01*
X155890500Y-79213858D01*
X155890500Y-79213856D01*
X155866614Y-79124712D01*
X155866611Y-79124706D01*
X155820473Y-79044794D01*
X155820470Y-79044791D01*
X155820469Y-79044788D01*
X155755212Y-78979531D01*
X155215212Y-78439530D01*
X155215211Y-78439529D01*
X155215208Y-78439527D01*
X155135290Y-78393387D01*
X155135289Y-78393386D01*
X155135288Y-78393386D01*
X155046144Y-78369500D01*
X149483856Y-78369500D01*
X149394712Y-78393386D01*
X149394709Y-78393387D01*
X149314791Y-78439527D01*
X149314786Y-78439531D01*
X148951931Y-78802386D01*
X148951930Y-78802388D01*
X148915472Y-78865536D01*
X148905786Y-78882312D01*
X148881900Y-78971456D01*
X148881900Y-79027631D01*
X148878487Y-79041875D01*
X148868096Y-79059989D01*
X148862215Y-79080020D01*
X148851065Y-79089681D01*
X148843723Y-79102482D01*
X148825189Y-79112103D01*
X148809411Y-79125775D01*
X148782092Y-79134598D01*
X148734663Y-79144032D01*
X148734660Y-79144033D01*
X148686187Y-79176421D01*
X148666288Y-79189717D01*
X148599612Y-79210594D01*
X148532232Y-79192109D01*
X148528526Y-79189727D01*
X148490702Y-79164454D01*
X148460139Y-79144033D01*
X148460135Y-79144032D01*
X148387077Y-79129500D01*
X148387074Y-79129500D01*
X147537726Y-79129500D01*
X147537723Y-79129500D01*
X147464664Y-79144032D01*
X147464660Y-79144033D01*
X147416187Y-79176421D01*
X147396288Y-79189717D01*
X147329612Y-79210594D01*
X147262232Y-79192109D01*
X147258526Y-79189727D01*
X147220702Y-79164454D01*
X147190139Y-79144033D01*
X147190135Y-79144032D01*
X147117077Y-79129500D01*
X147117074Y-79129500D01*
X146267726Y-79129500D01*
X146267723Y-79129500D01*
X146194664Y-79144032D01*
X146194660Y-79144033D01*
X146146187Y-79176421D01*
X146126288Y-79189717D01*
X146107212Y-79195690D01*
X146090205Y-79206196D01*
X146074551Y-79205916D01*
X146059612Y-79210594D01*
X146040333Y-79205305D01*
X146020346Y-79204948D01*
X145995227Y-79192930D01*
X145992232Y-79192109D01*
X145988538Y-79189735D01*
X145978006Y-79182698D01*
X145933204Y-79129087D01*
X145933203Y-79129082D01*
X145922900Y-79079598D01*
X145922900Y-77556276D01*
X145942585Y-77489237D01*
X145959219Y-77468595D01*
X146420995Y-77006819D01*
X146482318Y-76973334D01*
X146508676Y-76970500D01*
X156641324Y-76970500D01*
X156708363Y-76990185D01*
G37*
%TD.AperFunction*%
%TA.AperFunction,Conductor*%
G36*
X216993243Y-51830669D02*
G01*
X217270182Y-51845184D01*
X217277575Y-51845794D01*
X217339875Y-51852813D01*
X217345353Y-51853555D01*
X217587128Y-51891848D01*
X217595289Y-51893423D01*
X217650830Y-51906100D01*
X217655181Y-51907179D01*
X217898157Y-51972284D01*
X217906999Y-51975013D01*
X217949629Y-51989930D01*
X217953079Y-51991195D01*
X218199378Y-52085739D01*
X218208711Y-52089770D01*
X218229307Y-52099689D01*
X218231754Y-52100900D01*
X218483968Y-52229411D01*
X218495203Y-52235898D01*
X218747608Y-52399812D01*
X218758109Y-52407441D01*
X218992010Y-52596850D01*
X219001655Y-52605535D01*
X219214464Y-52818344D01*
X219223149Y-52827989D01*
X219412558Y-53061890D01*
X219420187Y-53072391D01*
X219584101Y-53324796D01*
X219590591Y-53336036D01*
X219719075Y-53588199D01*
X219720309Y-53590691D01*
X219730223Y-53611277D01*
X219734268Y-53620643D01*
X219828791Y-53866887D01*
X219830068Y-53870369D01*
X219844985Y-53912999D01*
X219847719Y-53921860D01*
X219912806Y-54164766D01*
X219913923Y-54169269D01*
X219926569Y-54224679D01*
X219928150Y-54232872D01*
X219966440Y-54474627D01*
X219967187Y-54480142D01*
X219974204Y-54542424D01*
X219974814Y-54549816D01*
X219989330Y-54826755D01*
X219989500Y-54833246D01*
X219989500Y-125536753D01*
X219989330Y-125543244D01*
X219974814Y-125820182D01*
X219974204Y-125827574D01*
X219967187Y-125889856D01*
X219966440Y-125895371D01*
X219928150Y-126137126D01*
X219926569Y-126145319D01*
X219913923Y-126200729D01*
X219912806Y-126205232D01*
X219847719Y-126448138D01*
X219844985Y-126456999D01*
X219830068Y-126499629D01*
X219828791Y-126503111D01*
X219734268Y-126749355D01*
X219730223Y-126758721D01*
X219720309Y-126779307D01*
X219719075Y-126781799D01*
X219590591Y-127033964D01*
X219584105Y-127045197D01*
X219498881Y-127176432D01*
X219420187Y-127297609D01*
X219412558Y-127308109D01*
X219223149Y-127542010D01*
X219214464Y-127551655D01*
X219001655Y-127764464D01*
X218992010Y-127773149D01*
X218758109Y-127962558D01*
X218747609Y-127970187D01*
X218495197Y-128134105D01*
X218483964Y-128140591D01*
X218231799Y-128269075D01*
X218229307Y-128270309D01*
X218208721Y-128280223D01*
X218199355Y-128284268D01*
X217953111Y-128378791D01*
X217949629Y-128380068D01*
X217906999Y-128394985D01*
X217898138Y-128397719D01*
X217655232Y-128462806D01*
X217650729Y-128463923D01*
X217595319Y-128476569D01*
X217587126Y-128478150D01*
X217345371Y-128516440D01*
X217339856Y-128517187D01*
X217277574Y-128524204D01*
X217270182Y-128524814D01*
X216993244Y-128539330D01*
X216986753Y-128539500D01*
X129773246Y-128539500D01*
X129766757Y-128539330D01*
X129756676Y-128538801D01*
X129489816Y-128524814D01*
X129482424Y-128524204D01*
X129420142Y-128517187D01*
X129414627Y-128516440D01*
X129172872Y-128478150D01*
X129164679Y-128476569D01*
X129136044Y-128470033D01*
X129109245Y-128463917D01*
X129104766Y-128462806D01*
X128861860Y-128397719D01*
X128852999Y-128394985D01*
X128810369Y-128380068D01*
X128806887Y-128378791D01*
X128560643Y-128284268D01*
X128551277Y-128280223D01*
X128530691Y-128270309D01*
X128528199Y-128269075D01*
X128276036Y-128140591D01*
X128264796Y-128134101D01*
X128012391Y-127970187D01*
X128001890Y-127962558D01*
X127767989Y-127773149D01*
X127758344Y-127764464D01*
X127545535Y-127551655D01*
X127536850Y-127542010D01*
X127347441Y-127308109D01*
X127339812Y-127297608D01*
X127261119Y-127176432D01*
X127175896Y-127045199D01*
X127169408Y-127033963D01*
X127103223Y-126904068D01*
X127040900Y-126781754D01*
X127039689Y-126779307D01*
X127029775Y-126758721D01*
X127025739Y-126749378D01*
X126931195Y-126503079D01*
X126929930Y-126499629D01*
X126915013Y-126456999D01*
X126912284Y-126448157D01*
X126847179Y-126205181D01*
X126846100Y-126200830D01*
X126833423Y-126145289D01*
X126831848Y-126137126D01*
X126793555Y-125895353D01*
X126792811Y-125889856D01*
X126785794Y-125827574D01*
X126785184Y-125820181D01*
X126770670Y-125543243D01*
X126770500Y-125536753D01*
X126770500Y-114553856D01*
X128459500Y-114553856D01*
X128459500Y-122956143D01*
X128481844Y-123039532D01*
X128481845Y-123039536D01*
X128483386Y-123045288D01*
X128483387Y-123045291D01*
X128529527Y-123125208D01*
X128529529Y-123125211D01*
X128529530Y-123125212D01*
X128954788Y-123550470D01*
X129034712Y-123596614D01*
X129123856Y-123620500D01*
X129123858Y-123620500D01*
X138246142Y-123620500D01*
X138246144Y-123620500D01*
X138335288Y-123596614D01*
X138415212Y-123550470D01*
X139114220Y-122851462D01*
X139160364Y-122771538D01*
X139184250Y-122682394D01*
X139184250Y-122590106D01*
X139184250Y-121727351D01*
X139203935Y-121660312D01*
X139256739Y-121614557D01*
X139294997Y-121604061D01*
X139341233Y-121599091D01*
X139476081Y-121548796D01*
X139591296Y-121462546D01*
X139677546Y-121347331D01*
X139727841Y-121212483D01*
X139734250Y-121152873D01*
X139734249Y-119807128D01*
X139727841Y-119747517D01*
X139721510Y-119730544D01*
X139677546Y-119612669D01*
X139677543Y-119612664D01*
X139591297Y-119497455D01*
X139591294Y-119497452D01*
X139476085Y-119411206D01*
X139476078Y-119411202D01*
X139341232Y-119360908D01*
X139341233Y-119360908D01*
X139281633Y-119354501D01*
X139281631Y-119354500D01*
X139281623Y-119354500D01*
X139281614Y-119354500D01*
X138385879Y-119354500D01*
X138385873Y-119354501D01*
X138326266Y-119360908D01*
X138191421Y-119411202D01*
X138191414Y-119411206D01*
X138076205Y-119497452D01*
X138076202Y-119497455D01*
X137989956Y-119612664D01*
X137989954Y-119612669D01*
X137939658Y-119747517D01*
X137936023Y-119781332D01*
X137933251Y-119807123D01*
X137933250Y-119807135D01*
X137933250Y-121152870D01*
X137933251Y-121152876D01*
X137939658Y-121212483D01*
X137989952Y-121347328D01*
X137989956Y-121347335D01*
X138076202Y-121462544D01*
X138076205Y-121462547D01*
X138191414Y-121548793D01*
X138191421Y-121548797D01*
X138326266Y-121599091D01*
X138372507Y-121604063D01*
X138437057Y-121630801D01*
X138476905Y-121688194D01*
X138483250Y-121727352D01*
X138483250Y-122439706D01*
X138463565Y-122506745D01*
X138446931Y-122527387D01*
X138091137Y-122883181D01*
X138029814Y-122916666D01*
X138003456Y-122919500D01*
X129366544Y-122919500D01*
X129299505Y-122899815D01*
X129278863Y-122883181D01*
X129196819Y-122801137D01*
X129163334Y-122739814D01*
X129160500Y-122713456D01*
X129160500Y-119440636D01*
X129180185Y-119373597D01*
X129232989Y-119327842D01*
X129302147Y-119317898D01*
X129365703Y-119346923D01*
X129399059Y-119393181D01*
X129413534Y-119428124D01*
X129413536Y-119428129D01*
X129413538Y-119428133D01*
X129484723Y-119534668D01*
X129484726Y-119534672D01*
X129556024Y-119605970D01*
X129589509Y-119667293D01*
X129584525Y-119736985D01*
X129556025Y-119781332D01*
X129485701Y-119851656D01*
X129485701Y-119851657D01*
X129485700Y-119851658D01*
X129477750Y-119867261D01*
X129428102Y-119964698D01*
X129413250Y-120058475D01*
X129413250Y-120421517D01*
X129418587Y-120455211D01*
X129428104Y-120515304D01*
X129485700Y-120628342D01*
X129485702Y-120628344D01*
X129485704Y-120628347D01*
X129575402Y-120718045D01*
X129575404Y-120718046D01*
X129575408Y-120718050D01*
X129688444Y-120775645D01*
X129688448Y-120775647D01*
X129782225Y-120790499D01*
X129782231Y-120790500D01*
X131020268Y-120790499D01*
X131114054Y-120775646D01*
X131128023Y-120768528D01*
X131196688Y-120755632D01*
X131261429Y-120781907D01*
X131301687Y-120839012D01*
X131304518Y-120905039D01*
X131304630Y-120905057D01*
X131304543Y-120905605D01*
X131304681Y-120908818D01*
X131303231Y-120913888D01*
X131288250Y-121008475D01*
X131288250Y-121371517D01*
X131299010Y-121439455D01*
X131303104Y-121465304D01*
X131360700Y-121578342D01*
X131360702Y-121578344D01*
X131360704Y-121578347D01*
X131450402Y-121668045D01*
X131450404Y-121668046D01*
X131450408Y-121668050D01*
X131563444Y-121725645D01*
X131563448Y-121725647D01*
X131657225Y-121740499D01*
X131657231Y-121740500D01*
X132895268Y-121740499D01*
X132989054Y-121725646D01*
X133102092Y-121668050D01*
X133140910Y-121629232D01*
X133193324Y-121576819D01*
X133254647Y-121543334D01*
X133281005Y-121540500D01*
X134119892Y-121540500D01*
X134119894Y-121540500D01*
X134209038Y-121516614D01*
X134238680Y-121499500D01*
X134288962Y-121470470D01*
X134444220Y-121315212D01*
X134490364Y-121235288D01*
X134491864Y-121229685D01*
X134491871Y-121229675D01*
X134491868Y-121229675D01*
X134499161Y-121202455D01*
X134514250Y-121146144D01*
X134514250Y-120824500D01*
X134516800Y-120815814D01*
X134515512Y-120806853D01*
X134526490Y-120782812D01*
X134533935Y-120757461D01*
X134540775Y-120751533D01*
X134544537Y-120743297D01*
X134566771Y-120729007D01*
X134586739Y-120711706D01*
X134597253Y-120709418D01*
X134603315Y-120705523D01*
X134638250Y-120700500D01*
X134709251Y-120700500D01*
X134776290Y-120720185D01*
X134822045Y-120772989D01*
X134833251Y-120824500D01*
X134833251Y-121152876D01*
X134839658Y-121212483D01*
X134889952Y-121347328D01*
X134889956Y-121347335D01*
X134976202Y-121462544D01*
X134976205Y-121462547D01*
X135091414Y-121548793D01*
X135091421Y-121548797D01*
X135226267Y-121599091D01*
X135226266Y-121599091D01*
X135233194Y-121599835D01*
X135285877Y-121605500D01*
X136181622Y-121605499D01*
X136241233Y-121599091D01*
X136376081Y-121548796D01*
X136491296Y-121462546D01*
X136577546Y-121347331D01*
X136627841Y-121212483D01*
X136634250Y-121152873D01*
X136634249Y-119807128D01*
X136627841Y-119747517D01*
X136621510Y-119730544D01*
X136577546Y-119612669D01*
X136577543Y-119612664D01*
X136491297Y-119497455D01*
X136491294Y-119497452D01*
X136376085Y-119411206D01*
X136376080Y-119411203D01*
X136315341Y-119388549D01*
X136259408Y-119346677D01*
X136234991Y-119281213D01*
X136249843Y-119212940D01*
X136270986Y-119184694D01*
X136498865Y-118956816D01*
X136560186Y-118923334D01*
X136586544Y-118920500D01*
X142586142Y-118920500D01*
X142586144Y-118920500D01*
X142675288Y-118896614D01*
X142686300Y-118890256D01*
X142755212Y-118850470D01*
X144368862Y-117236818D01*
X144430185Y-117203334D01*
X144456543Y-117200500D01*
X146916142Y-117200500D01*
X146916144Y-117200500D01*
X147005288Y-117176614D01*
X147033198Y-117160500D01*
X147085212Y-117130470D01*
X147730470Y-116485212D01*
X147776614Y-116405288D01*
X147780298Y-116391538D01*
X147780299Y-116391537D01*
X147787159Y-116365931D01*
X147800500Y-116316144D01*
X147800500Y-114936544D01*
X147820185Y-114869505D01*
X147836819Y-114848863D01*
X148058863Y-114626819D01*
X148120186Y-114593334D01*
X148146544Y-114590500D01*
X150262007Y-114590500D01*
X150314411Y-114602117D01*
X150330240Y-114609499D01*
X150375821Y-114615500D01*
X151124178Y-114615499D01*
X151124180Y-114615499D01*
X151139372Y-114613499D01*
X151169760Y-114609499D01*
X151169766Y-114609495D01*
X151178872Y-114606843D01*
X151179893Y-114610347D01*
X151231227Y-114602538D01*
X151295018Y-114631042D01*
X151333272Y-114689510D01*
X151333843Y-114759377D01*
X151333037Y-114761537D01*
X151330500Y-114770241D01*
X151324501Y-114815811D01*
X151324500Y-114815827D01*
X151324500Y-115564180D01*
X151330500Y-115609756D01*
X151330502Y-115609763D01*
X151375689Y-115706666D01*
X151377150Y-115709799D01*
X151455201Y-115787850D01*
X151555240Y-115834499D01*
X151600821Y-115840500D01*
X151799178Y-115840499D01*
X151799180Y-115840499D01*
X151814372Y-115838499D01*
X151844760Y-115834499D01*
X151897597Y-115809860D01*
X151966671Y-115799369D01*
X152002401Y-115809859D01*
X152055240Y-115834499D01*
X152100821Y-115840500D01*
X152299178Y-115840499D01*
X152299180Y-115840499D01*
X152314372Y-115838499D01*
X152344760Y-115834499D01*
X152444799Y-115787850D01*
X152522850Y-115709799D01*
X152569499Y-115609760D01*
X152575500Y-115564179D01*
X152575499Y-114815822D01*
X152574475Y-114808045D01*
X152569499Y-114770243D01*
X152569499Y-114770240D01*
X152522850Y-114670201D01*
X152444799Y-114592150D01*
X152344760Y-114545501D01*
X152344758Y-114545500D01*
X152299188Y-114539501D01*
X152299185Y-114539500D01*
X152299179Y-114539500D01*
X152299172Y-114539500D01*
X152100819Y-114539500D01*
X152055243Y-114545500D01*
X152055238Y-114545501D01*
X152002403Y-114570139D01*
X151933325Y-114580630D01*
X151897595Y-114570138D01*
X151844759Y-114545500D01*
X151799188Y-114539501D01*
X151799185Y-114539500D01*
X151799179Y-114539500D01*
X151799172Y-114539500D01*
X151600819Y-114539500D01*
X151555243Y-114545500D01*
X151546128Y-114548157D01*
X151545111Y-114544670D01*
X151493627Y-114552441D01*
X151429869Y-114523861D01*
X151391685Y-114465349D01*
X151391197Y-114395481D01*
X151391998Y-114393337D01*
X151394497Y-114384763D01*
X151394499Y-114384760D01*
X151400500Y-114339179D01*
X151400499Y-114140822D01*
X151400215Y-114138667D01*
X151396485Y-114110327D01*
X151394499Y-114095240D01*
X151369860Y-114042403D01*
X151359369Y-113973327D01*
X151369858Y-113937601D01*
X151394499Y-113884760D01*
X151400500Y-113839179D01*
X151400499Y-113640822D01*
X151400301Y-113639319D01*
X151394499Y-113595243D01*
X151394499Y-113595240D01*
X151369860Y-113542403D01*
X151359369Y-113473327D01*
X151369858Y-113437601D01*
X151394499Y-113384760D01*
X151400500Y-113339179D01*
X151400499Y-113140822D01*
X151394499Y-113095240D01*
X151369860Y-113042403D01*
X151359369Y-112973327D01*
X151369858Y-112937601D01*
X151394499Y-112884760D01*
X151400500Y-112839179D01*
X151400499Y-112640822D01*
X151394499Y-112595240D01*
X151369860Y-112542403D01*
X151359369Y-112473327D01*
X151369858Y-112437601D01*
X151394499Y-112384760D01*
X151400500Y-112339179D01*
X151400499Y-112140822D01*
X151394499Y-112095240D01*
X151369860Y-112042403D01*
X151359369Y-111973327D01*
X151369858Y-111937601D01*
X151394499Y-111884760D01*
X151400500Y-111839179D01*
X151400499Y-111640822D01*
X151394499Y-111595240D01*
X151369860Y-111542403D01*
X151359369Y-111473327D01*
X151369858Y-111437601D01*
X151394499Y-111384760D01*
X151400500Y-111339179D01*
X151400499Y-111140822D01*
X151399798Y-111135500D01*
X151394499Y-111095243D01*
X151394499Y-111095240D01*
X151394496Y-111095235D01*
X151391843Y-111086128D01*
X151395341Y-111085108D01*
X151387544Y-111033726D01*
X151416073Y-110969946D01*
X151474554Y-110931714D01*
X151544422Y-110931169D01*
X151546578Y-110931974D01*
X151555238Y-110934498D01*
X151555240Y-110934499D01*
X151600821Y-110940500D01*
X151799178Y-110940499D01*
X151799180Y-110940499D01*
X151814372Y-110938499D01*
X151844760Y-110934499D01*
X151897597Y-110909860D01*
X151966671Y-110899369D01*
X152002401Y-110909859D01*
X152055240Y-110934499D01*
X152100821Y-110940500D01*
X152299178Y-110940499D01*
X152299180Y-110940499D01*
X152314372Y-110938499D01*
X152344760Y-110934499D01*
X152397597Y-110909860D01*
X152466671Y-110899369D01*
X152502401Y-110909859D01*
X152555240Y-110934499D01*
X152600821Y-110940500D01*
X152799178Y-110940499D01*
X152799180Y-110940499D01*
X152814372Y-110938499D01*
X152844760Y-110934499D01*
X152897597Y-110909860D01*
X152966671Y-110899369D01*
X153002401Y-110909859D01*
X153055240Y-110934499D01*
X153100821Y-110940500D01*
X153299178Y-110940499D01*
X153299180Y-110940499D01*
X153314372Y-110938499D01*
X153344760Y-110934499D01*
X153397597Y-110909860D01*
X153466671Y-110899369D01*
X153502401Y-110909859D01*
X153555240Y-110934499D01*
X153600821Y-110940500D01*
X153799178Y-110940499D01*
X153799180Y-110940499D01*
X153814372Y-110938499D01*
X153844760Y-110934499D01*
X153897597Y-110909860D01*
X153966671Y-110899369D01*
X154002401Y-110909859D01*
X154055240Y-110934499D01*
X154100821Y-110940500D01*
X154299178Y-110940499D01*
X154299180Y-110940499D01*
X154314372Y-110938499D01*
X154344760Y-110934499D01*
X154397597Y-110909860D01*
X154466671Y-110899369D01*
X154502401Y-110909859D01*
X154555240Y-110934499D01*
X154600821Y-110940500D01*
X154799178Y-110940499D01*
X154799180Y-110940499D01*
X154814372Y-110938499D01*
X154844760Y-110934499D01*
X154844766Y-110934495D01*
X154853872Y-110931843D01*
X154854893Y-110935347D01*
X154906227Y-110927538D01*
X154970018Y-110956042D01*
X155008272Y-111014510D01*
X155008843Y-111084377D01*
X155008037Y-111086537D01*
X155005500Y-111095241D01*
X154999501Y-111140811D01*
X154999500Y-111140827D01*
X154999500Y-111339180D01*
X155005500Y-111384756D01*
X155005503Y-111384766D01*
X155030138Y-111437596D01*
X155040630Y-111506673D01*
X155030139Y-111542404D01*
X155005500Y-111595243D01*
X154999501Y-111640811D01*
X154999500Y-111640827D01*
X154999500Y-111839180D01*
X155005500Y-111884756D01*
X155005503Y-111884766D01*
X155030138Y-111937596D01*
X155040630Y-112006673D01*
X155030139Y-112042404D01*
X155005500Y-112095243D01*
X154999501Y-112140811D01*
X154999500Y-112140823D01*
X154999500Y-112339180D01*
X155005500Y-112384756D01*
X155005503Y-112384766D01*
X155030138Y-112437596D01*
X155040630Y-112506673D01*
X155030139Y-112542403D01*
X155013752Y-112577547D01*
X155005500Y-112595243D01*
X154999501Y-112640811D01*
X154999500Y-112640827D01*
X154999500Y-112839180D01*
X155005500Y-112884756D01*
X155005503Y-112884766D01*
X155030138Y-112937596D01*
X155040630Y-113006673D01*
X155030139Y-113042403D01*
X155006886Y-113092271D01*
X155005500Y-113095243D01*
X154999501Y-113140811D01*
X154999500Y-113140827D01*
X154999500Y-113339180D01*
X155005500Y-113384756D01*
X155005503Y-113384766D01*
X155030138Y-113437596D01*
X155040630Y-113506673D01*
X155030139Y-113542403D01*
X155009831Y-113585956D01*
X155005500Y-113595243D01*
X154999501Y-113640811D01*
X154999500Y-113640827D01*
X154999500Y-113839180D01*
X155005500Y-113884756D01*
X155005503Y-113884766D01*
X155030138Y-113937596D01*
X155040630Y-114006673D01*
X155030139Y-114042403D01*
X155010252Y-114085053D01*
X155005500Y-114095243D01*
X154999501Y-114140811D01*
X154999500Y-114140827D01*
X154999500Y-114339180D01*
X155005500Y-114384756D01*
X155008157Y-114393872D01*
X155004665Y-114394889D01*
X155012448Y-114446326D01*
X154983892Y-114510094D01*
X154925393Y-114548301D01*
X154855526Y-114548815D01*
X154853379Y-114548013D01*
X154844758Y-114545500D01*
X154799188Y-114539501D01*
X154799185Y-114539500D01*
X154799179Y-114539500D01*
X154799172Y-114539500D01*
X154600819Y-114539500D01*
X154555243Y-114545500D01*
X154555238Y-114545501D01*
X154502403Y-114570139D01*
X154433325Y-114580630D01*
X154397595Y-114570138D01*
X154344759Y-114545500D01*
X154299188Y-114539501D01*
X154299185Y-114539500D01*
X154299179Y-114539500D01*
X154299172Y-114539500D01*
X154100819Y-114539500D01*
X154055243Y-114545500D01*
X154055238Y-114545501D01*
X154002403Y-114570139D01*
X153933325Y-114580630D01*
X153897595Y-114570138D01*
X153844759Y-114545500D01*
X153799188Y-114539501D01*
X153799185Y-114539500D01*
X153799179Y-114539500D01*
X153799172Y-114539500D01*
X153600819Y-114539500D01*
X153555243Y-114545500D01*
X153555238Y-114545501D01*
X153502403Y-114570139D01*
X153433325Y-114580630D01*
X153397595Y-114570138D01*
X153344759Y-114545500D01*
X153299188Y-114539501D01*
X153299185Y-114539500D01*
X153299179Y-114539500D01*
X153299172Y-114539500D01*
X153100819Y-114539500D01*
X153055243Y-114545500D01*
X153055236Y-114545502D01*
X152955200Y-114592150D01*
X152877150Y-114670200D01*
X152830500Y-114770241D01*
X152824501Y-114815811D01*
X152824500Y-114815827D01*
X152824500Y-115564180D01*
X152830500Y-115609756D01*
X152830501Y-115609760D01*
X152832882Y-115614867D01*
X152844500Y-115667270D01*
X152844500Y-117177391D01*
X152824815Y-117244430D01*
X152772011Y-117290185D01*
X152702853Y-117300129D01*
X152688408Y-117297166D01*
X152622476Y-117279500D01*
X152622475Y-117279500D01*
X152477525Y-117279500D01*
X152348993Y-117313940D01*
X152337511Y-117317017D01*
X152211988Y-117389488D01*
X152211982Y-117389493D01*
X152109493Y-117491982D01*
X152109488Y-117491988D01*
X152037017Y-117617511D01*
X152037016Y-117617515D01*
X151999500Y-117757525D01*
X151999500Y-117902475D01*
X152037016Y-118042485D01*
X152037017Y-118042488D01*
X152109488Y-118168011D01*
X152109490Y-118168013D01*
X152109491Y-118168015D01*
X152211985Y-118270509D01*
X152211986Y-118270510D01*
X152211988Y-118270511D01*
X152337511Y-118342982D01*
X152337512Y-118342982D01*
X152337515Y-118342984D01*
X152394045Y-118358131D01*
X152453704Y-118394495D01*
X152484233Y-118457342D01*
X152475938Y-118526717D01*
X152449631Y-118565586D01*
X151584531Y-119430686D01*
X151584525Y-119430694D01*
X151556632Y-119479006D01*
X151556629Y-119479013D01*
X151549998Y-119490500D01*
X151538386Y-119510612D01*
X151514500Y-119599756D01*
X151514500Y-119610363D01*
X151508724Y-119628372D01*
X151495123Y-119648424D01*
X151485322Y-119670581D01*
X151475864Y-119676819D01*
X151469505Y-119686196D01*
X151447224Y-119695710D01*
X151426998Y-119709053D01*
X151410028Y-119711595D01*
X151405249Y-119713637D01*
X151401096Y-119712934D01*
X151390649Y-119714500D01*
X151339500Y-119714500D01*
X151272461Y-119694815D01*
X151226706Y-119642011D01*
X151215500Y-119590500D01*
X151215500Y-118278858D01*
X151215500Y-118278856D01*
X151191614Y-118189712D01*
X151165139Y-118143856D01*
X151145470Y-118109788D01*
X150565212Y-117529530D01*
X150565211Y-117529529D01*
X150565208Y-117529527D01*
X150485290Y-117483387D01*
X150485289Y-117483386D01*
X150485288Y-117483386D01*
X150396144Y-117459500D01*
X145973856Y-117459500D01*
X145884712Y-117483386D01*
X145884709Y-117483387D01*
X145804791Y-117529527D01*
X145804786Y-117529531D01*
X144174531Y-119159786D01*
X144174527Y-119159791D01*
X144128387Y-119239709D01*
X144128386Y-119239712D01*
X144104500Y-119328856D01*
X144104500Y-120935500D01*
X144084815Y-121002539D01*
X144032011Y-121048294D01*
X143980502Y-121059500D01*
X143917130Y-121059500D01*
X143917123Y-121059501D01*
X143857516Y-121065908D01*
X143722671Y-121116202D01*
X143722664Y-121116206D01*
X143607455Y-121202452D01*
X143607452Y-121202455D01*
X143521206Y-121317664D01*
X143521202Y-121317671D01*
X143470908Y-121452517D01*
X143464501Y-121512116D01*
X143464501Y-121512123D01*
X143464500Y-121512135D01*
X143464500Y-122407870D01*
X143464501Y-122407876D01*
X143470908Y-122467483D01*
X143521202Y-122602328D01*
X143521206Y-122602335D01*
X143607452Y-122717544D01*
X143607455Y-122717547D01*
X143722664Y-122803793D01*
X143722671Y-122803797D01*
X143857517Y-122854091D01*
X143857516Y-122854091D01*
X143864444Y-122854835D01*
X143917127Y-122860500D01*
X145262872Y-122860499D01*
X145322483Y-122854091D01*
X145457331Y-122803796D01*
X145572546Y-122717546D01*
X145658796Y-122602331D01*
X145709091Y-122467483D01*
X145715500Y-122407873D01*
X145715499Y-121512128D01*
X145709091Y-121452517D01*
X145705612Y-121443190D01*
X145658797Y-121317671D01*
X145658793Y-121317664D01*
X145572547Y-121202455D01*
X145572544Y-121202452D01*
X145457335Y-121116206D01*
X145457328Y-121116202D01*
X145322482Y-121065908D01*
X145322483Y-121065908D01*
X145262883Y-121059501D01*
X145262881Y-121059500D01*
X145262873Y-121059500D01*
X145262865Y-121059500D01*
X144929500Y-121059500D01*
X144862461Y-121039815D01*
X144816706Y-120987011D01*
X144805500Y-120935500D01*
X144805500Y-119571544D01*
X144825185Y-119504505D01*
X144841819Y-119483863D01*
X146128863Y-118196819D01*
X146190186Y-118163334D01*
X146216544Y-118160500D01*
X150153456Y-118160500D01*
X150220495Y-118180185D01*
X150241137Y-118196819D01*
X150478181Y-118433863D01*
X150492884Y-118460790D01*
X150509477Y-118486609D01*
X150510368Y-118492809D01*
X150511666Y-118495186D01*
X150514500Y-118521544D01*
X150514500Y-118545192D01*
X150494815Y-118612231D01*
X150442011Y-118657986D01*
X150372853Y-118667930D01*
X150309297Y-118638905D01*
X150302819Y-118632873D01*
X150244672Y-118574726D01*
X150244668Y-118574723D01*
X150138133Y-118503538D01*
X150138124Y-118503533D01*
X150019744Y-118454499D01*
X150019738Y-118454497D01*
X149894071Y-118429500D01*
X149894069Y-118429500D01*
X149765931Y-118429500D01*
X149765929Y-118429500D01*
X149640261Y-118454497D01*
X149640255Y-118454499D01*
X149521875Y-118503533D01*
X149521866Y-118503538D01*
X149415331Y-118574723D01*
X149415327Y-118574726D01*
X149324726Y-118665327D01*
X149324723Y-118665331D01*
X149253538Y-118771866D01*
X149253533Y-118771875D01*
X149204500Y-118890253D01*
X149204497Y-118890261D01*
X149179500Y-119015928D01*
X149179500Y-119015931D01*
X149179500Y-119144069D01*
X149179500Y-119144071D01*
X149179499Y-119144071D01*
X149204497Y-119269739D01*
X149204499Y-119269746D01*
X149205060Y-119271099D01*
X149205345Y-119272534D01*
X149206267Y-119275572D01*
X149205967Y-119275662D01*
X149214500Y-119318554D01*
X149214500Y-119776566D01*
X149194815Y-119843605D01*
X149193623Y-119845425D01*
X149189459Y-119851658D01*
X149179033Y-119867261D01*
X149164500Y-119940323D01*
X149164500Y-121030261D01*
X149144815Y-121097300D01*
X149092011Y-121143055D01*
X149072596Y-121150034D01*
X149045313Y-121157345D01*
X149002863Y-121168719D01*
X148871635Y-121244485D01*
X148871632Y-121244487D01*
X148764487Y-121351632D01*
X148764485Y-121351635D01*
X148688719Y-121482863D01*
X148669084Y-121556145D01*
X148649500Y-121629234D01*
X148649500Y-121780766D01*
X148657651Y-121811186D01*
X148688719Y-121927136D01*
X148726602Y-121992750D01*
X148764485Y-122058365D01*
X148871635Y-122165515D01*
X149002865Y-122241281D01*
X149149234Y-122280500D01*
X149149236Y-122280500D01*
X149300764Y-122280500D01*
X149300766Y-122280500D01*
X149447135Y-122241281D01*
X149578365Y-122165515D01*
X149685515Y-122058365D01*
X149761281Y-121927135D01*
X149800500Y-121780766D01*
X149800500Y-121629234D01*
X149795773Y-121611592D01*
X149796278Y-121590374D01*
X149791944Y-121569599D01*
X149797093Y-121556145D01*
X149797436Y-121541742D01*
X149809333Y-121524163D01*
X149816919Y-121504345D01*
X149828522Y-121495812D01*
X149836599Y-121483880D01*
X149856112Y-121475524D01*
X149873208Y-121462953D01*
X149894030Y-121459287D01*
X149900828Y-121456377D01*
X149907758Y-121455745D01*
X149911650Y-121455500D01*
X150039674Y-121455500D01*
X150098943Y-121443710D01*
X150107210Y-121443190D01*
X150116650Y-121445328D01*
X150139189Y-121445328D01*
X150190326Y-121455500D01*
X150539674Y-121455500D01*
X150590811Y-121445328D01*
X150639189Y-121445328D01*
X150690326Y-121455500D01*
X150890500Y-121455500D01*
X150957539Y-121475185D01*
X151003294Y-121527989D01*
X151014500Y-121579500D01*
X151014500Y-121756145D01*
X151035551Y-121834709D01*
X151038385Y-121845287D01*
X151038387Y-121845291D01*
X151084527Y-121925208D01*
X151084529Y-121925211D01*
X151084530Y-121925212D01*
X151289788Y-122130470D01*
X151350488Y-122165515D01*
X151350490Y-122165516D01*
X151369709Y-122176613D01*
X151369711Y-122176613D01*
X151369712Y-122176614D01*
X151458856Y-122200500D01*
X151458858Y-122200500D01*
X152211142Y-122200500D01*
X152211144Y-122200500D01*
X152300288Y-122176614D01*
X152319512Y-122165515D01*
X152380212Y-122130470D01*
X152645470Y-121865212D01*
X152691614Y-121785288D01*
X152715500Y-121696143D01*
X152715500Y-121603856D01*
X152715500Y-121579500D01*
X152735185Y-121512461D01*
X152787989Y-121466706D01*
X152839500Y-121455500D01*
X153039674Y-121455500D01*
X153090811Y-121445328D01*
X153139189Y-121445328D01*
X153190326Y-121455500D01*
X153390500Y-121455500D01*
X153457539Y-121475185D01*
X153503294Y-121527989D01*
X153514500Y-121579500D01*
X153514500Y-122313456D01*
X153494815Y-122380495D01*
X153478181Y-122401137D01*
X152706137Y-123173181D01*
X152644814Y-123206666D01*
X152618456Y-123209500D01*
X141619500Y-123209500D01*
X141610814Y-123206949D01*
X141601853Y-123208238D01*
X141577812Y-123197259D01*
X141552461Y-123189815D01*
X141546533Y-123182974D01*
X141538297Y-123179213D01*
X141524007Y-123156978D01*
X141506706Y-123137011D01*
X141504418Y-123126496D01*
X141500523Y-123120435D01*
X141495500Y-123085500D01*
X141495500Y-122994499D01*
X141515185Y-122927460D01*
X141567989Y-122881705D01*
X141619500Y-122870499D01*
X141817871Y-122870499D01*
X141817872Y-122870499D01*
X141877483Y-122864091D01*
X142012331Y-122813796D01*
X142127546Y-122727546D01*
X142213796Y-122612331D01*
X142264091Y-122477483D01*
X142270500Y-122417873D01*
X142270499Y-121522128D01*
X142264091Y-121462517D01*
X142262886Y-121459287D01*
X142213797Y-121327671D01*
X142213793Y-121327664D01*
X142127547Y-121212455D01*
X142127544Y-121212452D01*
X142012335Y-121126206D01*
X142012328Y-121126202D01*
X141877482Y-121075908D01*
X141877483Y-121075908D01*
X141817883Y-121069501D01*
X141817881Y-121069500D01*
X141817873Y-121069500D01*
X141817864Y-121069500D01*
X140472129Y-121069500D01*
X140472123Y-121069501D01*
X140412516Y-121075908D01*
X140277671Y-121126202D01*
X140277664Y-121126206D01*
X140162455Y-121212452D01*
X140162452Y-121212455D01*
X140076206Y-121327664D01*
X140076202Y-121327671D01*
X140025908Y-121462517D01*
X140019501Y-121522116D01*
X140019501Y-121522123D01*
X140019500Y-121522135D01*
X140019500Y-122417870D01*
X140019501Y-122417876D01*
X140025908Y-122477483D01*
X140076202Y-122612328D01*
X140076206Y-122612335D01*
X140162452Y-122727544D01*
X140162455Y-122727547D01*
X140277664Y-122813793D01*
X140277671Y-122813797D01*
X140322618Y-122830561D01*
X140412517Y-122864091D01*
X140472127Y-122870500D01*
X140670500Y-122870499D01*
X140737539Y-122890183D01*
X140783294Y-122942987D01*
X140794500Y-122994499D01*
X140794500Y-123366144D01*
X140818386Y-123455288D01*
X140864530Y-123535212D01*
X141104531Y-123775212D01*
X141169788Y-123840469D01*
X141169791Y-123840470D01*
X141169794Y-123840473D01*
X141249706Y-123886611D01*
X141249707Y-123886611D01*
X141249712Y-123886614D01*
X141338856Y-123910500D01*
X141338858Y-123910500D01*
X152861142Y-123910500D01*
X152861144Y-123910500D01*
X152950288Y-123886614D01*
X153030212Y-123840470D01*
X154145469Y-122725212D01*
X154191614Y-122645288D01*
X154195836Y-122629530D01*
X154215500Y-122556144D01*
X154215500Y-121923980D01*
X154235185Y-121856941D01*
X154287989Y-121811186D01*
X154357147Y-121801242D01*
X154420703Y-121830267D01*
X154458477Y-121889045D01*
X154459262Y-121891843D01*
X154465675Y-121915776D01*
X154468719Y-121927136D01*
X154506602Y-121992750D01*
X154544485Y-122058365D01*
X154651635Y-122165515D01*
X154782865Y-122241281D01*
X154929234Y-122280500D01*
X154929236Y-122280500D01*
X155080764Y-122280500D01*
X155080766Y-122280500D01*
X155227135Y-122241281D01*
X155358365Y-122165515D01*
X155465515Y-122058365D01*
X155541281Y-121927135D01*
X155580500Y-121780766D01*
X155580500Y-121629234D01*
X155541281Y-121482865D01*
X155465515Y-121351635D01*
X155358365Y-121244485D01*
X155285567Y-121202455D01*
X155227136Y-121168719D01*
X155196622Y-121160543D01*
X155157405Y-121150035D01*
X155097746Y-121113671D01*
X155067217Y-121050824D01*
X155065500Y-121030261D01*
X155065500Y-119940323D01*
X155050966Y-119867259D01*
X155046293Y-119855977D01*
X155048948Y-119854877D01*
X155033588Y-119805818D01*
X155052074Y-119738439D01*
X155069883Y-119715930D01*
X155258995Y-119526819D01*
X155285922Y-119512115D01*
X155311741Y-119495523D01*
X155317941Y-119494631D01*
X155320318Y-119493334D01*
X155346676Y-119490500D01*
X155350568Y-119490500D01*
X155417607Y-119510185D01*
X155419459Y-119511398D01*
X155501866Y-119566461D01*
X155501875Y-119566466D01*
X155514135Y-119571544D01*
X155620256Y-119615501D01*
X155620260Y-119615501D01*
X155620261Y-119615502D01*
X155745928Y-119640500D01*
X155745931Y-119640500D01*
X155874071Y-119640500D01*
X155958615Y-119623682D01*
X155999744Y-119615501D01*
X156118127Y-119566465D01*
X156224669Y-119495276D01*
X156315276Y-119404669D01*
X156386465Y-119298127D01*
X156386466Y-119298124D01*
X156386468Y-119298121D01*
X156410661Y-119239712D01*
X156435501Y-119179744D01*
X156443682Y-119138615D01*
X156460500Y-119054071D01*
X156460500Y-118925928D01*
X156435502Y-118800261D01*
X156435501Y-118800260D01*
X156435501Y-118800256D01*
X156390201Y-118690892D01*
X156386466Y-118681875D01*
X156386461Y-118681866D01*
X156315276Y-118575331D01*
X156315273Y-118575327D01*
X156224672Y-118484726D01*
X156224668Y-118484723D01*
X156118133Y-118413538D01*
X156118124Y-118413533D01*
X155999744Y-118364499D01*
X155999738Y-118364497D01*
X155874071Y-118339500D01*
X155874069Y-118339500D01*
X155745931Y-118339500D01*
X155745929Y-118339500D01*
X155620261Y-118364497D01*
X155620255Y-118364499D01*
X155501875Y-118413533D01*
X155501866Y-118413538D01*
X155419459Y-118468602D01*
X155401412Y-118474252D01*
X155385503Y-118484477D01*
X155354543Y-118488928D01*
X155352782Y-118489480D01*
X155350568Y-118489500D01*
X155278845Y-118489500D01*
X155211806Y-118469815D01*
X155166051Y-118417011D01*
X155156107Y-118347853D01*
X155171457Y-118303501D01*
X155216614Y-118225288D01*
X155222373Y-118203796D01*
X155223453Y-118199767D01*
X155223891Y-118198131D01*
X155255986Y-118142537D01*
X155280979Y-118117544D01*
X155330509Y-118068015D01*
X155402984Y-117942485D01*
X155440500Y-117802475D01*
X155440500Y-117657525D01*
X155402984Y-117517515D01*
X155388244Y-117491985D01*
X155330511Y-117391988D01*
X155330506Y-117391982D01*
X155228017Y-117289493D01*
X155228011Y-117289488D01*
X155102488Y-117217017D01*
X155102489Y-117217017D01*
X155091006Y-117213940D01*
X154962475Y-117179500D01*
X154817525Y-117179500D01*
X154688993Y-117213940D01*
X154677511Y-117217017D01*
X154551988Y-117289488D01*
X154551982Y-117289493D01*
X154449493Y-117391982D01*
X154449488Y-117391988D01*
X154377017Y-117517511D01*
X154377016Y-117517515D01*
X154339500Y-117657525D01*
X154339500Y-117802475D01*
X154377016Y-117942485D01*
X154377017Y-117942488D01*
X154389768Y-117964573D01*
X154396334Y-117991637D01*
X154406065Y-118017726D01*
X154404456Y-118025118D01*
X154406241Y-118032473D01*
X154397132Y-118058790D01*
X154391214Y-118085999D01*
X154384707Y-118094690D01*
X154383389Y-118098500D01*
X154370063Y-118114253D01*
X154322037Y-118162280D01*
X154260714Y-118195766D01*
X154234355Y-118198600D01*
X154169500Y-118198600D01*
X154102461Y-118178915D01*
X154056706Y-118126111D01*
X154045500Y-118074600D01*
X154045500Y-116480599D01*
X154065185Y-116413560D01*
X154117989Y-116367805D01*
X154187147Y-116357861D01*
X154231498Y-116373211D01*
X154249935Y-116383856D01*
X154254712Y-116386614D01*
X154343856Y-116410500D01*
X154343857Y-116410500D01*
X154343858Y-116410500D01*
X155896142Y-116410500D01*
X155896144Y-116410500D01*
X155985288Y-116386614D01*
X155990065Y-116383856D01*
X155990066Y-116383856D01*
X156065205Y-116340474D01*
X156065204Y-116340474D01*
X156065212Y-116340470D01*
X156608863Y-115796819D01*
X156670186Y-115763334D01*
X156696544Y-115760500D01*
X157785501Y-115760500D01*
X157852540Y-115780185D01*
X157898295Y-115832989D01*
X157909501Y-115884500D01*
X157909501Y-116107876D01*
X157915908Y-116167483D01*
X157966202Y-116302328D01*
X157966206Y-116302335D01*
X158052452Y-116417544D01*
X158052455Y-116417547D01*
X158167664Y-116503793D01*
X158167669Y-116503796D01*
X158241333Y-116531271D01*
X158297266Y-116573140D01*
X158321684Y-116638604D01*
X158322000Y-116647452D01*
X158322000Y-116793391D01*
X158356108Y-116920687D01*
X158389054Y-116977750D01*
X158422000Y-117034814D01*
X158997686Y-117610500D01*
X159111814Y-117676392D01*
X159239108Y-117710500D01*
X159370892Y-117710500D01*
X164512649Y-117710500D01*
X164579688Y-117730185D01*
X164625443Y-117782989D01*
X164635939Y-117821248D01*
X164640908Y-117867483D01*
X164691202Y-118002328D01*
X164691206Y-118002335D01*
X164777452Y-118117544D01*
X164777455Y-118117547D01*
X164892664Y-118203793D01*
X164892671Y-118203797D01*
X164927175Y-118216666D01*
X165027517Y-118254091D01*
X165087127Y-118260500D01*
X165560500Y-118260499D01*
X165627539Y-118280183D01*
X165673294Y-118332987D01*
X165684500Y-118384499D01*
X165684500Y-118690891D01*
X165718608Y-118818187D01*
X165737246Y-118850468D01*
X165784500Y-118932314D01*
X166349500Y-119497314D01*
X166442686Y-119590500D01*
X166556814Y-119656392D01*
X166684108Y-119690500D01*
X166684110Y-119690500D01*
X175865890Y-119690500D01*
X175865892Y-119690500D01*
X175993186Y-119656392D01*
X176107314Y-119590500D01*
X178685500Y-117012314D01*
X178751392Y-116898186D01*
X178785500Y-116770892D01*
X178785500Y-116639107D01*
X178785500Y-114984432D01*
X178805185Y-114917393D01*
X178806398Y-114915541D01*
X178861461Y-114833133D01*
X178861461Y-114833132D01*
X178861465Y-114833127D01*
X178910501Y-114714744D01*
X178928717Y-114623171D01*
X178935500Y-114589071D01*
X178935500Y-114460928D01*
X178910502Y-114335261D01*
X178910501Y-114335260D01*
X178910501Y-114335256D01*
X178861465Y-114216873D01*
X178861464Y-114216872D01*
X178861461Y-114216866D01*
X178790276Y-114110331D01*
X178790273Y-114110327D01*
X178699672Y-114019726D01*
X178699668Y-114019723D01*
X178593133Y-113948538D01*
X178593124Y-113948533D01*
X178474744Y-113899499D01*
X178474738Y-113899497D01*
X178349071Y-113874500D01*
X178349069Y-113874500D01*
X178220931Y-113874500D01*
X178220929Y-113874500D01*
X178095261Y-113899497D01*
X178095255Y-113899499D01*
X177976875Y-113948533D01*
X177976866Y-113948538D01*
X177870331Y-114019723D01*
X177870327Y-114019726D01*
X177779726Y-114110327D01*
X177779723Y-114110331D01*
X177708538Y-114216866D01*
X177708533Y-114216875D01*
X177659499Y-114335255D01*
X177659497Y-114335261D01*
X177634500Y-114460928D01*
X177634500Y-114460931D01*
X177634500Y-114589069D01*
X177634500Y-114589071D01*
X177634499Y-114589071D01*
X177659497Y-114714738D01*
X177659499Y-114714744D01*
X177708533Y-114833124D01*
X177708538Y-114833133D01*
X177763602Y-114915541D01*
X177784480Y-114982218D01*
X177784500Y-114984432D01*
X177784500Y-116446324D01*
X177764815Y-116513363D01*
X177748181Y-116534005D01*
X175629005Y-118653181D01*
X175567682Y-118686666D01*
X175541324Y-118689500D01*
X167008676Y-118689500D01*
X166941637Y-118669815D01*
X166920995Y-118653181D01*
X166739994Y-118472180D01*
X166706509Y-118410857D01*
X166711493Y-118341165D01*
X166753365Y-118285232D01*
X166818829Y-118260815D01*
X166827675Y-118260499D01*
X167282871Y-118260499D01*
X167282872Y-118260499D01*
X167342483Y-118254091D01*
X167477331Y-118203796D01*
X167592546Y-118117546D01*
X167678796Y-118002331D01*
X167729091Y-117867483D01*
X167735500Y-117807873D01*
X167735499Y-116612128D01*
X167729091Y-116552517D01*
X167722186Y-116534005D01*
X167678797Y-116417671D01*
X167678793Y-116417664D01*
X167592547Y-116302455D01*
X167592544Y-116302452D01*
X167477335Y-116216206D01*
X167477328Y-116216202D01*
X167342482Y-116165908D01*
X167342483Y-116165908D01*
X167282883Y-116159501D01*
X167282881Y-116159500D01*
X167282873Y-116159500D01*
X167282864Y-116159500D01*
X165087129Y-116159500D01*
X165087123Y-116159501D01*
X165027516Y-116165908D01*
X164892671Y-116216202D01*
X164892664Y-116216206D01*
X164777455Y-116302452D01*
X164777452Y-116302455D01*
X164691206Y-116417664D01*
X164691202Y-116417671D01*
X164641783Y-116550173D01*
X164640909Y-116552517D01*
X164635937Y-116598757D01*
X164609201Y-116663306D01*
X164551809Y-116703154D01*
X164512649Y-116709500D01*
X159575103Y-116709500D01*
X159508064Y-116689815D01*
X159462309Y-116637011D01*
X159452365Y-116567853D01*
X159481390Y-116504297D01*
X159500792Y-116486234D01*
X159560240Y-116441730D01*
X159592546Y-116417546D01*
X159678796Y-116302331D01*
X159729091Y-116167483D01*
X159735500Y-116107873D01*
X159735499Y-114714071D01*
X174409499Y-114714071D01*
X174434497Y-114839738D01*
X174434499Y-114839744D01*
X174483533Y-114958124D01*
X174483538Y-114958133D01*
X174554723Y-115064668D01*
X174554726Y-115064672D01*
X174645327Y-115155273D01*
X174645331Y-115155276D01*
X174751866Y-115226461D01*
X174751872Y-115226464D01*
X174751873Y-115226465D01*
X174870256Y-115275501D01*
X174870260Y-115275501D01*
X174870261Y-115275502D01*
X174995928Y-115300500D01*
X174995931Y-115300500D01*
X175124071Y-115300500D01*
X175208615Y-115283682D01*
X175249744Y-115275501D01*
X175368127Y-115226465D01*
X175474669Y-115155276D01*
X175565276Y-115064669D01*
X175636465Y-114958127D01*
X175685501Y-114839744D01*
X175695927Y-114787331D01*
X175710500Y-114714071D01*
X175710500Y-114585927D01*
X175685502Y-114460261D01*
X175685501Y-114460260D01*
X175685501Y-114460256D01*
X175636465Y-114341873D01*
X175636464Y-114341872D01*
X175636461Y-114341866D01*
X175565276Y-114235331D01*
X175565273Y-114235327D01*
X175474676Y-114144730D01*
X175474671Y-114144726D01*
X175474669Y-114144724D01*
X175465603Y-114138666D01*
X175420802Y-114085053D01*
X175410500Y-114035568D01*
X175410500Y-111571544D01*
X175430185Y-111504505D01*
X175446819Y-111483863D01*
X176473863Y-110456819D01*
X176535186Y-110423334D01*
X176561544Y-110420500D01*
X183192209Y-110420500D01*
X183259248Y-110440185D01*
X183305003Y-110492989D01*
X183308391Y-110501167D01*
X183331202Y-110562328D01*
X183331206Y-110562335D01*
X183417452Y-110677544D01*
X183417455Y-110677547D01*
X183532664Y-110763793D01*
X183532671Y-110763797D01*
X183667517Y-110814091D01*
X183667516Y-110814091D01*
X183674444Y-110814835D01*
X183727127Y-110820500D01*
X186122872Y-110820499D01*
X186182483Y-110814091D01*
X186317331Y-110763796D01*
X186432546Y-110677546D01*
X186518796Y-110562331D01*
X186526677Y-110541202D01*
X186541609Y-110501167D01*
X186583480Y-110445233D01*
X186648944Y-110420816D01*
X186657791Y-110420500D01*
X188992209Y-110420500D01*
X189059248Y-110440185D01*
X189105003Y-110492989D01*
X189108391Y-110501167D01*
X189131202Y-110562328D01*
X189131206Y-110562335D01*
X189217452Y-110677544D01*
X189217455Y-110677547D01*
X189332664Y-110763793D01*
X189332671Y-110763797D01*
X189467517Y-110814091D01*
X189467516Y-110814091D01*
X189474444Y-110814835D01*
X189527127Y-110820500D01*
X191922872Y-110820499D01*
X191982483Y-110814091D01*
X192117331Y-110763796D01*
X192232546Y-110677546D01*
X192318796Y-110562331D01*
X192369091Y-110427483D01*
X192375500Y-110367873D01*
X192375499Y-109772128D01*
X192369091Y-109712517D01*
X192364353Y-109699815D01*
X192318797Y-109577671D01*
X192318793Y-109577664D01*
X192232547Y-109462455D01*
X192232544Y-109462452D01*
X192117335Y-109376206D01*
X192117328Y-109376202D01*
X191982482Y-109325908D01*
X191982483Y-109325908D01*
X191922883Y-109319501D01*
X191922881Y-109319500D01*
X191922873Y-109319500D01*
X191922864Y-109319500D01*
X189527129Y-109319500D01*
X189527123Y-109319501D01*
X189467516Y-109325908D01*
X189332671Y-109376202D01*
X189332664Y-109376206D01*
X189217455Y-109462452D01*
X189217452Y-109462455D01*
X189131206Y-109577664D01*
X189131202Y-109577671D01*
X189108391Y-109638833D01*
X189066520Y-109694767D01*
X189001056Y-109719184D01*
X188992209Y-109719500D01*
X186657791Y-109719500D01*
X186590752Y-109699815D01*
X186544997Y-109647011D01*
X186541609Y-109638833D01*
X186518797Y-109577671D01*
X186518793Y-109577664D01*
X186432547Y-109462455D01*
X186432544Y-109462452D01*
X186317335Y-109376206D01*
X186317328Y-109376202D01*
X186182482Y-109325908D01*
X186182483Y-109325908D01*
X186122883Y-109319501D01*
X186122881Y-109319500D01*
X186122873Y-109319500D01*
X186122864Y-109319500D01*
X183727129Y-109319500D01*
X183727123Y-109319501D01*
X183667516Y-109325908D01*
X183532671Y-109376202D01*
X183532664Y-109376206D01*
X183417455Y-109462452D01*
X183417452Y-109462455D01*
X183331206Y-109577664D01*
X183331202Y-109577671D01*
X183308391Y-109638833D01*
X183266520Y-109694767D01*
X183201056Y-109719184D01*
X183192209Y-109719500D01*
X176318856Y-109719500D01*
X176229712Y-109743386D01*
X176229709Y-109743387D01*
X176149791Y-109789527D01*
X176149786Y-109789531D01*
X174779531Y-111159786D01*
X174779527Y-111159791D01*
X174754231Y-111203607D01*
X174754231Y-111203608D01*
X174733386Y-111239710D01*
X174709500Y-111328856D01*
X174709500Y-114035568D01*
X174689815Y-114102607D01*
X174654396Y-114138667D01*
X174645328Y-114144726D01*
X174645324Y-114144730D01*
X174554726Y-114235327D01*
X174554723Y-114235331D01*
X174483538Y-114341866D01*
X174483533Y-114341875D01*
X174434499Y-114460255D01*
X174434497Y-114460261D01*
X174409500Y-114585927D01*
X174409500Y-114585931D01*
X174409500Y-114714069D01*
X174409500Y-114714071D01*
X174409499Y-114714071D01*
X159735499Y-114714071D01*
X159735499Y-114712128D01*
X159729091Y-114652517D01*
X159681451Y-114524788D01*
X159678797Y-114517671D01*
X159678793Y-114517664D01*
X159592547Y-114402455D01*
X159592544Y-114402452D01*
X159477335Y-114316206D01*
X159477328Y-114316202D01*
X159342482Y-114265908D01*
X159342483Y-114265908D01*
X159282883Y-114259501D01*
X159282881Y-114259500D01*
X159282873Y-114259500D01*
X159282864Y-114259500D01*
X158362129Y-114259500D01*
X158362123Y-114259501D01*
X158302516Y-114265908D01*
X158167671Y-114316202D01*
X158167664Y-114316206D01*
X158052455Y-114402452D01*
X158052452Y-114402455D01*
X157966206Y-114517664D01*
X157966202Y-114517671D01*
X157915908Y-114652517D01*
X157909501Y-114712116D01*
X157909501Y-114712123D01*
X157909500Y-114712135D01*
X157909500Y-114935500D01*
X157889815Y-115002539D01*
X157837011Y-115048294D01*
X157785500Y-115059500D01*
X156453856Y-115059500D01*
X156364712Y-115083386D01*
X156364709Y-115083387D01*
X156284791Y-115129527D01*
X156284786Y-115129531D01*
X155741137Y-115673181D01*
X155679814Y-115706666D01*
X155653456Y-115709500D01*
X155226544Y-115709500D01*
X155197103Y-115700855D01*
X155167117Y-115694332D01*
X155162101Y-115690577D01*
X155159505Y-115689815D01*
X155138863Y-115673181D01*
X155111818Y-115646136D01*
X155078333Y-115584813D01*
X155075499Y-115558464D01*
X155075499Y-114815822D01*
X155074475Y-114808045D01*
X155069499Y-114770243D01*
X155069499Y-114770240D01*
X155069496Y-114770235D01*
X155066843Y-114761128D01*
X155070341Y-114760108D01*
X155062544Y-114708726D01*
X155091073Y-114644946D01*
X155149554Y-114606714D01*
X155219422Y-114606169D01*
X155221578Y-114606974D01*
X155230238Y-114609498D01*
X155230240Y-114609499D01*
X155275821Y-114615500D01*
X156024178Y-114615499D01*
X156024180Y-114615499D01*
X156039372Y-114613499D01*
X156069760Y-114609499D01*
X156084688Y-114602538D01*
X156085589Y-114602118D01*
X156137994Y-114590500D01*
X156591142Y-114590500D01*
X156591144Y-114590500D01*
X156680288Y-114566614D01*
X156686807Y-114562850D01*
X156760212Y-114520470D01*
X157282970Y-113997712D01*
X157329114Y-113917788D01*
X157329285Y-113917150D01*
X157353000Y-113828644D01*
X157353000Y-112529043D01*
X157372685Y-112462004D01*
X157389319Y-112441362D01*
X157697820Y-112132861D01*
X157759143Y-112099376D01*
X157828835Y-112104360D01*
X157884768Y-112146232D01*
X157909185Y-112211696D01*
X157909501Y-112220542D01*
X157909501Y-112307876D01*
X157915908Y-112367483D01*
X157966202Y-112502328D01*
X157966206Y-112502335D01*
X158052452Y-112617544D01*
X158052455Y-112617547D01*
X158167664Y-112703793D01*
X158167671Y-112703797D01*
X158261498Y-112738792D01*
X158317432Y-112780663D01*
X158337939Y-112822878D01*
X158356108Y-112890686D01*
X158422000Y-113004814D01*
X159257686Y-113840500D01*
X159356521Y-113897563D01*
X159359871Y-113899497D01*
X159371814Y-113906392D01*
X159499108Y-113940500D01*
X159499110Y-113940500D01*
X165530890Y-113940500D01*
X165530892Y-113940500D01*
X165658186Y-113906392D01*
X165772314Y-113840500D01*
X166525500Y-113087314D01*
X166591392Y-112973186D01*
X166625500Y-112845892D01*
X166625500Y-112844499D01*
X166625832Y-112843368D01*
X166626561Y-112837832D01*
X166627424Y-112837945D01*
X166645185Y-112777460D01*
X166697989Y-112731705D01*
X166749500Y-112720499D01*
X167222871Y-112720499D01*
X167222872Y-112720499D01*
X167282483Y-112714091D01*
X167417331Y-112663796D01*
X167532546Y-112577546D01*
X167618796Y-112462331D01*
X167669091Y-112327483D01*
X167675500Y-112267873D01*
X167675499Y-111072128D01*
X167669091Y-111012517D01*
X167662632Y-110995200D01*
X167618797Y-110877671D01*
X167618793Y-110877664D01*
X167532547Y-110762455D01*
X167532544Y-110762452D01*
X167417335Y-110676206D01*
X167417328Y-110676202D01*
X167282482Y-110625908D01*
X167282483Y-110625908D01*
X167222883Y-110619501D01*
X167222881Y-110619500D01*
X167222873Y-110619500D01*
X167222865Y-110619500D01*
X166749500Y-110619500D01*
X166682461Y-110599815D01*
X166636706Y-110547011D01*
X166625500Y-110495500D01*
X166625500Y-109804110D01*
X166625500Y-109804108D01*
X166591392Y-109676814D01*
X166525500Y-109562686D01*
X166432314Y-109469500D01*
X165052314Y-108089500D01*
X164995250Y-108056554D01*
X164938187Y-108023608D01*
X164874539Y-108006554D01*
X164810892Y-107989500D01*
X164810891Y-107989500D01*
X143667629Y-107989500D01*
X143600590Y-107969815D01*
X143554835Y-107917011D01*
X143551447Y-107908833D01*
X143498797Y-107767672D01*
X143498796Y-107767671D01*
X143498796Y-107767670D01*
X143412546Y-107652454D01*
X143297330Y-107566204D01*
X143297328Y-107566203D01*
X143297327Y-107566202D01*
X143162481Y-107515908D01*
X143162482Y-107515908D01*
X143102882Y-107509501D01*
X143102880Y-107509500D01*
X143102872Y-107509500D01*
X141757128Y-107509500D01*
X141757120Y-107509500D01*
X141757117Y-107509501D01*
X141697518Y-107515908D01*
X141562672Y-107566202D01*
X141562670Y-107566204D01*
X141447454Y-107652454D01*
X141361204Y-107767670D01*
X141361202Y-107767672D01*
X141315080Y-107891333D01*
X141273209Y-107947267D01*
X141207744Y-107971684D01*
X141198898Y-107972000D01*
X139966102Y-107972000D01*
X139899063Y-107952315D01*
X139853308Y-107899511D01*
X139849920Y-107891333D01*
X139803797Y-107767672D01*
X139803796Y-107767671D01*
X139803796Y-107767670D01*
X139717546Y-107652454D01*
X139602330Y-107566204D01*
X139602328Y-107566203D01*
X139602327Y-107566202D01*
X139467481Y-107515908D01*
X139467482Y-107515908D01*
X139407882Y-107509501D01*
X139407880Y-107509500D01*
X139407872Y-107509500D01*
X138062128Y-107509500D01*
X138062120Y-107509500D01*
X138062117Y-107509501D01*
X138002518Y-107515908D01*
X137867672Y-107566202D01*
X137867670Y-107566204D01*
X137752454Y-107652454D01*
X137666204Y-107767670D01*
X137666202Y-107767672D01*
X137615908Y-107902518D01*
X137609501Y-107962117D01*
X137609500Y-107962136D01*
X137609500Y-108982863D01*
X137609501Y-108982882D01*
X137615908Y-109042482D01*
X137615909Y-109042484D01*
X137656818Y-109152168D01*
X137661802Y-109221859D01*
X137628316Y-109283182D01*
X137566993Y-109316666D01*
X137540636Y-109319500D01*
X136493856Y-109319500D01*
X136404712Y-109343386D01*
X136404709Y-109343387D01*
X136324791Y-109389527D01*
X136324786Y-109389531D01*
X135453281Y-110261036D01*
X135453277Y-110261041D01*
X135407137Y-110340959D01*
X135407136Y-110340962D01*
X135383250Y-110430106D01*
X135383250Y-113502648D01*
X135363565Y-113569687D01*
X135310761Y-113615442D01*
X135272505Y-113625938D01*
X135226266Y-113630909D01*
X135091421Y-113681202D01*
X135091414Y-113681206D01*
X134976205Y-113767452D01*
X134976202Y-113767455D01*
X134889956Y-113882664D01*
X134889952Y-113882671D01*
X134839658Y-114017517D01*
X134833251Y-114077116D01*
X134833251Y-114077123D01*
X134833250Y-114077135D01*
X134833250Y-115422870D01*
X134833251Y-115422876D01*
X134839658Y-115482483D01*
X134889952Y-115617328D01*
X134889956Y-115617335D01*
X134892842Y-115621190D01*
X134917259Y-115686654D01*
X134902407Y-115754927D01*
X134853002Y-115804332D01*
X134793575Y-115819500D01*
X133221004Y-115819500D01*
X133153965Y-115799815D01*
X133133322Y-115783180D01*
X133102096Y-115751953D01*
X133102094Y-115751952D01*
X133102092Y-115751950D01*
X133025267Y-115712805D01*
X132989051Y-115694352D01*
X132895274Y-115679500D01*
X131657232Y-115679500D01*
X131563446Y-115694354D01*
X131549474Y-115701473D01*
X131480805Y-115714367D01*
X131416065Y-115688088D01*
X131375810Y-115630981D01*
X131372982Y-115564960D01*
X131372870Y-115564943D01*
X131372957Y-115564389D01*
X131372820Y-115561175D01*
X131374269Y-115556105D01*
X131374396Y-115555302D01*
X131389250Y-115461519D01*
X131389249Y-115098482D01*
X131374396Y-115004696D01*
X131374395Y-115004694D01*
X131372869Y-114995057D01*
X131374892Y-114994736D01*
X131373256Y-114937494D01*
X131409334Y-114877660D01*
X131472034Y-114846830D01*
X131541448Y-114854792D01*
X131549458Y-114858519D01*
X131563446Y-114865646D01*
X131563448Y-114865646D01*
X131563450Y-114865647D01*
X131563448Y-114865647D01*
X131657225Y-114880499D01*
X131657231Y-114880500D01*
X132895268Y-114880499D01*
X132989054Y-114865646D01*
X133102092Y-114808050D01*
X133191800Y-114718342D01*
X133249396Y-114605304D01*
X133249396Y-114605302D01*
X133249397Y-114605301D01*
X133262832Y-114520470D01*
X133264250Y-114511519D01*
X133264249Y-114148482D01*
X133249396Y-114054696D01*
X133191800Y-113941658D01*
X133191796Y-113941654D01*
X133191795Y-113941652D01*
X133102097Y-113851954D01*
X133102094Y-113851952D01*
X133102092Y-113851950D01*
X133011200Y-113805638D01*
X132989051Y-113794352D01*
X132895274Y-113779500D01*
X131657232Y-113779500D01*
X131576269Y-113792323D01*
X131563446Y-113794354D01*
X131450408Y-113851950D01*
X131450407Y-113851951D01*
X131450402Y-113851954D01*
X131359176Y-113943181D01*
X131297853Y-113976666D01*
X131271495Y-113979500D01*
X129033854Y-113979500D01*
X128975257Y-113995201D01*
X128975256Y-113995200D01*
X128944716Y-114003384D01*
X128944709Y-114003387D01*
X128864791Y-114049527D01*
X128864786Y-114049531D01*
X128529532Y-114384785D01*
X128529528Y-114384791D01*
X128486378Y-114459527D01*
X128486377Y-114459531D01*
X128485956Y-114460261D01*
X128483385Y-114464714D01*
X128459500Y-114553856D01*
X126770500Y-114553856D01*
X126770500Y-89481271D01*
X136281299Y-89481271D01*
X136306297Y-89606938D01*
X136306299Y-89606944D01*
X136355333Y-89725324D01*
X136355338Y-89725333D01*
X136426523Y-89831868D01*
X136426526Y-89831872D01*
X136517125Y-89922471D01*
X136517128Y-89922473D01*
X136517131Y-89922476D01*
X136526188Y-89928527D01*
X136570993Y-89982135D01*
X136581300Y-90031631D01*
X136581300Y-92842944D01*
X136593775Y-92889501D01*
X136605185Y-92932086D01*
X136651327Y-93012008D01*
X136651329Y-93012011D01*
X136651330Y-93012012D01*
X137629788Y-93990470D01*
X137709712Y-94036614D01*
X137798856Y-94060500D01*
X138600500Y-94060500D01*
X138667539Y-94080185D01*
X138713294Y-94132989D01*
X138720626Y-94153748D01*
X138724500Y-94168880D01*
X138724500Y-94234674D01*
X138739034Y-94307740D01*
X138773099Y-94358724D01*
X138778354Y-94379248D01*
X138777843Y-94393847D01*
X138782208Y-94407788D01*
X138776646Y-94428061D01*
X138775911Y-94449075D01*
X138767587Y-94461081D01*
X138763723Y-94475168D01*
X138761337Y-94478879D01*
X138756708Y-94485807D01*
X138739033Y-94512260D01*
X138739032Y-94512264D01*
X138724500Y-94585321D01*
X138724500Y-95634678D01*
X138739032Y-95707735D01*
X138739033Y-95707739D01*
X138757405Y-95735235D01*
X138794399Y-95790601D01*
X138877260Y-95845966D01*
X138877264Y-95845967D01*
X138950321Y-95860499D01*
X138950324Y-95860500D01*
X138950326Y-95860500D01*
X139250500Y-95860500D01*
X139317539Y-95880185D01*
X139363294Y-95932989D01*
X139374500Y-95984500D01*
X139374500Y-96376143D01*
X139398386Y-96465287D01*
X139398387Y-96465290D01*
X139444527Y-96545208D01*
X139444529Y-96545211D01*
X139444530Y-96545212D01*
X140829788Y-97930470D01*
X140909712Y-97976614D01*
X140998856Y-98000500D01*
X140998858Y-98000500D01*
X146226142Y-98000500D01*
X146226144Y-98000500D01*
X146315288Y-97976614D01*
X146395212Y-97930470D01*
X147230469Y-97095213D01*
X147276614Y-97015288D01*
X147286174Y-96979609D01*
X147300500Y-96926144D01*
X147300500Y-90373856D01*
X147276614Y-90284712D01*
X147276611Y-90284706D01*
X147230473Y-90204794D01*
X147230470Y-90204791D01*
X147230469Y-90204788D01*
X147165212Y-90139531D01*
X146162412Y-89136730D01*
X146162411Y-89136729D01*
X146162408Y-89136727D01*
X146082490Y-89090587D01*
X146082489Y-89090586D01*
X146082488Y-89090586D01*
X145993344Y-89066700D01*
X145993343Y-89066700D01*
X145446232Y-89066700D01*
X145379193Y-89047015D01*
X145343130Y-89011591D01*
X145337076Y-89002530D01*
X145246472Y-88911926D01*
X145246468Y-88911923D01*
X145139933Y-88840738D01*
X145139924Y-88840733D01*
X145021544Y-88791699D01*
X145021538Y-88791697D01*
X144895871Y-88766700D01*
X144895869Y-88766700D01*
X144767731Y-88766700D01*
X144767729Y-88766700D01*
X144642061Y-88791697D01*
X144642055Y-88791699D01*
X144523675Y-88840733D01*
X144523666Y-88840738D01*
X144417131Y-88911923D01*
X144417127Y-88911926D01*
X144326526Y-89002527D01*
X144326523Y-89002531D01*
X144255338Y-89109066D01*
X144255333Y-89109075D01*
X144206299Y-89227455D01*
X144206297Y-89227461D01*
X144181300Y-89353128D01*
X144181300Y-89353131D01*
X144181300Y-89481269D01*
X144181300Y-89481271D01*
X144181299Y-89481271D01*
X144206297Y-89606938D01*
X144206299Y-89606944D01*
X144255333Y-89725324D01*
X144255338Y-89725333D01*
X144326523Y-89831868D01*
X144326526Y-89831872D01*
X144417127Y-89922473D01*
X144417131Y-89922476D01*
X144523666Y-89993661D01*
X144523672Y-89993664D01*
X144523673Y-89993665D01*
X144642056Y-90042701D01*
X144642060Y-90042701D01*
X144642061Y-90042702D01*
X144767728Y-90067700D01*
X144767731Y-90067700D01*
X144895871Y-90067700D01*
X144980415Y-90050882D01*
X145021544Y-90042701D01*
X145139927Y-89993665D01*
X145246469Y-89922476D01*
X145337076Y-89831869D01*
X145343130Y-89822809D01*
X145396742Y-89778004D01*
X145446232Y-89767700D01*
X145750656Y-89767700D01*
X145817695Y-89787385D01*
X145838337Y-89804019D01*
X146563181Y-90528862D01*
X146596666Y-90590185D01*
X146599500Y-90616543D01*
X146599500Y-96683456D01*
X146579815Y-96750495D01*
X146563181Y-96771137D01*
X146071137Y-97263181D01*
X146009814Y-97296666D01*
X145983456Y-97299500D01*
X141241544Y-97299500D01*
X141174505Y-97279815D01*
X141153863Y-97263181D01*
X140111819Y-96221137D01*
X140097115Y-96194209D01*
X140080523Y-96168391D01*
X140079631Y-96162190D01*
X140078334Y-96159814D01*
X140075500Y-96133456D01*
X140075500Y-95984500D01*
X140095185Y-95917461D01*
X140147989Y-95871706D01*
X140199500Y-95860500D01*
X140499676Y-95860500D01*
X140499677Y-95860499D01*
X140572740Y-95845966D01*
X140655601Y-95790601D01*
X140710966Y-95707740D01*
X140725500Y-95634674D01*
X140725500Y-94585326D01*
X140725500Y-94585323D01*
X140725499Y-94585321D01*
X140710967Y-94512264D01*
X140710967Y-94512262D01*
X140710966Y-94512260D01*
X140688667Y-94478887D01*
X140667791Y-94412214D01*
X140686275Y-94344834D01*
X140688628Y-94341170D01*
X140710966Y-94307740D01*
X140725500Y-94234674D01*
X140725500Y-93185326D01*
X140725500Y-93185323D01*
X140725499Y-93185321D01*
X140710967Y-93112264D01*
X140710966Y-93112260D01*
X140683063Y-93070500D01*
X140655601Y-93029399D01*
X140572740Y-92974034D01*
X140572739Y-92974033D01*
X140572735Y-92974032D01*
X140499677Y-92959500D01*
X140499674Y-92959500D01*
X138950326Y-92959500D01*
X138950323Y-92959500D01*
X138877264Y-92974032D01*
X138877260Y-92974033D01*
X138794399Y-93029399D01*
X138739033Y-93112260D01*
X138739032Y-93112264D01*
X138724500Y-93185321D01*
X138724500Y-93235500D01*
X138704815Y-93302539D01*
X138652011Y-93348294D01*
X138600500Y-93359500D01*
X138041544Y-93359500D01*
X137974505Y-93339815D01*
X137953863Y-93323181D01*
X137318619Y-92687937D01*
X137285134Y-92626614D01*
X137282300Y-92600256D01*
X137282300Y-90031631D01*
X137301985Y-89964592D01*
X137337410Y-89928528D01*
X137346469Y-89922476D01*
X137437076Y-89831869D01*
X137508265Y-89725327D01*
X137557301Y-89606944D01*
X137582300Y-89481271D01*
X140134499Y-89481271D01*
X140159497Y-89606938D01*
X140159499Y-89606944D01*
X140208533Y-89725324D01*
X140208538Y-89725333D01*
X140279723Y-89831868D01*
X140279726Y-89831872D01*
X140370325Y-89922471D01*
X140370328Y-89922473D01*
X140370331Y-89922476D01*
X140374389Y-89925187D01*
X140419194Y-89978796D01*
X140429500Y-90028290D01*
X140429500Y-91141145D01*
X140448415Y-91211738D01*
X140453385Y-91230284D01*
X140453387Y-91230290D01*
X140499527Y-91310208D01*
X140499529Y-91310211D01*
X140499530Y-91310212D01*
X140869788Y-91680470D01*
X140946418Y-91724712D01*
X140949712Y-91726614D01*
X141038856Y-91750500D01*
X142438456Y-91750500D01*
X142505495Y-91770185D01*
X142526137Y-91786819D01*
X142838181Y-92098863D01*
X142871666Y-92160186D01*
X142874500Y-92186544D01*
X142874500Y-92835500D01*
X142854815Y-92902539D01*
X142802011Y-92948294D01*
X142750500Y-92959500D01*
X142450323Y-92959500D01*
X142377264Y-92974032D01*
X142377260Y-92974033D01*
X142294399Y-93029399D01*
X142239033Y-93112260D01*
X142239032Y-93112264D01*
X142224500Y-93185321D01*
X142224500Y-94234678D01*
X142239032Y-94307735D01*
X142239033Y-94307739D01*
X142239034Y-94307740D01*
X142294399Y-94390601D01*
X142377260Y-94445966D01*
X142377264Y-94445967D01*
X142450321Y-94460499D01*
X142450324Y-94460500D01*
X142450326Y-94460500D01*
X143999676Y-94460500D01*
X143999677Y-94460499D01*
X144072740Y-94445966D01*
X144155601Y-94390601D01*
X144210966Y-94307740D01*
X144225500Y-94234674D01*
X144225500Y-93185326D01*
X144225500Y-93185323D01*
X144225499Y-93185321D01*
X144210967Y-93112264D01*
X144210966Y-93112260D01*
X144183063Y-93070500D01*
X144155601Y-93029399D01*
X144072740Y-92974034D01*
X144072739Y-92974033D01*
X144072735Y-92974032D01*
X143999677Y-92959500D01*
X143999674Y-92959500D01*
X143699500Y-92959500D01*
X143632461Y-92939815D01*
X143586706Y-92887011D01*
X143575500Y-92835500D01*
X143575500Y-91943858D01*
X143575500Y-91943856D01*
X143551614Y-91854712D01*
X143546278Y-91845470D01*
X143505470Y-91774788D01*
X142850212Y-91119530D01*
X142850211Y-91119529D01*
X142850208Y-91119527D01*
X142770289Y-91073386D01*
X142766306Y-91072319D01*
X142759405Y-91070470D01*
X142759404Y-91070469D01*
X142702113Y-91055118D01*
X142681144Y-91049500D01*
X142681143Y-91049500D01*
X141281544Y-91049500D01*
X141252103Y-91040855D01*
X141222117Y-91034332D01*
X141217101Y-91030577D01*
X141214505Y-91029815D01*
X141193863Y-91013181D01*
X141166819Y-90986137D01*
X141133334Y-90924814D01*
X141130500Y-90898456D01*
X141130500Y-90034972D01*
X141150185Y-89967933D01*
X141185610Y-89931869D01*
X141199669Y-89922476D01*
X141290276Y-89831869D01*
X141361465Y-89725327D01*
X141410501Y-89606944D01*
X141435500Y-89481269D01*
X141435500Y-89353131D01*
X141435500Y-89353128D01*
X141410502Y-89227461D01*
X141410501Y-89227460D01*
X141410501Y-89227456D01*
X141361465Y-89109073D01*
X141361464Y-89109072D01*
X141361461Y-89109066D01*
X141290276Y-89002531D01*
X141290273Y-89002527D01*
X141199672Y-88911926D01*
X141199668Y-88911923D01*
X141093133Y-88840738D01*
X141093124Y-88840733D01*
X140974744Y-88791699D01*
X140974738Y-88791697D01*
X140849071Y-88766700D01*
X140849069Y-88766700D01*
X140720931Y-88766700D01*
X140720929Y-88766700D01*
X140595261Y-88791697D01*
X140595255Y-88791699D01*
X140476875Y-88840733D01*
X140476866Y-88840738D01*
X140370331Y-88911923D01*
X140370327Y-88911926D01*
X140279726Y-89002527D01*
X140279723Y-89002531D01*
X140208538Y-89109066D01*
X140208533Y-89109075D01*
X140159499Y-89227455D01*
X140159497Y-89227461D01*
X140134500Y-89353128D01*
X140134500Y-89353131D01*
X140134500Y-89481269D01*
X140134500Y-89481271D01*
X140134499Y-89481271D01*
X137582300Y-89481271D01*
X137582300Y-89481269D01*
X137582300Y-89353131D01*
X137582300Y-89353128D01*
X137557302Y-89227461D01*
X137557301Y-89227460D01*
X137557301Y-89227456D01*
X137508265Y-89109073D01*
X137508264Y-89109072D01*
X137508261Y-89109066D01*
X137437076Y-89002531D01*
X137437073Y-89002527D01*
X137346472Y-88911926D01*
X137346468Y-88911923D01*
X137239933Y-88840738D01*
X137239924Y-88840733D01*
X137121544Y-88791699D01*
X137121538Y-88791697D01*
X136995871Y-88766700D01*
X136995869Y-88766700D01*
X136867731Y-88766700D01*
X136867729Y-88766700D01*
X136742061Y-88791697D01*
X136742055Y-88791699D01*
X136623675Y-88840733D01*
X136623666Y-88840738D01*
X136517131Y-88911923D01*
X136517127Y-88911926D01*
X136426526Y-89002527D01*
X136426523Y-89002531D01*
X136355338Y-89109066D01*
X136355333Y-89109075D01*
X136306299Y-89227455D01*
X136306297Y-89227461D01*
X136281300Y-89353128D01*
X136281300Y-89353131D01*
X136281300Y-89481269D01*
X136281300Y-89481271D01*
X136281299Y-89481271D01*
X126770500Y-89481271D01*
X126770500Y-79355321D01*
X144771900Y-79355321D01*
X144771900Y-81404678D01*
X144786432Y-81477735D01*
X144786433Y-81477739D01*
X144803803Y-81503735D01*
X144841799Y-81560601D01*
X144880830Y-81586680D01*
X144924660Y-81615966D01*
X144924664Y-81615967D01*
X144997721Y-81630499D01*
X144997724Y-81630500D01*
X144997726Y-81630500D01*
X145847076Y-81630500D01*
X145847077Y-81630499D01*
X145920140Y-81615966D01*
X145988512Y-81570282D01*
X146055186Y-81549405D01*
X146109106Y-81560680D01*
X146118076Y-81564795D01*
X146194660Y-81615966D01*
X146256371Y-81628241D01*
X146269606Y-81634313D01*
X146285423Y-81648067D01*
X146304002Y-81657785D01*
X146311261Y-81670533D01*
X146322331Y-81680159D01*
X146328202Y-81700284D01*
X146338576Y-81718501D01*
X146341900Y-81747018D01*
X146341900Y-82188545D01*
X146361765Y-82262684D01*
X146365785Y-82277686D01*
X146365787Y-82277691D01*
X146411927Y-82357608D01*
X146411929Y-82357611D01*
X146411930Y-82357612D01*
X146905788Y-82851470D01*
X146981358Y-82895100D01*
X146985712Y-82897614D01*
X147074856Y-82921500D01*
X149225900Y-82921500D01*
X149292939Y-82941185D01*
X149338694Y-82993989D01*
X149349900Y-83045500D01*
X149349900Y-91125744D01*
X149363950Y-91178181D01*
X149373683Y-91214504D01*
X149373786Y-91214890D01*
X149419927Y-91294808D01*
X149419931Y-91294813D01*
X150443181Y-92318063D01*
X150476666Y-92379386D01*
X150479500Y-92405744D01*
X150479500Y-106159663D01*
X150493294Y-106211144D01*
X150493294Y-106211145D01*
X150503384Y-106248805D01*
X150503385Y-106248806D01*
X150549527Y-106328728D01*
X150549529Y-106328731D01*
X150549530Y-106328732D01*
X151316011Y-107095212D01*
X151381268Y-107160469D01*
X151381271Y-107160470D01*
X151381274Y-107160473D01*
X151461186Y-107206611D01*
X151461187Y-107206611D01*
X151461192Y-107206614D01*
X151550336Y-107230500D01*
X151550338Y-107230500D01*
X167571142Y-107230500D01*
X167571144Y-107230500D01*
X167660288Y-107206614D01*
X167740212Y-107160470D01*
X168520470Y-106380212D01*
X168566614Y-106300288D01*
X168590500Y-106211143D01*
X168590500Y-106118856D01*
X168590500Y-105884500D01*
X168610185Y-105817461D01*
X168662989Y-105771706D01*
X168679171Y-105765639D01*
X168696460Y-105760500D01*
X168714674Y-105760500D01*
X168787740Y-105745966D01*
X168821701Y-105723274D01*
X168839671Y-105717933D01*
X168856616Y-105717876D01*
X168872786Y-105712814D01*
X168890829Y-105717763D01*
X168909540Y-105717702D01*
X168923824Y-105726815D01*
X168940166Y-105731298D01*
X168943873Y-105733680D01*
X168962260Y-105745966D01*
X168962262Y-105745966D01*
X168962264Y-105745967D01*
X169035321Y-105760499D01*
X169035324Y-105760500D01*
X169035326Y-105760500D01*
X169984676Y-105760500D01*
X169984677Y-105760499D01*
X170057740Y-105745966D01*
X170140601Y-105690601D01*
X170195966Y-105607740D01*
X170210500Y-105534674D01*
X170210500Y-103985326D01*
X170210500Y-103985323D01*
X170210499Y-103985321D01*
X170195967Y-103912264D01*
X170195966Y-103912260D01*
X170140601Y-103829399D01*
X170057740Y-103774034D01*
X170057739Y-103774033D01*
X170057735Y-103774032D01*
X169984677Y-103759500D01*
X169984674Y-103759500D01*
X169984500Y-103759500D01*
X169984410Y-103759473D01*
X169978614Y-103758903D01*
X169978722Y-103757803D01*
X169917461Y-103739815D01*
X169871706Y-103687011D01*
X169860500Y-103635500D01*
X169860500Y-99038644D01*
X169880185Y-98971605D01*
X169896819Y-98950963D01*
X170202819Y-98644963D01*
X170264142Y-98611478D01*
X170333834Y-98616462D01*
X170389767Y-98658334D01*
X170414184Y-98723798D01*
X170414500Y-98732644D01*
X170414500Y-101835568D01*
X170394815Y-101902607D01*
X170359396Y-101938667D01*
X170350328Y-101944726D01*
X170350324Y-101944730D01*
X170259726Y-102035327D01*
X170259723Y-102035331D01*
X170188538Y-102141866D01*
X170188533Y-102141875D01*
X170139499Y-102260255D01*
X170139497Y-102260261D01*
X170114500Y-102385928D01*
X170114500Y-102385931D01*
X170114500Y-102514069D01*
X170114500Y-102514071D01*
X170114499Y-102514071D01*
X170139497Y-102639738D01*
X170139499Y-102639744D01*
X170188533Y-102758124D01*
X170188538Y-102758133D01*
X170259723Y-102864668D01*
X170259726Y-102864672D01*
X170350327Y-102955273D01*
X170350331Y-102955276D01*
X170456866Y-103026461D01*
X170456872Y-103026464D01*
X170456873Y-103026465D01*
X170575256Y-103075501D01*
X170575260Y-103075501D01*
X170575261Y-103075502D01*
X170700928Y-103100500D01*
X170700931Y-103100500D01*
X170829071Y-103100500D01*
X170913615Y-103083682D01*
X170954744Y-103075501D01*
X171073127Y-103026465D01*
X171179669Y-102955276D01*
X171270276Y-102864669D01*
X171341465Y-102758127D01*
X171390501Y-102639744D01*
X171415500Y-102514069D01*
X171415500Y-102385931D01*
X171415500Y-102385928D01*
X171390502Y-102260261D01*
X171390501Y-102260260D01*
X171390501Y-102260256D01*
X171341465Y-102141873D01*
X171341464Y-102141872D01*
X171341461Y-102141866D01*
X171270276Y-102035331D01*
X171270273Y-102035327D01*
X171179676Y-101944730D01*
X171179671Y-101944726D01*
X171179669Y-101944724D01*
X171170603Y-101938666D01*
X171165515Y-101932577D01*
X171158297Y-101929281D01*
X171143432Y-101906151D01*
X171125802Y-101885053D01*
X171123851Y-101875681D01*
X171120523Y-101870503D01*
X171115500Y-101835568D01*
X171115500Y-101764071D01*
X173369499Y-101764071D01*
X173394497Y-101889738D01*
X173394499Y-101889744D01*
X173443533Y-102008124D01*
X173443538Y-102008133D01*
X173514723Y-102114668D01*
X173514726Y-102114672D01*
X173605327Y-102205273D01*
X173605331Y-102205276D01*
X173711866Y-102276461D01*
X173711872Y-102276464D01*
X173711873Y-102276465D01*
X173830256Y-102325501D01*
X173830260Y-102325501D01*
X173830261Y-102325502D01*
X173955928Y-102350500D01*
X173955931Y-102350500D01*
X174084071Y-102350500D01*
X174168615Y-102333682D01*
X174209744Y-102325501D01*
X174328127Y-102276465D01*
X174434669Y-102205276D01*
X174525276Y-102114669D01*
X174531330Y-102105609D01*
X174584942Y-102060804D01*
X174634432Y-102050500D01*
X175146142Y-102050500D01*
X175146144Y-102050500D01*
X175235288Y-102026614D01*
X175315212Y-101980470D01*
X175950470Y-101345212D01*
X175996614Y-101265288D01*
X175996615Y-101265285D01*
X176014233Y-101199532D01*
X176014233Y-101199530D01*
X176020500Y-101176144D01*
X176020500Y-93304071D01*
X179339499Y-93304071D01*
X179364497Y-93429738D01*
X179364499Y-93429744D01*
X179413533Y-93548124D01*
X179413538Y-93548133D01*
X179484723Y-93654668D01*
X179484726Y-93654672D01*
X179575325Y-93745271D01*
X179575328Y-93745273D01*
X179575331Y-93745276D01*
X179584388Y-93751327D01*
X179629193Y-93804935D01*
X179639500Y-93854431D01*
X179639500Y-99906144D01*
X179652914Y-99956206D01*
X179663384Y-99995285D01*
X179663385Y-99995286D01*
X179663386Y-99995288D01*
X179671829Y-100009912D01*
X179709527Y-100075208D01*
X179709529Y-100075211D01*
X179709530Y-100075212D01*
X180564788Y-100930470D01*
X180564789Y-100930471D01*
X180564791Y-100930472D01*
X180604750Y-100953542D01*
X180644712Y-100976614D01*
X180733856Y-101000500D01*
X180733857Y-101000500D01*
X180826144Y-101000500D01*
X183172209Y-101000500D01*
X183239248Y-101020185D01*
X183285003Y-101072989D01*
X183288391Y-101081167D01*
X183311202Y-101142328D01*
X183311206Y-101142335D01*
X183397452Y-101257544D01*
X183397455Y-101257547D01*
X183512664Y-101343793D01*
X183512671Y-101343797D01*
X183647517Y-101394091D01*
X183647516Y-101394091D01*
X183654444Y-101394835D01*
X183707127Y-101400500D01*
X186102872Y-101400499D01*
X186162483Y-101394091D01*
X186297331Y-101343796D01*
X186412546Y-101257546D01*
X186498796Y-101142331D01*
X186510688Y-101110447D01*
X186521609Y-101081167D01*
X186563480Y-101025233D01*
X186628944Y-101000816D01*
X186637791Y-101000500D01*
X188972209Y-101000500D01*
X189039248Y-101020185D01*
X189085003Y-101072989D01*
X189088391Y-101081167D01*
X189111202Y-101142328D01*
X189111206Y-101142335D01*
X189197452Y-101257544D01*
X189197455Y-101257547D01*
X189312664Y-101343793D01*
X189312671Y-101343797D01*
X189447517Y-101394091D01*
X189447516Y-101394091D01*
X189454444Y-101394835D01*
X189507127Y-101400500D01*
X191902872Y-101400499D01*
X191962483Y-101394091D01*
X192097331Y-101343796D01*
X192212546Y-101257546D01*
X192291320Y-101152317D01*
X192347251Y-101110447D01*
X192416943Y-101105463D01*
X192478266Y-101138948D01*
X192928181Y-101588862D01*
X192961666Y-101650185D01*
X192964500Y-101676543D01*
X192964500Y-105686144D01*
X192967446Y-105697137D01*
X192980976Y-105747635D01*
X192980983Y-105747658D01*
X192980986Y-105747669D01*
X192984424Y-105760499D01*
X192988386Y-105775289D01*
X193034527Y-105855208D01*
X193034529Y-105855211D01*
X193034530Y-105855212D01*
X193769788Y-106590470D01*
X193849712Y-106636614D01*
X193938856Y-106660500D01*
X194000501Y-106660500D01*
X194067540Y-106680185D01*
X194113295Y-106732989D01*
X194124501Y-106784500D01*
X194124501Y-106862876D01*
X194130908Y-106922483D01*
X194181202Y-107057328D01*
X194181206Y-107057335D01*
X194267452Y-107172544D01*
X194267455Y-107172547D01*
X194382664Y-107258793D01*
X194382671Y-107258797D01*
X194517517Y-107309091D01*
X194517516Y-107309091D01*
X194524444Y-107309835D01*
X194577127Y-107315500D01*
X195972872Y-107315499D01*
X196032483Y-107309091D01*
X196167331Y-107258796D01*
X196282546Y-107172546D01*
X196368796Y-107057331D01*
X196419091Y-106922483D01*
X196425500Y-106862873D01*
X196425499Y-105942128D01*
X196419091Y-105882517D01*
X196408907Y-105855213D01*
X196368796Y-105747669D01*
X196368793Y-105747664D01*
X196282547Y-105632455D01*
X196282544Y-105632452D01*
X196167335Y-105546206D01*
X196167328Y-105546202D01*
X196032482Y-105495908D01*
X196032483Y-105495908D01*
X195972883Y-105489501D01*
X195972881Y-105489500D01*
X195972873Y-105489500D01*
X195972864Y-105489500D01*
X194577129Y-105489500D01*
X194577123Y-105489501D01*
X194517516Y-105495908D01*
X194382671Y-105546202D01*
X194382664Y-105546206D01*
X194267455Y-105632452D01*
X194267452Y-105632455D01*
X194181206Y-105747664D01*
X194181203Y-105747669D01*
X194177226Y-105758334D01*
X194135354Y-105814267D01*
X194069890Y-105838684D01*
X194001617Y-105823832D01*
X193973363Y-105802681D01*
X193701819Y-105531137D01*
X193668334Y-105469814D01*
X193665500Y-105443456D01*
X193665500Y-101433858D01*
X193665500Y-101433856D01*
X193641614Y-101344712D01*
X193641086Y-101343797D01*
X193595473Y-101264794D01*
X193595470Y-101264791D01*
X193595469Y-101264788D01*
X193530212Y-101199531D01*
X192700212Y-100369530D01*
X192700211Y-100369529D01*
X192700208Y-100369527D01*
X192620289Y-100323386D01*
X192615019Y-100321974D01*
X192615017Y-100321973D01*
X192606576Y-100319712D01*
X192531144Y-100299500D01*
X192430273Y-100299500D01*
X192422817Y-100298593D01*
X192397349Y-100287625D01*
X192370752Y-100279815D01*
X192365713Y-100274000D01*
X192358645Y-100270956D01*
X192343151Y-100247962D01*
X192324997Y-100227011D01*
X192321609Y-100218833D01*
X192298797Y-100157671D01*
X192298793Y-100157664D01*
X192212547Y-100042455D01*
X192212544Y-100042452D01*
X192097335Y-99956206D01*
X192097328Y-99956202D01*
X191962482Y-99905908D01*
X191962483Y-99905908D01*
X191902883Y-99899501D01*
X191902881Y-99899500D01*
X191902873Y-99899500D01*
X191902865Y-99899500D01*
X191179500Y-99899500D01*
X191112461Y-99879815D01*
X191066706Y-99827011D01*
X191055500Y-99775500D01*
X191055500Y-99056544D01*
X191075185Y-98989505D01*
X191091819Y-98968863D01*
X192133863Y-97926819D01*
X192195186Y-97893334D01*
X192221544Y-97890500D01*
X194007649Y-97890500D01*
X194074688Y-97910185D01*
X194120443Y-97962989D01*
X194130939Y-98001248D01*
X194135908Y-98047483D01*
X194186202Y-98182328D01*
X194186206Y-98182335D01*
X194272452Y-98297544D01*
X194272455Y-98297547D01*
X194387664Y-98383793D01*
X194387671Y-98383797D01*
X194522517Y-98434091D01*
X194522516Y-98434091D01*
X194529444Y-98434835D01*
X194582127Y-98440500D01*
X195927872Y-98440499D01*
X195987483Y-98434091D01*
X196122331Y-98383796D01*
X196237546Y-98297546D01*
X196323796Y-98182331D01*
X196374091Y-98047483D01*
X196380500Y-97987873D01*
X196380499Y-97092128D01*
X196374091Y-97032517D01*
X196362160Y-97000529D01*
X196323797Y-96897671D01*
X196323793Y-96897664D01*
X196237547Y-96782455D01*
X196237544Y-96782452D01*
X196122335Y-96696206D01*
X196122328Y-96696202D01*
X195987482Y-96645908D01*
X195987483Y-96645908D01*
X195927883Y-96639501D01*
X195927881Y-96639500D01*
X195927873Y-96639500D01*
X195927864Y-96639500D01*
X194582129Y-96639500D01*
X194582123Y-96639501D01*
X194522516Y-96645908D01*
X194387671Y-96696202D01*
X194387664Y-96696206D01*
X194272455Y-96782452D01*
X194272452Y-96782455D01*
X194186206Y-96897664D01*
X194186202Y-96897671D01*
X194142334Y-97015290D01*
X194135909Y-97032517D01*
X194130937Y-97078757D01*
X194104201Y-97143306D01*
X194046809Y-97183154D01*
X194007649Y-97189500D01*
X191978856Y-97189500D01*
X191889712Y-97213386D01*
X191889709Y-97213387D01*
X191809791Y-97259527D01*
X191809786Y-97259531D01*
X190424529Y-98644788D01*
X190388723Y-98706809D01*
X190388721Y-98706811D01*
X190378386Y-98724709D01*
X190378386Y-98724710D01*
X190354500Y-98813856D01*
X190354500Y-99775500D01*
X190334815Y-99842539D01*
X190282011Y-99888294D01*
X190230500Y-99899500D01*
X189507129Y-99899500D01*
X189507123Y-99899501D01*
X189447516Y-99905908D01*
X189312671Y-99956202D01*
X189312664Y-99956206D01*
X189197455Y-100042452D01*
X189197452Y-100042455D01*
X189111206Y-100157664D01*
X189111202Y-100157671D01*
X189088391Y-100218833D01*
X189046520Y-100274767D01*
X188981056Y-100299184D01*
X188972209Y-100299500D01*
X186637791Y-100299500D01*
X186570752Y-100279815D01*
X186524997Y-100227011D01*
X186521609Y-100218833D01*
X186498797Y-100157671D01*
X186498793Y-100157664D01*
X186412547Y-100042455D01*
X186412544Y-100042452D01*
X186297335Y-99956206D01*
X186297328Y-99956202D01*
X186162482Y-99905908D01*
X186162483Y-99905908D01*
X186102883Y-99899501D01*
X186102881Y-99899500D01*
X186102873Y-99899500D01*
X186102864Y-99899500D01*
X183707129Y-99899500D01*
X183707123Y-99899501D01*
X183647516Y-99905908D01*
X183512671Y-99956202D01*
X183512664Y-99956206D01*
X183397455Y-100042452D01*
X183397452Y-100042455D01*
X183311206Y-100157664D01*
X183311202Y-100157671D01*
X183288391Y-100218833D01*
X183246520Y-100274767D01*
X183181056Y-100299184D01*
X183172209Y-100299500D01*
X180976544Y-100299500D01*
X180909505Y-100279815D01*
X180888863Y-100263181D01*
X180376819Y-99751137D01*
X180343334Y-99689814D01*
X180340500Y-99663456D01*
X180340500Y-93854431D01*
X180360185Y-93787392D01*
X180395610Y-93751328D01*
X180404669Y-93745276D01*
X180495276Y-93654669D01*
X180566465Y-93548127D01*
X180615501Y-93429744D01*
X180631703Y-93348294D01*
X180640500Y-93304071D01*
X180640500Y-93175928D01*
X180615502Y-93050261D01*
X180615501Y-93050260D01*
X180615501Y-93050256D01*
X180566465Y-92931873D01*
X180566464Y-92931872D01*
X180566461Y-92931866D01*
X180495276Y-92825331D01*
X180495273Y-92825327D01*
X180404672Y-92734726D01*
X180404668Y-92734723D01*
X180298133Y-92663538D01*
X180298124Y-92663533D01*
X180179744Y-92614499D01*
X180179738Y-92614497D01*
X180054071Y-92589500D01*
X180054069Y-92589500D01*
X179925931Y-92589500D01*
X179925929Y-92589500D01*
X179800261Y-92614497D01*
X179800255Y-92614499D01*
X179681875Y-92663533D01*
X179681866Y-92663538D01*
X179575331Y-92734723D01*
X179575327Y-92734726D01*
X179484726Y-92825327D01*
X179484723Y-92825331D01*
X179413538Y-92931866D01*
X179413533Y-92931875D01*
X179364499Y-93050255D01*
X179364497Y-93050261D01*
X179339500Y-93175928D01*
X179339500Y-93175931D01*
X179339500Y-93304069D01*
X179339500Y-93304071D01*
X179339499Y-93304071D01*
X176020500Y-93304071D01*
X176020500Y-92056544D01*
X176040185Y-91989505D01*
X176056819Y-91968863D01*
X176848863Y-91176819D01*
X176910186Y-91143334D01*
X176936544Y-91140500D01*
X183252209Y-91140500D01*
X183319248Y-91160185D01*
X183365003Y-91212989D01*
X183368391Y-91221167D01*
X183391202Y-91282328D01*
X183391206Y-91282335D01*
X183477452Y-91397544D01*
X183477455Y-91397547D01*
X183592664Y-91483793D01*
X183592671Y-91483797D01*
X183727517Y-91534091D01*
X183727516Y-91534091D01*
X183734444Y-91534835D01*
X183787127Y-91540500D01*
X186182872Y-91540499D01*
X186242483Y-91534091D01*
X186377331Y-91483796D01*
X186492546Y-91397546D01*
X186578796Y-91282331D01*
X186598207Y-91230288D01*
X186601609Y-91221167D01*
X186643480Y-91165233D01*
X186708944Y-91140816D01*
X186717791Y-91140500D01*
X189052209Y-91140500D01*
X189119248Y-91160185D01*
X189165003Y-91212989D01*
X189168391Y-91221167D01*
X189191202Y-91282328D01*
X189191206Y-91282335D01*
X189277452Y-91397544D01*
X189277455Y-91397547D01*
X189392664Y-91483793D01*
X189392671Y-91483797D01*
X189527517Y-91534091D01*
X189527516Y-91534091D01*
X189534444Y-91534835D01*
X189587127Y-91540500D01*
X191982872Y-91540499D01*
X192042483Y-91534091D01*
X192177331Y-91483796D01*
X192292546Y-91397546D01*
X192378796Y-91282331D01*
X192398207Y-91230288D01*
X192401609Y-91221167D01*
X192443480Y-91165233D01*
X192508944Y-91140816D01*
X192517791Y-91140500D01*
X193241142Y-91140500D01*
X193241144Y-91140500D01*
X193330288Y-91116614D01*
X193356518Y-91101470D01*
X193410212Y-91070470D01*
X193977006Y-90503674D01*
X194038327Y-90470191D01*
X194108018Y-90475175D01*
X194163952Y-90517046D01*
X194180866Y-90548022D01*
X194186201Y-90562325D01*
X194186206Y-90562335D01*
X194272452Y-90677544D01*
X194272455Y-90677547D01*
X194387664Y-90763793D01*
X194387671Y-90763797D01*
X194522517Y-90814091D01*
X194522516Y-90814091D01*
X194529444Y-90814835D01*
X194582127Y-90820500D01*
X195927872Y-90820499D01*
X195987483Y-90814091D01*
X196122331Y-90763796D01*
X196237546Y-90677546D01*
X196323796Y-90562331D01*
X196374091Y-90427483D01*
X196380500Y-90367873D01*
X196380499Y-89472128D01*
X196374091Y-89412517D01*
X196351941Y-89353131D01*
X196323797Y-89277671D01*
X196323793Y-89277664D01*
X196237547Y-89162455D01*
X196237544Y-89162452D01*
X196122335Y-89076206D01*
X196122328Y-89076202D01*
X195987482Y-89025908D01*
X195987483Y-89025908D01*
X195927883Y-89019501D01*
X195927881Y-89019500D01*
X195927873Y-89019500D01*
X195927864Y-89019500D01*
X194582129Y-89019500D01*
X194582123Y-89019501D01*
X194522516Y-89025908D01*
X194387671Y-89076202D01*
X194387664Y-89076206D01*
X194272455Y-89162452D01*
X194272452Y-89162455D01*
X194186206Y-89277664D01*
X194186202Y-89277671D01*
X194135908Y-89412516D01*
X194130893Y-89459167D01*
X194104155Y-89523718D01*
X194046762Y-89563566D01*
X194023796Y-89568849D01*
X194018861Y-89569498D01*
X193929712Y-89593386D01*
X193929709Y-89593387D01*
X193849791Y-89639527D01*
X193849786Y-89639531D01*
X193086137Y-90403181D01*
X193024814Y-90436666D01*
X192998456Y-90439500D01*
X192517791Y-90439500D01*
X192450752Y-90419815D01*
X192404997Y-90367011D01*
X192401609Y-90358833D01*
X192378797Y-90297671D01*
X192378793Y-90297664D01*
X192292547Y-90182455D01*
X192292544Y-90182452D01*
X192177335Y-90096206D01*
X192177328Y-90096202D01*
X192042482Y-90045908D01*
X192042483Y-90045908D01*
X191982883Y-90039501D01*
X191982881Y-90039500D01*
X191982873Y-90039500D01*
X191982864Y-90039500D01*
X189587129Y-90039500D01*
X189587123Y-90039501D01*
X189527516Y-90045908D01*
X189392671Y-90096202D01*
X189392664Y-90096206D01*
X189277455Y-90182452D01*
X189277452Y-90182455D01*
X189191206Y-90297664D01*
X189191202Y-90297671D01*
X189168391Y-90358833D01*
X189126520Y-90414767D01*
X189061056Y-90439184D01*
X189052209Y-90439500D01*
X186717791Y-90439500D01*
X186650752Y-90419815D01*
X186604997Y-90367011D01*
X186601609Y-90358833D01*
X186578797Y-90297671D01*
X186578793Y-90297664D01*
X186492547Y-90182455D01*
X186492544Y-90182452D01*
X186377335Y-90096206D01*
X186377328Y-90096202D01*
X186242482Y-90045908D01*
X186242483Y-90045908D01*
X186182883Y-90039501D01*
X186182881Y-90039500D01*
X186182873Y-90039500D01*
X186182864Y-90039500D01*
X183787129Y-90039500D01*
X183787123Y-90039501D01*
X183727516Y-90045908D01*
X183592671Y-90096202D01*
X183592664Y-90096206D01*
X183477455Y-90182452D01*
X183477452Y-90182455D01*
X183391206Y-90297664D01*
X183391202Y-90297671D01*
X183368391Y-90358833D01*
X183326520Y-90414767D01*
X183261056Y-90439184D01*
X183252209Y-90439500D01*
X176693856Y-90439500D01*
X176619214Y-90459500D01*
X176619213Y-90459499D01*
X176604714Y-90463385D01*
X176604709Y-90463387D01*
X176524791Y-90509527D01*
X176524786Y-90509531D01*
X175389531Y-91644786D01*
X175389527Y-91644791D01*
X175363716Y-91689499D01*
X175363716Y-91689500D01*
X175343386Y-91724710D01*
X175319500Y-91813856D01*
X175319500Y-100933456D01*
X175299815Y-101000495D01*
X175283181Y-101021137D01*
X174991137Y-101313181D01*
X174929814Y-101346666D01*
X174903456Y-101349500D01*
X174634432Y-101349500D01*
X174567393Y-101329815D01*
X174531330Y-101294391D01*
X174525276Y-101285330D01*
X174434672Y-101194726D01*
X174434668Y-101194723D01*
X174328133Y-101123538D01*
X174328124Y-101123533D01*
X174209744Y-101074499D01*
X174209738Y-101074497D01*
X174084071Y-101049500D01*
X174084069Y-101049500D01*
X173955931Y-101049500D01*
X173955929Y-101049500D01*
X173830261Y-101074497D01*
X173830255Y-101074499D01*
X173711875Y-101123533D01*
X173711866Y-101123538D01*
X173605331Y-101194723D01*
X173605327Y-101194726D01*
X173514726Y-101285327D01*
X173514723Y-101285331D01*
X173443538Y-101391866D01*
X173443533Y-101391875D01*
X173394499Y-101510255D01*
X173394497Y-101510261D01*
X173369500Y-101635928D01*
X173369500Y-101635931D01*
X173369500Y-101764069D01*
X173369500Y-101764071D01*
X173369499Y-101764071D01*
X171115500Y-101764071D01*
X171115500Y-98350744D01*
X171135185Y-98283705D01*
X171151819Y-98263063D01*
X171524382Y-97890500D01*
X172334430Y-97080452D01*
X172380574Y-97000528D01*
X172400505Y-96926144D01*
X172404460Y-96911384D01*
X172404460Y-92498500D01*
X172424145Y-92431461D01*
X172476949Y-92385706D01*
X172528460Y-92374500D01*
X173730542Y-92374500D01*
X173730544Y-92374500D01*
X173819688Y-92350614D01*
X173899612Y-92304470D01*
X175044470Y-91159612D01*
X175090614Y-91079688D01*
X175098491Y-91050289D01*
X175114500Y-90990544D01*
X175114500Y-83137856D01*
X175090614Y-83048712D01*
X175082186Y-83034114D01*
X175044470Y-82968788D01*
X174709753Y-82634071D01*
X181159499Y-82634071D01*
X181184497Y-82759738D01*
X181184499Y-82759744D01*
X181233533Y-82878124D01*
X181233538Y-82878133D01*
X181288602Y-82960541D01*
X181309480Y-83027218D01*
X181309500Y-83029432D01*
X181309500Y-85125891D01*
X181343608Y-85253187D01*
X181376554Y-85310250D01*
X181409500Y-85367314D01*
X183079500Y-87037314D01*
X183172686Y-87130500D01*
X183286814Y-87196392D01*
X183414108Y-87230500D01*
X195381324Y-87230500D01*
X195448363Y-87250185D01*
X195469005Y-87266819D01*
X196763181Y-88560995D01*
X196796666Y-88622318D01*
X196799500Y-88648676D01*
X196799500Y-91931323D01*
X196779815Y-91998362D01*
X196763181Y-92019004D01*
X196459542Y-92322642D01*
X196398219Y-92356127D01*
X196328527Y-92351143D01*
X196272595Y-92309273D01*
X196256119Y-92287264D01*
X196237546Y-92262454D01*
X196237544Y-92262453D01*
X196237544Y-92262452D01*
X196122335Y-92176206D01*
X196122328Y-92176202D01*
X195987482Y-92125908D01*
X195987483Y-92125908D01*
X195927883Y-92119501D01*
X195927881Y-92119500D01*
X195927873Y-92119500D01*
X195927864Y-92119500D01*
X194582129Y-92119500D01*
X194582123Y-92119501D01*
X194522516Y-92125908D01*
X194387671Y-92176202D01*
X194387664Y-92176206D01*
X194272455Y-92262452D01*
X194272452Y-92262455D01*
X194186206Y-92377664D01*
X194186202Y-92377671D01*
X194135908Y-92512517D01*
X194129501Y-92572116D01*
X194129500Y-92572135D01*
X194129500Y-93467870D01*
X194129501Y-93467876D01*
X194135908Y-93527483D01*
X194186202Y-93662328D01*
X194186206Y-93662335D01*
X194272452Y-93777544D01*
X194272455Y-93777547D01*
X194387664Y-93863793D01*
X194387671Y-93863797D01*
X194522517Y-93914091D01*
X194522516Y-93914091D01*
X194529444Y-93914835D01*
X194582127Y-93920500D01*
X195927872Y-93920499D01*
X195987483Y-93914091D01*
X196122331Y-93863796D01*
X196237546Y-93777546D01*
X196323796Y-93662331D01*
X196335735Y-93630321D01*
X196346609Y-93601167D01*
X196388480Y-93545233D01*
X196443762Y-93521969D01*
X196453221Y-93520500D01*
X196535892Y-93520500D01*
X196649868Y-93489960D01*
X196656471Y-93488935D01*
X196684744Y-93492675D01*
X196713256Y-93493354D01*
X196718936Y-93497198D01*
X196725737Y-93498098D01*
X196747499Y-93516530D01*
X196771119Y-93532516D01*
X196773819Y-93538822D01*
X196779053Y-93543255D01*
X196787395Y-93570526D01*
X196798623Y-93596745D01*
X196799398Y-93609762D01*
X196799492Y-93610068D01*
X196799429Y-93610288D01*
X196799500Y-93611466D01*
X196799500Y-99691324D01*
X196779815Y-99758363D01*
X196763181Y-99779005D01*
X196518880Y-100023305D01*
X196457557Y-100056790D01*
X196387865Y-100051806D01*
X196331932Y-100009934D01*
X196325580Y-100000052D01*
X196237547Y-99882455D01*
X196237544Y-99882452D01*
X196122335Y-99796206D01*
X196122328Y-99796202D01*
X195987482Y-99745908D01*
X195987483Y-99745908D01*
X195927883Y-99739501D01*
X195927881Y-99739500D01*
X195927873Y-99739500D01*
X195927864Y-99739500D01*
X194582129Y-99739500D01*
X194582123Y-99739501D01*
X194522516Y-99745908D01*
X194387671Y-99796202D01*
X194387664Y-99796206D01*
X194272455Y-99882452D01*
X194272452Y-99882455D01*
X194186206Y-99997664D01*
X194186202Y-99997671D01*
X194135908Y-100132517D01*
X194129501Y-100192116D01*
X194129500Y-100192135D01*
X194129500Y-101087870D01*
X194129501Y-101087876D01*
X194135908Y-101147483D01*
X194186202Y-101282328D01*
X194186206Y-101282335D01*
X194272452Y-101397544D01*
X194272455Y-101397547D01*
X194387664Y-101483793D01*
X194387671Y-101483797D01*
X194522517Y-101534091D01*
X194522516Y-101534091D01*
X194529444Y-101534835D01*
X194582127Y-101540500D01*
X195927872Y-101540499D01*
X195987483Y-101534091D01*
X196122331Y-101483796D01*
X196237546Y-101397546D01*
X196323796Y-101282331D01*
X196346609Y-101221167D01*
X196388480Y-101165233D01*
X196453944Y-101140816D01*
X196462791Y-101140500D01*
X196675890Y-101140500D01*
X196675892Y-101140500D01*
X196803186Y-101106392D01*
X196917314Y-101040500D01*
X197700499Y-100257315D01*
X197710619Y-100239788D01*
X197766392Y-100143186D01*
X197776758Y-100104500D01*
X197777518Y-100101666D01*
X197780899Y-100089042D01*
X197800500Y-100015893D01*
X197800500Y-99884108D01*
X197800500Y-89848681D01*
X205029500Y-89848681D01*
X205029500Y-90191318D01*
X205067858Y-90531768D01*
X205067860Y-90531780D01*
X205067861Y-90531783D01*
X205081191Y-90590185D01*
X205144102Y-90865816D01*
X205144103Y-90865818D01*
X205257264Y-91189216D01*
X205405922Y-91497907D01*
X205405924Y-91497910D01*
X205588211Y-91788018D01*
X205801834Y-92055893D01*
X206044107Y-92298166D01*
X206311982Y-92511789D01*
X206602090Y-92694076D01*
X206910785Y-92842736D01*
X207234183Y-92955897D01*
X207568217Y-93032139D01*
X207568226Y-93032140D01*
X207568231Y-93032141D01*
X207795197Y-93057713D01*
X207908682Y-93070499D01*
X207908685Y-93070500D01*
X207908688Y-93070500D01*
X208251315Y-93070500D01*
X208251316Y-93070499D01*
X208430987Y-93050256D01*
X208591768Y-93032141D01*
X208591771Y-93032140D01*
X208591783Y-93032139D01*
X208925817Y-92955897D01*
X209249215Y-92842736D01*
X209557910Y-92694076D01*
X209848018Y-92511789D01*
X210115893Y-92298166D01*
X210358166Y-92055893D01*
X210571789Y-91788018D01*
X210754076Y-91497910D01*
X210902736Y-91189215D01*
X211015897Y-90865817D01*
X211092139Y-90531783D01*
X211093800Y-90517046D01*
X211118517Y-90297664D01*
X211130500Y-90191312D01*
X211130500Y-89848688D01*
X211099044Y-89569498D01*
X211092141Y-89508231D01*
X211092140Y-89508226D01*
X211092139Y-89508217D01*
X211015897Y-89174183D01*
X210902736Y-88850785D01*
X210754076Y-88542090D01*
X210571789Y-88251982D01*
X210358166Y-87984107D01*
X210115893Y-87741834D01*
X210106696Y-87734500D01*
X209921253Y-87586614D01*
X209848018Y-87528211D01*
X209557910Y-87345924D01*
X209557907Y-87345922D01*
X209249216Y-87197264D01*
X208925818Y-87084103D01*
X208925816Y-87084102D01*
X208668024Y-87025262D01*
X208591783Y-87007861D01*
X208591780Y-87007860D01*
X208591768Y-87007858D01*
X208251318Y-86969500D01*
X208251312Y-86969500D01*
X207908688Y-86969500D01*
X207908681Y-86969500D01*
X207568231Y-87007858D01*
X207568217Y-87007861D01*
X207234183Y-87084102D01*
X207234181Y-87084103D01*
X206910783Y-87197264D01*
X206602092Y-87345922D01*
X206311983Y-87528210D01*
X206044107Y-87741833D01*
X205801833Y-87984107D01*
X205588210Y-88251983D01*
X205405922Y-88542092D01*
X205257264Y-88850783D01*
X205144103Y-89174181D01*
X205144102Y-89174183D01*
X205067861Y-89508217D01*
X205067858Y-89508231D01*
X205029500Y-89848681D01*
X197800500Y-89848681D01*
X197800500Y-88324108D01*
X197766392Y-88196814D01*
X197700500Y-88082686D01*
X197607314Y-87989500D01*
X195947314Y-86329500D01*
X195860350Y-86279291D01*
X195833187Y-86263608D01*
X195744388Y-86239815D01*
X195705892Y-86229500D01*
X195705891Y-86229500D01*
X183738676Y-86229500D01*
X183671637Y-86209815D01*
X183650995Y-86193181D01*
X182346819Y-84889005D01*
X182313334Y-84827682D01*
X182310500Y-84801324D01*
X182310500Y-83551973D01*
X192834500Y-83551973D01*
X192834500Y-84978010D01*
X192834501Y-84978018D01*
X192840687Y-85056643D01*
X192840688Y-85056645D01*
X192889680Y-85239488D01*
X192896660Y-85253187D01*
X192975614Y-85408146D01*
X192990068Y-85425995D01*
X193094743Y-85555257D01*
X193201311Y-85641554D01*
X193241853Y-85674385D01*
X193325371Y-85716938D01*
X193410512Y-85760320D01*
X193593355Y-85809312D01*
X193671979Y-85815500D01*
X195498020Y-85815499D01*
X195576645Y-85809312D01*
X195759488Y-85760320D01*
X195888008Y-85694835D01*
X195928146Y-85674385D01*
X195928147Y-85674383D01*
X195928149Y-85674383D01*
X196075257Y-85555257D01*
X196194383Y-85408149D01*
X196280320Y-85239488D01*
X196329312Y-85056645D01*
X196335500Y-84978021D01*
X196335499Y-83551980D01*
X196329312Y-83473355D01*
X196280320Y-83290512D01*
X196231909Y-83195500D01*
X196194385Y-83121853D01*
X196135156Y-83048712D01*
X196075257Y-82974743D01*
X195976905Y-82895099D01*
X195928146Y-82855614D01*
X195802868Y-82791783D01*
X195759488Y-82769680D01*
X195667309Y-82744981D01*
X195576643Y-82720687D01*
X195504736Y-82715028D01*
X195498021Y-82714500D01*
X195498020Y-82714500D01*
X193671989Y-82714500D01*
X193671970Y-82714501D01*
X193593356Y-82720687D01*
X193410512Y-82769680D01*
X193241853Y-82855614D01*
X193094743Y-82974743D01*
X192975614Y-83121853D01*
X192889680Y-83290512D01*
X192840687Y-83473356D01*
X192840687Y-83473357D01*
X192834500Y-83551973D01*
X182310500Y-83551973D01*
X182310500Y-83029432D01*
X182330185Y-82962393D01*
X182331398Y-82960541D01*
X182386461Y-82878133D01*
X182386461Y-82878132D01*
X182386465Y-82878127D01*
X182435501Y-82759744D01*
X182446114Y-82706391D01*
X182460500Y-82634071D01*
X182460500Y-82505928D01*
X182435502Y-82380261D01*
X182435501Y-82380260D01*
X182435501Y-82380256D01*
X182386465Y-82261873D01*
X182386464Y-82261872D01*
X182386461Y-82261866D01*
X182315276Y-82155331D01*
X182315273Y-82155327D01*
X182224672Y-82064726D01*
X182224668Y-82064723D01*
X182118133Y-81993538D01*
X182118124Y-81993533D01*
X181999744Y-81944499D01*
X181999738Y-81944497D01*
X181874071Y-81919500D01*
X181874069Y-81919500D01*
X181745931Y-81919500D01*
X181745929Y-81919500D01*
X181620261Y-81944497D01*
X181620255Y-81944499D01*
X181501875Y-81993533D01*
X181501866Y-81993538D01*
X181395331Y-82064723D01*
X181395327Y-82064726D01*
X181304726Y-82155327D01*
X181304723Y-82155331D01*
X181233538Y-82261866D01*
X181233533Y-82261875D01*
X181184499Y-82380255D01*
X181184497Y-82380261D01*
X181159500Y-82505928D01*
X181159500Y-82505931D01*
X181159500Y-82634069D01*
X181159500Y-82634071D01*
X181159499Y-82634071D01*
X174709753Y-82634071D01*
X174071419Y-81995737D01*
X174056715Y-81968809D01*
X174040123Y-81942991D01*
X174039231Y-81936790D01*
X174037934Y-81934414D01*
X174035100Y-81908056D01*
X174035100Y-81773018D01*
X174054785Y-81705979D01*
X174107589Y-81660224D01*
X174134905Y-81651401D01*
X174182340Y-81641966D01*
X174250712Y-81596282D01*
X174317386Y-81575405D01*
X174384767Y-81593889D01*
X174388448Y-81596255D01*
X174456860Y-81641966D01*
X174456862Y-81641966D01*
X174456864Y-81641967D01*
X174529921Y-81656499D01*
X174529924Y-81656500D01*
X174529926Y-81656500D01*
X175379276Y-81656500D01*
X175379277Y-81656499D01*
X175452340Y-81641966D01*
X175535201Y-81586601D01*
X175590566Y-81503740D01*
X175605100Y-81430674D01*
X175605100Y-79381326D01*
X175605100Y-79381323D01*
X175605099Y-79381321D01*
X175590567Y-79308264D01*
X175590566Y-79308260D01*
X175573196Y-79282264D01*
X175535201Y-79225399D01*
X175452340Y-79170034D01*
X175452339Y-79170033D01*
X175452335Y-79170032D01*
X175379277Y-79155500D01*
X175379274Y-79155500D01*
X174529926Y-79155500D01*
X174529923Y-79155500D01*
X174456864Y-79170032D01*
X174456860Y-79170033D01*
X174422593Y-79192930D01*
X174388488Y-79215717D01*
X174321812Y-79236594D01*
X174254432Y-79218109D01*
X174250726Y-79215727D01*
X174211797Y-79189716D01*
X174182339Y-79170033D01*
X174182335Y-79170032D01*
X174109277Y-79155500D01*
X174109274Y-79155500D01*
X173259926Y-79155500D01*
X173259923Y-79155500D01*
X173186864Y-79170032D01*
X173186860Y-79170033D01*
X173152593Y-79192930D01*
X173118488Y-79215717D01*
X173051812Y-79236594D01*
X172984432Y-79218109D01*
X172980726Y-79215727D01*
X172941797Y-79189716D01*
X172912339Y-79170033D01*
X172912335Y-79170032D01*
X172839277Y-79155500D01*
X172839274Y-79155500D01*
X171989926Y-79155500D01*
X171989923Y-79155500D01*
X171916864Y-79170032D01*
X171916860Y-79170033D01*
X171882593Y-79192930D01*
X171848488Y-79215717D01*
X171781812Y-79236594D01*
X171714432Y-79218109D01*
X171710726Y-79215727D01*
X171671797Y-79189716D01*
X171642339Y-79170033D01*
X171642335Y-79170032D01*
X171569277Y-79155500D01*
X171569274Y-79155500D01*
X170719926Y-79155500D01*
X170719923Y-79155500D01*
X170646864Y-79170032D01*
X170646860Y-79170033D01*
X170612593Y-79192930D01*
X170578488Y-79215717D01*
X170511812Y-79236594D01*
X170444432Y-79218109D01*
X170440726Y-79215727D01*
X170401797Y-79189716D01*
X170372339Y-79170033D01*
X170372335Y-79170032D01*
X170299277Y-79155500D01*
X170299274Y-79155500D01*
X169449926Y-79155500D01*
X169449923Y-79155500D01*
X169376864Y-79170032D01*
X169376860Y-79170033D01*
X169342593Y-79192930D01*
X169308488Y-79215717D01*
X169241812Y-79236594D01*
X169174432Y-79218109D01*
X169170726Y-79215727D01*
X169131797Y-79189716D01*
X169102339Y-79170033D01*
X169102335Y-79170032D01*
X169029277Y-79155500D01*
X169029274Y-79155500D01*
X168179926Y-79155500D01*
X168179923Y-79155500D01*
X168106864Y-79170032D01*
X168106860Y-79170033D01*
X168072593Y-79192930D01*
X168038488Y-79215717D01*
X167971812Y-79236594D01*
X167904432Y-79218109D01*
X167900726Y-79215727D01*
X167861797Y-79189716D01*
X167832339Y-79170033D01*
X167832335Y-79170032D01*
X167759277Y-79155500D01*
X167759274Y-79155500D01*
X166909926Y-79155500D01*
X166909923Y-79155500D01*
X166836864Y-79170032D01*
X166836860Y-79170033D01*
X166753999Y-79225399D01*
X166698633Y-79308260D01*
X166698632Y-79308264D01*
X166684100Y-79381321D01*
X166684100Y-81430678D01*
X166698632Y-81503735D01*
X166698635Y-81503743D01*
X166727278Y-81546610D01*
X166748156Y-81613287D01*
X166729671Y-81680667D01*
X166677692Y-81727357D01*
X166624176Y-81739500D01*
X159318676Y-81739500D01*
X159251637Y-81719815D01*
X159230995Y-81703181D01*
X158346819Y-80819005D01*
X158313334Y-80757682D01*
X158310500Y-80731324D01*
X158310500Y-78851973D01*
X192834500Y-78851973D01*
X192834500Y-80278010D01*
X192834501Y-80278029D01*
X192840687Y-80356643D01*
X192840688Y-80356645D01*
X192889680Y-80539488D01*
X192911783Y-80582868D01*
X192975614Y-80708146D01*
X193015728Y-80757682D01*
X193094743Y-80855257D01*
X193179767Y-80924108D01*
X193241853Y-80974385D01*
X193325371Y-81016938D01*
X193410512Y-81060320D01*
X193593355Y-81109312D01*
X193671979Y-81115500D01*
X195498020Y-81115499D01*
X195576645Y-81109312D01*
X195759488Y-81060320D01*
X195888008Y-80994835D01*
X195928146Y-80974385D01*
X195928147Y-80974383D01*
X195928149Y-80974383D01*
X196075257Y-80855257D01*
X196194383Y-80708149D01*
X196280320Y-80539488D01*
X196329312Y-80356645D01*
X196335500Y-80278021D01*
X196335499Y-78851980D01*
X196329312Y-78773355D01*
X196280320Y-78590512D01*
X196236938Y-78505371D01*
X196194385Y-78421853D01*
X196151990Y-78369500D01*
X196075257Y-78274743D01*
X195988958Y-78204859D01*
X195928146Y-78155614D01*
X195802868Y-78091783D01*
X195759488Y-78069680D01*
X195692562Y-78051747D01*
X195576643Y-78020687D01*
X195504736Y-78015028D01*
X195498021Y-78014500D01*
X195498020Y-78014500D01*
X193671989Y-78014500D01*
X193671970Y-78014501D01*
X193593356Y-78020687D01*
X193410512Y-78069680D01*
X193241853Y-78155614D01*
X193094743Y-78274743D01*
X192975614Y-78421853D01*
X192889680Y-78590512D01*
X192840687Y-78773356D01*
X192840687Y-78773357D01*
X192834500Y-78851973D01*
X158310500Y-78851973D01*
X158310500Y-77314110D01*
X158310500Y-77314108D01*
X158276392Y-77186814D01*
X158210500Y-77072686D01*
X158117314Y-76979500D01*
X157207314Y-76069500D01*
X157150250Y-76036554D01*
X157093187Y-76003608D01*
X157029539Y-75986554D01*
X156965892Y-75969500D01*
X146315892Y-75969500D01*
X146184107Y-75969500D01*
X146056812Y-76003608D01*
X145942686Y-76069500D01*
X145942683Y-76069502D01*
X145021902Y-76990283D01*
X145021900Y-76990286D01*
X144956008Y-77104412D01*
X144921900Y-77231708D01*
X144921900Y-79079598D01*
X144902215Y-79146637D01*
X144866791Y-79182700D01*
X144841799Y-79199398D01*
X144786433Y-79282260D01*
X144786432Y-79282264D01*
X144771900Y-79355321D01*
X126770500Y-79355321D01*
X126770500Y-54833246D01*
X126770670Y-54826756D01*
X126785184Y-54549817D01*
X126785794Y-54542424D01*
X126792814Y-54480112D01*
X126793553Y-54474658D01*
X126831850Y-54232860D01*
X126833420Y-54224721D01*
X126846105Y-54169144D01*
X126847172Y-54164844D01*
X126912289Y-53921827D01*
X126915007Y-53913016D01*
X126929943Y-53870331D01*
X126931178Y-53866964D01*
X127025746Y-53620603D01*
X127029762Y-53611305D01*
X127039729Y-53590608D01*
X127040863Y-53588318D01*
X127169415Y-53336023D01*
X127175891Y-53324808D01*
X127339819Y-53072380D01*
X127347434Y-53061899D01*
X127536858Y-52827979D01*
X127545525Y-52818354D01*
X127758354Y-52605525D01*
X127767979Y-52596858D01*
X127844818Y-52534635D01*
X139789500Y-52534635D01*
X139789500Y-55330370D01*
X139789501Y-55330376D01*
X139795908Y-55389983D01*
X139846202Y-55524828D01*
X139846206Y-55524835D01*
X139932452Y-55640044D01*
X139932455Y-55640047D01*
X140047664Y-55726293D01*
X140047671Y-55726297D01*
X140182517Y-55776591D01*
X140182515Y-55776591D01*
X140213756Y-55779950D01*
X140278307Y-55806688D01*
X140318155Y-55864081D01*
X140324500Y-55903238D01*
X140324500Y-57421144D01*
X140345755Y-57500470D01*
X140348386Y-57510288D01*
X140394530Y-57590212D01*
X141754788Y-58950470D01*
X141834712Y-58996614D01*
X141923856Y-59020500D01*
X141923857Y-59020500D01*
X141923858Y-59020500D01*
X149756142Y-59020500D01*
X149756144Y-59020500D01*
X149845288Y-58996614D01*
X149925212Y-58950470D01*
X152003863Y-56871819D01*
X152065186Y-56838334D01*
X152091544Y-56835500D01*
X153192209Y-56835500D01*
X153259248Y-56855185D01*
X153305003Y-56907989D01*
X153308391Y-56916167D01*
X153331202Y-56977328D01*
X153331206Y-56977335D01*
X153417452Y-57092544D01*
X153417455Y-57092547D01*
X153532664Y-57178793D01*
X153532671Y-57178797D01*
X153557215Y-57187951D01*
X153667517Y-57229091D01*
X153727127Y-57235500D01*
X154372872Y-57235499D01*
X154432483Y-57229091D01*
X154432482Y-57229091D01*
X154440196Y-57228262D01*
X154440330Y-57229513D01*
X154502243Y-57232827D01*
X154558919Y-57273689D01*
X154584506Y-57338705D01*
X154585000Y-57349767D01*
X154585000Y-57435000D01*
X156675000Y-57435000D01*
X156675000Y-57173856D01*
X167439500Y-57173856D01*
X167439500Y-57187951D01*
X167439500Y-59276143D01*
X167463386Y-59365287D01*
X167463387Y-59365290D01*
X167509527Y-59445208D01*
X167509529Y-59445211D01*
X167509530Y-59445212D01*
X168824788Y-60760470D01*
X168904712Y-60806614D01*
X168993856Y-60830500D01*
X168993858Y-60830500D01*
X183986142Y-60830500D01*
X183986144Y-60830500D01*
X184075288Y-60806614D01*
X184155212Y-60760470D01*
X186475470Y-58440212D01*
X186521614Y-58360288D01*
X186545500Y-58271143D01*
X186545500Y-58178856D01*
X186545500Y-55903238D01*
X186565185Y-55836199D01*
X186617989Y-55790444D01*
X186656247Y-55779948D01*
X186687483Y-55776591D01*
X186822331Y-55726296D01*
X186937546Y-55640046D01*
X187023796Y-55524831D01*
X187074091Y-55389983D01*
X187080500Y-55330373D01*
X187080499Y-52534628D01*
X187074091Y-52475017D01*
X187059143Y-52434940D01*
X187023797Y-52340171D01*
X187023793Y-52340164D01*
X186937547Y-52224955D01*
X186937544Y-52224952D01*
X186822335Y-52138706D01*
X186822328Y-52138702D01*
X186687482Y-52088408D01*
X186687483Y-52088408D01*
X186627883Y-52082001D01*
X186627881Y-52082000D01*
X186627873Y-52082000D01*
X186627864Y-52082000D01*
X185762129Y-52082000D01*
X185762123Y-52082001D01*
X185702516Y-52088408D01*
X185567671Y-52138702D01*
X185567664Y-52138706D01*
X185452455Y-52224952D01*
X185452452Y-52224955D01*
X185366206Y-52340164D01*
X185366202Y-52340171D01*
X185315908Y-52475017D01*
X185313763Y-52494973D01*
X185309501Y-52534623D01*
X185309500Y-52534635D01*
X185309500Y-55330370D01*
X185309501Y-55330376D01*
X185315908Y-55389983D01*
X185366202Y-55524828D01*
X185366206Y-55524835D01*
X185452452Y-55640044D01*
X185452455Y-55640047D01*
X185567664Y-55726293D01*
X185567671Y-55726297D01*
X185702517Y-55776591D01*
X185702515Y-55776591D01*
X185733756Y-55779950D01*
X185798307Y-55806688D01*
X185838155Y-55864081D01*
X185844500Y-55903239D01*
X185844500Y-58028456D01*
X185824815Y-58095495D01*
X185808181Y-58116137D01*
X183831137Y-60093181D01*
X183769814Y-60126666D01*
X183743456Y-60129500D01*
X169236544Y-60129500D01*
X169169505Y-60109815D01*
X169148863Y-60093181D01*
X168176819Y-59121137D01*
X168143334Y-59059814D01*
X168140500Y-59033456D01*
X168140500Y-57416544D01*
X168149144Y-57387103D01*
X168155668Y-57357117D01*
X168159422Y-57352101D01*
X168160185Y-57349505D01*
X168176819Y-57328863D01*
X168198289Y-57307393D01*
X168259612Y-57273908D01*
X168329304Y-57278892D01*
X168360281Y-57295808D01*
X168397664Y-57323793D01*
X168397671Y-57323797D01*
X168411254Y-57328863D01*
X168532517Y-57374091D01*
X168592127Y-57380500D01*
X169237872Y-57380499D01*
X169297483Y-57374091D01*
X169297482Y-57374091D01*
X169305196Y-57373262D01*
X169305330Y-57374513D01*
X169367243Y-57377827D01*
X169423919Y-57418689D01*
X169449506Y-57483705D01*
X169450000Y-57494767D01*
X169450000Y-57580000D01*
X171540000Y-57580000D01*
X171540000Y-55680000D01*
X169450000Y-55680000D01*
X169450000Y-55765232D01*
X169430315Y-55832271D01*
X169377511Y-55878026D01*
X169308353Y-55887970D01*
X169297497Y-55885912D01*
X169297491Y-55885910D01*
X169297483Y-55885909D01*
X169237873Y-55879500D01*
X169237863Y-55879500D01*
X168592129Y-55879500D01*
X168592123Y-55879501D01*
X168532516Y-55885908D01*
X168397671Y-55936202D01*
X168397664Y-55936206D01*
X168282455Y-56022452D01*
X168282452Y-56022455D01*
X168196206Y-56137664D01*
X168196202Y-56137671D01*
X168145908Y-56272517D01*
X168139145Y-56335428D01*
X168137708Y-56335273D01*
X168116338Y-56395737D01*
X168103484Y-56410832D01*
X167509531Y-57004786D01*
X167509527Y-57004791D01*
X167503398Y-57015408D01*
X167503396Y-57015411D01*
X167498149Y-57024501D01*
X167463386Y-57084712D01*
X167439500Y-57173856D01*
X156675000Y-57173856D01*
X156675000Y-55535000D01*
X154585000Y-55535000D01*
X154585000Y-55620232D01*
X154565315Y-55687271D01*
X154512511Y-55733026D01*
X154443353Y-55742970D01*
X154432497Y-55740912D01*
X154432491Y-55740910D01*
X154432483Y-55740909D01*
X154372873Y-55734500D01*
X154372863Y-55734500D01*
X153727129Y-55734500D01*
X153727123Y-55734501D01*
X153667516Y-55740908D01*
X153532671Y-55791202D01*
X153532664Y-55791206D01*
X153417455Y-55877452D01*
X153417452Y-55877455D01*
X153331206Y-55992664D01*
X153331202Y-55992671D01*
X153308391Y-56053833D01*
X153266520Y-56109767D01*
X153201056Y-56134184D01*
X153192209Y-56134500D01*
X151848856Y-56134500D01*
X151759712Y-56158386D01*
X151759709Y-56158387D01*
X151679791Y-56204527D01*
X151679786Y-56204531D01*
X149601137Y-58283181D01*
X149539814Y-58316666D01*
X149513456Y-58319500D01*
X142166544Y-58319500D01*
X142099505Y-58299815D01*
X142078863Y-58283181D01*
X141061819Y-57266137D01*
X141028334Y-57204814D01*
X141025500Y-57178456D01*
X141025500Y-55903238D01*
X141045185Y-55836199D01*
X141097989Y-55790444D01*
X141136247Y-55779948D01*
X141167483Y-55776591D01*
X141302331Y-55726296D01*
X141417546Y-55640046D01*
X141503796Y-55524831D01*
X141554091Y-55389983D01*
X141560500Y-55330373D01*
X141560499Y-52534628D01*
X141554091Y-52475017D01*
X141539143Y-52434940D01*
X141503797Y-52340171D01*
X141503793Y-52340164D01*
X141417547Y-52224955D01*
X141417544Y-52224952D01*
X141302335Y-52138706D01*
X141302328Y-52138702D01*
X141167482Y-52088408D01*
X141167483Y-52088408D01*
X141107883Y-52082001D01*
X141107881Y-52082000D01*
X141107873Y-52082000D01*
X141107864Y-52082000D01*
X140242129Y-52082000D01*
X140242123Y-52082001D01*
X140182516Y-52088408D01*
X140047671Y-52138702D01*
X140047664Y-52138706D01*
X139932455Y-52224952D01*
X139932452Y-52224955D01*
X139846206Y-52340164D01*
X139846202Y-52340171D01*
X139795908Y-52475017D01*
X139793763Y-52494973D01*
X139789501Y-52534623D01*
X139789500Y-52534635D01*
X127844818Y-52534635D01*
X128001899Y-52407434D01*
X128012380Y-52399819D01*
X128264808Y-52235891D01*
X128276023Y-52229415D01*
X128528318Y-52100863D01*
X128530608Y-52099729D01*
X128551305Y-52089762D01*
X128560603Y-52085746D01*
X128806964Y-51991178D01*
X128810331Y-51989943D01*
X128853016Y-51975007D01*
X128861827Y-51972289D01*
X129104844Y-51907172D01*
X129109144Y-51906105D01*
X129164721Y-51893420D01*
X129172860Y-51891850D01*
X129414658Y-51853553D01*
X129420112Y-51852814D01*
X129482430Y-51845793D01*
X129489811Y-51845184D01*
X129766756Y-51830669D01*
X129773246Y-51830500D01*
X216986754Y-51830500D01*
X216993243Y-51830669D01*
G37*
%TD.AperFunction*%
%TD*%
M02*
