M48
; DRILL file {KiCad 9.0.7} date 2026-01-28T06:25:18-0300
; FORMAT={-:-/ absolute / metric / decimal}
; #@! TF.CreationDate,2026-01-28T06:25:18-03:00
; #@! TF.GenerationSoftware,Kicad,Pcbnew,9.0.7
; #@! TF.FileFunction,Plated,1,2,PTH
FMAT,2
METRIC
; #@! TA.AperFunction,Plated,PTH,ComponentDrill
T1C0.200
; #@! TA.AperFunction,Plated,PTH,ViaDrill
T2C0.300
; #@! TA.AperFunction,Plated,PTH,ViaDrill
T3C0.400
; #@! TA.AperFunction,Plated,PTH,ComponentDrill
T4C0.600
; #@! TA.AperFunction,Plated,PTH,ComponentDrill
T5C1.300
; #@! TA.AperFunction,Plated,PTH,ComponentDrill
T6C3.200
%
G90
G05
T1
X152.2Y-111.74
X152.2Y-112.74
X152.2Y-113.74
X153.2Y-111.74
X153.2Y-112.74
X153.2Y-113.74
X154.2Y-111.74
X154.2Y-112.74
X154.2Y-113.74
X161.815Y-93.81
X161.815Y-95.21
X162.515Y-93.11
X162.515Y-94.51
X162.515Y-95.91
X163.215Y-93.81
X163.215Y-95.21
X163.915Y-93.11
X163.915Y-94.51
X163.915Y-95.91
X164.615Y-93.81
X164.615Y-95.21
T2
X152.55Y-117.83
X154.89Y-117.73
T3
X129.83Y-116.43
X129.99Y-119.12
X136.932Y-89.417
X138.735Y-111.447
X140.785Y-89.417
X142.275Y-111.447
X144.832Y-89.417
X149.83Y-119.08
X153.175Y-101.725
X154.27Y-104.76
X154.312Y-80.38
X155.54Y-104.76
X155.81Y-118.99
X156.81Y-104.76
X161.89Y-104.76
X161.947Y-111.61
X163.397Y-83.82
X164.43Y-87.26
X165.7Y-104.76
X166.125Y-111.61
X166.97Y-104.76
X168.24Y-87.26
X169.51Y-87.26
X170.765Y-102.45
X174.02Y-101.7
X175.06Y-114.65
X176.225Y-80.406
X178.285Y-114.525
X179.99Y-93.24
X181.81Y-82.57
X188.39Y-122.01
T6
X208.08Y-90.02
T4
G00X147.795Y-120.635
M15
G01X147.795Y-121.735
M16
G05
G00X147.795Y-124.985
M15
G01X147.795Y-125.785
M16
G05
G00X156.435Y-120.635
M15
G01X156.435Y-121.735
M16
G05
G00X156.435Y-124.985
M15
G01X156.435Y-125.785
M16
G05
T5
G00X193.985Y-79.565
M15
G01X195.185Y-79.565
M16
G05
G00X193.985Y-84.265
M15
G01X195.185Y-84.265
M16
G05
M30
