%TF.GenerationSoftware,KiCad,Pcbnew,9.0.7*%
%TF.CreationDate,2026-01-28T06:25:16-03:00*%
%TF.ProjectId,jammerBT_v4,6a616d6d-6572-4425-945f-76342e6b6963,rev?*%
%TF.SameCoordinates,Original*%
%TF.FileFunction,Paste,Bot*%
%TF.FilePolarity,Positive*%
%FSLAX46Y46*%
G04 Gerber Fmt 4.6, Leading zero omitted, Abs format (unit mm)*
G04 Created by KiCad (PCBNEW 9.0.7) date 2026-01-28 06:25:16*
%MOMM*%
%LPD*%
G01*
G04 APERTURE LIST*
G04 Aperture macros list*
%AMRoundRect*
0 Rectangle with rounded corners*
0 $1 Rounding radius*
0 $2 $3 $4 $5 $6 $7 $8 $9 X,Y pos of 4 corners*
0 Add a 4 corners polygon primitive as box body*
4,1,4,$2,$3,$4,$5,$6,$7,$8,$9,$2,$3,0*
0 Add four circle primitives for the rounded corners*
1,1,$1+$1,$2,$3*
1,1,$1+$1,$4,$5*
1,1,$1+$1,$6,$7*
1,1,$1+$1,$8,$9*
0 Add four rect primitives between the rounded corners*
20,1,$1+$1,$2,$3,$4,$5,0*
20,1,$1+$1,$4,$5,$6,$7,0*
20,1,$1+$1,$6,$7,$8,$9,0*
20,1,$1+$1,$8,$9,$2,$3,0*%
G04 Aperture macros list end*
%ADD10RoundRect,0.242500X0.242500X0.527500X-0.242500X0.527500X-0.242500X-0.527500X0.242500X-0.527500X0*%
%ADD11RoundRect,0.150000X0.825000X0.150000X-0.825000X0.150000X-0.825000X-0.150000X0.825000X-0.150000X0*%
%ADD12RoundRect,0.250001X0.624999X-0.462499X0.624999X0.462499X-0.624999X0.462499X-0.624999X-0.462499X0*%
%ADD13RoundRect,0.250000X-0.625000X0.400000X-0.625000X-0.400000X0.625000X-0.400000X0.625000X0.400000X0*%
%ADD14RoundRect,0.250000X-1.075000X-0.550000X1.075000X-0.550000X1.075000X0.550000X-1.075000X0.550000X0*%
%ADD15RoundRect,0.250000X-1.275000X-1.125000X1.275000X-1.125000X1.275000X1.125000X-1.275000X1.125000X0*%
%ADD16RoundRect,0.250000X-0.850000X-0.350000X0.850000X-0.350000X0.850000X0.350000X-0.850000X0.350000X0*%
%ADD17RoundRect,0.250000X-0.400000X-0.625000X0.400000X-0.625000X0.400000X0.625000X-0.400000X0.625000X0*%
%ADD18RoundRect,0.250000X0.400000X0.625000X-0.400000X0.625000X-0.400000X-0.625000X0.400000X-0.625000X0*%
%ADD19RoundRect,0.395250X2.531000X0.922250X-2.531000X0.922250X-2.531000X-0.922250X2.531000X-0.922250X0*%
%ADD20RoundRect,0.395250X2.517250X0.922250X-2.517250X0.922250X-2.517250X-0.922250X2.517250X-0.922250X0*%
G04 APERTURE END LIST*
D10*
%TO.C,U6*%
X184050000Y-120487500D03*
X184050000Y-122387500D03*
X182850000Y-120487500D03*
X182850000Y-122387500D03*
D11*
X185925000Y-119532500D03*
X185925000Y-120802500D03*
X185925000Y-122072500D03*
X185925000Y-123342500D03*
X180975000Y-123342500D03*
X180975000Y-122072500D03*
X180975000Y-120802500D03*
X180975000Y-119532500D03*
%TD*%
D12*
%TO.C,D3*%
X160675000Y-117707500D03*
X160675000Y-114732500D03*
%TD*%
D13*
%TO.C,R2*%
X144910000Y-86317200D03*
X144910000Y-89417200D03*
%TD*%
D14*
%TO.C,C2*%
X182185000Y-114525000D03*
X185535000Y-114525000D03*
%TD*%
D13*
%TO.C,R5*%
X164955000Y-120560000D03*
X164955000Y-123660000D03*
%TD*%
%TO.C,R1*%
X137010000Y-86317200D03*
X137010000Y-89417200D03*
%TD*%
%TO.C,R3*%
X140785000Y-86317200D03*
X140785000Y-89417200D03*
%TD*%
D14*
%TO.C,C5*%
X181810000Y-82425000D03*
X185160000Y-82425000D03*
%TD*%
D15*
%TO.C,U1*%
X186155000Y-96177500D03*
X186155000Y-99227500D03*
X189505000Y-96177500D03*
X189505000Y-99227500D03*
D16*
X181530000Y-99982500D03*
X181530000Y-95422500D03*
%TD*%
D14*
%TO.C,C4*%
X181860000Y-88850000D03*
X185210000Y-88850000D03*
%TD*%
D17*
%TO.C,R7*%
X189855000Y-119990000D03*
X192955000Y-119990000D03*
%TD*%
D12*
%TO.C,D2*%
X164955000Y-117707500D03*
X164955000Y-114732500D03*
%TD*%
D18*
%TO.C,R4*%
X178160000Y-114650000D03*
X175060000Y-114650000D03*
%TD*%
D14*
%TO.C,C3*%
X182185000Y-106675000D03*
X185535000Y-106675000D03*
%TD*%
D19*
%TO.C,J1*%
X192161250Y-108333750D03*
D20*
X192175000Y-113416250D03*
%TD*%
D13*
%TO.C,R6*%
X160665000Y-120560000D03*
X160665000Y-123660000D03*
%TD*%
M02*
