%TF.GenerationSoftware,KiCad,Pcbnew,9.0.7*%
%TF.CreationDate,2026-01-28T06:25:16-03:00*%
%TF.ProjectId,jammerBT_v4,6a616d6d-6572-4425-945f-76342e6b6963,rev?*%
%TF.SameCoordinates,Original*%
%TF.FileFunction,Legend,Bot*%
%TF.FilePolarity,Positive*%
%FSLAX46Y46*%
G04 Gerber Fmt 4.6, Leading zero omitted, Abs format (unit mm)*
G04 Created by KiCad (PCBNEW 9.0.7) date 2026-01-28 06:25:16*
%MOMM*%
%LPD*%
G01*
G04 APERTURE LIST*
%ADD10C,0.150000*%
%ADD11C,0.187500*%
%ADD12C,0.200000*%
%ADD13C,0.120000*%
G04 APERTURE END LIST*
D10*
X199080000Y-54020000D02*
X217080000Y-54020000D01*
X217080000Y-126020000D01*
X199080000Y-126020000D01*
X199080000Y-54020000D01*
D11*
X207850964Y-70800497D02*
X207922392Y-71014783D01*
X207922392Y-71014783D02*
X207993821Y-71086212D01*
X207993821Y-71086212D02*
X208136678Y-71157640D01*
X208136678Y-71157640D02*
X208350964Y-71157640D01*
X208350964Y-71157640D02*
X208493821Y-71086212D01*
X208493821Y-71086212D02*
X208565250Y-71014783D01*
X208565250Y-71014783D02*
X208636678Y-70871926D01*
X208636678Y-70871926D02*
X208636678Y-70300497D01*
X208636678Y-70300497D02*
X207136678Y-70300497D01*
X207136678Y-70300497D02*
X207136678Y-70800497D01*
X207136678Y-70800497D02*
X207208107Y-70943355D01*
X207208107Y-70943355D02*
X207279535Y-71014783D01*
X207279535Y-71014783D02*
X207422392Y-71086212D01*
X207422392Y-71086212D02*
X207565250Y-71086212D01*
X207565250Y-71086212D02*
X207708107Y-71014783D01*
X207708107Y-71014783D02*
X207779535Y-70943355D01*
X207779535Y-70943355D02*
X207850964Y-70800497D01*
X207850964Y-70800497D02*
X207850964Y-70300497D01*
X208636678Y-72443355D02*
X207850964Y-72443355D01*
X207850964Y-72443355D02*
X207708107Y-72371926D01*
X207708107Y-72371926D02*
X207636678Y-72229069D01*
X207636678Y-72229069D02*
X207636678Y-71943355D01*
X207636678Y-71943355D02*
X207708107Y-71800497D01*
X208565250Y-72443355D02*
X208636678Y-72300497D01*
X208636678Y-72300497D02*
X208636678Y-71943355D01*
X208636678Y-71943355D02*
X208565250Y-71800497D01*
X208565250Y-71800497D02*
X208422392Y-71729069D01*
X208422392Y-71729069D02*
X208279535Y-71729069D01*
X208279535Y-71729069D02*
X208136678Y-71800497D01*
X208136678Y-71800497D02*
X208065250Y-71943355D01*
X208065250Y-71943355D02*
X208065250Y-72300497D01*
X208065250Y-72300497D02*
X207993821Y-72443355D01*
X207636678Y-72943355D02*
X207636678Y-73514783D01*
X207136678Y-73157640D02*
X208422392Y-73157640D01*
X208422392Y-73157640D02*
X208565250Y-73229069D01*
X208565250Y-73229069D02*
X208636678Y-73371926D01*
X208636678Y-73371926D02*
X208636678Y-73514783D01*
X207636678Y-73800498D02*
X207636678Y-74371926D01*
X207136678Y-74014783D02*
X208422392Y-74014783D01*
X208422392Y-74014783D02*
X208565250Y-74086212D01*
X208565250Y-74086212D02*
X208636678Y-74229069D01*
X208636678Y-74229069D02*
X208636678Y-74371926D01*
X208565250Y-75443355D02*
X208636678Y-75300498D01*
X208636678Y-75300498D02*
X208636678Y-75014784D01*
X208636678Y-75014784D02*
X208565250Y-74871926D01*
X208565250Y-74871926D02*
X208422392Y-74800498D01*
X208422392Y-74800498D02*
X207850964Y-74800498D01*
X207850964Y-74800498D02*
X207708107Y-74871926D01*
X207708107Y-74871926D02*
X207636678Y-75014784D01*
X207636678Y-75014784D02*
X207636678Y-75300498D01*
X207636678Y-75300498D02*
X207708107Y-75443355D01*
X207708107Y-75443355D02*
X207850964Y-75514784D01*
X207850964Y-75514784D02*
X207993821Y-75514784D01*
X207993821Y-75514784D02*
X208136678Y-74800498D01*
X208636678Y-76157640D02*
X207636678Y-76157640D01*
X207922392Y-76157640D02*
X207779535Y-76229069D01*
X207779535Y-76229069D02*
X207708107Y-76300498D01*
X207708107Y-76300498D02*
X207636678Y-76443355D01*
X207636678Y-76443355D02*
X207636678Y-76586212D01*
X207636678Y-76943354D02*
X208636678Y-77300497D01*
X207636678Y-77657640D02*
X208636678Y-77300497D01*
X208636678Y-77300497D02*
X208993821Y-77157640D01*
X208993821Y-77157640D02*
X209065250Y-77086211D01*
X209065250Y-77086211D02*
X209136678Y-76943354D01*
X208636678Y-79371925D02*
X207136678Y-79371925D01*
X207850964Y-79371925D02*
X207850964Y-80229068D01*
X208636678Y-80229068D02*
X207136678Y-80229068D01*
X208636678Y-81157640D02*
X208565250Y-81014783D01*
X208565250Y-81014783D02*
X208493821Y-80943354D01*
X208493821Y-80943354D02*
X208350964Y-80871926D01*
X208350964Y-80871926D02*
X207922392Y-80871926D01*
X207922392Y-80871926D02*
X207779535Y-80943354D01*
X207779535Y-80943354D02*
X207708107Y-81014783D01*
X207708107Y-81014783D02*
X207636678Y-81157640D01*
X207636678Y-81157640D02*
X207636678Y-81371926D01*
X207636678Y-81371926D02*
X207708107Y-81514783D01*
X207708107Y-81514783D02*
X207779535Y-81586212D01*
X207779535Y-81586212D02*
X207922392Y-81657640D01*
X207922392Y-81657640D02*
X208350964Y-81657640D01*
X208350964Y-81657640D02*
X208493821Y-81586212D01*
X208493821Y-81586212D02*
X208565250Y-81514783D01*
X208565250Y-81514783D02*
X208636678Y-81371926D01*
X208636678Y-81371926D02*
X208636678Y-81157640D01*
X208636678Y-82514783D02*
X208565250Y-82371926D01*
X208565250Y-82371926D02*
X208422392Y-82300497D01*
X208422392Y-82300497D02*
X207136678Y-82300497D01*
X208636678Y-83729069D02*
X207136678Y-83729069D01*
X208565250Y-83729069D02*
X208636678Y-83586211D01*
X208636678Y-83586211D02*
X208636678Y-83300497D01*
X208636678Y-83300497D02*
X208565250Y-83157640D01*
X208565250Y-83157640D02*
X208493821Y-83086211D01*
X208493821Y-83086211D02*
X208350964Y-83014783D01*
X208350964Y-83014783D02*
X207922392Y-83014783D01*
X207922392Y-83014783D02*
X207779535Y-83086211D01*
X207779535Y-83086211D02*
X207708107Y-83157640D01*
X207708107Y-83157640D02*
X207636678Y-83300497D01*
X207636678Y-83300497D02*
X207636678Y-83586211D01*
X207636678Y-83586211D02*
X207708107Y-83729069D01*
X208565250Y-85014783D02*
X208636678Y-84871926D01*
X208636678Y-84871926D02*
X208636678Y-84586212D01*
X208636678Y-84586212D02*
X208565250Y-84443354D01*
X208565250Y-84443354D02*
X208422392Y-84371926D01*
X208422392Y-84371926D02*
X207850964Y-84371926D01*
X207850964Y-84371926D02*
X207708107Y-84443354D01*
X207708107Y-84443354D02*
X207636678Y-84586212D01*
X207636678Y-84586212D02*
X207636678Y-84871926D01*
X207636678Y-84871926D02*
X207708107Y-85014783D01*
X207708107Y-85014783D02*
X207850964Y-85086212D01*
X207850964Y-85086212D02*
X207993821Y-85086212D01*
X207993821Y-85086212D02*
X208136678Y-84371926D01*
X208636678Y-85729068D02*
X207636678Y-85729068D01*
X207922392Y-85729068D02*
X207779535Y-85800497D01*
X207779535Y-85800497D02*
X207708107Y-85871926D01*
X207708107Y-85871926D02*
X207636678Y-86014783D01*
X207636678Y-86014783D02*
X207636678Y-86157640D01*
D12*
X196681266Y-105253571D02*
X196681266Y-106015476D01*
X197062219Y-105634523D02*
X196300314Y-105634523D01*
X196538409Y-106824999D02*
X196586028Y-106967856D01*
X196586028Y-106967856D02*
X196633647Y-107015475D01*
X196633647Y-107015475D02*
X196728885Y-107063094D01*
X196728885Y-107063094D02*
X196871742Y-107063094D01*
X196871742Y-107063094D02*
X196966980Y-107015475D01*
X196966980Y-107015475D02*
X197014600Y-106967856D01*
X197014600Y-106967856D02*
X197062219Y-106872618D01*
X197062219Y-106872618D02*
X197062219Y-106491666D01*
X197062219Y-106491666D02*
X196062219Y-106491666D01*
X196062219Y-106491666D02*
X196062219Y-106824999D01*
X196062219Y-106824999D02*
X196109838Y-106920237D01*
X196109838Y-106920237D02*
X196157457Y-106967856D01*
X196157457Y-106967856D02*
X196252695Y-107015475D01*
X196252695Y-107015475D02*
X196347933Y-107015475D01*
X196347933Y-107015475D02*
X196443171Y-106967856D01*
X196443171Y-106967856D02*
X196490790Y-106920237D01*
X196490790Y-106920237D02*
X196538409Y-106824999D01*
X196538409Y-106824999D02*
X196538409Y-106491666D01*
X196776504Y-107444047D02*
X196776504Y-107920237D01*
X197062219Y-107348809D02*
X196062219Y-107682142D01*
X196062219Y-107682142D02*
X197062219Y-108015475D01*
X196062219Y-108205952D02*
X196062219Y-108777380D01*
X197062219Y-108491666D02*
X196062219Y-108491666D01*
X196062219Y-108967857D02*
X196062219Y-109539285D01*
X197062219Y-109253571D02*
X196062219Y-109253571D01*
X196756266Y-110678571D02*
X196756266Y-111440476D01*
X196613409Y-112249999D02*
X196661028Y-112392856D01*
X196661028Y-112392856D02*
X196708647Y-112440475D01*
X196708647Y-112440475D02*
X196803885Y-112488094D01*
X196803885Y-112488094D02*
X196946742Y-112488094D01*
X196946742Y-112488094D02*
X197041980Y-112440475D01*
X197041980Y-112440475D02*
X197089600Y-112392856D01*
X197089600Y-112392856D02*
X197137219Y-112297618D01*
X197137219Y-112297618D02*
X197137219Y-111916666D01*
X197137219Y-111916666D02*
X196137219Y-111916666D01*
X196137219Y-111916666D02*
X196137219Y-112249999D01*
X196137219Y-112249999D02*
X196184838Y-112345237D01*
X196184838Y-112345237D02*
X196232457Y-112392856D01*
X196232457Y-112392856D02*
X196327695Y-112440475D01*
X196327695Y-112440475D02*
X196422933Y-112440475D01*
X196422933Y-112440475D02*
X196518171Y-112392856D01*
X196518171Y-112392856D02*
X196565790Y-112345237D01*
X196565790Y-112345237D02*
X196613409Y-112249999D01*
X196613409Y-112249999D02*
X196613409Y-111916666D01*
X196851504Y-112869047D02*
X196851504Y-113345237D01*
X197137219Y-112773809D02*
X196137219Y-113107142D01*
X196137219Y-113107142D02*
X197137219Y-113440475D01*
X196137219Y-113630952D02*
X196137219Y-114202380D01*
X197137219Y-113916666D02*
X196137219Y-113916666D01*
X196137219Y-114392857D02*
X196137219Y-114964285D01*
X197137219Y-114678571D02*
X196137219Y-114678571D01*
D10*
X184211904Y-117492319D02*
X184211904Y-118301842D01*
X184211904Y-118301842D02*
X184164285Y-118397080D01*
X184164285Y-118397080D02*
X184116666Y-118444700D01*
X184116666Y-118444700D02*
X184021428Y-118492319D01*
X184021428Y-118492319D02*
X183830952Y-118492319D01*
X183830952Y-118492319D02*
X183735714Y-118444700D01*
X183735714Y-118444700D02*
X183688095Y-118397080D01*
X183688095Y-118397080D02*
X183640476Y-118301842D01*
X183640476Y-118301842D02*
X183640476Y-117492319D01*
X182735714Y-117492319D02*
X182926190Y-117492319D01*
X182926190Y-117492319D02*
X183021428Y-117539938D01*
X183021428Y-117539938D02*
X183069047Y-117587557D01*
X183069047Y-117587557D02*
X183164285Y-117730414D01*
X183164285Y-117730414D02*
X183211904Y-117920890D01*
X183211904Y-117920890D02*
X183211904Y-118301842D01*
X183211904Y-118301842D02*
X183164285Y-118397080D01*
X183164285Y-118397080D02*
X183116666Y-118444700D01*
X183116666Y-118444700D02*
X183021428Y-118492319D01*
X183021428Y-118492319D02*
X182830952Y-118492319D01*
X182830952Y-118492319D02*
X182735714Y-118444700D01*
X182735714Y-118444700D02*
X182688095Y-118397080D01*
X182688095Y-118397080D02*
X182640476Y-118301842D01*
X182640476Y-118301842D02*
X182640476Y-118063747D01*
X182640476Y-118063747D02*
X182688095Y-117968509D01*
X182688095Y-117968509D02*
X182735714Y-117920890D01*
X182735714Y-117920890D02*
X182830952Y-117873271D01*
X182830952Y-117873271D02*
X183021428Y-117873271D01*
X183021428Y-117873271D02*
X183116666Y-117920890D01*
X183116666Y-117920890D02*
X183164285Y-117968509D01*
X183164285Y-117968509D02*
X183211904Y-118063747D01*
X162959819Y-115481905D02*
X161959819Y-115481905D01*
X161959819Y-115481905D02*
X161959819Y-115720000D01*
X161959819Y-115720000D02*
X162007438Y-115862857D01*
X162007438Y-115862857D02*
X162102676Y-115958095D01*
X162102676Y-115958095D02*
X162197914Y-116005714D01*
X162197914Y-116005714D02*
X162388390Y-116053333D01*
X162388390Y-116053333D02*
X162531247Y-116053333D01*
X162531247Y-116053333D02*
X162721723Y-116005714D01*
X162721723Y-116005714D02*
X162816961Y-115958095D01*
X162816961Y-115958095D02*
X162912200Y-115862857D01*
X162912200Y-115862857D02*
X162959819Y-115720000D01*
X162959819Y-115720000D02*
X162959819Y-115481905D01*
X161959819Y-116386667D02*
X161959819Y-117005714D01*
X161959819Y-117005714D02*
X162340771Y-116672381D01*
X162340771Y-116672381D02*
X162340771Y-116815238D01*
X162340771Y-116815238D02*
X162388390Y-116910476D01*
X162388390Y-116910476D02*
X162436009Y-116958095D01*
X162436009Y-116958095D02*
X162531247Y-117005714D01*
X162531247Y-117005714D02*
X162769342Y-117005714D01*
X162769342Y-117005714D02*
X162864580Y-116958095D01*
X162864580Y-116958095D02*
X162912200Y-116910476D01*
X162912200Y-116910476D02*
X162959819Y-116815238D01*
X162959819Y-116815238D02*
X162959819Y-116529524D01*
X162959819Y-116529524D02*
X162912200Y-116434286D01*
X162912200Y-116434286D02*
X162864580Y-116386667D01*
X143544819Y-87700533D02*
X143068628Y-87367200D01*
X143544819Y-87129105D02*
X142544819Y-87129105D01*
X142544819Y-87129105D02*
X142544819Y-87510057D01*
X142544819Y-87510057D02*
X142592438Y-87605295D01*
X142592438Y-87605295D02*
X142640057Y-87652914D01*
X142640057Y-87652914D02*
X142735295Y-87700533D01*
X142735295Y-87700533D02*
X142878152Y-87700533D01*
X142878152Y-87700533D02*
X142973390Y-87652914D01*
X142973390Y-87652914D02*
X143021009Y-87605295D01*
X143021009Y-87605295D02*
X143068628Y-87510057D01*
X143068628Y-87510057D02*
X143068628Y-87129105D01*
X142640057Y-88081486D02*
X142592438Y-88129105D01*
X142592438Y-88129105D02*
X142544819Y-88224343D01*
X142544819Y-88224343D02*
X142544819Y-88462438D01*
X142544819Y-88462438D02*
X142592438Y-88557676D01*
X142592438Y-88557676D02*
X142640057Y-88605295D01*
X142640057Y-88605295D02*
X142735295Y-88652914D01*
X142735295Y-88652914D02*
X142830533Y-88652914D01*
X142830533Y-88652914D02*
X142973390Y-88605295D01*
X142973390Y-88605295D02*
X143544819Y-88033867D01*
X143544819Y-88033867D02*
X143544819Y-88652914D01*
X187546666Y-116769580D02*
X187594285Y-116817200D01*
X187594285Y-116817200D02*
X187737142Y-116864819D01*
X187737142Y-116864819D02*
X187832380Y-116864819D01*
X187832380Y-116864819D02*
X187975237Y-116817200D01*
X187975237Y-116817200D02*
X188070475Y-116721961D01*
X188070475Y-116721961D02*
X188118094Y-116626723D01*
X188118094Y-116626723D02*
X188165713Y-116436247D01*
X188165713Y-116436247D02*
X188165713Y-116293390D01*
X188165713Y-116293390D02*
X188118094Y-116102914D01*
X188118094Y-116102914D02*
X188070475Y-116007676D01*
X188070475Y-116007676D02*
X187975237Y-115912438D01*
X187975237Y-115912438D02*
X187832380Y-115864819D01*
X187832380Y-115864819D02*
X187737142Y-115864819D01*
X187737142Y-115864819D02*
X187594285Y-115912438D01*
X187594285Y-115912438D02*
X187546666Y-115960057D01*
X187165713Y-115960057D02*
X187118094Y-115912438D01*
X187118094Y-115912438D02*
X187022856Y-115864819D01*
X187022856Y-115864819D02*
X186784761Y-115864819D01*
X186784761Y-115864819D02*
X186689523Y-115912438D01*
X186689523Y-115912438D02*
X186641904Y-115960057D01*
X186641904Y-115960057D02*
X186594285Y-116055295D01*
X186594285Y-116055295D02*
X186594285Y-116150533D01*
X186594285Y-116150533D02*
X186641904Y-116293390D01*
X186641904Y-116293390D02*
X187213332Y-116864819D01*
X187213332Y-116864819D02*
X186594285Y-116864819D01*
X163579819Y-121943333D02*
X163103628Y-121610000D01*
X163579819Y-121371905D02*
X162579819Y-121371905D01*
X162579819Y-121371905D02*
X162579819Y-121752857D01*
X162579819Y-121752857D02*
X162627438Y-121848095D01*
X162627438Y-121848095D02*
X162675057Y-121895714D01*
X162675057Y-121895714D02*
X162770295Y-121943333D01*
X162770295Y-121943333D02*
X162913152Y-121943333D01*
X162913152Y-121943333D02*
X163008390Y-121895714D01*
X163008390Y-121895714D02*
X163056009Y-121848095D01*
X163056009Y-121848095D02*
X163103628Y-121752857D01*
X163103628Y-121752857D02*
X163103628Y-121371905D01*
X162579819Y-122848095D02*
X162579819Y-122371905D01*
X162579819Y-122371905D02*
X163056009Y-122324286D01*
X163056009Y-122324286D02*
X163008390Y-122371905D01*
X163008390Y-122371905D02*
X162960771Y-122467143D01*
X162960771Y-122467143D02*
X162960771Y-122705238D01*
X162960771Y-122705238D02*
X163008390Y-122800476D01*
X163008390Y-122800476D02*
X163056009Y-122848095D01*
X163056009Y-122848095D02*
X163151247Y-122895714D01*
X163151247Y-122895714D02*
X163389342Y-122895714D01*
X163389342Y-122895714D02*
X163484580Y-122848095D01*
X163484580Y-122848095D02*
X163532200Y-122800476D01*
X163532200Y-122800476D02*
X163579819Y-122705238D01*
X163579819Y-122705238D02*
X163579819Y-122467143D01*
X163579819Y-122467143D02*
X163532200Y-122371905D01*
X163532200Y-122371905D02*
X163484580Y-122324286D01*
X135644819Y-87700533D02*
X135168628Y-87367200D01*
X135644819Y-87129105D02*
X134644819Y-87129105D01*
X134644819Y-87129105D02*
X134644819Y-87510057D01*
X134644819Y-87510057D02*
X134692438Y-87605295D01*
X134692438Y-87605295D02*
X134740057Y-87652914D01*
X134740057Y-87652914D02*
X134835295Y-87700533D01*
X134835295Y-87700533D02*
X134978152Y-87700533D01*
X134978152Y-87700533D02*
X135073390Y-87652914D01*
X135073390Y-87652914D02*
X135121009Y-87605295D01*
X135121009Y-87605295D02*
X135168628Y-87510057D01*
X135168628Y-87510057D02*
X135168628Y-87129105D01*
X135644819Y-88652914D02*
X135644819Y-88081486D01*
X135644819Y-88367200D02*
X134644819Y-88367200D01*
X134644819Y-88367200D02*
X134787676Y-88271962D01*
X134787676Y-88271962D02*
X134882914Y-88176724D01*
X134882914Y-88176724D02*
X134930533Y-88081486D01*
X139419819Y-87700533D02*
X138943628Y-87367200D01*
X139419819Y-87129105D02*
X138419819Y-87129105D01*
X138419819Y-87129105D02*
X138419819Y-87510057D01*
X138419819Y-87510057D02*
X138467438Y-87605295D01*
X138467438Y-87605295D02*
X138515057Y-87652914D01*
X138515057Y-87652914D02*
X138610295Y-87700533D01*
X138610295Y-87700533D02*
X138753152Y-87700533D01*
X138753152Y-87700533D02*
X138848390Y-87652914D01*
X138848390Y-87652914D02*
X138896009Y-87605295D01*
X138896009Y-87605295D02*
X138943628Y-87510057D01*
X138943628Y-87510057D02*
X138943628Y-87129105D01*
X138419819Y-88033867D02*
X138419819Y-88652914D01*
X138419819Y-88652914D02*
X138800771Y-88319581D01*
X138800771Y-88319581D02*
X138800771Y-88462438D01*
X138800771Y-88462438D02*
X138848390Y-88557676D01*
X138848390Y-88557676D02*
X138896009Y-88605295D01*
X138896009Y-88605295D02*
X138991247Y-88652914D01*
X138991247Y-88652914D02*
X139229342Y-88652914D01*
X139229342Y-88652914D02*
X139324580Y-88605295D01*
X139324580Y-88605295D02*
X139372200Y-88557676D01*
X139372200Y-88557676D02*
X139419819Y-88462438D01*
X139419819Y-88462438D02*
X139419819Y-88176724D01*
X139419819Y-88176724D02*
X139372200Y-88081486D01*
X139372200Y-88081486D02*
X139324580Y-88033867D01*
X183651666Y-85984580D02*
X183699285Y-86032200D01*
X183699285Y-86032200D02*
X183842142Y-86079819D01*
X183842142Y-86079819D02*
X183937380Y-86079819D01*
X183937380Y-86079819D02*
X184080237Y-86032200D01*
X184080237Y-86032200D02*
X184175475Y-85936961D01*
X184175475Y-85936961D02*
X184223094Y-85841723D01*
X184223094Y-85841723D02*
X184270713Y-85651247D01*
X184270713Y-85651247D02*
X184270713Y-85508390D01*
X184270713Y-85508390D02*
X184223094Y-85317914D01*
X184223094Y-85317914D02*
X184175475Y-85222676D01*
X184175475Y-85222676D02*
X184080237Y-85127438D01*
X184080237Y-85127438D02*
X183937380Y-85079819D01*
X183937380Y-85079819D02*
X183842142Y-85079819D01*
X183842142Y-85079819D02*
X183699285Y-85127438D01*
X183699285Y-85127438D02*
X183651666Y-85175057D01*
X182746904Y-85079819D02*
X183223094Y-85079819D01*
X183223094Y-85079819D02*
X183270713Y-85556009D01*
X183270713Y-85556009D02*
X183223094Y-85508390D01*
X183223094Y-85508390D02*
X183127856Y-85460771D01*
X183127856Y-85460771D02*
X182889761Y-85460771D01*
X182889761Y-85460771D02*
X182794523Y-85508390D01*
X182794523Y-85508390D02*
X182746904Y-85556009D01*
X182746904Y-85556009D02*
X182699285Y-85651247D01*
X182699285Y-85651247D02*
X182699285Y-85889342D01*
X182699285Y-85889342D02*
X182746904Y-85984580D01*
X182746904Y-85984580D02*
X182794523Y-86032200D01*
X182794523Y-86032200D02*
X182889761Y-86079819D01*
X182889761Y-86079819D02*
X183127856Y-86079819D01*
X183127856Y-86079819D02*
X183223094Y-86032200D01*
X183223094Y-86032200D02*
X183270713Y-85984580D01*
X187331904Y-101657319D02*
X187331904Y-102466842D01*
X187331904Y-102466842D02*
X187284285Y-102562080D01*
X187284285Y-102562080D02*
X187236666Y-102609700D01*
X187236666Y-102609700D02*
X187141428Y-102657319D01*
X187141428Y-102657319D02*
X186950952Y-102657319D01*
X186950952Y-102657319D02*
X186855714Y-102609700D01*
X186855714Y-102609700D02*
X186808095Y-102562080D01*
X186808095Y-102562080D02*
X186760476Y-102466842D01*
X186760476Y-102466842D02*
X186760476Y-101657319D01*
X185760476Y-102657319D02*
X186331904Y-102657319D01*
X186046190Y-102657319D02*
X186046190Y-101657319D01*
X186046190Y-101657319D02*
X186141428Y-101800176D01*
X186141428Y-101800176D02*
X186236666Y-101895414D01*
X186236666Y-101895414D02*
X186331904Y-101943033D01*
X183701666Y-92409580D02*
X183749285Y-92457200D01*
X183749285Y-92457200D02*
X183892142Y-92504819D01*
X183892142Y-92504819D02*
X183987380Y-92504819D01*
X183987380Y-92504819D02*
X184130237Y-92457200D01*
X184130237Y-92457200D02*
X184225475Y-92361961D01*
X184225475Y-92361961D02*
X184273094Y-92266723D01*
X184273094Y-92266723D02*
X184320713Y-92076247D01*
X184320713Y-92076247D02*
X184320713Y-91933390D01*
X184320713Y-91933390D02*
X184273094Y-91742914D01*
X184273094Y-91742914D02*
X184225475Y-91647676D01*
X184225475Y-91647676D02*
X184130237Y-91552438D01*
X184130237Y-91552438D02*
X183987380Y-91504819D01*
X183987380Y-91504819D02*
X183892142Y-91504819D01*
X183892142Y-91504819D02*
X183749285Y-91552438D01*
X183749285Y-91552438D02*
X183701666Y-91600057D01*
X182844523Y-91838152D02*
X182844523Y-92504819D01*
X183082618Y-91457200D02*
X183320713Y-92171485D01*
X183320713Y-92171485D02*
X182701666Y-92171485D01*
X191571666Y-122274819D02*
X191904999Y-121798628D01*
X192143094Y-122274819D02*
X192143094Y-121274819D01*
X192143094Y-121274819D02*
X191762142Y-121274819D01*
X191762142Y-121274819D02*
X191666904Y-121322438D01*
X191666904Y-121322438D02*
X191619285Y-121370057D01*
X191619285Y-121370057D02*
X191571666Y-121465295D01*
X191571666Y-121465295D02*
X191571666Y-121608152D01*
X191571666Y-121608152D02*
X191619285Y-121703390D01*
X191619285Y-121703390D02*
X191666904Y-121751009D01*
X191666904Y-121751009D02*
X191762142Y-121798628D01*
X191762142Y-121798628D02*
X192143094Y-121798628D01*
X191238332Y-121274819D02*
X190571666Y-121274819D01*
X190571666Y-121274819D02*
X191000237Y-122274819D01*
X167239819Y-115481905D02*
X166239819Y-115481905D01*
X166239819Y-115481905D02*
X166239819Y-115720000D01*
X166239819Y-115720000D02*
X166287438Y-115862857D01*
X166287438Y-115862857D02*
X166382676Y-115958095D01*
X166382676Y-115958095D02*
X166477914Y-116005714D01*
X166477914Y-116005714D02*
X166668390Y-116053333D01*
X166668390Y-116053333D02*
X166811247Y-116053333D01*
X166811247Y-116053333D02*
X167001723Y-116005714D01*
X167001723Y-116005714D02*
X167096961Y-115958095D01*
X167096961Y-115958095D02*
X167192200Y-115862857D01*
X167192200Y-115862857D02*
X167239819Y-115720000D01*
X167239819Y-115720000D02*
X167239819Y-115481905D01*
X166335057Y-116434286D02*
X166287438Y-116481905D01*
X166287438Y-116481905D02*
X166239819Y-116577143D01*
X166239819Y-116577143D02*
X166239819Y-116815238D01*
X166239819Y-116815238D02*
X166287438Y-116910476D01*
X166287438Y-116910476D02*
X166335057Y-116958095D01*
X166335057Y-116958095D02*
X166430295Y-117005714D01*
X166430295Y-117005714D02*
X166525533Y-117005714D01*
X166525533Y-117005714D02*
X166668390Y-116958095D01*
X166668390Y-116958095D02*
X167239819Y-116386667D01*
X167239819Y-116386667D02*
X167239819Y-117005714D01*
X176776666Y-113284819D02*
X177109999Y-112808628D01*
X177348094Y-113284819D02*
X177348094Y-112284819D01*
X177348094Y-112284819D02*
X176967142Y-112284819D01*
X176967142Y-112284819D02*
X176871904Y-112332438D01*
X176871904Y-112332438D02*
X176824285Y-112380057D01*
X176824285Y-112380057D02*
X176776666Y-112475295D01*
X176776666Y-112475295D02*
X176776666Y-112618152D01*
X176776666Y-112618152D02*
X176824285Y-112713390D01*
X176824285Y-112713390D02*
X176871904Y-112761009D01*
X176871904Y-112761009D02*
X176967142Y-112808628D01*
X176967142Y-112808628D02*
X177348094Y-112808628D01*
X175919523Y-112618152D02*
X175919523Y-113284819D01*
X176157618Y-112237200D02*
X176395713Y-112951485D01*
X176395713Y-112951485D02*
X175776666Y-112951485D01*
X184026666Y-110234580D02*
X184074285Y-110282200D01*
X184074285Y-110282200D02*
X184217142Y-110329819D01*
X184217142Y-110329819D02*
X184312380Y-110329819D01*
X184312380Y-110329819D02*
X184455237Y-110282200D01*
X184455237Y-110282200D02*
X184550475Y-110186961D01*
X184550475Y-110186961D02*
X184598094Y-110091723D01*
X184598094Y-110091723D02*
X184645713Y-109901247D01*
X184645713Y-109901247D02*
X184645713Y-109758390D01*
X184645713Y-109758390D02*
X184598094Y-109567914D01*
X184598094Y-109567914D02*
X184550475Y-109472676D01*
X184550475Y-109472676D02*
X184455237Y-109377438D01*
X184455237Y-109377438D02*
X184312380Y-109329819D01*
X184312380Y-109329819D02*
X184217142Y-109329819D01*
X184217142Y-109329819D02*
X184074285Y-109377438D01*
X184074285Y-109377438D02*
X184026666Y-109425057D01*
X183693332Y-109329819D02*
X183074285Y-109329819D01*
X183074285Y-109329819D02*
X183407618Y-109710771D01*
X183407618Y-109710771D02*
X183264761Y-109710771D01*
X183264761Y-109710771D02*
X183169523Y-109758390D01*
X183169523Y-109758390D02*
X183121904Y-109806009D01*
X183121904Y-109806009D02*
X183074285Y-109901247D01*
X183074285Y-109901247D02*
X183074285Y-110139342D01*
X183074285Y-110139342D02*
X183121904Y-110234580D01*
X183121904Y-110234580D02*
X183169523Y-110282200D01*
X183169523Y-110282200D02*
X183264761Y-110329819D01*
X183264761Y-110329819D02*
X183550475Y-110329819D01*
X183550475Y-110329819D02*
X183645713Y-110282200D01*
X183645713Y-110282200D02*
X183693332Y-110234580D01*
X192968333Y-101871069D02*
X192968333Y-102585354D01*
X192968333Y-102585354D02*
X193015952Y-102728211D01*
X193015952Y-102728211D02*
X193111190Y-102823450D01*
X193111190Y-102823450D02*
X193254047Y-102871069D01*
X193254047Y-102871069D02*
X193349285Y-102871069D01*
X191968333Y-102871069D02*
X192539761Y-102871069D01*
X192254047Y-102871069D02*
X192254047Y-101871069D01*
X192254047Y-101871069D02*
X192349285Y-102013926D01*
X192349285Y-102013926D02*
X192444523Y-102109164D01*
X192444523Y-102109164D02*
X192539761Y-102156783D01*
X159289819Y-121943333D02*
X158813628Y-121610000D01*
X159289819Y-121371905D02*
X158289819Y-121371905D01*
X158289819Y-121371905D02*
X158289819Y-121752857D01*
X158289819Y-121752857D02*
X158337438Y-121848095D01*
X158337438Y-121848095D02*
X158385057Y-121895714D01*
X158385057Y-121895714D02*
X158480295Y-121943333D01*
X158480295Y-121943333D02*
X158623152Y-121943333D01*
X158623152Y-121943333D02*
X158718390Y-121895714D01*
X158718390Y-121895714D02*
X158766009Y-121848095D01*
X158766009Y-121848095D02*
X158813628Y-121752857D01*
X158813628Y-121752857D02*
X158813628Y-121371905D01*
X158289819Y-122800476D02*
X158289819Y-122610000D01*
X158289819Y-122610000D02*
X158337438Y-122514762D01*
X158337438Y-122514762D02*
X158385057Y-122467143D01*
X158385057Y-122467143D02*
X158527914Y-122371905D01*
X158527914Y-122371905D02*
X158718390Y-122324286D01*
X158718390Y-122324286D02*
X159099342Y-122324286D01*
X159099342Y-122324286D02*
X159194580Y-122371905D01*
X159194580Y-122371905D02*
X159242200Y-122419524D01*
X159242200Y-122419524D02*
X159289819Y-122514762D01*
X159289819Y-122514762D02*
X159289819Y-122705238D01*
X159289819Y-122705238D02*
X159242200Y-122800476D01*
X159242200Y-122800476D02*
X159194580Y-122848095D01*
X159194580Y-122848095D02*
X159099342Y-122895714D01*
X159099342Y-122895714D02*
X158861247Y-122895714D01*
X158861247Y-122895714D02*
X158766009Y-122848095D01*
X158766009Y-122848095D02*
X158718390Y-122800476D01*
X158718390Y-122800476D02*
X158670771Y-122705238D01*
X158670771Y-122705238D02*
X158670771Y-122514762D01*
X158670771Y-122514762D02*
X158718390Y-122419524D01*
X158718390Y-122419524D02*
X158766009Y-122371905D01*
X158766009Y-122371905D02*
X158861247Y-122324286D01*
D13*
%TO.C,U6*%
X185510000Y-118877500D02*
X181390000Y-118877500D01*
X185510000Y-118972500D02*
X185510000Y-118877500D01*
X185510000Y-123997500D02*
X185510000Y-123902500D01*
X181390000Y-118877500D02*
X181390000Y-118972500D01*
X181390000Y-123902500D02*
X181390000Y-123997500D01*
X181390000Y-123997500D02*
X185510000Y-123997500D01*
X186050000Y-118967500D02*
X185810000Y-118637500D01*
X186290000Y-118637500D01*
X186050000Y-118967500D01*
G36*
X186050000Y-118967500D02*
G01*
X185810000Y-118637500D01*
X186290000Y-118637500D01*
X186050000Y-118967500D01*
G37*
%TO.C,D3*%
X159540000Y-118680000D02*
X159540000Y-114620000D01*
X161810000Y-114620000D02*
X161810000Y-118680000D01*
X161810000Y-118680000D02*
X159540000Y-118680000D01*
%TO.C,R2*%
X144000000Y-87140136D02*
X144000000Y-88594264D01*
X145820000Y-87140136D02*
X145820000Y-88594264D01*
%TO.C,C2*%
X181600000Y-113329437D02*
X181600000Y-113465000D01*
X181600000Y-113329437D02*
X182664437Y-112265000D01*
X181600000Y-115720563D02*
X181600000Y-115585000D01*
X181600000Y-115720563D02*
X182664437Y-116785000D01*
X182664437Y-112265000D02*
X186120000Y-112265000D01*
X182664437Y-116785000D02*
X186120000Y-116785000D01*
X186120000Y-112265000D02*
X186120000Y-113465000D01*
X186120000Y-116785000D02*
X186120000Y-115585000D01*
%TO.C,R5*%
X164045000Y-121382936D02*
X164045000Y-122837064D01*
X165865000Y-121382936D02*
X165865000Y-122837064D01*
%TO.C,R1*%
X136100000Y-87140136D02*
X136100000Y-88594264D01*
X137920000Y-87140136D02*
X137920000Y-88594264D01*
%TO.C,R3*%
X139875000Y-87140136D02*
X139875000Y-88594264D01*
X141695000Y-87140136D02*
X141695000Y-88594264D01*
%TO.C,C5*%
X181225000Y-81229437D02*
X181225000Y-81365000D01*
X181225000Y-81229437D02*
X182289437Y-80165000D01*
X181225000Y-83620563D02*
X181225000Y-83485000D01*
X181225000Y-83620563D02*
X182289437Y-84685000D01*
X182289437Y-80165000D02*
X185745000Y-80165000D01*
X182289437Y-84685000D02*
X185745000Y-84685000D01*
X185745000Y-80165000D02*
X185745000Y-81365000D01*
X185745000Y-84685000D02*
X185745000Y-83485000D01*
%TO.C,U1*%
X183260000Y-94252500D02*
X183260000Y-94522500D01*
X183260000Y-101152500D02*
X183260000Y-100882500D01*
X189680000Y-94252500D02*
X183260000Y-94252500D01*
X189680000Y-101152500D02*
X183260000Y-101152500D01*
X181870000Y-101312500D02*
X181190000Y-101312500D01*
X181530000Y-100842500D01*
X181870000Y-101312500D01*
G36*
X181870000Y-101312500D02*
G01*
X181190000Y-101312500D01*
X181530000Y-100842500D01*
X181870000Y-101312500D01*
G37*
%TO.C,C4*%
X181275000Y-87654437D02*
X181275000Y-87790000D01*
X181275000Y-87654437D02*
X182339437Y-86590000D01*
X181275000Y-90045563D02*
X181275000Y-89910000D01*
X181275000Y-90045563D02*
X182339437Y-91110000D01*
X182339437Y-86590000D02*
X185795000Y-86590000D01*
X182339437Y-91110000D02*
X185795000Y-91110000D01*
X185795000Y-86590000D02*
X185795000Y-87790000D01*
X185795000Y-91110000D02*
X185795000Y-89910000D01*
%TO.C,R7*%
X190677936Y-119080000D02*
X192132064Y-119080000D01*
X190677936Y-120900000D02*
X192132064Y-120900000D01*
%TO.C,D2*%
X163820000Y-118680000D02*
X163820000Y-114620000D01*
X166090000Y-114620000D02*
X166090000Y-118680000D01*
X166090000Y-118680000D02*
X163820000Y-118680000D01*
%TO.C,R4*%
X177337064Y-113740000D02*
X175882936Y-113740000D01*
X177337064Y-115560000D02*
X175882936Y-115560000D01*
%TO.C,C3*%
X181600000Y-105479437D02*
X181600000Y-105615000D01*
X181600000Y-105479437D02*
X182664437Y-104415000D01*
X181600000Y-107870563D02*
X181600000Y-107735000D01*
X181600000Y-107870563D02*
X182664437Y-108935000D01*
X182664437Y-104415000D02*
X186120000Y-104415000D01*
X182664437Y-108935000D02*
X186120000Y-108935000D01*
X186120000Y-104415000D02*
X186120000Y-105615000D01*
X186120000Y-108935000D02*
X186120000Y-107735000D01*
%TO.C,R6*%
X159755000Y-121382936D02*
X159755000Y-122837064D01*
X161575000Y-121382936D02*
X161575000Y-122837064D01*
%TD*%
M02*
