%TF.GenerationSoftware,KiCad,Pcbnew,9.0.7*%
%TF.CreationDate,2026-01-28T06:25:16-03:00*%
%TF.ProjectId,jammerBT_v4,6a616d6d-6572-4425-945f-76342e6b6963,rev?*%
%TF.SameCoordinates,Original*%
%TF.FileFunction,Soldermask,Top*%
%TF.FilePolarity,Negative*%
%FSLAX46Y46*%
G04 Gerber Fmt 4.6, Leading zero omitted, Abs format (unit mm)*
G04 Created by KiCad (PCBNEW 9.0.7) date 2026-01-28 06:25:16*
%MOMM*%
%LPD*%
G01*
G04 APERTURE LIST*
G04 Aperture macros list*
%AMRoundRect*
0 Rectangle with rounded corners*
0 $1 Rounding radius*
0 $2 $3 $4 $5 $6 $7 $8 $9 X,Y pos of 4 corners*
0 Add a 4 corners polygon primitive as box body*
4,1,4,$2,$3,$4,$5,$6,$7,$8,$9,$2,$3,0*
0 Add four circle primitives for the rounded corners*
1,1,$1+$1,$2,$3*
1,1,$1+$1,$4,$5*
1,1,$1+$1,$6,$7*
1,1,$1+$1,$8,$9*
0 Add four rect primitives between the rounded corners*
20,1,$1+$1,$2,$3,$4,$5,0*
20,1,$1+$1,$4,$5,$6,$7,0*
20,1,$1+$1,$6,$7,$8,$9,0*
20,1,$1+$1,$8,$9,$2,$3,0*%
G04 Aperture macros list end*
%ADD10C,5.600000*%
%ADD11RoundRect,0.250000X-0.625000X0.400000X-0.625000X-0.400000X0.625000X-0.400000X0.625000X0.400000X0*%
%ADD12R,0.900000X1.500000*%
%ADD13R,1.500000X0.900000*%
%ADD14C,0.600000*%
%ADD15R,3.800000X3.800000*%
%ADD16RoundRect,0.250000X-1.050000X-0.550000X1.050000X-0.550000X1.050000X0.550000X-1.050000X0.550000X0*%
%ADD17RoundRect,0.250000X-1.150000X-0.250000X1.150000X-0.250000X1.150000X0.250000X-1.150000X0.250000X0*%
%ADD18RoundRect,0.250000X0.412500X0.650000X-0.412500X0.650000X-0.412500X-0.650000X0.412500X-0.650000X0*%
%ADD19RoundRect,0.250000X0.385000X1.350000X-0.385000X1.350000X-0.385000X-1.350000X0.385000X-1.350000X0*%
%ADD20RoundRect,0.250000X0.425000X1.600000X-0.425000X1.600000X-0.425000X-1.600000X0.425000X-1.600000X0*%
%ADD21RoundRect,0.250000X0.400000X0.625000X-0.400000X0.625000X-0.400000X-0.625000X0.400000X-0.625000X0*%
%ADD22RoundRect,0.250001X0.624999X-0.462499X0.624999X0.462499X-0.624999X0.462499X-0.624999X-0.462499X0*%
%ADD23RoundRect,0.150000X0.587500X0.150000X-0.587500X0.150000X-0.587500X-0.150000X0.587500X-0.150000X0*%
%ADD24RoundRect,0.101600X0.400000X-1.000000X0.400000X1.000000X-0.400000X1.000000X-0.400000X-1.000000X0*%
%ADD25RoundRect,0.101600X1.500000X1.000000X-1.500000X1.000000X-1.500000X-1.000000X1.500000X-1.000000X0*%
%ADD26RoundRect,0.250000X0.625000X-0.400000X0.625000X0.400000X-0.625000X0.400000X-0.625000X-0.400000X0*%
%ADD27C,0.650000*%
%ADD28R,0.600000X1.240000*%
%ADD29R,0.300000X1.240000*%
%ADD30O,1.000000X2.100000*%
%ADD31O,1.000000X1.800000*%
%ADD32R,1.500000X1.000000*%
%ADD33RoundRect,0.250000X-0.412500X-0.650000X0.412500X-0.650000X0.412500X0.650000X-0.412500X0.650000X0*%
%ADD34RoundRect,0.250000X-0.275000X-0.250000X0.275000X-0.250000X0.275000X0.250000X-0.275000X0.250000X0*%
%ADD35RoundRect,0.250000X-0.850000X-0.275000X0.850000X-0.275000X0.850000X0.275000X-0.850000X0.275000X0*%
%ADD36RoundRect,0.250000X0.650000X-0.412500X0.650000X0.412500X-0.650000X0.412500X-0.650000X-0.412500X0*%
%ADD37RoundRect,0.650000X0.850000X-0.650000X0.850000X0.650000X-0.850000X0.650000X-0.850000X-0.650000X0*%
%ADD38RoundRect,0.062500X0.062500X-0.337500X0.062500X0.337500X-0.062500X0.337500X-0.062500X-0.337500X0*%
%ADD39RoundRect,0.062500X0.337500X-0.062500X0.337500X0.062500X-0.337500X0.062500X-0.337500X-0.062500X0*%
%ADD40R,3.350000X3.350000*%
G04 APERTURE END LIST*
%TO.C,J2*%
G36*
X154585000Y-55545000D02*
G01*
X156675000Y-55545000D01*
X156675000Y-57425000D01*
X154585000Y-57425000D01*
X154585000Y-55545000D01*
G37*
%TO.C,J3*%
G36*
X169450000Y-55690000D02*
G01*
X171540000Y-55690000D01*
X171540000Y-57570000D01*
X169450000Y-57570000D01*
X169450000Y-55690000D01*
G37*
%TD*%
D10*
%TO.C,H1*%
X208080000Y-90020000D03*
%TD*%
D11*
%TO.C,R10*%
X141145000Y-121970000D03*
X141145000Y-125070000D03*
%TD*%
D12*
%TO.C,U4*%
X170780000Y-87260000D03*
X169510000Y-87260000D03*
X168240000Y-87260000D03*
X166970000Y-87260000D03*
X165700000Y-87260000D03*
X164430000Y-87260000D03*
X163160000Y-87260000D03*
X161890000Y-87260000D03*
X160620000Y-87260000D03*
X159350000Y-87260000D03*
X158080000Y-87260000D03*
X156810000Y-87260000D03*
X155540000Y-87260000D03*
X154270000Y-87260000D03*
D13*
X153175000Y-90295000D03*
X153175000Y-91565000D03*
X153175000Y-92835000D03*
X153175000Y-94105000D03*
X153175000Y-95375000D03*
X153175000Y-96645000D03*
X153175000Y-97915000D03*
X153175000Y-99185000D03*
X153175000Y-100455000D03*
X153175000Y-101725000D03*
D12*
X154270000Y-104760000D03*
X155540000Y-104760000D03*
X156810000Y-104760000D03*
X158080000Y-104760000D03*
X159350000Y-104760000D03*
X160620000Y-104760000D03*
X161890000Y-104760000D03*
X163160000Y-104760000D03*
X164430000Y-104760000D03*
X165700000Y-104760000D03*
X166970000Y-104760000D03*
X168240000Y-104760000D03*
X169510000Y-104760000D03*
X170780000Y-104760000D03*
D14*
X163915000Y-93110000D03*
X162515000Y-93110000D03*
X164615000Y-93810000D03*
X163215000Y-93810000D03*
X161815000Y-93810000D03*
X163915000Y-94510000D03*
D15*
X163215000Y-94510000D03*
D14*
X162515000Y-94510000D03*
X164615000Y-95210000D03*
X163215000Y-95210000D03*
X161815000Y-95210000D03*
X163915000Y-95910000D03*
X162515000Y-95910000D03*
%TD*%
D16*
%TO.C,C9*%
X166125000Y-111670000D03*
X169725000Y-111670000D03*
%TD*%
D17*
%TO.C,SW2*%
X184925000Y-110070000D03*
X190725000Y-110070000D03*
X184925000Y-114070000D03*
X190725000Y-114070000D03*
%TD*%
D18*
%TO.C,C6*%
X166522500Y-83820000D03*
X163397500Y-83820000D03*
%TD*%
D19*
%TO.C,J4*%
X140675000Y-53932500D03*
D20*
X137850000Y-54182500D03*
X143500000Y-54182500D03*
%TD*%
D21*
%TO.C,R12*%
X138833750Y-114750000D03*
X135733750Y-114750000D03*
%TD*%
D19*
%TO.C,J5*%
X186195000Y-53932500D03*
D20*
X183370000Y-54182500D03*
X189020000Y-54182500D03*
%TD*%
D17*
%TO.C,SW4*%
X184985000Y-90790000D03*
X190785000Y-90790000D03*
X184985000Y-94790000D03*
X190785000Y-94790000D03*
%TD*%
D22*
%TO.C,D5*%
X138735000Y-111447500D03*
X138735000Y-108472500D03*
%TD*%
D23*
%TO.C,Q2*%
X132276250Y-121190000D03*
X132276250Y-119290000D03*
X130401250Y-120240000D03*
%TD*%
D16*
%TO.C,C7*%
X166185000Y-117210000D03*
X169785000Y-117210000D03*
%TD*%
D24*
%TO.C,U5*%
X145422400Y-80380000D03*
X154312400Y-80380000D03*
D25*
X157335000Y-69879900D03*
X142450600Y-67857800D03*
D24*
X146692400Y-80380000D03*
X147962400Y-80380000D03*
X149232400Y-80380000D03*
X150502400Y-80380000D03*
X151772400Y-80380000D03*
X153042400Y-80380000D03*
%TD*%
D26*
%TO.C,R13*%
X195255000Y-100640000D03*
X195255000Y-97540000D03*
%TD*%
D27*
%TO.C,J7*%
X149225000Y-121705000D03*
X155005000Y-121705000D03*
D28*
X148915000Y-120585000D03*
X149715000Y-120585000D03*
D29*
X150865000Y-120585000D03*
X151865000Y-120585000D03*
X152365000Y-120585000D03*
X153365000Y-120585000D03*
D28*
X154515000Y-120585000D03*
X155315000Y-120585000D03*
X155315000Y-120585000D03*
X154515000Y-120585000D03*
D29*
X153865000Y-120585000D03*
X152865000Y-120585000D03*
X151365000Y-120585000D03*
X150365000Y-120585000D03*
D28*
X149715000Y-120585000D03*
X148915000Y-120585000D03*
D30*
X147795000Y-121185000D03*
D31*
X147795000Y-125385000D03*
D30*
X156435000Y-121185000D03*
D31*
X156435000Y-125385000D03*
%TD*%
D24*
%TO.C,U2*%
X167334600Y-80406000D03*
X176224600Y-80406000D03*
D25*
X179247200Y-69905900D03*
X164362800Y-67883800D03*
D24*
X168604600Y-80406000D03*
X169874600Y-80406000D03*
X171144600Y-80406000D03*
X172414600Y-80406000D03*
X173684600Y-80406000D03*
X174954600Y-80406000D03*
%TD*%
D32*
%TO.C,D1*%
X139725000Y-93710000D03*
X139725000Y-95110000D03*
X143225000Y-95110000D03*
X143225000Y-93710000D03*
%TD*%
D23*
%TO.C,Q1*%
X132276250Y-116230000D03*
X132276250Y-114330000D03*
X130401250Y-115280000D03*
%TD*%
D33*
%TO.C,C8*%
X158822500Y-115410000D03*
X161947500Y-115410000D03*
%TD*%
D21*
%TO.C,R11*%
X138833750Y-120480000D03*
X135733750Y-120480000D03*
%TD*%
D34*
%TO.C,J2*%
X154050000Y-56485000D03*
D35*
X155575000Y-55010000D03*
X155575000Y-57960000D03*
%TD*%
D26*
%TO.C,R14*%
X195255000Y-93020000D03*
X195255000Y-89920000D03*
%TD*%
D17*
%TO.C,SW3*%
X184905000Y-100650000D03*
X190705000Y-100650000D03*
X184905000Y-104650000D03*
X190705000Y-104650000D03*
%TD*%
D21*
%TO.C,R8*%
X145345000Y-113920000D03*
X142245000Y-113920000D03*
%TD*%
D36*
%TO.C,C1*%
X195275000Y-106402500D03*
X195275000Y-103277500D03*
%TD*%
D37*
%TO.C,SW1*%
X194585000Y-84265000D03*
X194585000Y-79565000D03*
%TD*%
D34*
%TO.C,J3*%
X168915000Y-56630000D03*
D35*
X170440000Y-55155000D03*
X170440000Y-58105000D03*
%TD*%
D11*
%TO.C,R9*%
X144590000Y-121960000D03*
X144590000Y-125060000D03*
%TD*%
D38*
%TO.C,U3*%
X151700000Y-115190000D03*
X152200000Y-115190000D03*
X152700000Y-115190000D03*
X153200000Y-115190000D03*
X153700000Y-115190000D03*
X154200000Y-115190000D03*
X154700000Y-115190000D03*
D39*
X155650000Y-114240000D03*
X155650000Y-113740000D03*
X155650000Y-113240000D03*
X155650000Y-112740000D03*
X155650000Y-112240000D03*
X155650000Y-111740000D03*
X155650000Y-111240000D03*
D38*
X154700000Y-110290000D03*
X154200000Y-110290000D03*
X153700000Y-110290000D03*
X153200000Y-110290000D03*
X152700000Y-110290000D03*
X152200000Y-110290000D03*
X151700000Y-110290000D03*
D39*
X150750000Y-111240000D03*
X150750000Y-111740000D03*
X150750000Y-112240000D03*
X150750000Y-112740000D03*
X150750000Y-113240000D03*
X150750000Y-113740000D03*
X150750000Y-114240000D03*
D40*
X153200000Y-112740000D03*
%TD*%
D22*
%TO.C,D4*%
X142430000Y-111447500D03*
X142430000Y-108472500D03*
%TD*%
D33*
%TO.C,C10*%
X158822500Y-111610000D03*
X161947500Y-111610000D03*
%TD*%
M02*
